<?xml version="1.0" encoding="UTF-8"?>
<svg width="572px" height="392px" viewBox="0 0 572 392" version="1.1" xmlns="http://www.w3.org/2000/svg" xmlns:xlink="http://www.w3.org/1999/xlink">
    <title>切片</title>
    <defs>
        <polygon id="path-1" points="79.6915878 78.5613358 0.00276997579 78.5613358 13.6125843 0.00457586764 93.3012483 0.00457586764"></polygon>
        <path d="M6.0733258,2.8870569 L0.168814635,36.8190089 C-0.105566855,38.3943697 0.909475383,39.7010165 2.43542427,39.7373079 L2.43542427,39.7373079 L55.3695077,40.9964605 C56.8956104,41.032594 58.354926,39.7851178 58.6289997,38.2095993 L58.6289997,38.2095993 L64.5336648,4.27780508 C64.8077385,2.70228652 63.7931579,1.39563963 62.2669013,1.35934826 L62.2669013,1.35934826 L9.33281786,0.100195722 C9.31096583,0.0994067797 9.28942158,0.0994067797 9.26772343,0.0994067797 L9.26772343,0.0994067797 C7.76562712,0.0994067797 6.34370621,1.3341021 6.0733258,2.8870569 L6.0733258,2.8870569 Z" id="path-3"></path>
        <path d="M6.0733258,2.8870569 L0.168814635,36.8190089 C-0.105566855,38.3943697 0.909475383,39.7010165 2.43542427,39.7373079 L2.43542427,39.7373079 L55.3695077,40.9964605 C56.8956104,41.032594 58.354926,39.7851178 58.6289997,38.2095993 L58.6289997,38.2095993 L64.5336648,4.27780508 C64.8077385,2.70228652 63.7931579,1.39563963 62.2669013,1.35934826 L62.2669013,1.35934826 L9.33281786,0.100195722 C9.31096583,0.0994067797 9.28942158,0.0994067797 9.26772343,0.0994067797 L9.26772343,0.0994067797 C7.76562712,0.0994067797 6.34370621,1.3341021 6.0733258,2.8870569 L6.0733258,2.8870569 Z" id="path-5"></path>
        <polygon id="path-7" points="34.0217659 0.0145165456 251.7671 0.0145165456 217.81997 202.358437 0.0744815712 202.358437"></polygon>
        <polygon id="path-9" points="0.151425343 151.549107 24.193738 0.0665867635 131.054326 0.0665867635 107.955036 151.549107"></polygon>
        <path d="M76.0843099,33.5846594 C65.3397277,71.2468902 49.5811816,68.08323 25.7641603,82.2215565 L25.7641603,82.2215565 C1.9469852,96.359883 -7.00680764,115.272259 6.37925424,145.385255 L6.37925424,145.385255 C19.7650083,175.497936 57.9975991,176.048776 110.287817,177.334121 L110.287817,177.334121 C162.577881,178.619309 176.814326,121.469247 183.664168,101.914197 L183.664168,101.914197 C190.513702,82.3591481 196.02026,51.0985561 189.842137,34.435613 L189.842137,34.435613 C183.664168,17.7726699 164.978527,4.78635755 156.131224,2.62433898 L156.131224,2.62433898 C150.556186,1.26199274 142.361828,0.125441823 133.274923,0.125441823 L133.274923,0.125441823 C111.130813,0.125441823 83.7026667,6.88036925 76.0843099,33.5846594 L76.0843099,33.5846594 Z" id="path-11"></path>
        <path d="M1.82495238,10.0997288 C-2.11472263,14.8734633 0.929480764,22.218362 6.89877858,29.8688971 L6.89877858,29.8688971 C12.8679225,37.5194322 15.4944751,40.0901231 15.4944751,40.0901231 L15.4944751,40.0901231 L22.4186451,33.2351578 C22.4186451,33.2351578 17.2851106,26.8698103 13.6439774,21.6063002 L13.6439774,21.6063002 C10.0028442,16.3424746 8.51044283,14.934843 13.1664644,13.5272115 L13.1664644,13.5272115 C17.8224859,12.1194221 29.2235523,8.14109968 29.2235523,8.14109968 L29.2235523,8.14109968 L29.7607737,0.000788942696 C29.7607737,0.000788942696 5.76478128,5.32567877 1.82495238,10.0997288 L1.82495238,10.0997288 Z" id="path-13"></path>
        <path d="M49.3752801,0.585553269 C49.3752801,0.585553269 5.46808609,4.15078531 1.03612483,9.108659 L1.03612483,9.108659 C-3.39599031,14.0660593 8.42303471,66.3964705 8.42303471,66.3964705 L8.42303471,66.3964705 C8.42303471,66.3964705 18.0930202,71.3541864 23.1967006,65.7080391 L23.1967006,65.7080391 C23.1967006,65.7080391 21.047661,27.1735533 17.1527673,18.8296953 L17.1527673,18.8296953 L48.8045112,20.4007958 L69.9354253,2.36067433 L53.4157514,0.0195657789 L49.3752801,0.585553269 Z" id="path-15"></path>
        <path d="M89.542699,1.05260734 C89.542699,1.05260734 73.2669368,13.7220803 60.3734689,22.9487651 L60.3734689,22.9487651 C47.480155,32.1752922 15.6494399,54.7598814 0.0698649448,56.6878995 L0.0698649448,56.6878995 C0.0698649448,56.6878995 0.875620124,68.3934423 6.3821781,70.5968015 L6.3821781,70.5968015 C6.3821781,70.5968015 31.7660823,62.0587058 61.5822556,47.4613725 L61.5822556,47.4613725 C91.398275,32.8640391 108.052447,22.5355169 112.618906,13.7220803 L112.618906,13.7220803 L93.5473145,0.0885193705 L89.542699,1.05260734 Z" id="path-17"></path>
        <path d="M11.7516223,9.33271872 C11.7516223,9.33271872 24.465965,21.4515097 22.6694818,27.6024225 L22.6694818,27.6024225 C20.8728448,33.7536509 15.8704224,51.5643479 12.8260651,56.3382401 L12.8260651,56.3382401 C9.78170783,61.1124479 0.0221598063,64.9377155 0.0221598063,64.9377155 L0.0221598063,64.9377155 C0.0221598063,64.9377155 20.8843863,71.486571 27.1520721,77.8213075 L27.1520721,77.8213075 C33.4197579,84.156044 37.1801539,83.3298632 37.1801539,83.3298632 L37.1801539,83.3298632 C44.5224364,80.0246667 48.7306451,63.5911481 50.4318719,58.908931 L50.4318719,58.908931 C52.1332526,54.2267139 55.7146774,44.2197647 55.7146774,44.2197647 L55.7146774,44.2197647 L60.2811364,43.3935839 C60.2811364,43.3935839 65.8026215,28.0309762 65.2056917,21.1149467 L65.2056917,21.1149467 C64.6087619,14.1986017 60.6690869,10.7100549 56.7294119,8.95023931 L56.7294119,8.95023931 C52.7897369,7.19026594 50.6408512,6.42562268 50.6408512,6.42562268 L50.6408512,6.42562268 L49.9245047,6.24195682 L40.9111574,6.36440073 C40.9111574,6.36440073 34.2256669,3.54897982 29.0921324,3.67126594 L29.0921324,3.67126594 C23.9585978,3.79386764 20.8843863,0.152108152 20.8843863,0.152108152 L20.8843863,0.152108152 C15.1540759,3.08997296 11.7516223,9.33271872 11.7516223,9.33271872 L11.7516223,9.33271872 Z" id="path-19"></path>
        <path d="M11.7516223,9.33271872 C11.7516223,9.33271872 24.465965,21.4515097 22.6694818,27.6024225 L22.6694818,27.6024225 C20.8728448,33.7536509 15.8704224,51.5643479 12.8260651,56.3382401 L12.8260651,56.3382401 C9.78170783,61.1124479 0.0221598063,64.9377155 0.0221598063,64.9377155 L0.0221598063,64.9377155 C0.0221598063,64.9377155 20.8843863,71.486571 27.1520721,77.8213075 L27.1520721,77.8213075 C33.4197579,84.156044 37.1801539,83.3298632 37.1801539,83.3298632 L37.1801539,83.3298632 C44.5224364,80.0246667 48.7306451,63.5911481 50.4318719,58.908931 L50.4318719,58.908931 C52.1332526,54.2267139 55.7146774,44.2197647 55.7146774,44.2197647 L55.7146774,44.2197647 L60.2811364,43.3935839 C60.2811364,43.3935839 65.8026215,28.0309762 65.2056917,21.1149467 L65.2056917,21.1149467 C64.6087619,14.1986017 60.6690869,10.7100549 56.7294119,8.95023931 L56.7294119,8.95023931 C52.7897369,7.19026594 50.6408512,6.42562268 50.6408512,6.42562268 L50.6408512,6.42562268 L49.9245047,6.24195682 L40.9111574,6.36440073 C40.9111574,6.36440073 34.2256669,3.54897982 29.0921324,3.67126594 L29.0921324,3.67126594 C23.9585978,3.79386764 20.8843863,0.152108152 20.8843863,0.152108152 L20.8843863,0.152108152 C15.1540759,3.08997296 11.7516223,9.33271872 11.7516223,9.33271872 L11.7516223,9.33271872 Z" id="path-21"></path>
        <path d="M11.7516223,9.33271872 C11.7516223,9.33271872 24.465965,21.4515097 22.6694818,27.6024225 L22.6694818,27.6024225 C20.8728448,33.7536509 15.8704224,51.5643479 12.8260651,56.3382401 L12.8260651,56.3382401 C9.78170783,61.1124479 0.0221598063,64.9377155 0.0221598063,64.9377155 L0.0221598063,64.9377155 C0.0221598063,64.9377155 20.8843863,71.486571 27.1520721,77.8213075 L27.1520721,77.8213075 C33.4197579,84.156044 37.1801539,83.3298632 37.1801539,83.3298632 L37.1801539,83.3298632 C44.5224364,80.0246667 48.7306451,63.5911481 50.4318719,58.908931 L50.4318719,58.908931 C52.1332526,54.2267139 55.7146774,44.2197647 55.7146774,44.2197647 L55.7146774,44.2197647 L60.2811364,43.3935839 C60.2811364,43.3935839 65.8026215,28.0309762 65.2056917,21.1149467 L65.2056917,21.1149467 C64.6087619,14.1986017 60.6690869,10.7100549 56.7294119,8.95023931 L56.7294119,8.95023931 C52.7897369,7.19026594 50.6408512,6.42562268 50.6408512,6.42562268 L50.6408512,6.42562268 L49.9245047,6.24195682 L40.9111574,6.36440073 C40.9111574,6.36440073 34.2256669,3.54897982 29.0921324,3.67126594 L29.0921324,3.67126594 C23.9585978,3.79386764 20.8843863,0.152108152 20.8843863,0.152108152 L20.8843863,0.152108152 C15.1540759,3.08997296 11.7516223,9.33271872 11.7516223,9.33271872" id="path-23"></path>
        <path d="M11.7516223,9.33271872 C11.7516223,9.33271872 24.465965,21.4515097 22.6694818,27.6024225 L22.6694818,27.6024225 C20.8728448,33.7536509 15.8704224,51.5643479 12.8260651,56.3382401 L12.8260651,56.3382401 C9.78170783,61.1124479 0.0221598063,64.9377155 0.0221598063,64.9377155 L0.0221598063,64.9377155 C0.0221598063,64.9377155 20.8843863,71.486571 27.1520721,77.8213075 L27.1520721,77.8213075 C33.4197579,84.156044 37.1801539,83.3298632 37.1801539,83.3298632 L37.1801539,83.3298632 C44.5224364,80.0246667 48.7306451,63.5911481 50.4318719,58.908931 L50.4318719,58.908931 C52.1332526,54.2267139 55.7146774,44.2197647 55.7146774,44.2197647 L55.7146774,44.2197647 L60.2811364,43.3935839 C60.2811364,43.3935839 65.8026215,28.0309762 65.2056917,21.1149467 L65.2056917,21.1149467 C64.6087619,14.1986017 60.6690869,10.7100549 56.7294119,8.95023931 L56.7294119,8.95023931 C52.7897369,7.19026594 50.6408512,6.42562268 50.6408512,6.42562268 L50.6408512,6.42562268 L49.9245047,6.24195682 L40.9111574,6.36440073 C40.9111574,6.36440073 34.2256669,3.54897982 29.0921324,3.67126594 L29.0921324,3.67126594 C23.9585978,3.79386764 20.8843863,0.152108152 20.8843863,0.152108152 L20.8843863,0.152108152 C15.1540759,3.08997296 11.7516223,9.33271872 11.7516223,9.33271872 L11.7516223,9.33271872 Z" id="path-25"></path>
        <path d="M44.7632704,1.02183858 C44.7632704,1.02183858 41.8980382,10.8760484 38.3166134,12.1001719 L38.3166134,12.1001719 C34.7350347,13.3241376 15.3053473,24.032299 15.3053473,24.032299 L15.3053473,24.032299 C15.3053473,24.032299 0.531681464,22.6579609 0.128649987,27.7991848 L0.128649987,27.7991848 C-0.274227603,32.9404088 16.514134,28.9926973 16.514134,28.9926973 L16.514134,28.9926973 C16.514134,28.9926973 32.4518052,24.1269722 37.6002669,21.8317801 L37.6002669,21.8317801 C42.7485747,19.5364302 46.9569373,17.2871546 48.3000678,14.7166215 L48.3000678,14.7166215 C49.6430444,12.1460884 53.1796879,1.9095569 53.1796879,1.9095569 L53.1796879,1.9095569 C53.1796879,1.9095569 49.3946699,0.00536474141 46.8475233,0.00536474141 L46.8475233,0.00536474141 C45.8868033,0.00536474141 45.1024385,0.275972155 44.7632704,1.02183858 L44.7632704,1.02183858 Z" id="path-27"></path>
        <path d="M8.47027818,0.32835795 C5.06782459,1.475954 0.590928168,3.26606497 0.098488028,9.09587813 L0.098488028,9.09587813 C-0.393952112,14.9256913 2.87415765,17.1290504 2.87415765,17.1290504 L2.87415765,17.1290504 C2.87415765,17.1290504 1.66552489,18.7356533 2.2027463,22.5457732 L2.2027463,22.5457732 C2.73981383,26.3557353 7.21686414,25.8968862 7.21686414,25.8968862 L7.21686414,25.8968862 L25.7062986,42.4222377 C25.7062986,42.4222377 35.4660005,38.6580343 39.5400194,31.4510428 L39.5400194,31.4510428 C43.6138843,24.244209 40.0770869,17.2208834 40.0770869,17.2208834 L40.0770869,17.2208834 L43.3004154,15.568364 L42.629004,14.6044338 L39.629428,16.8076352 C39.629428,16.8076352 38.1073263,10.2893906 30.9891041,6.5712615 L30.9891041,6.5712615 C23.870728,2.85297458 17.5584149,7.03011057 17.5584149,7.03011057 L17.5584149,7.03011057 C16.2785321,2.55333414 13.1319935,0.0558571429 10.1401119,0.0558571429 L10.1401119,0.0558571429 C9.57349798,0.0558571429 9.01211622,0.145638822 8.47027818,0.32835795" id="path-29"></path>
        <path d="M8.47027818,0.32835795 C5.06782459,1.475954 0.590928168,3.26606497 0.098488028,9.09587813 L0.098488028,9.09587813 C-0.393952112,14.9256913 2.87415765,17.1290504 2.87415765,17.1290504 L2.87415765,17.1290504 C2.87415765,17.1290504 1.66552489,18.7356533 2.2027463,22.5457732 L2.2027463,22.5457732 C2.73981383,26.3557353 7.21686414,25.8968862 7.21686414,25.8968862 L7.21686414,25.8968862 L25.7062986,42.4222377 C25.7062986,42.4222377 35.4660005,38.6580343 39.5400194,31.4510428 L39.5400194,31.4510428 C43.6138843,24.244209 40.0770869,17.2208834 40.0770869,17.2208834 L40.0770869,17.2208834 L43.3004154,15.568364 L42.629004,14.6044338 L39.629428,16.8076352 C39.629428,16.8076352 38.1073263,10.2893906 30.9891041,6.5712615 L30.9891041,6.5712615 C23.870728,2.85297458 17.5584149,7.03011057 17.5584149,7.03011057 L17.5584149,7.03011057 C16.2785321,2.55333414 13.1319935,0.0558571429 10.1401119,0.0558571429 L10.1401119,0.0558571429 C9.57349798,0.0558571429 9.01211622,0.145638822 8.47027818,0.32835795 L8.47027818,0.32835795 Z" id="path-31"></path>
        <path d="M2.31939306,21.2680016 C4.16219639,22.317611 6.33447296,21.9272421 8.19743557,21.5367155 L8.19743557,21.5367155 C10.1362647,21.13041 11.7400807,20.7239467 12.2880743,21.9411275 L12.2880743,21.9411275 C13.3625171,24.3281525 12.2880743,28.6125847 12.2880743,28.6125847 L12.2880743,28.6125847 C12.2880743,28.6125847 13.2431003,31.4280056 17.0635125,31.1832756 L17.0635125,31.1832756 C20.8837708,30.9383878 22.0177681,28.6738067 22.0177681,28.6738067 L22.0177681,28.6738067 C22.0177681,28.6738067 19.4510778,23.7773128 20.7642002,19.2481505 L20.7642002,19.2481505 C22.0774765,14.7191461 21.540255,13.0666267 21.540255,13.0666267 L21.540255,13.0666267 C21.540255,13.0666267 24.5846123,11.9035674 23.271336,7.19073931 L23.271336,7.19073931 C21.9580597,2.4782268 19.630049,6.39532728 19.630049,6.39532728 L19.630049,6.39532728 C19.630049,6.39532728 16.7052623,9.45547821 14.0190013,4.68142817 L14.0190013,4.68142817 C14.0190013,4.68142817 11.8925833,5.64535835 10.9523304,3.55671146 L10.9523304,3.55671146 C10.0122314,1.46822236 10.6167016,0.320626312 10.6167016,0.320626312 L10.6167016,0.320626312 C10.6167016,0.320626312 7.32612429,3.71734019 4.3042346,2.31744027 L4.3042346,2.31744027 C1.28219101,0.917382567 0.707728814,0.0910439871 0.707728814,0.0910439871 L0.707728814,0.0910439871 C0.707728814,0.0910439871 -1.44115685,19.1258644 2.31939306,21.2680016 L2.31939306,21.2680016 Z" id="path-33"></path>
        <path d="M2.31939306,21.2680016 C4.16219639,22.317611 6.33447296,21.9272421 8.19743557,21.5367155 L8.19743557,21.5367155 C10.1362647,21.13041 11.7400807,20.7239467 12.2880743,21.9411275 L12.2880743,21.9411275 C13.3625171,24.3281525 12.2880743,28.6125847 12.2880743,28.6125847 L12.2880743,28.6125847 C12.2880743,28.6125847 13.2431003,31.4280056 17.0635125,31.1832756 L17.0635125,31.1832756 C20.8837708,30.9383878 22.0177681,28.6738067 22.0177681,28.6738067 L22.0177681,28.6738067 C22.0177681,28.6738067 19.4510778,23.7773128 20.7642002,19.2481505 L20.7642002,19.2481505 C22.0774765,14.7191461 21.540255,13.0666267 21.540255,13.0666267 L21.540255,13.0666267 C21.540255,13.0666267 24.5846123,11.9035674 23.271336,7.19073931 L23.271336,7.19073931 C21.9580597,2.4782268 19.630049,6.39532728 19.630049,6.39532728 L19.630049,6.39532728 C19.630049,6.39532728 16.7052623,9.45547821 14.0190013,4.68142817 L14.0190013,4.68142817 C14.0190013,4.68142817 11.8925833,5.64535835 10.9523304,3.55671146 L10.9523304,3.55671146 C10.0122314,1.46822236 10.6167016,0.320626312 10.6167016,0.320626312 L10.6167016,0.320626312 C10.6167016,0.320626312 7.32612429,3.71734019 4.3042346,2.31744027 L4.3042346,2.31744027 C1.28219101,0.917382567 0.707728814,0.0910439871 0.707728814,0.0910439871 L0.707728814,0.0910439871 C0.707728814,0.0910439871 -1.44115685,19.1258644 2.31939306,21.2680016 L2.31939306,21.2680016 Z" id="path-35"></path>
    </defs>
    <g id="网页" stroke="none" stroke-width="1" fill="none" fill-rule="evenodd">
        <g id="产品介绍" transform="translate(-999.000000, -149.000000)">
            <g id="banner" transform="translate(-1.000000, 75.000000)">
                <g id="插画/关于产品" transform="translate(1000.000000, 74.500000)">
                    <g id="关于产品" transform="translate(0.000000, 25.024000)">
                        <g id="Group-22" transform="translate(0.923325, 74.334181)">
                            <path d="M2.73976766,128.460352 C2.73976766,128.460352 15.5252065,143.559768 24.2192371,156.669313 C32.9132678,169.778701 33.6803972,188.656522 30.8676407,196.522123 C30.8676407,196.522123 18.5935702,189.44294 10.4110617,178.431035 C2.22839935,167.419131 -3.39711369,145.085899 2.73976766,128.460352" id="Fill-1" fill="#6C90FE"></path>
                            <path d="M48.1278061,87.451363 C48.1278061,87.451363 28.5662371,95.7942742 20.6393358,128.460289 C12.7122807,161.126619 37.1323872,195.866764 37.1323872,195.866764 C37.1323872,195.866764 48.1278061,181.577276 53.3698314,173.44943 C58.6118567,165.321585 66.0273896,144.477561 63.0867525,126.910805 C60.1461155,109.344207 48.1278061,87.451363 48.1278061,87.451363" id="Fill-3" fill="#4153F1"></path>
                            <path d="M44.1643708,101.347389 C44.1643708,101.347389 26.3926679,135.038714 37.1324795,195.866669" id="Stroke-5" stroke="#002387" stroke-width="6" stroke-linecap="round" stroke-linejoin="round"></path>
                            <path d="M3.50688168,136.087518 C3.50688168,136.087518 10.0463328,178.655079 30.8676253,196.522107" id="Stroke-7" stroke="#002387" stroke-width="6" stroke-linecap="round" stroke-linejoin="round"></path>
                            <path d="M5.55258574,193.952158 C5.55258574,193.952158 32.1461999,189.546702 56.1826648,193.952158 L42.203982,257.525476 L17.6559949,257.525476 L5.55258574,193.952158 Z" id="Fill-9" fill="#D4E2FF"></path>
                            <polygon id="Fill-11" fill="#002387" points="202.954295 197.207319 200.597507 239.438791 280.52285 239.438791 284.612873 197.207319"></polygon>
                            <path d="M307.713548,257.525523 L173.406809,257.525523 C169.747517,257.525523 166.781027,254.483991 166.781027,250.73178 L166.781027,243.524946 C166.781027,239.772734 169.747517,236.731202 173.406809,236.731202 L307.713548,236.731202 C311.37284,236.731202 314.339484,239.772734 314.339484,243.524946 L314.339484,250.73178 C314.339484,254.483991 311.37284,257.525523 307.713548,257.525523" id="Fill-13" fill="#8DB7FF"></path>
                            <g id="Group-17" transform="translate(462.432069, 0.000000)">
                                <mask id="mask-2" fill="white">
                                    <use xlink:href="#path-1"></use>
                                </mask>
                                <use id="Clip-16" fill-opacity="0.5" fill="#FFDDAC" xlink:href="#path-1"></use>
                                <polygon id="Fill-15" mask="url(#mask-2)" points="79.6915878 78.5613358 0.00276997579 78.5613358 13.6125843 0.00457586764 93.3012483 0.00457586764"></polygon>
                            </g>
                            <path d="M487.399199,17.6783281 C486.116085,17.6478749 484.884523,18.7007979 484.654,20.0255904 L478.749488,53.9573846 C478.518965,55.2821772 479.375195,56.3849613 480.658309,56.4154145 L533.592701,57.6744092 C534.962761,57.7072293 536.130306,56.5197127 536.431772,54.7871946 L542.336437,20.8554004 C542.463856,20.1226304 541.661178,18.9691962 540.333437,18.9374807 L487.399199,17.6783281 Z M533.436043,58.5747506 L480.501806,57.3155981 C478.737947,57.2734686 477.560553,55.7579096 477.877562,53.9367143 L483.782073,20.0049201 C484.099081,18.1837248 485.791998,16.7361728 487.556011,16.7781445 L540.490094,18.0372971 C542.291656,18.0802155 543.430577,19.5984569 543.208364,20.8762285 L537.303699,54.8078649 C536.909901,57.0705525 535.319473,58.6195626 533.436043,58.5747506 L533.436043,58.5747506 Z" id="Fill-18" fill="#E88400"></path>
                            <path d="M531.497599,59.6155554 L478.563515,58.3564029 C477.037413,58.3201115 476.022678,57.0134646 476.296906,55.437946 L482.201417,21.5061519 C482.475644,19.9306333 483.93496,18.6828415 485.460909,18.7191329 L538.394992,19.9782854 C539.921095,20.0145768 540.93583,21.3213815 540.661756,22.8967423 L534.757091,56.8285364 C534.482863,58.404055 533.023701,59.651689 531.497599,59.6155554" id="Fill-20" fill="#FCAA23"></path>
                        </g>
                        <g id="Group-29" transform="translate(477.051386, 92.953228)">
                            <g id="Group-25">
                                <mask id="mask-4" fill="white">
                                    <use xlink:href="#path-3"></use>
                                </mask>
                                <g id="Clip-24"></g>
                                <polygon id="Fill-23" fill="#E88400" mask="url(#mask-4)" points="5.15124703 3.08967316 31.3058201 21.878659 64.6647924 5.56064169 64.4591986 8.42024338 31.4230824 24.1429246 3.84597288 4.71694637"></polygon>
                            </g>
                            <g id="Group-28">
                                <mask id="mask-6" fill="white">
                                    <use xlink:href="#path-5"></use>
                                </mask>
                                <g id="Clip-27"></g>
                                <polygon id="Fill-26" fill="#FFDC8F" mask="url(#mask-6)" points="2.57092225 1.97466045 31.5947285 22.5263021 65.3992053 5.95503414 65.1931499 0.90769435 3.30481195 -0.56447272"></polygon>
                            </g>
                        </g>
                        <g id="Group-133" transform="translate(0.000000, 0.015779)">
                            <path d="M379.274256,277.76853 L102.416254,277.76853 C93.6956005,277.76853 87.131989,269.625221 88.7745847,260.843342 L122.39532,81.1086266 C123.650273,74.3996157 129.374428,69.5490382 136.036989,69.5490382 L412.894991,69.5490382 C421.615645,69.5490382 428.179256,77.6925047 426.536507,86.4742259 L392.915772,266.208942 C391.660819,272.91811 385.936818,277.76853 379.274256,277.76853" id="Fill-30" fill="#1D7CE4"></path>
                            <path d="M372.505621,277.76853 L95.6476179,277.76853 C86.9269646,277.76853 80.3633531,269.625221 82.0059488,260.843342 L115.626684,81.1086266 C116.881637,74.3996157 122.605792,69.5490382 129.268353,69.5490382 L406.126356,69.5490382 C414.847009,69.5490382 421.41062,77.6925047 419.767871,86.4742259 L386.147136,266.208942 C384.892183,272.91811 379.168182,277.76853 372.505621,277.76853" id="Fill-32" fill="#8DB7FF"></path>
                            <path d="M360.258034,265.061772 L112.648975,265.061772 C103.928322,265.061772 97.3645566,256.918463 99.0073061,248.136584 L127.874147,93.8154481 C129.1291,87.1062794 134.853409,82.2557019 141.515816,82.2557019 L389.124875,82.2557019 C397.845682,82.2557019 404.409294,90.3993262 402.766544,99.1810474 L373.899703,253.502183 C372.64475,260.211352 366.920595,265.061772 360.258034,265.061772" id="Fill-34" fill="#FFFFFF"></path>
                            <polygon id="Fill-36" fill-opacity="0.3" fill="#00084F" points="357.206875 250.272189 138.448499 250.272189 171.464918 69.7699895 390.223294 69.7699895"></polygon>
                            <polyline id="Stroke-38" stroke="#9FC4FF" stroke-width="12" points="376.198014 37.2414877 445.629765 37.2414877 429.423406 113.6012 464.96989 113.6012"></polyline>
                            <path d="M472.267268,113.601279 C472.267268,116.187275 470.222872,118.283496 467.700809,118.283496 C465.178746,118.283496 463.13435,116.187275 463.13435,113.601279 C463.13435,111.01544 465.178746,108.919062 467.700809,108.919062 C470.222872,108.919062 472.267268,111.01544 472.267268,113.601279" id="Fill-40" fill="#9FC4FF"></path>
                            <polyline id="Stroke-42" stroke="#9FC4FF" stroke-width="12" points="300.936633 235.169932 291.62459 287.683851 335.677361 287.683851"></polyline>
                            <path d="M340.646682,287.683788 C340.646682,290.193573 338.662303,292.228256 336.214567,292.228256 C333.766678,292.228256 331.782298,290.193573 331.782298,287.683788 C331.782298,285.174004 333.766678,283.139321 336.214567,283.139321 C338.662303,283.139321 340.646682,285.174004 340.646682,287.683788" id="Fill-44" fill="#9FC4FF"></path>
                            <polyline id="Stroke-46" stroke="#9FC4FF" stroke-width="12" points="158.754006 35.2130371 110.758328 35.2130371 100.730093 86.6252768"></polyline>
                            <path d="M105.44573,92.745768 C105.44573,96.2950634 102.639591,99.1723374 99.1780443,99.1723374 C95.7164979,99.1723374 92.9103586,96.2950634 92.9103586,92.745768 C92.9103586,89.1964726 95.7164979,86.3191986 99.1780443,86.3191986 C102.639591,86.3191986 105.44573,89.1964726 105.44573,92.745768" id="Fill-48" fill="#9FC4FF"></path>
                            <polygon id="Fill-50" fill="#8DB7FF" points="382.422042 0.142530387 164.676707 0.142530387 159.747843 29.5208629 377.493331 29.5208629"></polygon>
                            <g id="Group-54" transform="translate(125.726123, 29.506457)">
                                <mask id="mask-8" fill="white">
                                    <use xlink:href="#path-7"></use>
                                </mask>
                                <use id="Clip-53" fill-opacity="0.8" fill="#FFD597" xlink:href="#path-7"></use>
                                <polygon id="Fill-52" mask="url(#mask-8)" points="34.0217659 0.0145165456 0.0744815712 202.358437 217.81997 202.358437 251.7671 0.0145165456"></polygon>
                            </g>
                            <polygon id="Fill-55" fill="#FFFFFF" points="181.761779 8.58884044 179.433769 20.1566338 260.644688 20.1566338 263.15167 8.58884044"></polygon>
                            <polygon id="Fill-57" fill="#FCAA23" points="187.242223 39.9869136 184.914366 51.5548648 340.020699 51.5548648 342.527835 39.9869136"></polygon>
                            <path d="M269.231074,76.2072412 L269.231074,76.2072412 C268.711396,78.94219 270.754099,81.4840055 273.4716,81.4840055 L354.618348,81.4840055 C356.653511,81.4840055 358.412753,80.0276173 358.841484,77.9875693 C359.42164,75.2286367 357.370781,72.6246524 354.618348,72.6246524 L273.4716,72.6246524 C271.40412,72.6246524 269.626412,74.1263259 269.231074,76.2072412" id="Fill-59" fill="#FCAA23"></path>
                            <path d="M267.216471,88.8766984 L267.216471,88.8766984 C266.696793,91.6116471 268.739496,94.1533049 271.456996,94.1533049 L352.603745,94.1533049 C354.638907,94.1533049 356.397996,92.6970745 356.827034,90.6570265 C357.406883,87.8980939 355.356331,85.2939518 352.603745,85.2939518 L271.456996,85.2939518 C269.389517,85.2939518 267.611808,86.7957831 267.216471,88.8766984" id="Fill-61" fill="#FCAA23"></path>
                            <path d="M265.201883,101.546171 L265.201883,101.546171 C264.682205,104.280962 266.724908,106.822778 269.442408,106.822778 L350.589157,106.822778 C352.624319,106.822778 354.383562,105.366547 354.812292,103.326499 C355.392295,100.567567 353.341589,97.9634248 350.589157,97.9634248 L269.442408,97.9634248 C267.374929,97.9634248 265.59722,99.4652561 265.201883,101.546171" id="Fill-63" fill="#FCAA23"></path>
                            <path d="M158.673092,132.920355 L154.516744,158.051178 C154.246825,159.683658 155.473616,161.173024 157.088512,161.173024 L199.084115,161.173024 C200.351687,161.173024 201.435671,160.238601 201.653729,158.958304 L205.931342,133.827324 C206.209878,132.191057 204.981701,130.692855 203.361573,130.692855 L161.244861,130.692855 C159.972519,130.692855 158.885765,131.634221 158.673092,132.920355" id="Fill-65" fill="#FFFFFF"></path>
                            <path d="M226.275629,132.920355 L222.11928,158.051178 C221.849361,159.683658 223.076153,161.173024 224.691049,161.173024 L266.686652,161.173024 C267.954223,161.173024 269.038361,160.238601 269.256266,158.958304 L273.533878,133.827324 C273.812414,132.191057 272.584238,130.692855 270.964264,130.692855 L228.847397,130.692855 C227.575055,130.692855 226.488301,131.634221 226.275629,132.920355" id="Fill-67" fill="#FFFFFF"></path>
                            <path d="M293.878242,132.920355 L289.721893,158.051178 C289.451821,159.683658 290.678766,161.173024 292.293662,161.173024 L334.289265,161.173024 C335.556837,161.173024 336.640974,160.238601 336.858879,158.958304 L341.136491,133.827324 C341.414874,132.191057 340.186851,130.692855 338.566723,130.692855 L296.450011,130.692855 C295.177515,130.692855 294.090915,131.634221 293.878242,132.920355" id="Fill-69" fill="#FFFFFF"></path>
                            <path d="M167.855085,67.1149922 L160.581744,108.820239 C160.147166,111.312351 162.015668,113.601232 164.484794,113.601232 L250.974364,113.601232 C252.889495,113.601232 254.531013,112.197702 254.874952,110.265897 L262.298025,68.560493 C262.742452,66.0642783 260.872411,63.7651415 258.397591,63.7651415 L171.758135,63.7651415 C169.837618,63.7651415 168.193176,65.17656 167.855085,67.1149922" id="Fill-71" fill="#FFFFFF"></path>
                            <path d="M171.10679,103.885102 C171.10679,103.885102 179.254674,89.5257142 186.328269,85.8907396 C193.40171,82.2557651 204.68336,103.426096 212.831397,101.498077 C220.979281,99.5700592 229.30629,79.0969963 237.991549,84.6973849 C246.676654,90.2976157 247.572126,104.803116 247.572126,104.803116 L171.10679,103.885102 Z" id="Fill-73" fill="#80BAFF"></path>
                            <path d="M220.736508,79.8858443 C220.736508,82.6239488 218.571772,84.8434024 215.901515,84.8434024 C213.231259,84.8434024 211.066523,82.6239488 211.066523,79.8858443 C211.066523,77.1477398 213.231259,74.9282862 215.901515,74.9282862 C218.571772,74.9282862 220.736508,77.1477398 220.736508,79.8858443" id="Fill-75" fill="#FFE2B8"></path>
                            <polygon id="Fill-77" fill="#FFE2B8" points="273.412938 8.58884044 271.085081 20.1566338 305.234573 20.1566338 307.741555 8.58884044"></polygon>
                            <polygon id="Fill-79" fill="#D4DAFF" points="314.958589 8.58884044 312.630578 20.1566338 363.254963 20.1566338 365.762099 8.58884044"></polygon>
                            <path d="M175.852282,11.4347303 C175.852282,13.7165104 174.048258,15.5662654 171.823045,15.5662654 C169.597831,15.5662654 167.793807,13.7165104 167.793807,11.4347303 C167.793807,9.15310803 169.597831,7.30335299 171.823045,7.30335299 C174.048258,7.30335299 175.852282,9.15310803 175.852282,11.4347303" id="Fill-81" fill="#FFFFFF"></path>
                            <polygon id="Fill-83" fill="#FFFFFF" points="172.888454 14.5469041 176.38047 21.2489723 177.753301 20.4532447 174.112168 13.9654533"></polygon>
                            <path d="M198.740423,172.786624 L153.854966,172.786624 C153.242955,172.786624 152.746975,172.277914 152.746975,171.650546 C152.746975,171.023021 153.242955,170.514469 153.854966,170.514469 L198.740423,170.514469 C199.352434,170.514469 199.848413,171.023021 199.848413,171.650546 C199.848413,172.277914 199.352434,172.786624 198.740423,172.786624" id="Fill-85" fill="#FFFFFF"></path>
                            <path d="M196.591491,185.662705 L151.706034,185.662705 C151.094177,185.662705 150.598044,185.153995 150.598044,184.52647 C150.598044,183.898945 151.094177,183.390392 151.706034,183.390392 L196.591491,183.390392 C197.203502,183.390392 197.699481,183.898945 197.699481,184.52647 C197.699481,185.153995 197.203502,185.662705 196.591491,185.662705" id="Fill-87" fill="#FFFFFF"></path>
                            <path d="M194.442544,198.53866 L149.557087,198.53866 C148.94523,198.53866 148.449096,198.02995 148.449096,197.402583 C148.449096,196.775058 148.94523,196.266505 149.557087,196.266505 L194.442544,196.266505 C195.054555,196.266505 195.550688,196.775058 195.550688,197.402583 C195.550688,198.02995 195.054555,198.53866 194.442544,198.53866" id="Fill-89" fill="#FFFFFF"></path>
                            <path d="M192.293689,211.414599 L147.408232,211.414599 C146.796221,211.414599 146.300241,210.905889 146.300241,210.278522 C146.300241,209.650997 146.796221,209.142444 147.408232,209.142444 L192.293689,209.142444 C192.9057,209.142444 193.401679,209.650997 193.401679,210.278522 C193.401679,210.905889 192.9057,211.414599 192.293689,211.414599" id="Fill-91" fill="#FFFFFF"></path>
                            <path d="M266.027305,172.786624 L221.141848,172.786624 C220.529991,172.786624 220.033858,172.277914 220.033858,171.650546 C220.033858,171.023021 220.529991,170.514469 221.141848,170.514469 L266.027305,170.514469 C266.639316,170.514469 267.135295,171.023021 267.135295,171.650546 C267.135295,172.277914 266.639316,172.786624 266.027305,172.786624" id="Fill-93" fill="#FFFFFF"></path>
                            <path d="M263.878358,185.662705 L218.992901,185.662705 C218.381044,185.662705 217.88491,185.153995 217.88491,184.52647 C217.88491,183.898945 218.381044,183.390392 218.992901,183.390392 L263.878358,183.390392 C264.490369,183.390392 264.986502,183.898945 264.986502,184.52647 C264.986502,185.153995 264.490369,185.662705 263.878358,185.662705" id="Fill-95" fill="#FFFFFF"></path>
                            <path d="M261.729503,198.53866 L216.844046,198.53866 C216.232035,198.53866 215.736056,198.02995 215.736056,197.402583 C215.736056,196.775058 216.232035,196.266505 216.844046,196.266505 L261.729503,196.266505 C262.341514,196.266505 262.837493,196.775058 262.837493,197.402583 C262.837493,198.02995 262.341514,198.53866 261.729503,198.53866" id="Fill-97" fill="#FFFFFF"></path>
                            <path d="M259.580556,211.414599 L214.695099,211.414599 C214.083242,211.414599 213.587108,210.905889 213.587108,210.278522 C213.587108,209.650997 214.083242,209.142444 214.695099,209.142444 L259.580556,209.142444 C260.192566,209.142444 260.688546,209.650997 260.688546,210.278522 C260.688546,210.905889 260.192566,211.414599 259.580556,211.414599" id="Fill-99" fill="#FFFFFF"></path>
                            <path d="M333.314187,172.786624 L288.42873,172.786624 C287.816873,172.786624 287.32074,172.277914 287.32074,171.650546 C287.32074,171.023021 287.816873,170.514469 288.42873,170.514469 L333.314187,170.514469 C333.926198,170.514469 334.422178,171.023021 334.422178,171.650546 C334.422178,172.277914 333.926198,172.786624 333.314187,172.786624" id="Fill-101" fill="#FFFFFF"></path>
                            <path d="M331.165317,185.662705 L286.27986,185.662705 C285.668003,185.662705 285.17187,185.153995 285.17187,184.52647 C285.17187,183.898945 285.668003,183.390392 286.27986,183.390392 L331.165317,183.390392 C331.777328,183.390392 332.273307,183.898945 332.273307,184.52647 C332.273307,185.153995 331.777328,185.662705 331.165317,185.662705" id="Fill-103" fill="#FFFFFF"></path>
                            <path d="M329.016447,198.53866 L284.130836,198.53866 C283.518979,198.53866 283.022845,198.02995 283.022845,197.402583 C283.022845,196.775058 283.518979,196.266505 284.130836,196.266505 L329.016447,196.266505 C329.628457,196.266505 330.124437,196.775058 330.124437,197.402583 C330.124437,198.02995 329.628457,198.53866 329.016447,198.53866" id="Fill-105" fill="#FFFFFF"></path>
                            <path d="M326.867438,211.414599 L281.981981,211.414599 C281.370124,211.414599 280.873991,210.905889 280.873991,210.278522 C280.873991,209.650997 281.370124,209.142444 281.981981,209.142444 L326.867438,209.142444 C327.479449,209.142444 327.975428,209.650997 327.975428,210.278522 C327.975428,210.905889 327.479449,211.414599 326.867438,211.414599" id="Fill-107" fill="#FFFFFF"></path>
                            <path d="M146.582764,277.76853 L95.375914,277.76853 C86.8634706,277.76853 80.4552856,269.822142 82.054331,261.249332 L111.989459,100.763556 L179.599182,100.763556 L146.582764,277.76853 Z" id="Fill-109" fill="#1368C4"></path>
                            <g id="Group-113" transform="translate(27.699758, 121.812752)">
                                <mask id="mask-10" fill="white">
                                    <use xlink:href="#path-9"></use>
                                </mask>
                                <use id="Clip-112" fill-opacity="0.8" fill="#FFD597" xlink:href="#path-9"></use>
                                <polygon id="Fill-111" mask="url(#mask-10)" points="0.151425343 151.549107 107.955036 151.549107 131.054326 0.0665867635 24.193738 0.0665867635"></polygon>
                            </g>
                            <polygon id="Fill-114" fill="#8DB7FF" points="55.2448741 100.76354 51.8935112 121.879276 158.753945 121.879276 161.973888 100.76354"></polygon>
                            <path d="M121.830614,205.173936 L61.0339543,205.173936 C60.205116,205.173936 59.5330891,204.485032 59.5330891,203.635025 C59.5330891,202.785176 60.205116,202.096113 61.0339543,202.096113 L121.830614,202.096113 C122.659452,202.096113 123.331325,202.785176 123.331325,203.635025 C123.331325,204.485032 122.659452,205.173936 121.830614,205.173936" id="Fill-116" fill="#FFFFFF"></path>
                            <path d="M118.919908,222.614193 L58.1232483,222.614193 C57.29441,222.614193 56.622537,221.925288 56.622537,221.075439 C56.622537,220.225433 57.29441,219.536528 58.1232483,219.536528 L118.919908,219.536528 C119.748746,219.536528 120.420773,220.225433 120.420773,221.075439 C120.420773,221.925288 119.748746,222.614193 118.919908,222.614193" id="Fill-118" fill="#FFFFFF"></path>
                            <path d="M116.009264,240.054608 L55.2126039,240.054608 C54.3837656,240.054608 53.7117387,239.365703 53.7117387,238.515696 C53.7117387,237.665847 54.3837656,236.976942 55.2126039,236.976942 L116.009264,236.976942 C116.838102,236.976942 117.510129,237.665847 117.510129,238.515696 C117.510129,239.365703 116.838102,240.054608 116.009264,240.054608" id="Fill-120" fill="#FFFFFF"></path>
                            <path d="M113.098635,257.495022 L52.3019749,257.495022 C51.4731366,257.495022 50.8011097,256.806118 50.8011097,255.956111 C50.8011097,255.106262 51.4731366,254.417199 52.3019749,254.417199 L113.098635,254.417199 C113.927473,254.417199 114.599346,255.106262 114.599346,255.956111 C114.599346,256.806118 113.927473,257.495022 113.098635,257.495022" id="Fill-122" fill="#FFFFFF"></path>
                            <path d="M123.472656,118.023366 L66.3580632,118.023366 C63.2920077,118.023366 60.80657,115.475081 60.80657,112.33146 L60.80657,112.331302 C60.80657,109.187681 63.2920077,106.639396 66.3580632,106.639396 L123.472656,106.639396 C126.538557,106.639396 129.023995,109.187681 129.023995,112.331302 L129.023995,112.33146 C129.023995,115.475081 126.538557,118.023366 123.472656,118.023366" id="Fill-124" fill="#FFFFFF"></path>
                            <path d="M128.829866,192.846549 L63.6537204,192.846549 C57.9243333,192.846549 53.5477715,187.602289 54.4333944,181.798196 L60.9974675,138.782673 C61.7081202,134.125702 65.620711,130.692855 70.2177936,130.692855 L135.393939,130.692855 C141.123326,130.692855 145.499888,135.937114 144.614265,141.741208 L138.050192,184.756731 C137.339539,189.413859 133.427102,192.846549 128.829866,192.846549" id="Fill-126" fill="#FFFFFF"></path>
                            <polygon id="Fill-130" fill="#0066CA" points="0 334.964714 571.937829 334.964714 571.937829 331.843972 0 331.843972"></polygon>
                            <path d="M529.616231,165.304291 C538.463688,167.46631 557.149175,180.452622 563.327144,197.115565 C569.505421,213.778666 563.998863,245.0391 557.149175,264.594307 C550.299486,284.149199 536.063042,341.299419 483.772978,340.014073 C431.48276,338.728886 393.250015,338.178046 379.864261,308.065208 C366.478353,277.952212 375.431992,259.039835 399.249167,244.901509 C423.066189,230.763182 438.824889,233.926843 449.569471,196.264612 C460.313899,158.602223 510.455078,160.622074 529.616231,165.304291" id="Fill-132" fill="#85B4FF"></path>
                        </g>
                        <g id="Group-136" transform="translate(373.485069, 162.695763)">
                            <mask id="mask-12" fill="white">
                                <use xlink:href="#path-11"></use>
                            </mask>
                            <g id="Clip-135"></g>
                            <path d="M73.3982644,179.721146 C73.3982644,179.721146 65.1608181,152.036358 73.7563607,149.904161 C82.3520573,147.772123 133.314841,155.263291 136.791007,116.741113 C140.267173,78.2190924 175.650382,60.922155 160.249932,39.9899274 C144.849482,19.0578575 145.7448,27.504278 150.579793,12.814954 C155.414939,-1.87421227 142.879568,-9.34123931 133.74665,-8.36200363 C124.613886,-7.38261017 116.018189,14.8348051 115.839218,31.7273305 C115.660093,48.6200137 99.0059211,74.3690521 76.4424678,85.3429294 C53.8788606,96.3168067 36.1504,89.3824738 30.7781858,127.758067 C25.4059717,166.133659 32.7481003,178.986798 32.7481003,178.986798 L73.3982644,179.721146 Z" id="Fill-134" fill="#5A89FF" mask="url(#mask-12)"></path>
                        </g>
                        <path d="M484.190706,154.333743 C484.190706,154.333743 460.194559,159.658633 456.254884,164.432683 C452.315209,169.206575 455.359413,176.551316 461.328864,184.201851 C467.298008,191.852387 469.924407,194.423077 469.924407,194.423077 L476.848577,187.568112 C476.848577,187.568112 471.715196,181.202765 468.073909,175.939255 C464.432622,170.675429 462.940375,169.267797 467.596396,167.860166 C472.252418,166.452376 483.653484,162.474054 483.653484,162.474054 L484.190706,154.333743 Z" id="Fill-137" fill="#FDB2D0"></path>
                        <g id="Group-141" transform="translate(454.429917, 154.332970)">
                            <mask id="mask-14" fill="white">
                                <use xlink:href="#path-13"></use>
                            </mask>
                            <g id="Clip-140"></g>
                            <path d="M14.748336,39.5699416 C14.6587734,39.5393306 18.5088859,36.387189 17.0464925,31.276576 C15.5840992,26.165963 11.61457,21.6368008 9.94304353,18.362373 C8.27167092,15.0879452 9.0477258,14.2003847 11.1369031,13.3742039 C13.2260804,12.5478653 22.29929,9.94672127 24.507884,8.75305097 C26.716478,7.55969625 26.5970613,5.17267123 26.5970613,5.17267123 L26.9851657,11.6603048 L12.3606168,15.6692382 L24.7168633,32.1639787 L21.3144097,37.2441385 L14.748336,39.5699416 Z" id="Fill-139" fill="#F476AF" mask="url(#mask-14)"></path>
                        </g>
                        <g id="Group-148" transform="translate(392.721012, 250.268402)">
                            <path d="M38.2133241,75.1458608 C38.1177599,72.6185618 37.3889485,70.4237232 37.3889485,70.0496066 C37.3889485,68.947927 37.0904067,66.4424028 36.9112816,64.7898834 L24.2566472,65.1570573 C24.2566472,65.1570573 24.902821,69.7240888 22.9619913,71.3548334 C24.6025864,73.0144532 29.5583808,76.9653205 38.2133241,75.1458608" id="Fill-142" fill="#FDB2D0"></path>
                            <path d="M22.9619297,71.3547703 C22.8625184,71.4383982 22.7584904,71.5165035 22.6449214,71.5835636 C20.3170645,72.960742 3.21538789,76.3576137 1.06634835,79.7543276 C-1.08253732,83.1515148 1.06634835,88.01724 1.06634835,88.01724 L38.6723091,86.8235697 C38.6723091,86.8235697 38.3988509,80.0590172 38.2132625,75.1457977 C29.5583193,76.9654151 24.6025248,73.0145479 22.9619297,71.3547703" id="Fill-144" fill="#005CFF"></path>
                            <path d="M67.7272776,0.0195657789 L63.6868062,0.585553269 C63.6868062,0.585553269 19.7797662,4.1509431 15.347651,9.108659 C10.9155359,14.0660593 22.7345609,66.3964705 22.7345609,66.3964705 C22.7345609,66.3964705 32.4045464,71.3541864 37.5082267,65.7080391 C37.5082267,65.7080391 35.3593411,27.1735533 31.4642935,18.8296953 L63.1160373,20.4009536 L84.2471054,2.36067433 L67.7272776,0.0195657789 Z" id="Fill-146" fill="#071868"></path>
                        </g>
                        <g id="Group-151" transform="translate(407.032553, 250.268402)">
                            <mask id="mask-16" fill="white">
                                <use xlink:href="#path-15"></use>
                            </mask>
                            <g id="Clip-150"></g>
                            <path d="M11.3776909,70.0496224 C11.3776909,70.0496224 13.7952642,50.3301575 12.3177899,32.8867923 C10.8404695,15.4432692 9.02736648,14.0375312 23.9018287,14.8091171 C38.7762909,15.5810186 16.8842489,6.93026199 16.8842489,6.93026199 L64.4498115,4.32312195 L56.7734391,26.0471324 C56.7734391,26.0471324 33.7173918,43.5364141 32.1505088,45.1889335 C30.5836258,46.8414529 21.0478303,69.2884504 21.0478303,69.2884504 L11.3776909,70.0496224 Z" id="Fill-149" fill="#051451" mask="url(#mask-16)"></path>
                        </g>
                        <g id="Group-158" transform="translate(346.246973, 254.055327)">
                            <path d="M26.0512529,62.2882566 C26.0512529,62.2882566 11.1880245,40.6216811 8.68104256,39.6118345 C6.1739067,38.6019878 0.0853460317,40.2543494 0.0853460317,40.2543494 C0.0853460317,40.2543494 8.68104256,77.7119285 12.7996888,77.8037614 C14.6018658,77.8438397 20.0037803,76.2143575 25.5103382,74.3685471 C22.712201,68.8992808 26.0512529,62.2882566 26.0512529,62.2882566" id="Fill-152" fill="#005CFF"></path>
                            <path d="M36.1690512,58.1569266 L26.0512529,62.2883039 C26.0512529,62.2883039 22.712201,68.8993281 25.5103382,74.3684367 C32.5887036,71.9957704 39.8400385,69.2655553 39.8400385,69.2655553 L36.1690512,58.1569266 Z" id="Fill-154" fill="#FDB2D0"></path>
                            <path d="M123.090122,1.05257579 C123.090122,1.05257579 106.81436,13.7220487 93.9208919,22.9487336 C81.0275779,32.1752606 49.1968628,54.7600076 33.6172879,56.6880257 C33.6172879,56.6880257 34.4230431,68.3934107 39.929755,70.5967699 C39.929755,70.5967699 65.3136592,62.0586743 95.1298324,47.4613409 C124.945852,32.8638498 141.59987,22.5354854 146.166329,13.7220487 L127.094737,0.0886456013 L123.090122,1.05257579 Z" id="Fill-156" fill="#081484"></path>
                        </g>
                        <g id="Group-161" transform="translate(379.794458, 254.055327)">
                            <mask id="mask-18" fill="white">
                                <use xlink:href="#path-17"></use>
                            </mask>
                            <g id="Clip-160"></g>
                            <path d="M-2.30117277,63.0226518 C-2.30117277,63.0226518 3.26801743,67.7048689 23.2252313,59.9931118 C43.1821374,52.281197 105.131415,21.5613463 110.066896,11.0221764 L116.491855,16.200954 L96.0991393,40.5756542 C96.0991393,40.5756542 62.4680938,55.9993261 62.2266443,56.1370755 C61.9851947,56.2748249 35.8884834,64.622312 35.8884834,64.622312 L11.3515762,77.0691453 L0.875681679,75.8989855 L-2.30117277,63.0226518 Z" id="Fill-159" fill="#06156D" mask="url(#mask-18)"></path>
                        </g>
                        <path d="M505.739471,191.974925 L506.455817,192.158433 C506.455817,192.158433 508.604703,192.923234 512.544378,194.68305 C516.484053,196.442865 520.423728,199.93157 521.020658,206.847757 C521.617588,213.763945 516.096102,229.126394 516.096102,229.126394 L511.529643,229.952575 C511.529643,229.952575 507.948219,239.959524 506.246838,244.641742 C504.545611,249.323959 500.337402,265.757477 492.995274,269.062674 C492.995274,269.062674 489.234724,269.888855 482.967038,263.554276 C476.699352,257.219382 455.837126,250.670526 455.837126,250.670526 C455.837126,250.670526 465.596828,246.845258 468.641031,242.071208 C471.685235,237.297158 476.687811,219.486461 478.484448,213.335391 C480.280777,207.184478 467.566434,195.065687 467.566434,195.065687 C467.566434,195.065687 470.969042,188.822783 476.699352,185.884919 C476.699352,185.884919 479.773564,189.526678 484.907098,189.404234 C490.040479,189.281948 496.726123,192.097211 496.726123,192.097211 L505.739471,191.974925 Z" id="Fill-162" fill="#FFFFFF"></path>
                        <g id="Group-176" transform="translate(455.814904, 185.732889)">
                            <g id="Group-166">
                                <mask id="mask-20" fill="white">
                                    <use xlink:href="#path-19"></use>
                                </mask>
                                <g id="Clip-165"></g>
                                <path d="M51.5064225,40.1801257 C51.5064225,40.1801257 52.4017402,39.5376107 56.2817069,39.5376107 C60.1616735,39.5376107 69.6229875,16.2795801 58.1620588,9.2411067 L71.2344978,15.4838525 L66.5189218,39.7823408 L59.0275223,46.8209719 L54.102967,44.1279949 L50.7392931,41.2087492 L51.5064225,40.1801257 Z" id="Fill-164" fill="#FFEBD2" mask="url(#mask-20)"></path>
                            </g>
                            <g id="Group-169">
                                <mask id="mask-22" fill="white">
                                    <use xlink:href="#path-21"></use>
                                </mask>
                                <g id="Clip-168"></g>
                                <path d="M54.3120079,22.9203159 C54.3120079,22.9203159 49.1784733,41.3736855 44.7911394,47.1574244 C40.4036517,52.9414789 15.422625,65.7034159 15.422625,65.7034159 L16.049409,73.7818736 L23.6040563,75.0678502 C23.6040563,75.0678502 49.0002715,66.0699587 52.2232922,60.1943869 C55.4460052,54.3184995 52.8494606,45.321397 52.8494606,45.321397 L51.8645804,41.7586895 L51.0526697,41.4808239 L54.3120079,22.9203159 Z" id="Fill-167" fill="#FFEBD2" mask="url(#mask-22)"></path>
                            </g>
                            <g id="Group-172">
                                <mask id="mask-24" fill="white">
                                    <use xlink:href="#path-23"></use>
                                </mask>
                                <g id="Clip-171"></g>
                                <path d="M50.9397008,42.3454105 C50.9160022,42.3454105 50.8916879,42.3428858 50.8672198,42.337521 C50.6777842,42.2968116 50.556367,42.106203 50.5962238,41.9118075 C52.4182524,33.011745 54.2761367,21.9603935 54.2947571,21.8496259 C54.3275351,21.6539682 54.508353,21.5201635 54.6997891,21.5562971 C54.8906096,21.5897482 55.0186441,21.7757809 54.985866,21.9714387 C54.9673995,22.0822063 53.1073608,33.1466542 51.2825623,42.0596554 C51.2479376,42.2291203 51.1020522,42.3454105 50.9397008,42.3454105" id="Fill-170" fill="#EF7D00" mask="url(#mask-24)"></path>
                            </g>
                            <g id="Group-175">
                                <mask id="mask-26" fill="white">
                                    <use xlink:href="#path-25"></use>
                                </mask>
                                <g id="Clip-174"></g>
                                <path d="M11.7067948,10.7558136 C11.7067948,10.7558136 19.0937047,14.7036828 22.3618145,18.9726517 C25.6300781,23.2417785 21.0188379,33.2777607 21.0188379,33.2777607 L14.0067981,15.2545226 L11.7067948,10.7558136 Z" id="Fill-173" fill="#FFEBD2" mask="url(#mask-26)"></path>
                            </g>
                        </g>
                        <path d="M506.425948,227.779827 C506.425948,227.779827 503.560716,237.633879 499.979137,238.858003 C496.397712,240.082126 476.968025,250.79013 476.968025,250.79013 C476.968025,250.79013 462.194205,249.415792 461.791327,254.557016 C461.38845,259.69824 478.176811,255.750686 478.176811,255.750686 C478.176811,255.750686 494.114483,250.884803 499.262944,248.589611 C504.411252,246.294419 508.619615,244.045143 509.962591,241.474452 C511.305722,238.903919 514.842365,228.667388 514.842365,228.667388 C514.842365,228.667388 507.664589,225.056239 506.425948,227.779827" id="Fill-177" fill="#FDB2D0"></path>
                        <g id="Group-181" transform="translate(461.662631, 226.757910)">
                            <mask id="mask-28" fill="white">
                                <use xlink:href="#path-27"></use>
                            </mask>
                            <g id="Clip-180"></g>
                            <path d="M51.0011789,0.348696893 C51.0011789,0.348696893 52.3740097,1.1444245 51.0608873,4.63297131 C49.747611,8.1218337 48.7407248,12.5856715 46.8226704,14.7931331 C44.90477,17.000437 21.8759607,27.0349992 18.6481695,27.82978 C15.4202244,28.6245609 1.21809685,27.82978 1.21809685,27.82978 L0.121494216,30.440707 L16.976643,30.440707 L25.2142432,30.440707 L46.6436992,24.3410754 C46.6436992,24.3410754 50.4042491,17.6696182 50.5832203,17.2413801 C50.7623454,16.8128264 55.3585047,7.63205807 55.1795335,7.50977195 C55.0004084,7.38717026 54.5230492,0.409918846 54.5230492,0.409918846 L51.0011789,0.348696893 Z" id="Fill-179" fill="#F476AF" mask="url(#mask-28)"></path>
                        </g>
                        <g id="Group-190" transform="translate(416.111918, 139.974213)">
                            <polygon id="Fill-182" fill="#E08500" points="46.7688098 115.041857 65.7508383 115.531632 65.7508383 118.591783 48.1654931 119.038325"></polygon>
                            <polygon id="Fill-184" fill="#FCAA23" points="0.015096368 79.879517 49.0372045 79.879517 48.1655855 119.038372 2.43266968 119.038372"></polygon>
                            <path d="M27.6609167,98.4489401 C27.8103415,101.318167 25.8762828,103.756473 23.3416011,103.895169 C20.8067655,104.034023 18.6306417,101.820408 18.4813708,98.9513388 C18.3320999,96.082112 20.2658507,93.6438057 22.8006864,93.5051096 C25.335522,93.3664135 27.5114918,95.5797133 27.6609167,98.4489401" id="Fill-186" fill="#FFFFFF"></path>
                            <path d="M69.5413193,25.8967284 C69.5413193,25.8967284 65.064269,26.3557353 64.5272015,22.5457732 C63.9899801,18.7356533 65.1986129,17.1292082 65.1986129,17.1292082 C65.1986129,17.1292082 61.9305031,14.9256913 62.4229432,9.09587813 C62.9153834,3.26606497 67.3922798,1.47579621 70.7948873,0.32835795 C74.197187,-0.819238095 78.3607684,1.70553632 79.8828701,7.03026836 C79.8828701,7.03026836 86.1953371,2.85297458 93.3135593,6.57110371 C100.431782,10.2893906 101.953883,16.8076352 101.953883,16.8076352 L104.953459,14.6044338 L105.624871,15.568364 L102.401542,17.2210412 C102.401542,17.2210412 105.938493,24.2440513 101.864475,31.4510428 C97.7904557,38.6580343 88.0307538,42.4220799 88.0307538,42.4220799 L69.5413193,25.8967284 Z" id="Fill-188" fill="#002FF7"></path>
                        </g>
                        <g id="Group-197" transform="translate(478.436373, 139.974213)">
                            <g id="Group-193">
                                <mask id="mask-30" fill="white">
                                    <use xlink:href="#path-29"></use>
                                </mask>
                                <g id="Clip-192"></g>
                                <path d="M0.904320151,18.965283 L2.8742346,17.1290978 C2.8742346,17.1290978 2.72496368,21.4471389 5.75439387,21.2390159 C8.78367016,21.0308928 17.8499548,19.6996309 17.8499548,19.6996309 C17.8499548,19.6996309 20.3341614,27.6868867 26.1092532,25.6671934 C31.8843449,23.6475001 29.9676755,30.4148928 33.8094781,32.2772709 C37.6512806,34.139649 39.9429739,33.2413589 39.9429739,33.2413589 L24.9006204,45.1304097 L13.797788,35.7661333 L0.456661286,27.6868867 C0.456661286,27.6868867 -1.19978423,20.3883778 -1.06544041,20.3424614 C-0.931250471,20.2965449 0.904320151,18.965283 0.904320151,18.965283" id="Fill-191" fill="#0030C9" mask="url(#mask-30)"></path>
                            </g>
                            <g id="Group-196">
                                <mask id="mask-32" fill="white">
                                    <use xlink:href="#path-31"></use>
                                </mask>
                                <g id="Clip-195"></g>
                                <path d="M2.11316836,2.80705811 C2.11316836,2.80705811 9.09704676,-0.95698749 12.4547191,2.99072397 C15.8123914,6.93859322 16.4839566,9.73870864 16.4839566,9.73870864 C16.4839566,9.73870864 19.3438027,6.05008596 26.1988773,6.93859322 C33.0539518,7.82678491 40.6266039,18.6086336 40.6266039,18.6086336 L47.0163225,17.7258067 C47.0163225,17.7258067 47.1058851,9.64687571 46.6134449,9.27970178 C46.1210048,8.91221227 19.4387514,0.0558571429 19.4387514,0.0558571429 L9.67904945,-2.28824939 L2.11316836,2.80705811 Z" id="Fill-194" fill="#5E8AF7" mask="url(#mask-32)"></path>
                            </g>
                        </g>
                        <path d="M485.145732,163.575765 C485.145732,163.575765 482.996846,182.610586 486.75755,184.752723 C490.5181,186.89486 495.651634,183.038981 496.726077,185.425849 C497.800366,187.812874 496.726077,192.097306 496.726077,192.097306 C496.726077,192.097306 497.681103,194.912727 501.501362,194.667997 C505.32162,194.423109 506.455925,192.15837 506.455925,192.15837 C506.455925,192.15837 503.889081,187.262034 505.202203,182.732872 C506.515479,178.203709 505.978258,176.55119 505.978258,176.55119 C505.978258,176.55119 509.022461,175.388289 507.709339,170.67546 C506.396063,165.96279 504.068052,169.879891 504.068052,169.879891 C504.068052,169.879891 501.143265,172.940199 498.457004,168.166149 C498.457004,168.166149 496.330586,169.13008 495.390333,167.041433 C494.450234,164.952944 495.054705,163.80519 495.054705,163.80519 C495.054705,163.80519 491.764127,167.202061 488.742238,165.802004 C485.720194,164.401946 485.145732,163.575765 485.145732,163.575765" id="Fill-198" fill="#FDB2D0"></path>
                        <g id="Group-206" transform="translate(484.437988, 163.484705)">
                            <g id="Group-202">
                                <mask id="mask-34" fill="white">
                                    <use xlink:href="#path-33"></use>
                                </mask>
                                <g id="Clip-201"></g>
                                <path d="M-1.11276083,1.16986001 C-1.11276083,1.16986001 0.856999731,4.65840682 4.23713963,4.52065743 C7.61712564,4.38306582 8.93794243,3.28138624 8.93794243,3.28138624 C8.93794243,3.28138624 11.0195792,7.11438543 13.7056863,6.33412111 C13.7056863,6.33412111 15.6083519,9.84554726 19.0555868,8.07831562 C22.5028216,6.31108398 24.0920183,7.2978935 24.0920183,7.2978935 L23.0177294,3.48793144 L12.5416809,-1.10245274 L4.16989077,-1.63025541 L0.745123487,-1.60737607 L-1.11276083,1.16986001 Z" id="Fill-200" fill="#F476AF" mask="url(#mask-34)"></path>
                            </g>
                            <g id="Group-205">
                                <mask id="mask-36" fill="white">
                                    <use xlink:href="#path-35"></use>
                                </mask>
                                <g id="Clip-204"></g>
                                <path d="M10.1241999,21.7117819 L11.1343178,21.1519481 C11.1343178,21.1519481 18.9885841,16.3868921 18.6749613,19.6000979 C18.3616463,22.8133037 11.848356,25.4758275 11.848356,25.4758275 L10.1241999,21.7117819 Z" id="Fill-203" fill="#F476AF" mask="url(#mask-36)"></path>
                            </g>
                        </g>
                    </g>
                </g>
            </g>
        </g>
    </g>
</svg>