<?xml version="1.0" encoding="UTF-8"?>
<svg width="545px" height="353px" viewBox="0 0 545 353" version="1.1" xmlns="http://www.w3.org/2000/svg" xmlns:xlink="http://www.w3.org/1999/xlink">
    <title>插画/关于产品</title>
    <defs>
        <path d="M0.0902911668,0.150142721 L0.0902911668,168.684308 C0.0902911668,184.132219 12.3039258,196.655305 27.3700752,196.655305 L27.3700752,196.655305 L294.362459,196.655305 C309.428609,196.655305 321.642087,184.132219 321.642087,168.684308 L321.642087,168.684308 L321.642087,0.150142721 L0.0902911668,0.150142721 Z" id="path-1"></path>
        <polygon id="path-3" points="0.0904159215 0.159736505 321.642212 0.159736505 321.642212 28.9315749 0.0904159215 28.9315749"></polygon>
        <path d="M71.5882639,63.5794462 L7.34290185,63.5794462 C3.30755725,63.5794462 0.0361788441,60.2251394 0.0361788441,56.0875003 L0.0361788441,7.62162186 C0.0361788441,3.48398269 3.30755725,0.129675981 7.34290185,0.129675981 L71.5882639,0.129675981 C75.6236085,0.129675981 78.894831,3.48398269 78.894831,7.62162186 L78.894831,56.0875003" id="path-5"></path>
        <path d="M71.6369182,63.5794462 L7.39155616,63.5794462 C3.35621156,63.5794462 0.0849890949,60.2251394 0.0849890949,56.0875003 L0.0849890949,7.62162186 C0.0849890949,3.48398269 3.35621156,0.129675981 7.39155616,0.129675981 L71.6369182,0.129675981 C75.6722628,0.129675981 78.9434853,3.48398269 78.9434853,7.62162186 L78.9434853,56.0875003" id="path-7"></path>
        <path d="M71.6857285,63.5794462 L7.44021047,63.5794462 C3.40486587,63.5794462 0.133643402,60.2251394 0.133643402,56.0875003 L0.133643402,7.62162186 C0.133643402,3.48398269 3.40486587,0.129675981 7.44021047,0.129675981 L71.6857285,0.129675981 C75.7210731,0.129675981 78.9922955,3.48398269 78.9922955,7.62162186 L78.9922955,56.0875003" id="path-9"></path>
        <path d="M4.58332933,2.34711927 C-2.77594656,8.22203285 0.0761003272,17.9349397 5.47454526,18.7184321 L5.47454526,18.7184321 C6.20295638,18.8239637 6.84060851,18.8826457 7.40340785,18.90695 L7.40340785,18.90695 C6.83405889,16.6485732 6.44342094,13.4471275 7.2569771,9.84082402 L7.2569771,9.84082402 C8.29914613,5.22221647 11.5368408,2.43266385 13.6185278,1.06890744 L13.6185278,1.06890744 C12.6958113,0.488803299 11.5419869,0.0420527218 10.1765474,0.0420527218 L10.1765474,0.0420527218 C8.58857688,0.0420527218 6.71429444,0.645981461 4.58332933,2.34711927 L4.58332933,2.34711927 Z" id="path-11"></path>
        <path d="M0.551415485,8.88144561 C-0.262140676,12.487749 0.128497274,15.6891948 0.697846238,17.9475716 L0.697846238,17.9475716 C4.30575027,18.10427 4.72773282,16.8068706 4.72773282,16.8068706 L4.72773282,16.8068706 L9.54045474,2.7193581 C9.54045474,2.7193581 8.62319629,1.18515213 6.91296619,0.109529035 L6.91296619,0.109529035 C4.83127917,1.47328544 1.59358451,4.26283806 0.551415485,8.88144561" id="path-13"></path>
        <path d="M18.4186183,0.111287895 C9.45515376,0.476811069 -2.10585823,6.22108929 0.338864776,19.954911 L0.338864776,19.954911 C2.7832759,33.6890525 7.57073501,38.2843152 16.3305376,38.9632353 L16.3305376,38.9632353 L34.0028113,20.3727203 C34.0028113,20.3727203 38.1791287,19.3805631 36.3965409,11.442986 L36.3965409,11.442986 C34.6930164,3.85734079 28.0119378,0.0869836423 19.5991091,0.0869836423 L19.5991091,0.0869836423 C19.2090949,0.0869836423 18.8158059,0.0951383588 18.4186183,0.111287895 L18.4186183,0.111287895 Z" id="path-15"></path>
        <path d="M1.25394002,9.06580616 C-2.46374809,12.2512623 3.85148746,18.0999528 3.85148746,18.0999528 L3.85148746,18.0999528 C8.07864231,20.5020765 4.66629117,24.4185789 5.93956816,28.3872076 L5.93956816,28.3872076 C7.2126892,32.3561561 5.3792639,37.3690682 5.3792639,37.3690682 L5.3792639,37.3690682 C10.166723,41.8600784 15.9726478,37.3690682 15.9726478,37.3690682 L15.9726478,37.3690682 C15.9726478,37.3690682 14.0372356,32.1471715 13.9354046,28.2829552 L13.9354046,28.2829552 C13.88753,26.468131 14.3115398,26.6112383 15.3758528,26.7543456 L15.3758528,26.7543456 C16.5778637,26.9158409 18.5971734,27.0774962 21.6765856,24.4185789 L21.6765856,24.4185789 C27.4825104,19.4053471 23.7138288,2.90387854 23.7138288,2.90387854 L23.7138288,2.90387854 C19.9959847,3.32152794 15.8706609,0.136231734 15.8706609,0.136231734 L15.8706609,0.136231734 C14.8012017,7.70812582 1.25394002,9.06580616 1.25394002,9.06580616 L1.25394002,9.06580616 Z" id="path-17"></path>
        <path d="M1.25394002,9.06580616 C-2.46374809,12.2512623 3.85148746,18.0999528 3.85148746,18.0999528 L3.85148746,18.0999528 C8.07864231,20.5020765 4.66629117,24.4185789 5.93956816,28.3872076 L5.93956816,28.3872076 C7.2126892,32.3561561 5.3792639,37.3690682 5.3792639,37.3690682 L5.3792639,37.3690682 C10.166723,41.8600784 15.9726478,37.3690682 15.9726478,37.3690682 L15.9726478,37.3690682 C15.9726478,37.3690682 14.0372356,32.1471715 13.9354046,28.2829552 L13.9354046,28.2829552 C13.88753,26.468131 14.3115398,26.6112383 15.3758528,26.7543456 L15.3758528,26.7543456 C16.5778637,26.9158409 18.5971734,27.0774962 21.6765856,24.4185789 L21.6765856,24.4185789 C27.4825104,19.4053471 23.7138288,2.90387854 23.7138288,2.90387854 L23.7138288,2.90387854 C19.9959847,3.32152794 15.8706609,0.136231734 15.8706609,0.136231734 L15.8706609,0.136231734 C14.8012017,7.70812582 1.25394002,9.06580616 1.25394002,9.06580616 L1.25394002,9.06580616 Z" id="path-19"></path>
        <path d="M40.3436216,1.79131938 C36.4609455,3.26828244 32.8290262,6.09349196 30.574398,9.88191739 L30.574398,9.88191739 C28.3200818,13.6703428 15.2946063,29.1451165 13.0399782,29.7871006 L13.0399782,29.7871006 C10.7856619,30.4290847 7.77969902,22.9809504 7.77969902,22.9809504 L7.77969902,22.9809504 L0.0145027263,27.0902879 C0.0145027263,27.0902879 2.39419738,33.3187324 6.7779193,38.4555642 L6.7779193,38.4555642 C10.6959945,43.0469894 15.2317612,44.0417049 21.1184646,35.82287 L21.1184646,35.82287 C27.005012,27.604035 36.1479673,12.9639205 36.1479673,12.9639205 L36.1479673,12.9639205 C36.1479673,12.9639205 48.1715071,8.5976295 50.6765802,3.39667925 L50.6765802,3.39667925 C51.8818659,0.89398078 50.4337764,0.0861841603 48.1740022,0.0861841603 L48.1740022,0.0861841603 C45.7377001,0.0861841603 42.3579411,1.02525573 40.3436216,1.79131938 L40.3436216,1.79131938 Z" id="path-21"></path>
        <path d="M12.1381581,0.885666167 L10.7120567,2.45233111 C10.7120567,2.45233111 10.5592323,4.38451922 8.26748964,8.66638495 L8.26748964,8.66638495 C5.975747,12.9485705 0.729970556,21.6691603 0.11882879,30.0245468 L0.11882879,30.0245468 C-0.492312977,38.3799332 5.41544275,68.9807466 5.41544275,68.9807466 L5.41544275,68.9807466 C5.41544275,68.9807466 22.4257372,78.7982257 37.9082552,68.145128 L37.9082552,68.145128 C37.9082552,68.145128 41.0659509,49.5549328 42.0844166,35.5598404 L42.0844166,35.5598404 C43.1030382,21.5649079 37.2291221,0.0849049891 37.2291221,0.0849049891 L37.2291221,0.0849049891 L12.1381581,0.885666167 Z" id="path-23"></path>
        <path d="M12.1381581,0.885666167 L10.7120567,2.45233111 C10.7120567,2.45233111 10.5592323,4.38451922 8.26748964,8.66638495 L8.26748964,8.66638495 C5.975747,12.9485705 0.729970556,21.6691603 0.11882879,30.0245468 L0.11882879,30.0245468 C-0.492312977,38.3799332 5.41544275,68.9807466 5.41544275,68.9807466 L5.41544275,68.9807466 C5.41544275,68.9807466 22.4257372,78.7982257 37.9082552,68.145128 L37.9082552,68.145128 C37.9082552,68.145128 41.0659509,49.5549328 42.0844166,35.5598404 L42.0844166,35.5598404 C43.1030382,21.5649079 37.2291221,0.0849049891 37.2291221,0.0849049891 L37.2291221,0.0849049891" id="path-25"></path>
        <path d="M19.8752846,1.38870025 C18.0250174,1.12758942 15.8691014,0.657653899 15.8691014,0.657653899 L15.8691014,0.657653899 C15.391759,4.10837814 7.61845365,3.37317448 2.22000872,5.78681066 L2.22000872,5.78681066 C-3.17843621,8.20060673 3.44229226,28.3344418 4.56274482,34.07872 L4.56274482,34.07872 C5.68304144,39.8226784 8.84073719,55.6978327 8.84073719,55.6978327 L8.84073719,55.6978327 C28.9068964,64.1574716 35.8332737,53.9223431 35.8332737,53.9223431 L35.8332737,53.9223431 C35.8332737,42.224962 41.7410294,34.8097664 42.2501843,28.2300294 L42.2501843,28.2300294 C42.759651,21.6501326 37.1573882,14.6527463 36.5462465,10.6839577 L36.5462465,10.6839577 C35.9351047,6.71532906 36.5462465,3.63412541 30.5874973,2.90307906 L30.5874973,2.90307906 C24.628904,2.17203272 24.8130731,0.106011314 24.8130731,0.106011314 L24.8130731,0.106011314 C24.8130731,0.106011314 22.0322923,1.69314299 19.8752846,1.38870025" id="path-27"></path>
        <path d="M0.123039258,1.60951718 L0.581668484,6.80103353 C0.678197383,7.89184678 1.89268375,8.46395611 2.76284733,7.82852781 L2.76284733,7.82852781 L8.24207088,3.82616099 C6.0351614,2.52252563 3.78957797,1.19618498 2.19100327,0.251517039 L2.19100327,0.251517039 C1.96722465,0.119442612 1.73128244,0.0594814613 1.50220174,0.0593215649 L1.50220174,0.0593215649 C0.736520174,0.0593215649 0.0450676118,0.728488004 0.123039258,1.60951718 M14.1914635,0.438915622 L8.54366521,3.61781598 C8.49625845,3.64451868 8.45056707,3.67393961 8.40659106,3.70591889 L8.40659106,3.70591889 L8.24207088,3.82616099 C10.7536936,5.3096798 13.2151025,6.76345788 14.6156292,7.59076186 L14.6156292,7.59076186 C15.1589357,7.91135414 15.8418113,7.53655698 15.881265,6.89521251 L15.881265,6.89521251 C15.9642268,5.5496843 16.0986499,3.47534828 16.2363479,1.80075327 L16.2363479,1.80075327 C16.3083937,0.925640267 15.6206838,0.261110823 14.8568735,0.261110823 L14.8568735,0.261110823 C14.6359019,0.261110823 14.4085365,0.316754771 14.1914635,0.438915622" id="path-29"></path>
        <path d="M5.42495529,6.80886846 C3.04806761,14.3284764 0.128185387,26.2346823 0.128185387,26.2346823 L0.128185387,26.2346823 C4.47401309,33.6153402 15.3390502,29.6465517 15.3390502,29.6465517 L15.3390502,29.6465517 C15.3390502,29.6465517 16.5685071,11.9818368 14.2524373,5.53529362 L14.2524373,5.53529362 C13.4206358,3.21967394 11.6212061,0.942749182 10.7299902,0.342178299 L10.7299902,0.342178299 C10.4991941,0.186758997 10.1919858,0.0412532715 9.82177644,0.0412532715 L9.82177644,0.0412532715 C8.76167394,0.0412532715 7.18649073,1.2351997 5.42495529,6.80886846" id="path-31"></path>
        <path d="M1.25518757,5.47677154 C1.43530207,7.75497546 1.20216685,23.3632627 1.14571538,26.9433431 L1.14571538,26.9433431 C1.83326936,26.7570638 2.23981352,26.60852 2.23981352,26.60852 L2.23981352,26.60852 C2.23981352,26.60852 3.46927045,8.9439651 1.15320065,2.4971021 L1.15320065,2.4971021 C1.13791821,2.45456966 1.12232388,2.41235701 1.10641767,2.36982456 L1.10641767,2.36982456 L0.809189749,1.65492775 C0.571844057,1.13414517 0.295824427,0.625514722 0.00389858233,0.149183342 L0.00389858233,0.149183342 C0.518043621,1.79131938 1.1393217,4.01148092 1.25518757,5.47677154" id="path-33"></path>
        <filter id="filter-35">
            <feColorMatrix in="SourceGraphic" type="matrix" values="0 0 0 0 0.270588 0 0 0 0 0.619608 0 0 0 0 1.000000 0 0 0 1.000000 0"></feColorMatrix>
        </filter>
        <polygon id="path-36" points="-0.0953333333 0 37.2753333 0 37.2753333 43.01 -0.0953333333 43.01"></polygon>
        <polygon id="path-38" points="0 0.0209697365 41.5358149 0.0209697365 41.5358149 43.010063 0 43.010063"></polygon>
    </defs>
    <g id="网页" stroke="none" stroke-width="1" fill="none" fill-rule="evenodd">
        <g id="云端数据仓库" transform="translate(-1012.000000, -168.000000)">
            <g id="banner" transform="translate(0.000000, 75.000000)">
                <rect id="矩形" fill="#FFFFFF" x="0" y="0" width="1921" height="571"></rect>
                <path d="M1239.01154,189.64363 C1244.84833,184.253938 1248.98441,179.162722 1251.41978,174.369981 C1269.32727,139.128575 1373.74984,2.28488884 1499.37492,45.2704261 C1625,88.2559633 1541.91652,140.723868 1573.30547,196.369981 C1604.69442,252.016093 1695.1836,344.802 1653.44222,393.943989 C1611.70084,443.085979 1310.6008,491.517998 1274.79903,393.943989 C1266.45716,371.209111 1253.62844,351.225659 1236.31287,333.993633 L1236.31287,333.993634 C1197.16612,295.03576 1197.013,231.719447 1235.97087,192.57269 C1236.9637,191.575047 1237.97748,190.598476 1239.01154,189.64363 Z" id="路径-2" fill="#EDF6FF"></path>
                <g id="编组" transform="translate(999.000000, 74.500000)">
                    <g id="编组-2" transform="translate(13.728000, 19.159000)">
                        <g id="编组-5" transform="translate(0.000000, 98.685852)">
                            <path d="M119.755142,236.371658 L119.746409,236.371658 C119.415965,236.367021 119.151953,236.088321 119.156631,235.749341 L122.424735,1.24447946 L1.25804353,4.57208347 L23.7555146,234.94826 C23.7884187,235.285322 23.5484219,235.586087 23.2196935,235.619985 C22.8901853,235.652444 22.5974797,235.407483 22.5645757,235.070421 L0.0030119089,4.0377097 C-0.0136740235,3.86821951 0.0395026395,3.69904912 0.149286718,3.5709721 C0.25922674,3.44321488 0.416105693,3.36774378 0.582341244,3.36326668 L123.016072,3.11160875e-13 C123.179345,-0.00639008354 123.336535,0.0601268194 123.452401,0.177170985 C123.568423,0.29469484 123.632672,0.455390723 123.630394,0.622642359 L120.353184,235.76693 C120.348662,236.102552 120.081687,236.371658 119.755142,236.371658" id="Fill-1" fill="#8FB7FF"></path>
                            <polygon id="Fill-3" fill="#E3EBFF" points="28.8131455 235.009261 10.7842295 12.9021263 119.096671 9.70100039 112.265731 233.538054"></polygon>
                            <polygon id="Fill-5" fill="#B6CEFF" points="19.4931166 23.1843124 22.8544743 61.5783165 108.873731 58.1642085 110.401663 18.1835524"></polygon>
                            <polygon id="Fill-7" fill="#B6CEFF" points="24.7580585 75.2497946 28.4311468 118.524476 108.322455 115.526579 109.086422 70.9780023"></polygon>
                            <polygon id="Fill-9" fill="#B6CEFF" points="30.0230159 127.315133 34.0078349 175.470652 107.771196 172.888805 107.771196 123.772628"></polygon>
                            <path d="M33.9055829,185.153131 C33.1452034,185.153131 32.5225218,184.527776 32.5096992,183.745243 C32.497259,182.954555 33.1118315,182.302978 33.8829711,182.290026 L107.748007,181.036598 C108.516652,181.024926 109.154616,181.653798 109.167443,182.444486 C109.180034,183.235174 108.565306,183.886592 107.794166,183.899543 L33.9291303,185.152971 C33.9213332,185.153131 33.9133801,185.153131 33.9055829,185.153131" id="Fill-11" fill="#B6CEFF"></path>
                            <path d="M34.3742393,192.791462 C33.6118325,192.791462 32.9886831,192.163069 32.9782639,191.378937 C32.9680986,190.588249 33.5848543,189.93875 34.3559939,189.928357 L107.463769,188.925807 C107.470007,188.925487 107.476401,188.925487 107.482794,188.925487 C108.245201,188.925487 108.868351,189.55388 108.878614,190.338012 C108.888779,191.128859 108.272179,191.778199 107.50104,191.788752 L34.3932644,192.791302 C34.3868707,192.791462 34.380633,192.791462 34.3742393,192.791462" id="Fill-13" fill="#B6CEFF"></path>
                            <path d="M34.8428489,200.429953 C34.0782589,200.429953 33.4546417,199.798682 33.4467716,199.012791 C33.4390474,198.221944 34.0578303,197.574523 34.8289699,197.566528 L107.179485,196.814855 L107.193831,196.814855 C107.958421,196.814855 108.582039,197.446126 108.589909,198.231857 C108.597633,199.022545 107.97885,199.670125 107.20771,199.67812 L34.8573516,200.429953 L34.8428489,200.429953 Z" id="Fill-15" fill="#B6CEFF"></path>
                            <path d="M35.3115053,208.068428 C34.5447321,208.068428 33.920647,207.433799 33.9153132,206.646469 C33.9101988,205.855781 34.5310091,205.21044 35.3021487,205.205003 L106.895247,204.703888 L106.905071,204.703888 C107.671844,204.703888 108.295929,205.338517 108.301109,206.125847 C108.306378,206.916534 107.685567,207.561876 106.914428,207.567153 L35.3211737,208.068428 L35.3115053,208.068428 Z" id="Fill-17" fill="#B6CEFF"></path>
                            <path d="M35.7801304,215.706919 C35.0111741,215.706919 34.3866212,215.069092 34.3839617,214.280163 C34.3813191,213.489476 35.0043126,212.846212 35.7754521,212.843494 L106.61129,212.592777 L106.616124,212.592777 C107.38508,212.592777 108.009633,213.230603 108.012294,214.019532 C108.015091,214.81038 107.392098,215.453483 106.620958,215.456201 L35.7851206,215.706919 L35.7801304,215.706919 Z" id="Fill-19" fill="#B6CEFF"></path>
                            <path d="M106.327317,223.34541 L36.24874,223.34541 C35.4776005,223.34541 34.8524238,222.704385 34.8524238,221.913697 C34.8524238,221.12301 35.4776005,220.481985 36.24874,220.481985 L106.327317,220.481985 C107.098457,220.481985 107.723633,221.12301 107.723633,221.913697 C107.723633,222.704385 107.098457,223.34541 106.327317,223.34541" id="Fill-21" fill="#B6CEFF"></path>
                        </g>
                        <g id="编组-8" transform="translate(5.788407, 331.920198)" fill="#1D2F93">
                            <polygon id="Fill-35" points="-3.46820646e-13 3.5500199 538.277419 3.5500199 538.277419 2.66709321e-13 -3.46820646e-13 2.66709321e-13"></polygon>
                        </g>
                        <g id="编组-9" transform="translate(123.853075, 50.048000)">
                            <g id="Group-41" transform="translate(0.000000, 28.781352)">
                                <mask id="mask-2" fill="white">
                                    <use xlink:href="#path-1"></use>
                                </mask>
                                <use id="Clip-40" fill="#CAD8FF" xlink:href="#path-1"></use>
                            </g>
                            <g id="Group-44" transform="translate(0.000000, 0.000000)">
                                <mask id="mask-4" fill="white">
                                    <use xlink:href="#path-3"></use>
                                </mask>
                                <g id="Clip-43"></g>
                                <path d="M321.642212,28.1309736 C321.642212,12.6829026 309.428577,0.159656557 294.362428,0.159656557 L27.3700441,0.159656557 C12.3038947,0.159656557 0.0904159215,12.6829026 0.0904159215,28.1309736 L0.0904159215,28.9315749 L321.642212,28.9315749 L321.642212,28.1309736 Z" id="Fill-42" fill="#8DB7FF" mask="url(#mask-4)"></path>
                            </g>
                            <g id="Group-47" transform="translate(29.629226, 137.990594)">
                                <mask id="mask-6" fill="white">
                                    <use xlink:href="#path-5"></use>
                                </mask>
                                <use id="Clip-46" fill="#FFFFFF" xlink:href="#path-5"></use>
                            </g>
                            <g id="Group-50" transform="translate(121.635769, 137.990594)">
                                <mask id="mask-8" fill="white">
                                    <use xlink:href="#path-7"></use>
                                </mask>
                                <use id="Clip-49" fill="#FFFFFF" xlink:href="#path-7"></use>
                            </g>
                            <g id="Group-53" transform="translate(213.642312, 137.990594)">
                                <mask id="mask-10" fill="white">
                                    <use xlink:href="#path-9"></use>
                                </mask>
                                <use id="Clip-52" fill="#FFFFFF" xlink:href="#path-9"></use>
                            </g>
                            <path d="M170.347671,76.9240267 L148.346412,76.9240267 C144.972423,76.9240267 142.237333,74.1196037 142.237333,70.6600852 L142.237333,48.1009415 C142.237333,44.6415829 144.972423,41.837 148.346412,41.837 L170.347671,41.837 C173.72166,41.837 176.45675,44.6415829 176.45675,48.1009415 L176.45675,70.6600852 C176.45675,74.1196037 173.72166,76.9240267 170.347671,76.9240267" id="Fill-54" fill="#405FE2"></path>
                            <path d="M287.503964,52.4402154 L187.422053,52.4402154 C185.851237,52.4402154 184.57796,51.1346613 184.57796,49.5240248 C184.57796,47.9133884 185.851237,46.6078343 187.422053,46.6078343 L287.503964,46.6078343 C289.074781,46.6078343 290.348058,47.9133884 290.348058,49.5240248 C290.348058,51.1346613 289.074781,52.4402154 287.503964,52.4402154" id="Fill-62" fill="#405FE2"></path>
                            <path d="M287.503964,73.985488 L187.422053,73.985488 C185.851237,73.985488 184.57796,72.6799338 184.57796,71.0694573 C184.57796,69.4586609 185.851237,68.1531068 187.422053,68.1531068 L287.503964,68.1531068 C289.074781,68.1531068 290.348058,69.4586609 290.348058,71.0694573 C290.348058,72.6799338 289.074781,73.985488 287.503964,73.985488" id="Fill-64" fill="#405FE2"></path>
                            <path d="M170.347671,125.408027 L148.346412,125.408027 C144.972423,125.408027 142.237333,122.603604 142.237333,119.144085 L142.237333,96.5849415 C142.237333,93.1255829 144.972423,90.321 148.346412,90.321 L170.347671,90.321 C173.72166,90.321 176.45675,93.1255829 176.45675,96.5849415 L176.45675,119.144085 C176.45675,122.603604 173.72166,125.408027 170.347671,125.408027" id="Fill-66" fill="#405FE2"></path>
                            <path d="M287.968815,102.039184 L187.547884,102.039184 C185.907672,102.039184 184.577944,100.675747 184.577944,98.9939567 L184.577944,98.7598684 C184.577944,97.0782379 185.907672,95.7146414 187.547884,95.7146414 L287.968815,95.7146414 C289.609027,95.7146414 290.938599,97.0782379 290.938599,98.7598684 L290.938599,98.9939567 C290.938599,100.675747 289.609027,102.039184 287.968815,102.039184" id="Fill-74" fill="#405FE2"></path>
                            <path d="M287.503964,122.596792 L187.422053,122.596792 C185.851237,122.596792 184.57796,121.291238 184.57796,119.680602 C184.57796,118.069965 185.851237,116.764411 187.422053,116.764411 L287.503964,116.764411 C289.074781,116.764411 290.348058,118.069965 290.348058,119.680602 C290.348058,121.291238 289.074781,122.596792 287.503964,122.596792" id="Fill-76" fill="#405FE2"></path>
                            <path d="M10.9382992,28.9315429 L10.9382992,188.23313 C10.9382992,202.765154 22.3277736,214.545681 36.3773287,214.545681 L285.355299,214.545681 C299.404854,214.545681 310.794329,202.765154 310.794329,188.23313 L310.794329,28.9315429 L10.9382992,28.9315429 Z" id="Stroke-78" stroke="#5290FF" stroke-width="7"></path>
                            <path d="M136.490896,20.1853377 L45.9867104,20.1853377 C44.0608107,20.1853377 42.4996624,18.5846148 42.4996624,16.6100542 L42.4996624,12.4812093 C42.4996624,10.5066486 44.0608107,8.90576585 45.9867104,8.90576585 L136.490896,8.90576585 C138.416795,8.90576585 139.977944,10.5066486 139.977944,12.4812093 L139.977944,16.6100542 C139.977944,18.5846148 138.416795,20.1853377 136.490896,20.1853377" id="Fill-245" fill="#FFFFFF"></path>
                            <path d="M151.458255,11.966135 C151.458255,14.5617333 149.406041,16.6661298 146.874614,16.6661298 C144.343186,16.6661298 142.290973,14.5617333 142.290973,11.966135 C142.290973,9.37053672 144.343186,7.26630008 146.874614,7.26630008 C149.406041,7.26630008 151.458255,9.37053672 151.458255,11.966135" id="Fill-247" fill="#FFFFFF"></path>
                            <polygon id="Fill-249" fill="#FFFFFF" points="148.086621 15.5064972 152.05912 23.1306774 153.620892 22.2255038 149.478726 14.8450058"></polygon>
                            <polygon id="Fill-251" fill="#FFE2B8" points="194.981514 18.5024121 257.165929 18.5024121 257.165929 10.6694072 194.981514 10.6694072"></polygon>
                            <path d="M282.269727,14.5858457 C282.269727,18.7653777 278.965445,22.1534225 274.889243,22.1534225 C270.813041,22.1534225 267.508759,18.7653777 267.508759,14.5858457 C267.508759,10.4063136 270.813041,7.01826878 274.889243,7.01826878 C278.965445,7.01826878 282.269727,10.4063136 282.269727,14.5858457" id="Fill-253" fill="#FFFFFF"></path>
                            <path d="M277.015327,11.6048011 C277.015327,12.8232117 276.051909,13.8110517 274.863466,13.8110517 C273.675178,13.8110517 272.71176,12.8232117 272.71176,11.6048011 C272.71176,10.3862306 273.675178,9.39839068 274.863466,9.39839068 C276.051909,9.39839068 277.015327,10.3862306 277.015327,11.6048011" id="Fill-254" fill="#6283ED"></path>
                            <path d="M273.095926,13.4698487 C273.095926,13.4698487 273.673073,13.9976668 274.186126,14.1690757 C274.699179,14.3404846 275.311257,14.3061069 275.754448,14.0593868 C276.197483,13.8126666 276.623052,13.4698487 276.623052,13.4698487 C276.623052,13.4698487 277.063903,13.4359507 277.490252,13.7909207 C277.916601,14.1460506 278.191374,14.8683027 278.296167,15.7870674 C278.401273,16.7056722 278.513396,18.7830463 278.186851,19.2229213 C277.860462,19.6629561 277.515047,19.7734446 276.547263,19.7734446 L272.559637,19.7734446 C272.279719,19.7734446 271.533531,19.5265645 271.422811,18.6696797 C271.311935,17.812635 271.405189,15.560814 271.591853,14.9506493 C271.778362,14.3404846 272.151534,13.4698487 273.095926,13.4698487" id="Fill-255" fill="#6283ED"></path>
                            <path d="M119.199046,125.441669 L37.6651864,125.441669 C32.3732507,125.441669 28.0832507,121.042919 28.0832507,115.616835 L28.0832507,51.5682523 C28.0832507,46.142168 32.3732507,41.743418 37.6651864,41.743418 L119.199046,41.743418 C124.490981,41.743418 128.780981,46.142168 128.780981,51.5682523 L128.780981,115.616835 C128.780981,121.042919 124.490981,125.441669 119.199046,125.441669" id="Fill-256" fill="#4586FF"></path>
                            <path d="M114.557207,120.737543 L42.3070252,120.737543 C37.6176444,120.737543 33.816116,116.833243 33.816116,112.017087 L33.816116,55.1679998 C33.816116,50.3518441 37.6176444,46.4475434 42.3070252,46.4475434 L114.557207,46.4475434 C119.246588,46.4475434 123.048116,50.3518441 123.048116,55.1679998 L123.048116,112.017087 C123.048116,116.833243 119.246588,120.737543 114.557207,120.737543" id="Fill-256" fill="#FFFFFF"></path>
                        </g>
                        <g id="编组-6" transform="translate(68.640000, 90.908992)">
                            <path d="M7.25710185,11.5996525 C8.29911494,6.9810449 11.5369655,4.19149228 13.6184966,2.82789577 C11.6225784,1.57270902 8.54628506,0.942557306 4.58329815,4.10610761 C-2.77597775,9.98086129 0.0760691385,19.6937682 5.47451407,20.4772606 C6.20292519,20.5829521 6.84073326,20.6414742 7.40337666,20.6657784 C6.8340277,18.4074016 6.44338975,15.2059559 7.25710185,11.5996525" id="Fill-168" fill="#122FD8"></path>
                            <g id="Group-173" transform="translate(-0.000000, 1.758860)">
                                <mask id="mask-12" fill="white">
                                    <use xlink:href="#path-11"></use>
                                </mask>
                                <g id="Clip-172"></g>
                                <path d="M2.09625213,18.4224159 C2.09625213,17.3082578 -0.0428220284,10.7162088 2.74138953,6.63181517 C5.52544515,2.5474215 12.9611333,-0.829430603 12.9611333,-0.829430603 L-2.41955376,1.81637515 L-1.70642508,11.4248697 L2.09625213,18.4224159 Z" id="Fill-171" fill="#2E53EF" mask="url(#mask-12)"></path>
                            </g>
                            <g id="Group-176" transform="translate(6.705562, 2.718239)">
                                <mask id="mask-14" fill="white">
                                    <use xlink:href="#path-13"></use>
                                </mask>
                                <g id="Clip-175"></g>
                                <path d="M0.551415485,8.88144561 C-0.262140676,12.487749 0.128497274,15.6891948 0.697846238,17.9475716 L0.697846238,17.9475716 C4.30575027,18.10427 4.72773282,16.8068706 4.72773282,16.8068706 L4.72773282,16.8068706 L9.54045474,2.7193581 C9.54045474,2.7193581 8.62319629,1.18515213 6.91296619,0.109529035 L6.91296619,0.109529035 C4.83127917,1.47328544 1.59358451,4.26283806 0.551415485,8.88144561" id="Fill-174" mask="url(#mask-14)"></path>
                            </g>
                            <path d="M43.6713891,20.3727203 C43.6713891,20.3727203 47.8475505,19.3805631 46.0651186,11.442986 C44.2825309,3.5057286 37.0506606,-0.254235278 28.0870401,0.111287895 C19.1235756,0.476811069 7.56256358,6.22108929 10.0072866,19.9550709 C12.4518537,33.6888926 17.2391568,38.2843152 25.9989594,38.9632353 L43.6713891,20.3727203 Z" id="Fill-177" fill="#122FD8"></path>
                            <g id="Group-181" transform="translate(9.668484, 0.000000)">
                                <mask id="mask-16" fill="white">
                                    <use xlink:href="#path-15"></use>
                                </mask>
                                <g id="Clip-180"></g>
                                <path d="M0.00673675027,28.1882805 C0.00673675027,28.1882805 4.88838561,31.5518612 5.36370076,27.3636948 C5.83901592,23.1752085 5.90560371,16.7695988 10.2182155,16.9784235 C14.5309832,17.1872482 20.5067302,14.5398435 21.0498807,11.2333458 C21.5931871,7.92684811 26.20521,6.39360151 30.0106942,8.7268098 C33.8161784,11.060178 35.9890923,5.14177259 35.9890923,5.14177259 L39.3844456,16.630329 C39.3844456,16.630329 34.155667,31.6695449 33.952005,31.7392598 C33.7481871,31.8089746 13.9302896,42.2529278 13.9302896,42.2529278 L-1.35885867,29.1631689 L0.00673675027,28.1882805 Z" id="Fill-179" fill="#082BBF" mask="url(#mask-16)"></path>
                            </g>
                            <path d="M43.5186115,14.5763158 C43.5186115,14.5763158 47.287293,31.0777844 41.4815242,36.0910162 C35.6755995,41.1040882 33.6383563,36.0910162 33.7401872,39.9553924 C33.8420182,43.8196088 35.7774304,49.0416653 35.7774304,49.0416653 C35.7774304,49.0416653 29.9715057,53.5325157 25.1840466,49.0416653 C25.1840466,49.0416653 27.0176278,44.0284335 25.7443508,40.0596449 C24.4710738,36.0910162 27.883425,32.1745138 23.6562701,29.7723901 C23.6562701,29.7723901 17.3410346,23.9236996 21.0588786,20.7382435 C21.0588786,20.7382435 34.6059844,19.3805631 35.6755995,11.8085091 C35.6755995,11.8085091 39.8007674,14.9939652 43.5186115,14.5763158" id="Fill-182" fill="#FDB2D0"></path>
                            <g id="Group-190" transform="translate(19.804798, 11.672437)">
                                <g id="Group-186">
                                    <mask id="mask-18" fill="white">
                                        <use xlink:href="#path-17"></use>
                                    </mask>
                                    <g id="Clip-185"></g>
                                    <path d="M4.80210218,6.14147687 C6.12621668,6.90738063 8.80859727,8.89169497 8.43511309,12.5123891 C8.0616289,16.1329233 6.77135409,17.0033993 7.21267361,18.2042213 C7.65414907,19.405363 9.55556565,21.0764403 12.1019637,20.5543786 C14.6483617,20.031997 14.7907379,18.9557344 16.4002287,19.3719447 C18.0097194,19.7884748 17.5298819,22.0302224 14.697172,22.2323314 C11.8643061,22.4342806 9.96288953,22.6779627 7.65414907,22.0164713 C5.34540862,21.3549799 3.54582301,16.0285109 3.54582301,16.0285109 L1.91605965,10.0755679 L4.80210218,6.14147687 Z" id="Fill-184" fill="#F476AF" mask="url(#mask-18)"></path>
                                </g>
                                <g id="Group-189">
                                    <mask id="mask-20" fill="white">
                                        <use xlink:href="#path-19"></use>
                                    </mask>
                                    <g id="Clip-188"></g>
                                    <path d="M14.7332884,27.290734 C14.6144597,26.8207985 10.4722939,24.0704205 9.18201908,25.045149 C7.89174427,26.0200373 14.3258086,30.5108876 14.3258086,30.5108876 L14.7332884,27.290734 Z" id="Fill-187" fill="#F476AF" mask="url(#mask-20)"></path>
                                </g>
                            </g>
                            <g id="Group-199" transform="translate(16.685932, 19.187568)">
                                <path d="M10.3316174,5.41490762 C10.3316174,8.32790026 8.02864689,10.6890904 5.18782792,10.6890904 C2.346853,10.6890904 0.0438824427,8.32790026 0.0438824427,5.41490762 C0.0438824427,2.50207488 2.346853,0.140724823 5.18782792,0.140724823 C8.02864689,0.140724823 10.3316174,2.50207488 10.3316174,5.41490762" id="Fill-191" fill="#001C6B"></path>
                                <path d="M13.9477553,15.3712728 C13.3272569,15.3712728 12.6499952,15.3266617 11.9222079,15.2158535 C7.9439385,14.6114451 6.96009226,9.0121929 6.92017077,8.77426705 C6.87354373,8.49604731 7.0556855,8.23157867 7.32718277,8.18360975 C7.59899193,8.13532103 7.85629836,8.32255972 7.90308135,8.60045966 C7.91212606,8.65402496 8.80599302,13.7088299 12.0683267,14.2043488 C15.518728,14.7283293 17.7633758,13.6355973 17.7856757,13.6244046 C18.0328458,13.500325 18.3314772,13.6060165 18.4521773,13.8591325 C18.5731893,14.1124084 18.4719821,14.4178105 18.2254358,14.54205 C18.1435655,14.5834632 16.54733,15.3712728 13.9477553,15.3712728" id="Fill-193" fill="#001C6B"></path>
                                <path d="M23.6203408,12.8816378 C23.8849766,13.9831641 22.7709177,15.2114883 21.1322655,15.6253002 C19.4936134,16.0391121 17.9507105,15.4817132 17.6862306,14.3801869 C17.4215949,13.2786606 18.5354978,12.0503365 20.1741499,11.6365246 C21.812958,11.2227127 23.355705,11.7801115 23.6203408,12.8816378" id="Fill-195" fill="#001C6B"></path>
                                <path d="M36.1614408,57.6783895 C36.1614408,57.6783895 39.1674037,65.1266837 41.42172,64.4845397 C43.6761921,63.8425557 56.7018236,48.367782 58.9561398,44.5793565 C61.210612,40.791091 64.8426872,37.9657216 68.7253634,36.4887585 C72.6080395,35.0121153 81.5630831,32.8931681 79.058166,38.0942783 C76.5532489,43.2952285 64.5295531,47.6615196 64.5295531,47.6615196 C64.5295531,47.6615196 55.3865978,62.3014742 49.5000504,70.5203091 C43.6135029,78.7393039 39.0777363,77.7444285 35.1595051,73.1530033 C30.7759391,68.0161716 28.3962445,61.787727 28.3962445,61.787727 L36.1614408,57.6783895 Z" id="Fill-197" fill="#FDB2D0"></path>
                            </g>
                            <g id="Group-202" transform="translate(45.067612, 53.885087)">
                                <mask id="mask-22" fill="white">
                                    <use xlink:href="#path-21"></use>
                                </mask>
                                <g id="Clip-201"></g>
                                <path d="M8.87448332,30.422449 C8.87448332,30.422449 8.73865671,40.0311034 17.1589708,33.6950486 C25.5792848,27.3589938 35.7388345,13.6166976 35.7388345,13.6166976 L36.2403481,27.219724 C36.2403481,27.219724 16.2083405,51.1016906 15.5292074,49.7788677 C14.8502303,48.4558849 6.85423795,43.4428129 6.85423795,43.4428129 L3.84952257,34.6002221 L8.87448332,30.422449 Z" id="Fill-200" fill="#F476AF" mask="url(#mask-22)"></path>
                            </g>
                            <g id="Group-213" transform="translate(14.658670, 49.727781)">
                                <path d="M29.3692371,0.619262773 C30.0578827,0.123264136 30.2860277,-1.10394074 33.2399056,3.23037101 C36.1937834,7.56468276 43.3578183,25.0994018 43.3578183,25.0994018 C43.3578183,25.0994018 41.7958903,33.1872816 29.0975839,32.2821081 L28.4186068,5.545511 L29.3692371,0.619262773 Z" id="Fill-203" fill="#FFF0D7"></path>
                                <path d="M36.817619,198.578986 C35.1273496,199.845046 32.8231315,199.966727 30.3690519,199.472647 C25.7220977,198.537253 20.5471195,195.410639 18.0234892,193.740841 C16.8342656,199.528451 19.4372711,207.04662 19.4372711,207.04662 L22.8153147,207.49433 C22.8153147,207.49433 22.7573038,204.424319 23.4420508,201.460639 C24.1267978,198.497439 26.0062264,204.726044 28.3553562,206.795263 C30.7044859,208.864482 43.0115306,210.263736 45.1442111,207.233379 C46.4173322,205.424311 41.4887444,202.186889 36.817619,198.578986" id="Fill-205" fill="#082BBC"></path>
                                <path d="M36.817619,198.578986 C33.6642896,196.143444 30.6283856,193.538892 29.6967804,191.090558 C27.385077,185.014815 28.7866953,145.873295 29.4822024,134.458131 C30.1778654,123.043127 31.3728589,112.443275 31.3728589,112.443275 L14.6153485,112.540971 C14.6153485,112.540971 17.2068142,135.256334 15.8859745,146.953875 C14.5651348,158.651256 20.771366,186.130572 18.5201686,192.01316 C18.3094892,192.563844 18.1462166,193.142988 18.0234892,193.740841 C20.5471195,195.410639 25.7220977,198.537253 30.3690519,199.472647 C32.8231315,199.966727 35.1273496,199.845046 36.817619,198.578986" id="Fill-207" fill="#F476AF"></path>
                                <path d="M22.7085248,201.677123 C19.3828781,199.133491 16.0718901,196.383913 15.0914746,193.807182 C12.7797712,187.731439 14.1813895,148.589919 14.8768966,137.174915 C15.5724037,125.759751 15.7768454,118.241262 15.7768454,118.241262 L0.0098868048,115.257595 C0.0098868048,115.257595 2.6015084,137.972958 1.2806687,149.670499 C-0.0401709924,161.36788 6.1660602,188.847356 3.91486281,194.729944 C3.67876467,195.346665 3.50301658,196.000001 3.37623468,196.674604 C5.71288899,198.251503 11.2123852,201.687037 16.124443,202.675676 C18.6447985,203.183027 21.0071834,203.041519 22.7085248,201.677123" id="Fill-209" fill="#FDB2D0"></path>
                                <path d="M22.7085248,201.677123 C21.0071834,203.041519 18.6447985,203.183027 16.124443,202.675676 C11.2123852,201.687037 5.71288899,198.251503 3.37623468,196.674604 C2.29398822,202.431354 4.83196532,209.763244 4.83196532,209.763244 L8.21000894,210.210794 C8.21000894,210.210794 8.15199804,207.140783 8.83674504,204.177423 C9.52149204,201.214063 11.4009206,207.442508 13.7500504,209.511727 C16.0991802,211.580946 28.4062249,212.98036 30.5387494,209.950003 C31.7669588,208.204894 27.2241747,205.131045 22.7085248,201.677123" id="Fill-211" fill="#122FD8"></path>
                            </g>
                            <g id="Group-216" transform="translate(7.953108, 98.496183)">
                                <mask id="mask-24" fill="white">
                                    <use xlink:href="#path-23"></use>
                                </mask>
                                <g id="Clip-215"></g>
                                <path d="M12.1381581,0.885666167 L10.7120567,2.45233111 C10.7120567,2.45233111 10.5592323,4.38451922 8.26748964,8.66638495 L8.26748964,8.66638495 C5.975747,12.9485705 0.729970556,21.6691603 0.11882879,30.0245468 L0.11882879,30.0245468 C-0.492312977,38.3799332 5.41544275,68.9807466 5.41544275,68.9807466 L5.41544275,68.9807466 C5.41544275,68.9807466 22.4257372,78.7982257 37.9082552,68.145128 L37.9082552,68.145128 C37.9082552,68.145128 41.0659509,49.5549328 42.0844166,35.5598404 L42.0844166,35.5598404 C43.1030382,21.5649079 37.2291221,0.0849049891 37.2291221,0.0849049891 L37.2291221,0.0849049891 L12.1381581,0.885666167 Z" id="Fill-214" mask="url(#mask-24)"></path>
                            </g>
                            <g id="Group-219" transform="translate(7.953108, 98.496183)">
                                <mask id="mask-26" fill="white">
                                    <use xlink:href="#path-25"></use>
                                </mask>
                                <use id="Clip-218" fill="#FCAA23" xlink:href="#path-25"></use>
                                <path d="M20.6942052,76.5004185 C21.6108399,74.8295011 29.7357974,68.2496043 30.1042914,56.7612078 C30.4726294,45.2728112 15.3975913,32.4265745 21.9164888,31.0688941 C28.4353863,29.7112138 33.3246763,15.8568302 29.046528,7.58794768 C24.7685357,-0.680934815 51.9647341,7.58794768 51.9647341,7.58794768 L45.3438497,73.1066174 C45.3438497,73.1066174 37.3310155,73.9938825 35.124106,73.7850578 C32.9171965,73.5762331 20.6942052,76.5004185 20.6942052,76.5004185" id="Fill-217" fill-opacity="0.5" fill="#DB6800" mask="url(#mask-26)"></path>
                            </g>
                            <path d="M29.6998525,46.6394458 C31.8567041,46.9437286 34.6376409,45.3567568 34.6376409,45.3567568 C34.6376409,45.3567568 34.45316,47.4226183 40.4119092,48.1538246 C46.3706583,48.8848709 45.7595166,51.9660746 46.3706583,55.9347033 C46.9818001,59.903332 52.5840629,66.9008782 52.0747521,73.4806151 C51.5654413,80.0605119 45.6576856,87.4757075 45.6576856,99.1729287 C45.6576856,99.1729287 38.7313083,109.408217 18.6651491,100.948418 C18.6651491,100.948418 15.5076093,85.073424 14.3871567,79.3293056 C13.2667041,73.5851873 6.64597568,53.4513523 12.0444206,51.0375562 C17.4428655,48.6237601 25.2161709,49.3589638 25.6933574,45.9083994 C25.6933574,45.9083994 27.8494293,46.378335 29.6998525,46.6394458" id="Fill-220" fill="#FFFFFF"></path>
                            <g id="Group-224" transform="translate(9.824427, 45.250682)">
                                <mask id="mask-28" fill="white">
                                    <use xlink:href="#path-27"></use>
                                </mask>
                                <g id="Clip-223"></g>
                                <path d="M2.08416652,4.5506196 C2.08416652,4.5506196 9.01054384,7.3767885 11.251449,16.2889342 C13.4923541,25.2010799 10.6403072,34.2256328 10.9797957,37.2678218 C11.3192843,40.3103305 24.7645591,32.7208478 24.7645591,32.7208478 L29.178534,46.7159402 L20.8940466,60.502048 L7.31621996,60.0858377 C7.31621996,60.0858377 3.510112,42.3990572 3.37444133,42.1900726 C3.23861472,41.9812479 2.49164635,33.2779269 2.42365507,30.771231 C2.35581974,28.2648549 -2.20255867,9.65115491 -2.05799924,9.37421434 C-1.91359575,9.09743367 2.08416652,4.5506196 2.08416652,4.5506196" id="Fill-222" fill="#FFF0D7" mask="url(#mask-28)"></path>
                            </g>
                            <g id="Group-227" transform="translate(22.143948, 49.248092)">
                                <mask id="mask-30" fill="white">
                                    <use xlink:href="#path-29"></use>
                                </mask>
                                <g id="Clip-226"></g>
                                <path d="M0.123039258,1.60951718 L0.581668484,6.80103353 C0.678197383,7.89184678 1.89268375,8.46395611 2.76284733,7.82852781 L2.76284733,7.82852781 L8.24207088,3.82616099 C6.0351614,2.52252563 3.78957797,1.19618498 2.19100327,0.251517039 L2.19100327,0.251517039 C1.96722465,0.119442612 1.73128244,0.0594814613 1.50220174,0.0593215649 L1.50220174,0.0593215649 C0.736520174,0.0593215649 0.0450676118,0.728488004 0.123039258,1.60951718 M14.1914635,0.438915622 L8.54366521,3.61781598 C8.49625845,3.64451868 8.45056707,3.67393961 8.40659106,3.70591889 L8.40659106,3.70591889 L8.24207088,3.82616099 C10.7536936,5.3096798 13.2151025,6.76345788 14.6156292,7.59076186 L14.6156292,7.59076186 C15.1589357,7.91135414 15.8418113,7.53655698 15.881265,6.89521251 L15.881265,6.89521251 C15.9642268,5.5496843 16.0986499,3.47534828 16.2363479,1.80075327 L16.2363479,1.80075327 C16.3083937,0.925640267 15.6206838,0.261110823 14.8568735,0.261110823 L14.8568735,0.261110823 C14.6359019,0.261110823 14.4085365,0.316754771 14.1914635,0.438915622" id="Fill-225" mask="url(#mask-30)"></path>
                            </g>
                            <g id="Group-234" transform="translate(0.779716, 51.806434)">
                                <polygon id="Fill-228" fill="#00299B" points="33.9111635 9.66356287 63.3142714 8.93251652 56.2860631 53.7374069 29.5435037 54.8862626"></polygon>
                                <path d="M12.0923108,29.5072659 C12.0923108,29.7160906 8.88377754,42.0401057 10.8700273,41.1523609 C12.856277,40.2644562 28.0839836,33.7043865 30.4777132,30.274129 C32.8714427,26.8440314 37.6927415,22.2486089 43.1760196,22.7708305 C48.6594537,23.2930522 50.0345616,28.567235 42.9043664,31.5437065 C35.7743272,34.5204978 34.0427328,34.6205929 30.2230578,38.0954615 C26.4033828,41.5700103 8.93477099,54.8340564 3.63800109,54.2595486 C-1.65861287,53.6852007 0.463463468,39.6902682 1.0067699,35.1469719 C1.54992039,30.6038354 2.77235987,25.9562866 2.77235987,25.9562866 L12.0923108,29.5072659 Z" id="Fill-230" fill="#FDB2D0"></path>
                                <path d="M14.2525153,5.53529362 C16.5685851,11.9818368 15.3389722,29.6465517 15.3389722,29.6465517 C15.3389722,29.6465517 4.47409106,33.6151803 0.128107415,26.2346823 C0.128107415,26.2346823 3.04814558,14.3284764 5.42487732,6.80886846 C7.80145311,-0.710739504 9.83869629,-0.258232688 10.7299122,0.342178299 C11.6211281,0.942749182 13.4207137,3.21983383 14.2525153,5.53529362" id="Fill-232" fill="#FFFFFF"></path>
                            </g>
                            <g id="Group-237" transform="translate(0.779716, 51.806434)">
                                <mask id="mask-32" fill="white">
                                    <use xlink:href="#path-31"></use>
                                </mask>
                                <g id="Clip-236"></g>
                                <path d="M14.5920506,11.404307 C14.5920506,11.404307 12.2153189,31.5960246 7.22435376,31.9092616 L15.2031924,32.1182462 C15.2031924,32.1182462 14.9995304,27.2095866 14.9995304,26.687365 C14.9995304,26.1649834 14.5920506,11.404307 14.5920506,11.404307" id="Fill-235" fill="#FFF0D7" mask="url(#mask-32)"></path>
                            </g>
                            <g id="Group-240" transform="translate(13.878953, 54.844466)">
                                <mask id="mask-34" fill="white">
                                    <use xlink:href="#path-33"></use>
                                </mask>
                                <g id="Clip-239"></g>
                                <path d="M1.25518757,5.47677154 C1.43530207,7.75497546 1.20216685,23.3632627 1.14571538,26.9433431 L1.14571538,26.9433431 C1.83326936,26.7570638 2.23981352,26.60852 2.23981352,26.60852 L2.23981352,26.60852 C2.23981352,26.60852 3.46927045,8.9439651 1.15320065,2.4971021 L1.15320065,2.4971021 C1.13791821,2.45456966 1.12232388,2.41235701 1.10641767,2.36982456 L1.10641767,2.36982456 L0.809189749,1.65492775 C0.571844057,1.13414517 0.295824427,0.625514722 0.00389858233,0.149183342 L0.00389858233,0.149183342 C0.518043621,1.79131938 1.1393217,4.01148092 1.25518757,5.47677154" id="Fill-238" mask="url(#mask-34)"></path>
                            </g>
                        </g>
                        <g id="编组-13" transform="translate(449.973333, 0.000000)">
                            <path d="M83.1065474,42.6066347 C83.1065474,66.1376287 64.5025125,85.2132694 41.5532737,85.2132694 C18.6040349,85.2132694 -1.78829396e-13,66.1376287 -1.78829396e-13,42.6066347 C-1.78829396e-13,19.0756407 18.6040349,-1.66693326e-13 41.5532737,-1.66693326e-13 C64.5025125,-1.66693326e-13 83.1065474,19.0756407 83.1065474,42.6066347" id="Fill-272" fill="#7BBDFF"></path>
                            <path d="M79.6364349,42.6066347 C79.6364349,64.1725019 62.586063,81.6552546 41.5533673,81.6552546 C20.5205156,81.6552546 3.47014373,64.1725019 3.47014373,42.6066347 C3.47014373,21.0407674 20.5205156,3.55801472 41.5533673,3.55801472 C62.586063,3.55801472 79.6364349,21.0407674 79.6364349,42.6066347" id="Fill-274" fill="#DAEBFF"></path>
                            <path d="M41.5533829,43.828499 C41.2658234,43.828499 40.9785759,43.7223278 40.7513665,43.510625 L20.0857613,24.2397508 C19.5989063,23.785645 19.5631953,23.0128657 20.0060743,22.5135092 C20.4489532,22.0144726 21.2026272,21.9778563 21.6894821,22.4318022 L41.5691332,40.9695514 L56.8604647,27.2667496 C57.3562084,26.8227173 58.1091026,26.8746836 58.5420012,27.3826745 C58.9750557,27.8908252 58.9245301,28.6626451 58.4289423,29.1068374 L42.3374658,43.5266146 C42.1127515,43.7280841 41.8329892,43.828499 41.5533829,43.828499" id="Fill-276" fill="#054AA9"></path>
                            <polygon id="Fill-278" fill="#054AA9" points="40.253923 79.2025558 42.7494835 79.2025558 42.7494835 72.4856277 40.253923 72.4856277"></polygon>
                            <polygon id="Fill-280" fill="#054AA9" points="40.253923 12.7275457 42.7494835 12.7275457 42.7494835 6.01061765 40.253923 6.01061765"></polygon>
                            <polygon id="Fill-281" fill="#054AA9" points="5.81057186 43.8859178 12.3612818 43.8859178 12.3612818 41.3272556 5.81057186 41.3272556"></polygon>
                            <polygon id="Fill-282" fill="#054AA9" points="70.6421248 43.8859178 77.1928347 43.8859178 77.1928347 41.3272556 70.6421248 41.3272556"></polygon>
                            <line x1="41.5533049" y1="43.3795739" x2="51.6398731" y2="74.4848604" id="Stroke-283" stroke="#DE4D30" stroke-width="2" stroke-linecap="round" stroke-linejoin="round"></line>
                            <path d="M45.946898,42.6066347 C45.946898,45.0947826 43.9798293,47.1117158 41.5533517,47.1117158 C39.1267181,47.1117158 37.1596494,45.0947826 37.1596494,42.6066347 C37.1596494,40.1184868 39.1267181,38.1015536 41.5533517,38.1015536 C43.9798293,38.1015536 45.946898,40.1184868 45.946898,42.6066347" id="Fill-284" fill="#7BBDFF"></path>
                            <path d="M44.1409811,42.6066347 C44.1409811,44.0720852 42.9824784,45.2599556 41.5532581,45.2599556 C40.1241938,45.2599556 38.9655351,44.0720852 38.9655351,42.6066347 C38.9655351,41.1411842 40.1241938,39.9533138 41.5532581,39.9533138 C42.9824784,39.9533138 44.1409811,41.1411842 44.1409811,42.6066347" id="Fill-285" fill="#FFAB00"></path>
                        </g>
                        <g id="编组-20" transform="translate(165.117333, 108.307000)">
                            <g id="编组-16" transform="translate(3.432000, 14.076000)">
                                <polygon id="Fill-165" fill="#0542BF" points="2.66803923 2.06364919 65.0946845 2.06364919 65.0946845 -6.90074521e-14 2.66803923 -6.90074521e-14"></polygon>
                                <path d="M67.0921563,13.5113327 L0.780189679,13.5113327 C0.349364716,13.5113327 -1.21715448e-13,13.1511966 -1.21715448e-13,12.7069173 L-1.21715448e-13,2.86799597 C-1.21715448e-13,2.42380242 0.349364716,2.06358065 0.780189679,2.06358065 L67.0921563,2.06358065 C67.5231475,2.06358065 67.8724291,2.42380242 67.8724291,2.86799597 L67.8724291,12.7069173 C67.8724291,13.1511966 67.5231475,13.5113327 67.0921563,13.5113327" id="Fill-166" fill="#B3CEFF"></path>
                                <path d="M8.23576405,7.78747379 C8.23576405,8.6332752 7.59214497,9.31901613 6.79815692,9.31901613 C6.00416887,9.31901613 5.36054979,8.6332752 5.36054979,7.78747379 C5.36054979,6.94158669 6.00416887,6.25593145 6.79815692,6.25593145 C7.59214497,6.25593145 8.23576405,6.94158669 8.23576405,7.78747379" id="Fill-167" fill="#006DFE"></path>
                                <path d="M14.2678455,7.78747379 C14.2678455,8.6332752 13.6242264,9.31901613 12.8302384,9.31901613 C12.0361672,9.31901613 11.3925481,8.6332752 11.3925481,7.78747379 C11.3925481,6.94158669 12.0361672,6.25593145 12.8302384,6.25593145 C13.6242264,6.25593145 14.2678455,6.94158669 14.2678455,7.78747379" id="Fill-168" fill="#006DFE"></path>
                                <path d="M20.2998439,7.78747379 C20.2998439,8.6332752 19.6562248,9.31901613 18.8622367,9.31901613 C18.0682487,9.31901613 17.4246296,8.6332752 17.4246296,7.78747379 C17.4246296,6.94158669 18.0682487,6.25593145 18.8622367,6.25593145 C19.6562248,6.25593145 20.2998439,6.94158669 20.2998439,7.78747379" id="Fill-169" fill="#006DFE"></path>
                                <path d="M51.7966897,10.6948337 L50.4200116,10.6948337 C50.3427074,10.6948337 50.2799498,10.6301411 50.2799498,10.5503679 L50.2799498,4.99863407 C50.2799498,4.91886089 50.3427074,4.85416835 50.4200116,4.85416835 L51.7966897,4.85416835 C51.8741601,4.85416835 51.9368346,4.91886089 51.9368346,4.99863407 L51.9368346,10.5503679 C51.9368346,10.6301411 51.8741601,10.6948337 51.7966897,10.6948337" id="Fill-170" fill="#006DFE"></path>
                                <path d="M54.5257743,10.6948337 L53.1490961,10.6948337 C53.0717089,10.6948337 53.0089512,10.6301411 53.0089512,10.5503679 L53.0089512,4.99863407 C53.0089512,4.91886089 53.0717089,4.85416835 53.1490961,4.85416835 L54.5257743,4.85416835 C54.6031615,4.85416835 54.6659192,4.91886089 54.6659192,4.99863407 L54.6659192,10.5503679 C54.6659192,10.6301411 54.6031615,10.6948337 54.5257743,10.6948337" id="Fill-171" fill="#006DFE"></path>
                                <path d="M57.254784,10.6948337 L55.8781058,10.6948337 C55.8007186,10.6948337 55.737961,10.6301411 55.737961,10.5503679 L55.737961,4.99863407 C55.737961,4.91886089 55.8007186,4.85416835 55.8781058,4.85416835 L57.254784,4.85416835 C57.3321713,4.85416835 57.3949289,4.91886089 57.3949289,4.99863407 L57.3949289,10.5503679 C57.3949289,10.6301411 57.3321713,10.6948337 57.254784,10.6948337" id="Fill-172" fill="#006DFE"></path>
                                <path d="M59.9837854,10.6948337 L58.6071073,10.6948337 C58.52972,10.6948337 58.4670455,10.6301411 58.4670455,10.5503679 L58.4670455,4.99863407 C58.4670455,4.91886089 58.52972,4.85416835 58.6071073,4.85416835 L59.9837854,4.85416835 C60.0612558,4.85416835 60.1239303,4.91886089 60.1239303,4.99863407 L60.1239303,10.5503679 C60.1239303,10.6301411 60.0612558,10.6948337 59.9837854,10.6948337" id="Fill-173" fill="#006DFE"></path>
                            </g>
                            <g id="编组-17" transform="translate(3.432000, 0.000000)">
                                <polygon id="Fill-174" fill="#0542BF" points="2.66803923 2.06364919 65.0946845 2.06364919 65.0946845 -7.52808568e-14 2.66803923 -7.52808568e-14"></polygon>
                                <path d="M67.0921563,13.5112898 L0.780189679,13.5112898 C0.349364716,13.5112898 -1.21715448e-13,13.1512394 -1.21715448e-13,12.7069602 L-1.21715448e-13,2.86795313 C-1.21715448e-13,2.42384526 0.349364716,2.06362349 0.780189679,2.06362349 L67.0921563,2.06362349 C67.5231475,2.06362349 67.8724291,2.42384526 67.8724291,2.86795313 L67.8724291,12.7069602 C67.8724291,13.1512394 67.5231475,13.5112898 67.0921563,13.5112898" id="Fill-175" fill="#B3CEFF"></path>
                                <path d="M8.23576405,7.78751663 C8.23576405,8.63331804 7.59214497,9.31905897 6.79815692,9.31905897 C6.00416887,9.31905897 5.36054979,8.63331804 5.36054979,7.78751663 C5.36054979,6.94162954 6.00416887,6.25597429 6.79815692,6.25597429 C7.59214497,6.25597429 8.23576405,6.94162954 8.23576405,7.78751663" id="Fill-176" fill="#006DFE"></path>
                                <path d="M14.2678455,7.78751663 C14.2678455,8.63331804 13.6242264,9.31905897 12.8302384,9.31905897 C12.0361672,9.31905897 11.3925481,8.63331804 11.3925481,7.78751663 C11.3925481,6.94162954 12.0361672,6.25597429 12.8302384,6.25597429 C13.6242264,6.25597429 14.2678455,6.94162954 14.2678455,7.78751663" id="Fill-177" fill="#006DFE"></path>
                                <path d="M20.2998439,7.78751663 C20.2998439,8.63331804 19.6562248,9.31905897 18.8622367,9.31905897 C18.0682487,9.31905897 17.4246296,8.63331804 17.4246296,7.78751663 C17.4246296,6.94162954 18.0682487,6.25597429 18.8622367,6.25597429 C19.6562248,6.25597429 20.2998439,6.94162954 20.2998439,7.78751663" id="Fill-178" fill="#006DFE"></path>
                                <path d="M51.7966897,10.6947994 L50.4200116,10.6947994 C50.3427074,10.6947994 50.2799498,10.6301925 50.2799498,10.5503337 L50.2799498,4.9985998 C50.2799498,4.9189123 50.3427074,4.85421976 50.4200116,4.85421976 L51.7966897,4.85421976 C51.8741601,4.85421976 51.9368346,4.9189123 51.9368346,4.9985998 L51.9368346,10.5503337 C51.9368346,10.6301925 51.8741601,10.6947994 51.7966897,10.6947994" id="Fill-179" fill="#006DFE"></path>
                                <path d="M54.5257743,10.6947994 L53.1490961,10.6947994 C53.0717089,10.6947994 53.0089512,10.6301925 53.0089512,10.5503337 L53.0089512,4.9985998 C53.0089512,4.9189123 53.0717089,4.85421976 53.1490961,4.85421976 L54.5257743,4.85421976 C54.6031615,4.85421976 54.6659192,4.9189123 54.6659192,4.9985998 L54.6659192,10.5503337 C54.6659192,10.6301925 54.6031615,10.6947994 54.5257743,10.6947994" id="Fill-180" fill="#006DFE"></path>
                                <path d="M57.254784,10.6947994 L55.8781058,10.6947994 C55.8007186,10.6947994 55.737961,10.6301925 55.737961,10.5503337 L55.737961,4.9985998 C55.737961,4.9189123 55.8007186,4.85421976 55.8781058,4.85421976 L57.254784,4.85421976 C57.3321713,4.85421976 57.3949289,4.9189123 57.3949289,4.9985998 L57.3949289,10.5503337 C57.3949289,10.6301925 57.3321713,10.6947994 57.254784,10.6947994" id="Fill-181" fill="#006DFE"></path>
                                <path d="M59.9837854,10.6947994 L58.6071073,10.6947994 C58.52972,10.6947994 58.4670455,10.6301925 58.4670455,10.5503337 L58.4670455,4.9985998 C58.4670455,4.9189123 58.52972,4.85421976 58.6071073,4.85421976 L59.9837854,4.85421976 C60.0612558,4.85421976 60.1239303,4.9189123 60.1239303,4.9985998 L60.1239303,10.5503337 C60.1239303,10.6301925 60.0612558,10.6947994 59.9837854,10.6947994" id="Fill-182" fill="#006DFE"></path>
                            </g>
                            <g id="编组-18" transform="translate(3.432000, 27.370000)">
                                <polygon id="Fill-183" fill="#0542BF" points="2.66803923 2.06373488 65.0946845 2.06373488 65.0946845 -8.15542616e-14 2.66803923 -8.15542616e-14"></polygon>
                                <path d="M67.0921563,13.5113412 L0.780189679,13.5113412 C0.349364716,13.5113412 -1.21715448e-13,13.1512051 -1.21715448e-13,12.7070116 L-1.21715448e-13,2.86800454 C-1.21715448e-13,2.42381099 0.349364716,2.0636749 0.780189679,2.0636749 L67.0921563,2.0636749 C67.5231475,2.0636749 67.8724291,2.42381099 67.8724291,2.86800454 L67.8724291,12.7070116 C67.8724291,13.1512051 67.5231475,13.5113412 67.0921563,13.5113412" id="Fill-184" fill="#B3CEFF"></path>
                                <path d="M8.23576405,7.78748236 C8.23576405,8.63336946 7.59214497,9.3190247 6.79815692,9.3190247 C6.00416887,9.3190247 5.36054979,8.63336946 5.36054979,7.78748236 C5.36054979,6.94168095 6.00416887,6.25594002 6.79815692,6.25594002 C7.59214497,6.25594002 8.23576405,6.94168095 8.23576405,7.78748236" id="Fill-185" fill="#006DFE"></path>
                                <path d="M14.2678455,7.78748236 C14.2678455,8.63336946 13.6242264,9.3190247 12.8302384,9.3190247 C12.0361672,9.3190247 11.3925481,8.63336946 11.3925481,7.78748236 C11.3925481,6.94168095 12.0361672,6.25594002 12.8302384,6.25594002 C13.6242264,6.25594002 14.2678455,6.94168095 14.2678455,7.78748236" id="Fill-186" fill="#006DFE"></path>
                                <path d="M20.2998439,7.78748236 C20.2998439,8.63336946 19.6562248,9.3190247 18.8622367,9.3190247 C18.0682487,9.3190247 17.4246296,8.63336946 17.4246296,7.78748236 C17.4246296,6.94168095 18.0682487,6.25594002 18.8622367,6.25594002 C19.6562248,6.25594002 20.2998439,6.94168095 20.2998439,7.78748236" id="Fill-187" fill="#006DFE"></path>
                                <path d="M51.7966897,10.6948508 L50.4200116,10.6948508 C50.3427074,10.6948508 50.2799498,10.6301583 50.2799498,10.5503851 L50.2799498,4.99856552 C50.2799498,4.91887802 50.3427074,4.85418548 50.4200116,4.85418548 L51.7966897,4.85418548 C51.8741601,4.85418548 51.9368346,4.91887802 51.9368346,4.99856552 L51.9368346,10.5503851 C51.9368346,10.6301583 51.8741601,10.6948508 51.7966897,10.6948508" id="Fill-188" fill="#006DFE"></path>
                                <path d="M54.5257743,10.6948508 L53.1490961,10.6948508 C53.0717089,10.6948508 53.0089512,10.6301583 53.0089512,10.5503851 L53.0089512,4.99856552 C53.0089512,4.91887802 53.0717089,4.85418548 53.1490961,4.85418548 L54.5257743,4.85418548 C54.6031615,4.85418548 54.6659192,4.91887802 54.6659192,4.99856552 L54.6659192,10.5503851 C54.6659192,10.6301583 54.6031615,10.6948508 54.5257743,10.6948508" id="Fill-189" fill="#006DFE"></path>
                                <path d="M57.254784,10.6948508 L55.8781058,10.6948508 C55.8007186,10.6948508 55.737961,10.6301583 55.737961,10.5503851 L55.737961,4.99856552 C55.737961,4.91887802 55.8007186,4.85418548 55.8781058,4.85418548 L57.254784,4.85418548 C57.3321713,4.85418548 57.3949289,4.91887802 57.3949289,4.99856552 L57.3949289,10.5503851 C57.3949289,10.6301583 57.3321713,10.6948508 57.254784,10.6948508" id="Fill-190" fill="#006DFE"></path>
                                <path d="M59.9837854,10.6948508 L58.6071073,10.6948508 C58.52972,10.6948508 58.4670455,10.6301583 58.4670455,10.5503851 L58.4670455,4.99856552 C58.4670455,4.91887802 58.52972,4.85418548 58.6071073,4.85418548 L59.9837854,4.85418548 C60.0612558,4.85418548 60.1239303,4.91887802 60.1239303,4.99856552 L60.1239303,10.5503851 C60.1239303,10.6301583 60.0612558,10.6948508 59.9837854,10.6948508" id="Fill-191" fill="#006DFE"></path>
                            </g>
                            <g id="编组-19" transform="translate(0.000000, 41.446000)">
                                <polygon id="Fill-192" fill="#0542BF" points="6.03100096 2.04033887 68.827561 2.04033887 68.827561 0 6.03100096 0"></polygon>
                                <path d="M71.6611455,9.23252492 L3.08011599,9.23252492 C1.37904067,9.23252492 0,7.60543854 0,5.59839369 C0,3.5911794 1.37904067,1.96409302 3.08011599,1.96409302 L71.6611455,1.96409302 C73.3622927,1.96409302 74.7413333,3.5911794 74.7413333,5.59839369 C74.7413333,7.60543854 73.3622927,9.23252492 71.6611455,9.23252492" id="Fill-193" fill="#006DFE"></path>
                            </g>
                        </g>
                        <path d="M290.248845,167.348 L276.412295,167.348 C274.546791,167.348 273.034667,165.784216 273.034667,163.855223 L273.034667,152.072777 C273.034667,150.143784 274.546791,148.58 276.412295,148.58 L290.248845,148.58 C292.11435,148.58 293.626667,150.143784 293.626667,152.072777 L293.626667,163.855223 C293.626667,165.784216 292.11435,167.348 290.248845,167.348" id="Fill-268" fill="#FCCD03"></path>
                        <path d="M290.248845,118.864 L276.412295,118.864 C274.546791,118.864 273.034667,117.300216 273.034667,115.371223 L273.034667,103.588777 C273.034667,101.659784 274.546791,100.096 276.412295,100.096 L290.248845,100.096 C292.11435,100.096 293.626667,101.659784 293.626667,103.588777 L293.626667,115.371223 C293.626667,117.300216 292.11435,118.864 290.248845,118.864" id="Fill-268备份" fill="#FCCD03"></path>
                        <path d="M283.317587,153.75801 C284.247755,152.048595 286.262197,151.830736 287.541227,152.370848 C289.128274,153.040749 290.036933,154.723158 289.765815,156.481343 C289.545606,157.910424 288.838016,159.081741 287.934684,160.147657 C286.674005,161.635182 285.136485,162.776874 283.496951,163.784344 C283.415261,163.834526 283.256418,163.846619 283.179463,163.798855 C281.138185,162.536444 279.237597,161.10434 277.891281,159.039016 C277.192964,157.967458 276.781157,156.805612 276.856928,155.486771 C276.974136,153.443213 278.980291,151.809172 280.95448,152.142308 C281.991201,152.317442 282.800214,152.798907 283.317587,153.75801" id="Fill-270" fill="#FFFFFF"></path>
                        <path d="M283.317587,105.27401 C284.247755,103.564595 286.262197,103.346736 287.541227,103.886848 C289.128274,104.556749 290.036933,106.239158 289.765815,107.997343 C289.545606,109.426424 288.838016,110.597741 287.934684,111.663657 C286.674005,113.151182 285.136485,114.292874 283.496951,115.300344 C283.415261,115.350526 283.256418,115.362619 283.179463,115.314855 C281.138185,114.052444 279.237597,112.62034 277.891281,110.555016 C277.192964,109.483458 276.781157,108.321612 276.856928,107.002771 C276.974136,104.959213 278.980291,103.325172 280.95448,103.658308 C281.991201,103.833442 282.800214,104.314907 283.317587,105.27401" id="Fill-270备份" fill="#FFFFFF"></path>
                        <g id="编组-12" transform="translate(387.434667, 190.026000)">
                            <path d="M96.4323247,99.314 C96.4323247,99.314 72.9718094,83.4208419 67.4106841,60.2063547 C61.8496918,36.9918675 74.1882224,16.813 74.1882224,16.813 C74.1882224,16.813 104.77388,28.9802209 107.03297,56.2005998 C109.292061,83.4208419 103.20973,99.314 103.20973,99.314 L96.4323247,99.314 Z" id="Fill-23" fill="#6C90FE"></path>
                            <path d="M105.597968,99.705 C105.597968,99.705 84.3409406,77.4004419 96.2870921,65.4452786 C96.2870921,65.4452786 89.9626194,59.9137361 90.8410445,50.9918583 C91.7193352,42.070117 99.9762894,41.7133402 99.9762894,41.7133402 C99.9762894,41.7133402 90.6652788,35.6464961 95.5842982,26.5460932 C100.503318,17.445827 106.984863,17.2674386 106.984863,17.2674386 C106.984863,17.2674386 105.773734,9.23791243 112.800866,2.10046478 C119.827864,-5.03698288 126.679365,7.27509384 124.571252,20.1224723 C124.571252,20.1224723 133.664942,24.0479729 132.631596,35.4679711 C131.598384,46.8878327 125.800939,47.0663577 125.800939,47.0663577 C125.800939,47.0663577 136.475715,57.2372274 132.631596,68.657089 C128.787477,80.0770872 121.233317,80.255339 121.233317,80.255339 C121.233317,80.255339 130.368562,91.3185605 105.597968,99.705" id="Fill-25" fill="#4153F1"></path>
                            <path d="M98.3833349,99.314 C98.0979599,99.314 97.82426,99.15014 97.6933138,98.8701449 C82.3986216,66.1284264 76.7138089,31.3577911 76.6580871,31.0104673 C76.5901596,30.5863511 76.8724832,30.1863001 77.2886716,30.1170788 C77.705656,30.0486685 78.097433,30.335694 78.1654932,30.7599454 C78.2206842,31.1049708 83.874054,65.6656435 99.0722945,98.2010498 C99.2536556,98.5892034 99.0919298,99.0534734 98.7110318,99.2382891 C98.6051605,99.2896644 98.4934517,99.314 98.3833349,99.314" id="Fill-27" fill="#FFFFFF"></path>
                            <path d="M108.272344,99.314 C108.248964,99.314 108.225328,99.3129178 108.201564,99.3106183 C107.7972,99.2696317 107.500794,98.8893901 107.539378,98.4613984 L114.839145,17.5176764 C114.877729,17.0895494 115.235971,16.7757249 115.641102,16.8165762 C116.045467,16.8575628 116.341873,17.2376692 116.303289,17.6656608 L109.003522,98.6093829 C108.967238,99.012485 108.647068,99.314 108.272344,99.314" id="Fill-29" fill="#FFFFFF"></path>
                            <path d="M112.463281,97.359 L92.4605338,97.359 C92.4605338,97.359 90.18739,125.292405 101.893689,126.260688 C113.599853,127.229106 112.463281,106.174432 112.463281,97.359" id="Fill-31" fill="#FFFFFF"></path>
                            <path d="M91.8806645,98.3422259 C91.6610834,101.902625 90.6194429,125.216889 100.794215,126.061813 C102.888321,126.235158 104.593784,125.680614 106.0095,124.36501 C110.905104,119.815232 110.796716,107.425329 110.731898,100.022578 C110.726819,99.4332576 110.721874,98.8688155 110.719736,98.3422259 L91.8806645,98.3422259 Z M101.507219,127.075 C101.247009,127.075 100.982389,127.063765 100.712958,127.041428 C97.8920821,126.807224 95.6247699,125.073371 93.9739689,121.887751 C92.6929676,119.415575 91.7790932,116.055941 91.2576047,111.901809 C90.3762063,104.877582 90.9265624,97.8807745 90.9321756,97.8108211 C90.9528908,97.5557522 91.1659232,97.359 91.4217226,97.359 L111.209818,97.359 C111.48112,97.359 111.700968,97.5791591 111.700968,97.8506798 C111.700968,98.5070109 111.707383,99.2390467 111.714199,100.014018 C111.780354,107.579012 111.891147,120.24057 106.677866,125.085275 C105.2552,126.407567 103.518598,127.075 101.507219,127.075 L101.507219,127.075 Z" id="Fill-33" fill="#5487F7"></path>
                            <path d="M0,141.933 L156.728,141.933 L119.374503,135.04776 C119.374503,135.04776 123.118624,130.020934 119.461551,127.76416 C119.461551,127.76416 125.730724,120.557311 119.200408,114.437097 C112.670091,108.316884 106.83629,115.157204 106.83629,115.157204 C106.83629,115.157204 106.487966,97.7864678 91.7730244,98.1465209 C77.05795,98.506574 75.9260622,108.496979 75.9260622,108.496979 C75.9260622,108.496979 58.5988878,99.316659 48.32445,108.946873 C38.0501455,118.577226 41.7070856,124.877535 41.7070856,124.877535 C41.7070856,124.877535 35.4380455,120.0173 29.8653878,125.327429 C24.2928633,130.637557 29.25592,134.327791 29.25592,134.327791 L0,141.933 Z" id="Fill-37" fill="#E3EBFF"></path>
                        </g>
                        <g filter="url(#filter-35)" id="数据仓库即服务">
                            <g transform="translate(169.693333, 200.583000)">
                                <mask id="mask-37" fill="white">
                                    <use xlink:href="#path-36"></use>
                                </mask>
                                <g id="Clip-2"></g>
                                <path d="M33.2345624,34.6497075 L32.1553446,33.0380575 L35.3930593,31.1495098 L35.3930593,11.7346444 L25.7052825,6.06881688 L26.6337665,4.45716683 L37.2753333,10.6518295 L37.2753333,32.2323247 L33.2345624,34.6497075 Z M1.78694068,23.4438368 L-0.0953333333,23.4438368 L-0.0953333333,10.7776753 L18.9790589,0 L23.270624,2.41738285 L22.3170177,4.18002327 L18.9539365,2.16569125 L1.78694068,11.8604902 L1.78694068,23.4438368 Z M18.5774082,43.01 L-0.0953333333,32.3581705 L-0.0953333333,27.0953323 L1.78694068,27.0953323 L1.78694068,31.2753556 L18.5774082,40.8443087 L29.4698306,34.6497075 L30.4236206,36.2612961 L18.5774082,43.01 Z M17.3727626,12.5403772 L13.2066252,10.0977883 L13.2066252,8.61198405 L18.7279583,5.36372382 L24.0989863,8.61198405 L24.0989863,10.0977883 L20.0582767,12.5151712 L19.9326038,14.0009139 L18.7279583,13.1949967 L17.3727626,14.0009139 L17.3727626,12.5403772 Z M25.8558326,22.2351761 L25.8558326,17.4004719 L21.6894501,14.9829046 L21.6894501,13.4973463 L27.0605394,10.399892 L32.5821175,13.4973463 L32.5821175,19.8430608 L27.0605394,22.9402692 L25.8558326,22.2351761 Z M13.2066252,34.3728099 L13.2066252,28.1781472 L14.4112708,27.37223 L18.5774082,29.7897973 L22.8692184,27.37223 L24.073864,28.0520555 L24.073864,34.39777 L18.5522859,37.6462762 L13.2066252,34.3728099 Z M25.8558326,31.9551811 L25.8558326,27.0953323 L24.5003919,26.2893536 L25.8558326,25.6095281 L25.8558326,24.1239698 L27.0605394,24.9296411 L31.2266768,22.5123197 L32.5821175,23.1921452 L32.5821175,29.5378598 L27.0605394,32.6350681 L25.8558326,31.9551811 Z M13.2066252,24.6777036 L13.2066252,18.3320505 L18.7279583,15.2348421 L24.0989863,18.3320505 L24.0989863,24.6777036 L18.5774082,27.7751579 L13.2066252,24.6777036 Z M4.59788245,29.5126537 L4.7235553,23.1669392 L5.92820086,22.4871137 L10.0943383,24.904435 L11.4495339,24.0987022 L11.4495339,25.584322 L12.8049746,26.3902393 L11.4495339,27.0701263 L11.4495339,31.9299751 L10.0943383,32.610108 L4.59788245,29.5126537 Z M4.59788245,19.8178548 L4.7235553,13.4721402 L10.2448883,10.3746859 L15.6159164,13.4721402 L15.6159164,14.9576986 L11.4495339,17.3752659 L11.4495339,22.0841243 L10.0943383,22.8900415 L4.59788245,19.8178548 Z" id="Fill-1" fill="#FF6A00" mask="url(#mask-37)"></path>
                                <polygon id="路径" mask="url(#mask-37)" points="17.4810797 12.6214139 13.2513333 10.1887767 13.2513333 8.70902599 18.8569666 5.474 24.31 8.70902599 24.31 10.1887767 20.2075964 12.5963105 20.0800048 14.076 18.8569666 13.2733663 17.4810797 14.076"></polygon>
                                <polygon id="路径" mask="url(#mask-37)" points="25.8705429 22.3655025 25.8705429 17.5417385 21.6406667 15.1296419 21.6406667 13.6474452 27.0936089 10.557 32.6993333 13.6474452 32.6993333 19.9788002 27.0936089 23.069"></polygon>
                            </g>
                        </g>
                        <g id="dlfshujuhugou-2" transform="translate(263.882667, 200.583000)">
                            <g id="编组" transform="translate(-0.095333, 0.000000)">
                                <mask id="mask-39" fill="white">
                                    <use xlink:href="#path-38"></use>
                                </mask>
                                <g id="Clip-2"></g>
                                <path d="M13.7870034,7.87089297 C11.6907141,7.87089297 9.95935469,6.09532934 9.95935469,3.94589987 C9.95935469,1.79653337 11.6907141,0.0209697365 13.7870034,0.0209697365 C14.6988981,0.0209697365 15.6110385,0.394898551 16.2481611,0.955980688 C17.8886258,2.35736362 18.0719506,4.7874601 16.7042313,6.46925816 C16.0658804,7.2173047 15.0637666,7.87089297 14.0607315,7.87089297 L13.7870034,7.87089297 Z M13.7870034,2.45081433 C12.9675387,2.45081433 12.3291264,3.10541016 12.4202667,3.94589987 C12.4202667,4.31982868 12.6026088,4.7874601 12.8763369,5.06787523 C13.1488982,5.3472828 13.5135209,5.44079649 13.8784508,5.44079649 C14.2430736,5.44079649 14.6077578,5.25483963 14.8814859,4.88091082 C15.1539857,4.6004957 15.2461087,4.22637796 15.2461087,3.85244915 C15.2461087,3.47833142 15.0637666,3.10541016 14.6988981,2.82499504 C14.4493677,2.59080149 14.125279,2.45799316 13.7870034,2.45081433 Z" id="Fill-1" fill="#459EFF" mask="url(#mask-39)"></path>
                                <path d="M20.7144677,43.010063 C9.68562659,43.010063 0.571899502,34.0382903 0.0237677306,22.7298719 C-0.339933821,14.9737142 3.48796053,7.68367668 9.96033734,3.57178214 C10.6886617,3.10541016 11.6907141,3.38481773 12.1467843,4.13286428 C12.6026088,4.88091082 12.3291264,5.90842791 11.5995738,6.37574447 C10.142618,7.2173047 8.8661005,8.33820953 7.77167941,9.64740119 C1.2103118,17.0306376 1.75635545,28.336852 8.95607395,35.066752 C16.1570208,41.794448 27.1856162,41.2345623 33.7482122,33.8523335 C40.2196063,26.5622959 39.7635361,15.1606157 32.6539753,8.43172322 C31.6992127,7.5496089 30.6613551,6.76686469 29.5556336,6.09532934 C28.826081,5.5342472 28.7349406,4.50679309 29.2819055,3.75899843 C29.7194897,3.20232435 30.4643962,3.01145567 31.1056336,3.29136701 C41.0381498,9.17976977 44.5023426,22.1709938 38.760501,32.2627267 C35.1149488,38.7110151 28.7349406,42.7306554 21.6263625,43.010063 L20.7144677,43.010063 Z" id="Fill-3" fill="#459EFF" mask="url(#mask-39)"></path>
                            </g>
                            <path d="M33.1168455,24.6622117 C30.8469838,24.6622117 29.7579984,23.271553 28.8496132,22.2519615 C28.0320788,21.2313703 27.669777,20.7675674 26.7613919,20.7675674 C25.8530679,20.7675674 25.3999154,21.2313703 24.6731705,22.2519615 C23.8556361,23.271553 22.6757999,24.6622117 20.4056936,24.6622117 C18.1358931,24.6622117 17.0468465,23.271553 16.2293121,22.2519615 C15.4126953,21.2313703 15.0494759,20.7675674 14.1410907,20.7675674 C13.2327056,20.7675674 12.7796142,21.2313703 12.0528694,22.2519615 C11.2363138,23.271553 10.0554988,24.6622117 7.78539241,24.6622117 C5.51559193,24.6622117 4.33575574,23.271553 3.51816016,22.2519615 C2.70160462,21.2313703 2.33832397,20.7675674 1.43,20.7675674 L1.43,17.986 C3.69980048,17.986 4.7900095,19.3766587 5.69723225,20.3962501 C6.51476665,21.4168414 6.87706844,21.8808942 7.78539241,21.8808942 C8.69402228,21.8808942 9.1480925,21.4168414 9.87385847,20.3962501 C10.6913929,19.3766587 11.8712291,17.986 14.1410907,17.986 C16.4109524,17.986 17.5011614,19.3766587 18.408323,20.3962501 C19.2258574,21.4168414 19.5881592,21.8808942 20.4965443,21.8808942 C21.405113,21.8808942 21.8582655,21.4168414 22.5850104,20.3962501 C23.4025448,19.3766587 24.582381,17.986 26.8522426,17.986 C29.1220431,17.986 30.2110897,19.3766587 31.1194749,20.3962501 C31.9370093,21.4168414 32.2993111,21.8808942 33.207635,21.8808942 C34.1162649,21.8808942 34.5693563,21.4168414 35.2961011,20.3962501 C36.1136355,19.3766587 37.2935328,17.986 39.5633333,17.986 L39.5633333,20.7675674 C38.6549482,20.7675674 38.2018568,21.2313703 37.475112,22.2519615 C36.566788,23.271553 35.3869518,24.6622117 33.1168455,24.6622117 Z M13.324474,32.453 C12.9612545,32.453 12.5977903,32.3602019 12.3252993,32.0819327 C12.064371,31.8283471 11.9164403,31.4763394 11.9164403,31.1082092 C11.9164403,30.7401414 12.064371,30.3881336 12.3252993,30.1344856 L13.6867758,28.7438269 C14.4312013,27.9761338 15.444019,27.5426387 16.501742,27.5387018 C17.5907886,27.5387018 18.590208,28.0015048 19.3167081,28.7438269 L19.7700442,29.2066924 C20.2241144,29.6706827 21.0416488,29.6706827 21.5867533,29.2066924 L21.9490551,28.8366249 C22.6934807,28.0691193 23.7062983,27.6353743 24.7640213,27.6314999 C25.8539856,27.6314999 26.8522426,28.0943029 27.5789263,28.8366249 L28.7588236,30.04175 C29.0199966,30.2953356 29.1676826,30.6473433 29.1676826,31.0154736 C29.1676826,31.3836038 29.0199966,31.7355491 28.7588236,31.9891971 C28.5104982,32.2559681 28.1658772,32.4068822 27.8055331,32.4068822 C27.4451279,32.4068822 27.1005068,32.2559681 26.8522426,31.9891971 L25.763196,30.691274 C25.3088811,30.2272837 24.4915914,30.2272837 23.9464869,30.691274 L23.5841851,31.0613414 C22.8397595,31.8288471 21.8269419,32.2623422 20.7692189,32.2664665 C19.6790099,32.2664665 18.6809976,31.8036635 17.9542528,31.0613414 L17.5011614,30.691274 C17.0468465,30.2272837 16.1384613,30.2272837 15.6842076,30.691274 L14.322731,32.0819327 C14.0512188,32.3592646 13.6867758,32.453 13.324474,32.453 Z" id="Fill-4" fill="#459EFF"></path>
                        </g>
                        <g id="编组-3" transform="translate(356.928000, 200.583000)" fill="#459EFF" fill-rule="nonzero">
                            <path d="M10.6854726,11.2588011 C20.6818053,0.819254935 33.1780553,-3.05628983 38.5966281,2.60252958 C44.015201,8.26134899 40.3041934,21.3116528 30.3078607,31.7511989 C20.311528,42.1907451 7.81527807,46.0662898 2.39670522,40.4074704 C-3.02186763,34.748651 0.689139934,21.6983472 10.6854726,11.2588011 Z M36.4597082,4.7552047 C32.57077,0.693840273 21.802142,4.0335862 12.8223925,13.4114762 C3.81980779,22.813214 0.597671323,34.1443307 4.53362515,38.2547953 C8.42256337,42.3161597 19.1911914,38.9764138 28.1709408,29.5985238 C37.1735255,20.196786 40.395662,8.86566931 36.4597082,4.7552047 Z" id="椭圆形"></path>
                            <path d="M30.3078607,11.2588011 C40.3041934,21.6983472 44.015201,34.748651 38.5966281,40.4074704 C33.1780553,46.0662898 20.6818053,42.1907451 10.6854726,31.7511989 C0.689139934,21.3116528 -3.02186763,8.26134899 2.39670522,2.60252958 C7.81527807,-3.05628983 20.311528,0.819254935 30.3078607,11.2588011 Z M28.1709408,13.4114762 C19.1911914,4.0335862 8.42256337,0.693840273 4.53362515,4.7552047 C0.597671323,8.86566931 3.81980779,20.196786 12.8223925,29.5985238 C21.802142,38.9764138 32.57077,42.3161597 36.4597082,38.2547953 C40.395662,34.1443307 37.1735255,22.813214 28.1709408,13.4114762 Z" id="椭圆形备份-8"></path>
                            <path d="M21.45,16.031 C24.5037665,16.031 26.9793333,18.5693216 26.9793333,21.7005 C26.9793333,24.8316784 24.5037665,27.37 21.45,27.37 C18.3962335,27.37 15.9206667,24.8316784 15.9206667,21.7005 C15.9206667,18.5693216 18.3962335,16.031 21.45,16.031 Z M21.45,19.0547333 C20.024909,19.0547333 18.8696444,20.2392834 18.8696444,21.7005 C18.8696444,23.1617166 20.024909,24.3462667 21.45,24.3462667 C22.875091,24.3462667 24.0303556,23.1617166 24.0303556,21.7005 C24.0303556,20.2392834 22.875091,19.0547333 21.45,19.0547333 Z" id="椭圆形"></path>
                        </g>
                    </g>
                </g>
            </g>
        </g>
    </g>
</svg>