<?xml version="1.0" encoding="UTF-8"?>
<svg width="572px" height="391px" viewBox="0 0 572 391" version="1.1" xmlns="http://www.w3.org/2000/svg" xmlns:xlink="http://www.w3.org/1999/xlink">
    <title>切片</title>
    <defs>
        <path d="M0.110149173,0.0411997559 L0.110149173,159.969585 C0.110149173,174.628904 11.7000141,186.512408 25.9969113,186.512408 L25.9969113,186.512408 L279.356143,186.512408 C293.65304,186.512408 305.242905,174.628904 305.242905,159.969585 L305.242905,159.969585 L305.242905,0.0411997559 L0.110149173,0.0411997559 Z" id="path-1"></path>
        <path d="M18.003029,0.293329536 C12.2147676,1.30439382 13.3198275,4.84343694 9.26804448,4.84343694 L9.26804448,4.84343694 C5.21626146,4.84343694 2.69043233,5.90508625 1.79589694,8.73625712 L1.79589694,8.73625712 C0.90151668,11.567428 2.63783998,13.9942368 2.63783998,13.9942368 L2.63783998,13.9942368 C2.63783998,13.9942368 -0.729932194,16.1175354 0.217350692,21.0215789 L0.217350692,21.0215789 C1.16447844,25.9256225 2.16435368,26.0772185 1.37500298,29.4139215 L1.37500298,29.4139215 C0.585652292,32.7507836 3.72536913,34.115784 4.77783672,34.1495073 L4.77783672,34.1495073 C5.83030431,34.1832307 6.4265061,34.6550395 6.84755519,36.2728059 L6.84755519,36.2728059 C7.26844915,37.8907315 11.0045229,40.3848279 15.4246075,38.2950936 L15.4246075,38.2950936 C19.8448473,36.2053592 23.5633903,28.6218999 23.5633903,28.6218999 L23.5633903,28.6218999 L33.3682181,21.8810472 C33.3682181,21.8810472 37.5253409,21.173334 38.6829932,17.4825358 L38.6829932,17.4825358 C39.8406455,13.7920557 36.4730285,12.3763112 36.4730285,12.3763112 L36.4730285,12.3763112 C36.4730285,12.3763112 38.0306309,10.3540236 36.1467697,8.23056591 L36.1467697,8.23056591 C34.2629086,6.10726729 32.7631733,6.91615053 32.7631733,6.91615053 L32.7631733,6.91615053 C32.7631733,6.91615053 34.1839425,3.93338365 31.7370795,2.66939422 L31.7370795,2.66939422 C29.2902164,1.40556387 26.7119501,3.63003255 26.7119501,3.63003255 L26.7119501,3.63003255 C26.7119501,3.63003255 24.3677895,0.140779089 19.7184085,0.140779089 L19.7184085,0.140779089 C19.1777467,0.140779089 18.606057,0.188023596 18.003029,0.293329536 L18.003029,0.293329536 Z" id="path-3"></path>
        <path d="M18.003029,0.293329536 C12.2147676,1.30439382 13.3198275,4.84343694 9.26804448,4.84343694 L9.26804448,4.84343694 C5.21626146,4.84343694 2.69043233,5.90508625 1.79589694,8.73625712 L1.79589694,8.73625712 C0.90151668,11.567428 2.63783998,13.9942368 2.63783998,13.9942368 L2.63783998,13.9942368 C2.63783998,13.9942368 -0.729932194,16.1175354 0.217350692,21.0215789 L0.217350692,21.0215789 C1.16447844,25.9256225 2.16435368,26.0772185 1.37500298,29.4139215 L1.37500298,29.4139215 C0.585652292,32.7507836 3.72536913,34.115784 4.77783672,34.1495073 L4.77783672,34.1495073 C5.83030431,34.1832307 6.4265061,34.6550395 6.84755519,36.2728059 L6.84755519,36.2728059 C7.26844915,37.8907315 11.0045229,40.3848279 15.4246075,38.2950936 L15.4246075,38.2950936 C19.8448473,36.2053592 23.5633903,28.6218999 23.5633903,28.6218999 L23.5633903,28.6218999 L33.3682181,21.8810472 C33.3682181,21.8810472 37.5253409,21.173334 38.6829932,17.4825358 L38.6829932,17.4825358 C39.8406455,13.7920557 36.4730285,12.3763112 36.4730285,12.3763112 L36.4730285,12.3763112 C36.4730285,12.3763112 38.0306309,10.3540236 36.1467697,8.23056591 L36.1467697,8.23056591 C34.2629086,6.10726729 32.7631733,6.91615053 32.7631733,6.91615053 L32.7631733,6.91615053 C32.7631733,6.91615053 34.1839425,3.93338365 31.7370795,2.66939422 L31.7370795,2.66939422 C29.2902164,1.40556387 26.7119501,3.63003255 26.7119501,3.63003255 L26.7119501,3.63003255 C26.7119501,3.63003255 24.3677895,0.140779089 19.7184085,0.140779089 L19.7184085,0.140779089 C19.1777467,0.140779089 18.606057,0.188023596 18.003029,0.293329536 L18.003029,0.293329536 Z" id="path-5"></path>
        <path d="M3.32774614,7.9261013 C3.32774614,7.9261013 0.416084622,6.24104719 0.135436941,10.6562612 L0.135436941,10.6562612 C-0.14521074,15.0714752 3.18734472,15.3073796 3.18734472,15.3073796 L3.18734472,15.3073796 C4.97657065,17.3296672 4.0994109,20.1608381 4.0994109,20.1608381 L4.0994109,20.1608381 C5.99382154,23.6324345 2.69632764,30.1712653 2.69632764,30.1712653 L2.69632764,30.1712653 C9.2211923,38.1255224 13.3797114,31.4126664 13.3797114,31.4126664 L13.3797114,31.4126664 C13.0289406,28.8511233 13.220383,24.7783922 14.8339908,24.8458389 L14.8339908,24.8458389 C16.4479089,24.9131265 22.4817564,25.7894565 23.1831429,18.3746139 L23.1831429,18.3746139 C23.8848397,10.9596123 22.4114782,0.376365338 22.4114782,0.376365338 L22.4114782,0.376365338 C19.7103412,3.54461066 7.81795389,0.0392908869 7.81795389,0.0392908869 L7.81795389,0.0392908869 C7.53730621,3.40971725 3.32774614,7.9261013 3.32774614,7.9261013" id="path-7"></path>
        <path d="M3.32774614,7.9261013 C3.32774614,7.9261013 0.416084622,6.24104719 0.135436941,10.6562612 L0.135436941,10.6562612 C-0.14521074,15.0714752 3.18734472,15.3073796 3.18734472,15.3073796 L3.18734472,15.3073796 C4.97657065,17.3296672 4.0994109,20.1608381 4.0994109,20.1608381 L4.0994109,20.1608381 C5.99382154,23.6324345 2.69632764,30.1712653 2.69632764,30.1712653 L2.69632764,30.1712653 C9.2211923,38.1255224 13.3797114,31.4126664 13.3797114,31.4126664 L13.3797114,31.4126664 C13.0289406,28.8511233 13.220383,24.7783922 14.8339908,24.8458389 L14.8339908,24.8458389 C16.4479089,24.9131265 22.4817564,25.7894565 23.1831429,18.3746139 L23.1831429,18.3746139 C23.8848397,10.9596123 22.4114782,0.376365338 22.4114782,0.376365338 L22.4114782,0.376365338 C19.7103412,3.54461066 7.81795389,0.0392908869 7.81795389,0.0392908869 L7.81795389,0.0392908869 C7.53730621,3.40971725 3.32774614,7.9261013 3.32774614,7.9261013 L3.32774614,7.9261013 Z" id="path-9"></path>
        <path d="M1.33125359,0.129166802 C0.0125663141,0.436176566 0.100840792,1.62285679 0.100840792,1.62285679 L0.100840792,1.62285679 L5.22138107,40.0790907 C14.1727855,42.6350663 18.9316951,32.8758145 18.9316951,32.8758145 L18.9316951,32.8758145 C18.9316951,32.8758145 14.717636,20.037716 11.0350854,11.7307954 L11.0350854,11.7307954 C7.49665961,3.74870057 3.01653594,0.111191619 1.50144182,0.111191619 L1.50144182,0.111191619 C1.43969623,0.111191619 1.38291511,0.117236371 1.33125359,0.129166802 L1.33125359,0.129166802 Z" id="path-11"></path>
        <path d="M0.0544540277,12.6036257 L47.1343824,30.902203 L43.5652389,90.6776404 L48.3241486,91.7232234 C48.3241486,91.7232234 66.0570795,36.246559 66.9069346,28.8108779 L66.9069346,28.8108779 C67.7566347,21.375356 67.5301307,11.1512945 61.2981698,6.62027583 L61.2981698,6.62027583 C55.0660537,2.08925712 42.3186916,1.15963792 34.7837125,0.985453621 L34.7837125,0.985453621 C27.2485782,0.811110252 10.1389986,0.114054923 10.1389986,0.114054923 L10.1389986,0.114054923" id="path-13"></path>
        <path d="M0.0656240846,30.0400305 C0.0656240846,30.0400305 35.9939571,26.4419715 37.6936675,30.6244626 L37.6936675,30.6244626 C39.3932227,34.8069536 37.3852498,45.0254475 36.3813409,56.3552213 L36.3813409,56.3552213 C35.4165273,67.2411831 32.8118872,87.6080199 32.8118872,87.6080199 L32.8118872,87.6080199 C39.7238253,95.5083515 50.1442474,89.0021306 50.1442474,89.0021306 L50.1442474,89.0021306 C50.1442474,89.0021306 59.8927594,45.2016998 61.3865994,27.1935887 L61.3865994,27.1935887 C62.8804394,9.18547762 49.4684589,2.79553865 41.0836246,2.33072905 L41.0836246,2.33072905 C32.6986352,1.86591945 9.24368755,0.00715825875 9.24368755,0.00715825875 L9.24368755,0.00715825875" id="path-15"></path>
        <path d="M4.03859615,6.85697559 C0.337118525,13.3630374 -0.267150529,32.571668 0.186012476,39.6201668 L0.186012476,39.6201668 C0.639330621,46.6685065 2.56042528,91.9723308 11.1016404,105.650013 L11.1016404,105.650013 C17.8849677,116.51291 50.5578497,114.652717 50.5578497,114.652717 L50.5578497,114.652717 L64.9800998,77.7665277 C64.9800998,77.7665277 50.3631494,78.2639471 45.7741177,70.6957587 L45.7741177,70.6957587 C41.185086,63.1275704 40.675297,55.1109569 41.3551191,46.0489194 L41.3551191,46.0489194 C42.0349411,36.9867229 43.8479034,29.3186371 41.8084372,19.6756672 L41.8084372,19.6756672 C39.7686607,10.0326973 36.9927464,3.58437876 34.556588,2.53895484 L34.556588,2.53895484 C32.1202745,1.49321277 29.5142381,1.34797966 29.5142381,1.34797966 L29.5142381,1.34797966 L18.8308544,0.106578519 C18.8308544,0.106578519 7.73991863,0.350754679 4.03859615,6.85697559 L4.03859615,6.85697559 Z" id="path-17"></path>
        <path d="M4.03859615,6.85697559 C0.337118525,13.3630374 -0.267150529,32.571668 0.186012476,39.6201668 L0.186012476,39.6201668 C0.639330621,46.6685065 2.56042528,91.9723308 11.1016404,105.650013 L11.1016404,105.650013 C17.8849677,116.51291 50.5578497,114.652717 50.5578497,114.652717 L50.5578497,114.652717 L64.9800998,77.7665277 C64.9800998,77.7665277 50.3631494,78.2639471 45.7741177,70.6957587 L45.7741177,70.6957587 C41.185086,63.1275704 40.675297,55.1109569 41.3551191,46.0489194 L41.3551191,46.0489194 C42.0349411,36.9867229 43.8479034,29.3186371 41.8084372,19.6756672 L41.8084372,19.6756672 C39.7686607,10.0326973 36.9927464,3.58437876 34.556588,2.53895484 L34.556588,2.53895484 C32.1202745,1.49321277 29.5142381,1.34797966 29.5142381,1.34797966 L29.5142381,1.34797966 L18.8308544,0.106578519 C18.8308544,0.106578519 7.73991863,0.350754679 4.03859615,6.85697559 L4.03859615,6.85697559 Z" id="path-19"></path>
        <path d="M0.0156691077,105.413791 C4.16519013,116.135113 15.8788565,114.935866 15.8788565,114.935866 L15.8788565,114.935866 L89.7771608,11.6841871 C89.7771608,11.6841871 88.4535091,11.0744626 87.0370838,10.0288796 L87.0370838,10.0288796 C86.503093,9.6348572 85.5990941,9.85962653 84.6736859,10.0843959 L84.6736859,10.0843959 C83.1438535,10.455989 81.5553784,10.8275822 81.4849449,8.40236412 L81.4849449,8.40236412 C81.371693,4.51018023 79.8984866,3.98730919 76.2160911,3.92924776 L76.2160911,3.92924776 C72.5335405,3.87118633 73.4398666,0.15334581 73.4398666,0.15334581 L73.4398666,0.15334581" id="path-21"></path>
        <path d="M0.0156691077,105.413791 C4.16519013,116.135113 15.8788565,114.935866 15.8788565,114.935866 L15.8788565,114.935866 L89.7771608,11.6841871 C89.7771608,11.6841871 88.4535091,11.0744626 87.0370838,10.0288796 L87.0370838,10.0288796 C86.503093,9.6348572 85.5990941,9.85962653 84.6736859,10.0843959 L84.6736859,10.0843959 C83.1438535,10.455989 81.5553784,10.8275822 81.4849449,8.40236412 L81.4849449,8.40236412 C81.371693,4.51018023 79.8984866,3.98730919 76.2160911,3.92924776 L76.2160911,3.92924776 C72.5335405,3.87118633 73.4398666,0.15334581 73.4398666,0.15334581 L73.4398666,0.15334581" id="path-23"></path>
        <path d="M0.141487388,16.6036607 C-0.91609981,24.8972193 14.3428186,32.2554321 18.7996713,34.4242254 L18.7996713,34.4242254 C23.256524,36.5928596 40.1017456,44.4157229 40.1017456,44.4157229 L40.1017456,44.4157229 C40.1017456,44.4157229 50.1444025,55.0441465 57.0226753,54.8720301 L57.0226753,54.8720301 C63.2167822,54.7172526 62.4614071,47.6689129 54.3032319,43.1765488 L54.3032319,43.1765488 C46.2763049,38.7565627 44.1052802,37.3673832 44.1052802,37.3673832 L44.1052802,37.3673832 C44.1052802,37.3673832 16.6848072,20.2500777 14.6453409,17.4615382 L14.6453409,17.4615382 C12.6055644,14.6733169 16.2730664,7.14155614 16.2730664,7.14155614 L16.2730664,7.14155614 L4.52263195,0.0345187144 C4.52263195,0.0345187144 1.19891945,8.31010212 0.141487388,16.6036607" id="path-25"></path>
        <path d="M8.75530784,9.42217738 C5.35604231,16.7803902 0.0682614592,35.2143381 0.0682614592,35.2143381 L0.0682614592,35.2143381 C4.07195118,48.4590256 16.233661,45.283463 16.233661,45.283463 L16.233661,45.283463 C16.233661,45.283463 23.7121692,22.4344601 23.6366162,17.012795 L23.6366162,17.012795 C23.5610632,11.5909707 23.2887931,3.99255858 21.2947828,2.1412738 L21.2947828,2.1412738 C19.7114272,0.671285598 18.2918991,0.0279967453 16.9927594,0.0279967453 L16.9927594,0.0279967453 C13.7059702,0.0279967453 11.1917765,4.14829048 8.75530784,9.42217738 L8.75530784,9.42217738 Z" id="path-27"></path>
        <path d="M8.75530784,9.42217738 C5.35604231,16.7803902 0.0682614592,35.2143381 0.0682614592,35.2143381 L0.0682614592,35.2143381 C4.07195118,48.4590256 16.233661,45.283463 16.233661,45.283463 L16.233661,45.283463 C16.233661,45.283463 23.7121692,22.4344601 23.6366162,17.012795 L23.6366162,17.012795 C23.5610632,11.5909707 23.2887931,3.99255858 21.2947828,2.1412738 L21.2947828,2.1412738 C19.7114272,0.671285598 18.2918991,0.0279967453 16.9927594,0.0279967453 L16.9927594,0.0279967453 C13.7059702,0.0279967453 11.1917765,4.14829048 8.75530784,9.42217738 L8.75530784,9.42217738 Z" id="path-29"></path>
        <path d="M1.96872254,7.69337836 C-0.245586113,10.4454902 -1.520524,13.8855903 3.44503173,16.5002636 L3.44503173,16.5002636 C8.41074261,19.1147779 9.40053377,18.8052229 12.8899354,23.7590561 L12.8899354,23.7590561 C16.379182,28.7130484 23.5759566,33.426046 28.1389249,31.7747152 L28.1389249,31.7747152 C32.7020483,30.1235435 33.4402029,26.6832844 32.5678525,24.7567583 L32.5678525,24.7567583 C32.2062219,23.9583739 30.1233165,21.4016029 27.7524719,18.4551046 L27.7524719,18.4551046 L24.5018302,22.3009984 L23.025521,20.9593816 C23.025521,20.9593816 25.0210827,18.5720228 26.4561248,16.8386107 L26.4561248,16.8386107 C26.2446694,16.5737551 26.0333691,16.3079451 25.8223792,16.0416579 L25.8223792,16.0416579 L22.3636951,20.1337958 L20.887386,18.7920199 C20.887386,18.7920199 23.0973507,16.1482364 24.5384432,14.4049618 L24.5384432,14.4049618 C24.2798253,14.0713869 24.0257065,13.7406753 23.7776382,13.4142587 L23.7776382,13.4142587 L19.9188489,17.9796371 L18.4426949,16.6378613 C18.4426949,16.6378613 21.1494169,13.3997832 22.5250404,11.727773 L22.5250404,11.727773 C21.2079045,9.90448495 20.234403,8.35893735 20.0195346,7.48690236 L20.0195346,7.48690236 C19.2349932,4.30243165 19.0800087,2.32659317 19.0800087,2.32659317 L19.0800087,2.32659317 L5.59232004,0.145392189 C5.59232004,0.145392189 4.18318633,4.94126648 1.96872254,7.69337836 L1.96872254,7.69337836 Z" id="path-31"></path>
        <path d="M8.28647573,6.02916273 C8.133508,9.79504312 4.25672254,8.01661351 2.1143987,9.06283279 L2.1143987,9.06283279 C-0.0279251424,10.1087339 -0.997237863,14.6590004 1.65534039,17.4309963 L1.65534039,17.4309963 C4.30776349,20.2031513 2.67538378,20.7261814 2.62449797,24.9102632 L2.62449797,24.9102632 C2.57345701,29.0945041 7.57236778,28.2576241 7.57236778,28.2576241 L7.57236778,28.2576241 C21.140729,29.6175342 13.9994944,31.5003153 16.2856328,45.4126298 L16.2856328,45.4126298 C18.5719262,59.3249443 14.2035031,92.9027453 24.4053333,99.1791066 L24.4053333,99.1791066 C34.6070084,105.455309 53.2763624,102.630978 58.7852172,89.4508739 L58.7852172,89.4508739 C64.2942273,76.2707697 57.9691825,64.2413954 50.6239392,55.4547124 L50.6239392,55.4547124 C43.278696,46.6678702 39.6059192,33.0170708 39.759042,29.4606888 L39.759042,29.4606888 C39.9120098,25.9039886 39.9120098,15.5482152 35.6782479,9.58570382 L35.6782479,9.58570382 C31.444486,3.62335151 28.5370133,5.4537978 28.5370133,5.4537978 L28.5370133,5.4537978 C28.5370133,5.4537978 28.4859723,3.1003214 19.7125132,0.746685924 L19.7125132,0.746685924 C17.8531641,0.247993897 16.275859,0.0287921074 14.9427437,0.0287921074 L14.9427437,0.0287921074 C9.98510008,0.0287921074 8.40701926,3.06150773 8.28647573,6.02916273" id="path-33"></path>
        <path d="M8.28647573,6.02916273 C8.133508,9.79504312 4.25672254,8.01661351 2.1143987,9.06283279 L2.1143987,9.06283279 C-0.0279251424,10.1087339 -0.997237863,14.6590004 1.65534039,17.4309963 L1.65534039,17.4309963 C4.30776349,20.2031513 2.67538378,20.7261814 2.62449797,24.9102632 L2.62449797,24.9102632 C2.57345701,29.0945041 7.57236778,28.2576241 7.57236778,28.2576241 L7.57236778,28.2576241 C21.140729,29.6175342 13.9994944,31.5003153 16.2856328,45.4126298 L16.2856328,45.4126298 C18.5719262,59.3249443 14.2035031,92.9027453 24.4053333,99.1791066 L24.4053333,99.1791066 C34.6070084,105.455309 53.2763624,102.630978 58.7852172,89.4508739 L58.7852172,89.4508739 C64.2942273,76.2707697 57.9691825,64.2413954 50.6239392,55.4547124 L50.6239392,55.4547124 C43.278696,46.6678702 39.6059192,33.0170708 39.759042,29.4606888 L39.759042,29.4606888 C39.9120098,25.9039886 39.9120098,15.5482152 35.6782479,9.58570382 L35.6782479,9.58570382 C31.444486,3.62335151 28.5370133,5.4537978 28.5370133,5.4537978 L28.5370133,5.4537978 C28.5370133,5.4537978 28.4859723,3.1003214 19.7125132,0.746685924 L19.7125132,0.746685924 C17.8531641,0.247993897 16.275859,0.0287921074 14.9427437,0.0287921074 L14.9427437,0.0287921074 C9.98510008,0.0287921074 8.40701926,3.06150773 8.28647573,6.02916273 L8.28647573,6.02916273 Z" id="path-35"></path>
        <path d="M0.00046541904,1.20656428 C0.00046541904,1.20656428 25.3627003,56.6929321 26.0567952,65.0588686 L26.0567952,65.0588686 C28.4923331,65.3611062 32.2800683,65.1713328 36.2120835,62.4278108 L36.2120835,62.4278108 C35.5834576,61.3061912 35.0327117,59.7480769 34.4464388,56.9736949 L34.4464388,56.9736949 C32.9735427,50.0026644 25.5459203,25.3723686 21.0135145,13.5217917 L21.0135145,13.5217917 C16.4812639,1.67121481 14.3809829,0.138074858 14.3809829,0.138074858 L14.3809829,0.138074858 L0.00046541904,1.20656428 Z" id="path-37"></path>
        <path d="M0.0085326824,8.46090277 C0.0085326824,8.46090277 5.94696935,18.1040317 11.8956452,20.1951977 L11.8956452,20.1951977 C17.8443211,22.2866819 58.7489146,37.2157872 61.128447,43.315419 L61.128447,43.315419 C61.1633534,43.4048177 61.1960879,43.4962844 61.2274261,43.5888645 L61.2274261,43.5888645 C66.1644361,42.0639963 67.2905951,36.8588287 67.5327681,34.0427697 L67.5327681,34.0427697 C58.7769948,30.1353149 51.3580602,25.707057 43.4333702,20.1178885 L43.4333702,20.1178885 C33.6789628,13.2381656 17.7876951,7.76384744 17.7876951,7.76384744 L17.7876951,7.76384744 L12.3249167,0.00206794142 L0.0085326824,8.46090277 Z" id="path-39"></path>
        <path d="M2.63892596,1.46935191 L1.83980146,2.74193124 C1.83980146,2.74193124 0.64956984,31.4382771 0.0375438025,48.0704117 L0.0375438025,48.0704117 C-0.574637375,64.7023873 9.88084622,88.2384239 9.88084622,88.2384239 L9.88084622,88.2384239 C9.88084622,88.2384239 32.3653952,94.5599618 52.9848549,72.8615297 L52.9848549,72.8615297 C68.4913762,56.5432449 77.2649905,53.9280944 77.2649905,53.9280944 L77.2649905,53.9280944 C77.2649905,53.9280944 74.1024681,53.5097339 64.2067285,43.6769906 L64.2067285,43.6769906 C54.311144,33.8442474 51.0463846,32.0659768 46.8638188,21.1871733 L46.8638188,21.1871733 C42.6809428,10.3083698 34.1794434,0.9636607 30.8808636,0.0921029292 L30.8808636,0.0921029292 L2.63892596,1.46935191 Z" id="path-41"></path>
        <path d="M2.63892596,1.46935191 L1.83980146,2.74193124 C1.83980146,2.74193124 0.64956984,31.4382771 0.0375438025,48.0704117 L0.0375438025,48.0704117 C-0.574637375,64.7023873 9.88084622,88.2384239 9.88084622,88.2384239 L9.88084622,88.2384239 C9.88084622,88.2384239 32.3653952,94.5599618 52.9848549,72.8615297 L52.9848549,72.8615297 C68.4913762,56.5432449 77.2649905,53.9280944 77.2649905,53.9280944 L77.2649905,53.9280944 C77.2649905,53.9280944 74.1024681,53.5097339 64.2067285,43.6769906 L64.2067285,43.6769906 C54.311144,33.8442474 51.0463846,32.0659768 46.8638188,21.1871733 L46.8638188,21.1871733 C42.6809428,10.3083698 34.1794434,0.9636607 30.8808636,0.0921029292 L30.8808636,0.0921029292" id="path-43"></path>
        <path d="M6.18433306,17.300716 C3.46380363,23.7860985 -1.84104258,37.5676554 0.743429346,42.4623137 L0.743429346,42.4623137 C3.32790127,47.3568129 18.0183878,73.8565277 19.7866699,81.1089573 L19.7866699,81.1089573 C21.554952,88.361546 19.4466037,88.082692 22.5751505,97.7759288 L22.5751505,97.7759288 C25.7038525,107.469166 24.9556138,123.159751 24.9556138,123.159751 L24.9556138,123.159751 C24.9556138,123.159751 27.4719794,129.505786 38.5579506,128.947919 L38.5579506,128.947919 C49.6439219,128.390052 53.9966759,120.509922 53.9966759,120.509922 L53.9966759,120.509922 C53.9966759,120.509922 52.1602875,117.023055 53.1806412,111.444226 L53.1806412,111.444226 C54.2006846,105.865397 55.2750269,93.8339552 61.6681779,86.8603796 L61.6681779,86.8603796 C68.061329,79.8868039 81.2694559,65.209192 87.1185321,52.9358007 L87.1185321,52.9358007 C87.1185321,52.9358007 88.6925793,49.7104483 88.7982295,44.8461729 L88.7982295,44.8461729 C88.9038796,39.9822156 86.4044242,6.87495077 86.4044242,6.87495077 L86.4044242,6.87495077 L76.4066027,10.3269813 C76.4066027,10.3269813 78.3449178,41.1241965 77.9369005,44.6587856 L77.9369005,44.6587856 C77.528728,48.1935338 64.9476756,65.0722307 62.499106,67.0321619 L62.499106,67.0321619 C60.0506916,68.9920932 52.8851001,73.6382803 49.099847,71.276214 L49.099847,71.276214 L40.6323233,69.0447461 L39.9863217,70.2303129 C39.9863217,70.2303129 37.1638655,70.3696603 33.4231375,69.3236001 L33.4231375,69.3236001 C29.6825647,68.2775399 26.2477722,64.5118186 22.5751505,57.9566033 L22.5751505,57.9566033 C18.9025289,51.4013881 12.3733203,37.10555 12.3733203,37.10555 L12.3733203,37.10555 L20.670811,7.11912693 L13.2576165,0.0757184703 C13.2576165,0.0757184703 8.90470735,10.8151745 6.18433306,17.300716 L6.18433306,17.300716 Z" id="path-45"></path>
        <path d="M6.18433306,17.300716 C3.46380363,23.7860985 -1.84104258,37.5676554 0.743429346,42.4623137 L0.743429346,42.4623137 C3.32790127,47.3568129 18.0183878,73.8565277 19.7866699,81.1089573 L19.7866699,81.1089573 C21.554952,88.361546 19.4466037,88.082692 22.5751505,97.7759288 L22.5751505,97.7759288 C25.7038525,107.469166 24.9556138,123.159751 24.9556138,123.159751 L24.9556138,123.159751 C24.9556138,123.159751 27.4719794,129.505786 38.5579506,128.947919 L38.5579506,128.947919 C49.6439219,128.390052 53.9966759,120.509922 53.9966759,120.509922 L53.9966759,120.509922 C53.9966759,120.509922 52.1602875,117.023055 53.1806412,111.444226 L53.1806412,111.444226 C54.2006846,105.865397 55.2750269,93.8339552 61.6681779,86.8603796 L61.6681779,86.8603796 C68.061329,79.8868039 81.2694559,65.209192 87.1185321,52.9358007 L87.1185321,52.9358007 C87.1185321,52.9358007 88.6925793,49.7104483 88.7982295,44.8461729 L88.7982295,44.8461729 C88.9038796,39.9822156 86.4044242,6.87495077 86.4044242,6.87495077 L86.4044242,6.87495077 L76.4066027,10.3269813 C76.4066027,10.3269813 78.3449178,41.1241965 77.9369005,44.6587856 L77.9369005,44.6587856 C77.528728,48.1935338 64.9476756,65.0722307 62.499106,67.0321619 L62.499106,67.0321619 C60.0506916,68.9920932 52.8851001,73.6382803 49.099847,71.276214 L49.099847,71.276214 L40.6323233,69.0447461 L39.9863217,70.2303129 C39.9863217,70.2303129 37.1638655,70.3696603 33.4231375,69.3236001 L33.4231375,69.3236001 C29.6825647,68.2775399 26.2477722,64.5118186 22.5751505,57.9566033 L22.5751505,57.9566033 C18.9025289,51.4013881 12.3733203,37.10555 12.3733203,37.10555 L12.3733203,37.10555 L20.670811,7.11912693 L13.2576165,0.0757184703 C13.2576165,0.0757184703 8.90470735,10.8151745 6.18433306,17.300716" id="path-47"></path>
        <path d="M3.56014538,0.785022376 C3.56014538,0.785022376 -3.58108923,17.6611741 2.67600434,20.2413287 L2.67600434,20.2413287 C3.69992623,20.6428275 4.85742338,20.6203983 5.85869487,20.5979691 L5.85869487,20.5979691 C7.11858421,20.5696542 8.13133605,20.5413393 8.32076159,21.3572217 L8.32076159,21.3572217 C8.66098291,22.8216424 7.09670952,30.1440639 7.09670952,30.1440639 L7.09670952,30.1440639 C7.09670952,30.1440639 10.7693312,34.5721627 16.2102349,31.189965 L16.2102349,31.189965 C16.2102349,31.189965 12.027514,24.8090932 14.9860277,23.8677026 L14.9860277,23.8677026 C17.9445414,22.926312 15.9722506,20.3459984 17.1283515,17.975024 L17.1283515,17.975024 C18.2846075,15.6040496 22.5352796,16.4059337 22.5352796,13.2679121 L22.5352796,13.2679121 C22.5352796,10.1297315 19.1687486,10.3739076 19.2706753,7.93310049 L19.2706753,7.93310049 C19.3727573,5.49229333 19.6447171,0.157481692 19.6447171,0.157481692 L19.6447171,0.157481692 C19.6447171,0.157481692 10.5653225,3.95803987 3.56014538,0.785022376 L3.56014538,0.785022376 Z" id="path-49"></path>
    </defs>
    <g id="网页" stroke="none" stroke-width="1" fill="none" fill-rule="evenodd">
        <g id="首页" transform="translate(-999.000000, -149.000000)">
            <g id="banner" transform="translate(0.000000, 75.000000)">
                <g id="首页（公有云服务上线）插画" transform="translate(999.000000, 74.000000)">
                    <g id="方块" transform="translate(352.733333, 283.475000)" fill="#E7ECFF">
                        <polygon id="Fill-1" points="1.73410323e-13 78.867786 71.3847312 78.867786 71.3847312 27.4926448 1.73410323e-13 27.4926448"></polygon>
                        <polygon id="Fill-2" points="78.1064681 78.867786 149.491354 78.867786 149.491354 1.16685328e-13 78.1064681 1.16685328e-13"></polygon>
                    </g>
                    <g id="背板" transform="translate(128.890667, 47.897309)">
                        <path d="M345.734424,21.6104306 C345.734424,9.8540734 334.144559,0.323712368 319.847662,0.323712368 L66.4882747,0.323712368 C52.1915326,0.323712368 40.6016677,9.8540734 40.6016677,21.6104306 L40.6016677,22.2197124 L345.734424,22.2197124 L345.734424,21.6104306 Z" id="Fill-5" fill="#8DB7FF"></path>
                        <g id="Group-12" transform="translate(40.491456, 22.178544)">
                            <mask id="mask-2" fill="white">
                                <use xlink:href="#path-1"></use>
                            </mask>
                            <g id="Clip-11"></g>
                            <path d="M0.110149173,0.0411997559 L0.110149173,159.969585 C0.110149173,174.628904 11.7000141,186.512408 25.9969113,186.512408 L25.9969113,186.512408 L279.356143,186.512408 C293.65304,186.512408 305.242905,174.628904 305.242905,159.969585 L305.242905,159.969585 L305.242905,0.0411997559 L0.110149173,0.0411997559 Z" id="Fill-10" fill="#CADCFF" mask="url(#mask-2)"></path>
                        </g>
                        <g id="Group-27" transform="translate(0.000000, 33.126544)">
                            <path d="M316.557894,155.240314 L185.656151,155.240314 C181.878345,155.240314 178.815733,152.100225 178.815733,148.226493 L178.815733,87.8826903 C178.815733,84.0091179 181.878345,80.8688693 185.656151,80.8688693 L316.557894,80.8688693 C320.3357,80.8688693 323.398313,84.0091179 323.398313,87.8826903 L323.398313,148.226493 C323.398313,152.100225 320.3357,155.240314 316.557894,155.240314" id="Fill-15" fill="#EEF2FF" opacity="0.7"></path>
                            <path d="M345.734424,68.4272588 L223.289501,68.4272588 C220.278239,68.4272588 217.837117,65.9242544 217.837117,62.8366587 L217.837117,21.1246897 C217.837117,18.0370941 220.278239,15.5340896 223.289501,15.5340896 L345.734424,15.5340896 L345.734424,68.4272588 Z" id="Fill-17" fill="#EEF2FF" opacity="0.7"></path>
                            <path d="M169.774661,133.199002 L40.6016522,133.199002 L40.6016522,0.259001709 L169.774661,0.259001709 C174.673364,0.259001709 178.644319,4.47803197 178.644319,9.68236327 L178.644319,123.775458 C178.644319,128.979971 174.673364,133.199002 169.774661,133.199002" id="Fill-19" fill="#EEF2FF" opacity="0.7"></path>
                            <path d="M157.698135,133.199002 L40.6016522,133.199002 L40.6016522,16.8933634 L157.698135,16.8933634 C162.138853,16.8933634 165.738559,20.5844797 165.738559,25.1376095 L165.738559,124.954597 C165.738559,129.507885 162.138853,133.199002 157.698135,133.199002" id="Fill-19" fill="#EEF2FF" opacity="0.7"></path>
                            <path d="M151.185154,127.357131 L9.09054917,127.357131 C4.11909813,127.357131 0.0890346623,123.224907 0.0890346623,118.12759 L0.0890346623,20.2811923 C0.0890346623,15.1837167 4.11909813,11.0514925 9.09054917,11.0514925 L151.185154,11.0514925 C156.156605,11.0514925 160.186669,15.1837167 160.186669,20.2811923 L160.186669,118.12759 C160.186669,123.224907 156.156605,127.357131 151.185154,127.357131" id="Fill-21" fill="#0024A5"></path>
                            <path d="M104.489212,83.841201 C98.8743965,83.8418373 92.5225126,79.0505761 85.3338053,73.6292291 C78.5344985,68.5013707 70.8279349,62.6895009 62.0341524,59.4151542 C42.9395606,52.3058898 5.04964144,82.8910615 4.66923895,83.2009345 C4.199476,83.5831856 3.51639599,83.502854 3.1434402,83.0213418 C2.7704844,82.5396705 2.84882994,81.8392747 3.31859289,81.4568646 C3.41555519,81.3778056 13.1589477,73.4793829 25.2140765,66.5991827 C32.3208701,62.5429952 38.8389086,59.6225847 44.5872992,57.9189191 C51.8996528,55.7518755 58.0191375,55.5509671 62.7754098,57.3219203 C71.8630269,60.7057087 79.7033209,66.6184305 86.6206889,71.8352104 C94.5728386,77.8322405 101.440407,83.0116384 106.671251,81.2697954 C110.412755,80.0237812 115.02785,72.5379923 119.913975,64.6125273 C123.816048,58.2831949 128.238925,51.1090289 133.000162,45.861548 C138.62987,39.6564512 143.942008,37.0160082 149.239563,37.7900546 C149.833282,37.8769081 150.246109,38.4408198 150.161403,39.04959 C150.076852,39.6583601 149.527502,40.0810155 148.933162,39.9949573 C144.391448,39.3314663 139.700024,41.7466628 134.590343,47.3783035 C129.966871,52.4741884 125.601395,59.555138 121.749742,65.802548 C116.426745,74.4366807 111.829491,81.8935183 107.342075,83.3878446 C106.413254,83.6972405 105.461782,83.841201 104.489212,83.841201" id="Fill-23" fill="#DFDFF4"></path>
                        </g>
                        <path d="M295.914667,12.1211909 C295.914667,14.1725794 294.292795,15.8356909 292.292,15.8356909 C290.291205,15.8356909 288.669333,14.1725794 288.669333,12.1211909 C288.669333,10.0696768 290.291205,8.40669089 292.292,8.40669089 C294.292795,8.40669089 295.914667,10.0696768 295.914667,12.1211909" id="Fill-166" fill="#FFFFFF"></path>
                        <path d="M311.930667,12.1211909 C311.930667,14.1725794 310.308795,15.8356909 308.308,15.8356909 C306.307205,15.8356909 304.685333,14.1725794 304.685333,12.1211909 C304.685333,10.0696768 306.307205,8.40669089 308.308,8.40669089 C310.308795,8.40669089 311.930667,10.0696768 311.930667,12.1211909" id="Fill-168" fill="#FFFFFF"></path>
                        <path d="M327.946667,12.1211909 C327.946667,14.1725794 326.324795,15.8356909 324.324,15.8356909 C322.323205,15.8356909 320.701333,14.1725794 320.701333,12.1211909 C320.701333,10.0696768 322.323205,8.40669089 324.324,8.40669089 C326.324795,8.40669089 327.946667,10.0696768 327.946667,12.1211909" id="Fill-170" fill="#FFFFFF"></path>
                        <path d="M348.623745,97.0711903 L228.402749,97.0711903 C225.367752,97.0711903 222.907236,94.5484608 222.907236,91.4363681 L222.907236,49.8128432 C222.907236,46.7007505 225.367752,44.178021 228.402749,44.178021 L348.623745,44.178021 C351.658743,44.178021 354.119258,46.7007505 354.119258,49.8128432 L354.119258,91.4363681 C354.119258,94.5484608 351.658743,97.0711903 348.623745,97.0711903" id="Fill-172" fill="#557CDB"></path>
                        <path d="M312.832881,184.757601 L181.931139,184.757601 C178.153333,184.757601 175.09072,181.617512 175.09072,177.74378 L175.09072,117.399977 C175.09072,113.526405 178.153333,110.386156 181.931139,110.386156 L312.832881,110.386156 C316.610688,110.386156 319.6733,113.526405 319.6733,117.399977 L319.6733,177.74378 C319.6733,181.617512 316.610688,184.757601 312.832881,184.757601" id="Fill-174" fill="#0024A5"></path>
                        <path d="M276.55913,71.5387471 C276.55913,83.3772345 267.199398,92.9742325 255.653593,92.9742325 C244.107787,92.9742325 234.748055,83.3772345 234.748055,71.5387471 C234.748055,59.7002597 244.107787,50.1032618 255.653593,50.1032618 C267.199398,50.1032618 276.55913,59.7002597 276.55913,71.5387471" id="Fill-176" fill="#E9E9FF"></path>
                        <path d="M269.055022,58.6294366 C270.224526,57.2397728 272.27129,57.0853314 273.626598,58.284482 C274.954799,59.4596496 275.126021,61.4986952 274.031611,62.8877274 L273.963024,62.9719452 L256.517877,83.701149 C255.355443,85.0824121 253.330773,85.2404172 251.979077,84.0747625 L251.898795,84.003234 L239.600252,72.6847544 C238.268036,71.4587015 238.157401,69.3574376 239.353142,67.99145 C240.524969,66.6527821 242.516567,66.5170615 243.849633,67.6661193 L243.930414,67.7380757 L253.769325,76.792791 L269.055022,58.6294366 Z" id="Stroke-178" fill="#557CDB" fill-rule="nonzero"></path>
                        <path d="M347.773968,56.7110663 L282.337912,56.7110663 C281.023724,56.7110663 279.95838,55.618716 279.95838,54.2712136 C279.95838,52.9237111 281.023724,51.8315199 282.337912,51.8315199 L347.773968,51.8315199 C349.088156,51.8315199 350.153345,52.9237111 350.153345,54.2712136 C350.153345,55.618716 349.088156,56.7110663 347.773968,56.7110663" id="Fill-180" fill="#DFDFF4"></path>
                        <path d="M347.773968,65.1535485 L282.337912,65.1535485 C281.023724,65.1535485 279.95838,64.0611982 279.95838,62.7138548 C279.95838,61.3663524 281.023724,60.2740021 282.337912,60.2740021 L347.773968,60.2740021 C349.088156,60.2740021 350.153345,61.3663524 350.153345,62.7138548 C350.153345,64.0611982 349.088156,65.1535485 347.773968,65.1535485" id="Fill-182" fill="#DFDFF4"></path>
                        <path d="M347.773968,73.5961261 L282.337912,73.5961261 C281.023724,73.5961261 279.95838,72.5037758 279.95838,71.1562734 C279.95838,69.808771 281.023724,68.7165797 282.337912,68.7165797 L347.773968,68.7165797 C349.088156,68.7165797 350.153345,69.808771 350.153345,71.1562734 C350.153345,72.5037758 349.088156,73.5961261 347.773968,73.5961261" id="Fill-184" fill="#DFDFF4"></path>
                        <path d="M347.773968,82.0386083 L282.337912,82.0386083 C281.023724,82.0386083 279.95838,80.946258 279.95838,79.5989146 C279.95838,78.2512531 281.023724,77.1590619 282.337912,77.1590619 L347.773968,77.1590619 C349.088156,77.1590619 350.153345,78.2512531 350.153345,79.5989146 C350.153345,80.946258 349.088156,82.0386083 347.773968,82.0386083" id="Fill-186" fill="#DFDFF4"></path>
                        <path d="M347.773968,90.48117 L282.337912,90.48117 C281.023724,90.48117 279.95838,89.3888197 279.95838,88.0413173 C279.95838,86.6938148 281.023724,85.6014646 282.337912,85.6014646 L347.773968,85.6014646 C349.088156,85.6014646 350.153345,86.6938148 350.153345,88.0413173 C350.153345,89.3888197 349.088156,90.48117 347.773968,90.48117" id="Fill-188" fill="#DFDFF4"></path>
                        <polygon id="Fill-190" fill="#DFDFF4" points="182.059207 174.882179 312.081462 174.882179 312.081462 172.93386 182.059207 172.93386"></polygon>
                        <polygon id="Fill-192" fill="#DFDFF4" points="186.289401 172.93386 194.055538 172.93386 194.055538 142.583797 186.289401 142.583797"></polygon>
                        <polygon id="Fill-193" fill="#DFDFF4" points="202.596287 172.93386 210.362425 172.93386 210.362425 148.276681 202.596287 148.276681"></polygon>
                        <polygon id="Fill-194" fill="#DFDFF4" points="218.903174 172.93386 226.669312 172.93386 226.669312 143.977908 218.903174 143.977908"></polygon>
                        <polygon id="Fill-195" fill="#DFDFF4" points="235.210061 172.93386 242.976199 172.93386 242.976199 140.260067 235.210061 140.260067"></polygon>
                        <polygon id="Fill-196" fill="#DFDFF4" points="251.516948 172.93386 259.283085 172.93386 259.283085 152.691577 251.516948 152.691577"></polygon>
                        <polygon id="Fill-197" fill="#DFDFF4" points="267.82368 172.93386 275.589817 172.93386 275.589817 144.907368 267.82368 144.907368"></polygon>
                        <polygon id="Fill-198" fill="#DFDFF4" points="284.130567 172.93386 291.896704 172.93386 291.896704 137.355564 284.130567 137.355564"></polygon>
                        <polygon id="Fill-199" fill="#DFDFF4" points="300.437454 172.93386 308.203591 172.93386 308.203591 125.156459 300.437454 125.156459"></polygon>
                    </g>
                    <g id="男孩" transform="translate(67.796040, 100.299613)">
                        <path d="M50.9416025,21.8809836 C50.9416025,21.8809836 55.0985703,21.1732704 56.2563777,17.4826312 C57.4138748,13.791833 54.0462578,12.3764067 54.0462578,12.3764067 C54.0462578,12.3764067 55.6040153,10.354119 53.7199991,8.23066135 C51.8361379,6.10720366 50.3364026,6.91624597 50.3364026,6.91624597 C50.3364026,6.91624597 51.7571718,3.93332002 49.3103088,2.66948967 C46.8634458,1.40550024 44.2851794,3.62996892 44.2851794,3.62996892 C44.2851794,3.62996892 41.364675,-0.717798373 35.5764135,0.293265907 C29.788152,1.30433019 30.8930568,4.84337331 26.8412738,4.84337331 C22.7894908,4.84337331 20.2638168,5.90502262 19.3691263,8.73619349 C18.4745909,11.5675234 20.2110693,13.9941731 20.2110693,13.9941731 C20.2110693,13.9941731 16.8434523,16.1176308 17.79058,21.0215153 C18.7377078,25.9255588 19.737583,26.0771548 18.9482323,29.4140169 C18.1588816,32.7507199 21.2985985,34.1157203 22.3510661,34.1494437 C23.4033785,34.183167 23.9997354,34.6549758 24.4207845,36.2729014 C24.8416785,37.8906679 28.5777522,40.3847643 32.997992,38.295189 C37.4180766,36.2054547 41.1366196,28.6218363 41.1366196,28.6218363 L50.9416025,21.8809836 Z" id="Fill-25" fill="#0B0B6D"></path>
                        <g id="Group-34" transform="translate(17.530784, 0.000000)">
                            <g id="Group-30">
                                <mask id="mask-4" fill="white">
                                    <use xlink:href="#path-3"></use>
                                </mask>
                                <g id="Clip-29"></g>
                                <path d="M35.7526219,7.03419817 C35.7526219,7.15032103 37.7920881,10.9456298 33.9396596,14.276129 C30.0870759,17.6066282 17.3964949,13.4241371 17.3964949,13.4241371 C17.3964949,13.4241371 18.2652771,17.0645094 15.9612977,20.356354 C13.6573184,23.6481986 10.7867689,23.8804443 11.0134279,27.0175114 C11.240087,30.1542604 12.4799633,33.6331742 9.42712471,34.3369105 C6.37428609,35.0406469 3.57277375,34.7240928 3.57277375,34.7240928 L6.21666417,39.3325798 L14.7526045,40.3396672 C14.7526045,40.3396672 18.3785291,38.7518064 18.3785291,38.5580562 C18.3785291,38.3644651 22.3443647,29.263614 22.3443647,29.263614 L23.66631,23.493262 L39.4162454,23.9579126 L43.04217,17.4905053 L39.5294974,8.1960631 L35.7526219,7.03419817 Z" id="Fill-28" fill="#05054C" mask="url(#mask-4)"></path>
                            </g>
                            <g id="Group-33">
                                <mask id="mask-6" fill="white">
                                    <use xlink:href="#path-5"></use>
                                </mask>
                                <g id="Clip-32"></g>
                                <path d="M5.1024665,34.762811 C5.1024665,34.762811 2.63807269,33.9496328 3.40275617,30.8997374 C4.16774993,27.850001 3.57278926,26.1943753 2.77971522,22.8252215 C1.98648603,19.4559087 2.35478763,15.8833013 4.25261134,14.6053135 C4.25261134,14.6053135 1.7314364,9.8710002 4.36601844,8.30254618 C7.00044535,6.73409215 10.7396219,8.70913527 13.2890323,5.33982242 C15.8384426,1.97066863 17.1589916,1.18644162 19.4873279,1.24450305 C21.8155091,1.30256448 24.603214,1.90863039 26.1553865,2.95628133 C27.7077141,4.00377319 26.1553865,2.95628133 26.1553865,2.95628133 L26.1496463,1.41868735 L21.4473626,-0.701588893 L13.4590654,-1.02116538 L1.75982696,4.32334967 L-2.88552048,14.1987244 L-5.60527421,29.1860502 L1.19325685,36.1957354 L5.1024665,34.762811 Z" id="Fill-31" fill="#3333B5" mask="url(#mask-6)"></path>
                            </g>
                        </g>
                        <path d="M51.2674586,18.5105572 C51.2674586,18.5105572 52.7408202,29.0938041 52.0392785,36.5088058 C51.3375818,43.9238074 45.3037342,43.0474775 43.6901264,42.9800308 C42.0763634,42.9125841 41.8849211,46.9853151 42.2356919,49.5468583 C42.2356919,49.5468583 38.0771728,56.2597142 31.5523081,48.3054571 C31.5523081,48.3054571 34.849802,41.7666264 32.9553914,38.295189 C32.9553914,38.295189 33.832396,35.4640181 32.0433252,33.4417305 C32.0433252,33.4417305 28.7107697,33.205667 28.9914174,28.7904531 C29.2720651,24.3752391 32.1837266,26.0602932 32.1837266,26.0602932 C32.1837266,26.0602932 36.3932867,21.5439091 36.6739344,18.1734828 C36.6739344,18.1734828 48.5663217,21.6788025 51.2674586,18.5105572" id="Fill-35" fill="#FDB2D0"></path>
                        <g id="Group-43" transform="translate(28.855980, 18.134255)">
                            <g id="Group-39">
                                <mask id="mask-8" fill="white">
                                    <use xlink:href="#path-7"></use>
                                </mask>
                                <g id="Clip-38"></g>
                                <path d="M15.0982867,26.5346312 L14.3106426,24.9936967 C14.3106426,24.9936967 9.43274076,23.3522284 6.63789943,20.9585067 C6.63789943,20.9585067 6.10902826,26.0006251 10.263824,27.3947358 C14.4184647,28.7888464 15.0982867,26.5346312 15.0982867,26.5346312" id="Fill-37" fill="#F476AF" mask="url(#mask-8)"></path>
                            </g>
                            <g id="Group-42">
                                <mask id="mask-10" fill="white">
                                    <use xlink:href="#path-9"></use>
                                </mask>
                                <g id="Clip-41"></g>
                                <path d="M7.69540906,-0.140301871 C7.984124,0.0921029292 9.26294039,2.71472986 16.7223665,3.26766558 C19.857274,3.50007038 24.3141267,3.46141579 24.3141267,3.46141579 L23.372584,-1.41828967 L7.69540906,-0.140301871 Z" id="Fill-40" fill="#F476AF" mask="url(#mask-10)"></path>
                            </g>
                        </g>
                        <g id="Group-48" transform="translate(47.007323, 51.380391)">
                            <path d="M16.5897221,33.7719489 C16.5897221,33.7719489 19.6842932,48.0032036 22.1536515,47.5571646 C27.1958463,47.3249188 56.132034,33.0500783 56.132034,33.0500783 L45.4810744,47.3985694 C45.4810744,47.3985694 28.6763442,57.4675352 18.9317107,56.654357 C9.18707708,55.8410197 7.55578335,37.7334884 7.55578335,37.7334884 L16.5897221,33.7719489 Z" id="Fill-44" fill="#F476AF"></path>
                            <path d="M0.10071668,1.62293633 C0.10071668,1.62293633 0.0124422023,0.436256103 1.33128462,0.129087266 C2.65012704,-0.177922498 7.35256588,3.42379516 11.0349613,11.7307158 C14.717667,20.0377956 18.9317262,32.8757349 18.9317262,32.8757349 C18.9317262,32.8757349 14.1728165,42.6349868 5.22125696,40.0790112 L0.10071668,1.62293633 Z" id="Fill-46" fill="#DEE7FF"></path>
                        </g>
                        <g id="Group-51" transform="translate(47.007323, 51.380391)">
                            <mask id="mask-12" fill="white">
                                <use xlink:href="#path-11"></use>
                            </mask>
                            <g id="Clip-50"></g>
                            <path d="M1.36600488,-0.700698088 C1.36600488,-0.700698088 3.21666612,0.964631041 5.63389748,7.19963348 C8.05128397,13.434795 8.95776512,19.0502104 9.14657011,24.4720346 C9.3353751,29.8938589 7.74907187,41.3182808 7.74907187,41.3182808 L6.08721562,40.8536302 C6.08721562,40.8536302 7.74007377,22.2645867 7.55576783,21.9547136 C7.37130675,21.6449996 1.55480987,1.66168637 1.55480987,1.66168637 L-0.29585137,-0.468293287 L1.36600488,-0.700698088 Z" id="Fill-49" fill="#274F7A" mask="url(#mask-12)"></path>
                        </g>
                        <g id="Group-56" transform="translate(66.089504, 126.780716)">
                            <path d="M50.8959922,91.374648 C50.8959922,91.374648 50.0118512,95.3248933 50.8959922,97.4160593 C51.7801332,99.5073843 57.4678642,117.573557 57.4678642,117.573557 L52.9132734,119.083949 L41.1856445,101.540489 L39.4860893,93.4079116 L46.3980274,88.8767338 L50.8959922,91.374648 Z" id="Fill-52" fill="#E2890A"></path>
                            <path d="M10.1390142,0.11407083 C10.1390142,0.11407083 27.2487489,0.811126159 34.783728,0.985469528 C42.3188623,1.15965382 55.0660692,2.08927303 61.2981853,6.62029174 C67.5301462,11.1513105 67.7566502,21.3753719 66.9069501,28.8108939 C66.057095,36.2465749 48.3241641,91.7232393 48.3241641,91.7232393 L43.5652545,90.6774972 L47.1343979,30.9022189 L0.0544695416,12.6036416 L10.1390142,0.11407083 Z" id="Fill-54" fill="#0627B5"></path>
                        </g>
                        <g id="Group-59" transform="translate(66.089504, 126.780716)">
                            <mask id="mask-14" fill="white">
                                <use xlink:href="#path-13"></use>
                            </mask>
                            <use id="Clip-58" fill="#0066CA" xlink:href="#path-13"></use>
                            <path d="M4.64556463,2.45098779 C4.64556463,2.45098779 37.9220951,3.19290155 48.4770233,7.02686493 C59.0319514,10.8608283 63.2810721,18.3545708 61.7513948,31.2507307 C60.2217176,44.1468906 48.7551887,86.0909463 48.7551887,86.0909463 L41.4280968,66.8023023 L51.5534431,26.5453686 L30.9878169,12.6036257 L-2.91733963,13.0180094 L4.64556463,2.45098779" id="Fill-57" fill="#0057AD" mask="url(#mask-14)"></path>
                        </g>
                        <g id="Group-64" transform="translate(62.055872, 132.348251)">
                            <path d="M58.5577515,79.1245925 L55.7166785,86.6547626 C55.5446286,87.1108232 55.1299402,87.4219688 54.6536614,87.4499656 C52.9523997,87.5504993 48.7749535,87.4813028 44.7797965,84.955551 C44.3719343,84.6976946 44.1531873,84.2133191 44.2178806,83.7265575 L45.0272443,77.640765 C45.1333598,76.8431759 45.9358974,76.3560962 46.6686221,76.6454489 C48.6572025,77.4303122 52.5463991,78.515027 57.1470663,77.4608541 C58.1005548,77.2422886 58.9102288,78.1902011 58.5577515,79.1245925" id="Fill-60" fill="#0627B5"></path>
                            <path d="M9.24365652,0.00704690806 C9.24365652,0.00704690806 32.6987593,1.86596717 41.0835936,2.3306177 C49.4684279,2.7954273 62.8804084,9.18536627 61.3865684,27.1936364 C59.8928835,45.2017475 50.1442163,89.0021783 50.1442163,89.0021783 C50.1442163,89.0021783 39.7237943,95.5082402 32.8120113,87.6079086 C32.8120113,87.6079086 35.4166514,67.2412308 36.3811548,56.35511 C37.3852188,45.0254952 39.3931916,34.8070013 37.6936365,30.6245103 C35.9939261,26.4420192 0.0655930567,30.0400782 0.0655930567,30.0400782 L9.24365652,0.00704690806 Z" id="Fill-62" fill="#122FD8"></path>
                        </g>
                        <g id="Group-70" transform="translate(62.055872, 132.348251)">
                            <mask id="mask-16" fill="white">
                                <use xlink:href="#path-15"></use>
                            </mask>
                            <use id="Clip-69" fill="#0F7FEC" xlink:href="#path-15"></use>
                            <path d="M6.44357147,0.00704690806 C6.44357147,0.00704690806 12.076383,4.94481379 23.6339788,5.29334146 C35.1915747,5.64186912 52.0392785,6.85909125 56.7635921,16.0981763 C61.4879056,25.3374204 54.4000391,75.525086 54.4000391,75.525086 L73.7732617,22.7205201 L58.6418682,0.00704690806 C58.6418682,0.00704690806 38.666083,-7.0799474 37.6935123,-7.0799474 C36.7210968,-7.0799474 16.505776,-2.02605765 16.505776,-2.02605765 L6.44357147,0.00704690806" id="Fill-68" fill="#7EA1FC" mask="url(#mask-16)"></path>
                            <path d="M7.99727985,7.73316237 C7.99727985,7.73316237 6.4676026,19.4093959 21.764375,20.8036656 C37.0611475,22.1977763 43.9163045,21.500721 41.0836091,35.9651758 C38.2509137,50.4299488 33.6950819,80.5234276 33.6950819,80.5234276 L33.3218158,32.1312124 L-3.14205945,34.6962551 L-6.10972639,23.9404146 L7.99727985,7.73316237 Z" id="Fill-65" fill="#0066CA" mask="url(#mask-16)"></path>
                        </g>
                        <path d="M31.5522616,48.3054094 C31.5522616,48.3054094 20.461481,48.5497446 16.7600034,55.0559655 C13.0586809,61.5620274 12.4542567,80.770658 12.9075748,87.8189977 C13.3607378,94.8673374 15.2818325,140.171321 23.8230476,153.849003 C30.6065301,164.7119 63.2794121,162.851707 63.2794121,162.851707 L77.701507,125.965359 C77.701507,125.965359 63.0845567,126.462778 58.4956801,118.89459 C53.9066483,111.326401 53.3967042,103.309947 54.0765263,94.2477503 C54.7563484,85.1857129 56.5693107,77.5176271 54.5298444,67.8746572 C52.4902231,58.2315282 49.7141536,51.7833687 47.2779952,50.7377857 C44.8418368,49.6922027 42.2358005,49.5469696 42.2358005,49.5469696 L31.5522616,48.3054094 Z" id="Fill-72" fill="#FFFFFF"></path>
                        <g id="Group-80" transform="translate(12.721454, 48.198942)">
                            <g id="Group-76">
                                <mask id="mask-18" fill="white">
                                    <use xlink:href="#path-17"></use>
                                </mask>
                                <g id="Clip-75"></g>
                                <path d="M5.83267795,97.9819753 C5.83267795,97.9819753 15.8612171,103.069747 19.9396842,93.7994843 C24.0181512,84.529221 32.0528353,83.1107723 24.296627,78.6958764 C16.5404187,74.2809806 7.62671321,63.5922686 7.62671321,63.5922686 C7.62671321,63.5922686 18.2100319,69.8660847 17.8851694,61.9657532 C17.5601518,54.0652625 20.2795952,54.8785998 27.7579484,47.5592007 C35.2364566,40.2398016 38.2159142,7.8986295 31.4971249,0.106467168 L48.4025407,8.05754284 L54.2724056,56.853802 L75.121317,77.1854838 L58.8048114,115.757841 L50.419822,119.475522 C50.419822,119.475522 21.6393945,115.176908 20.9594173,115.176908 C20.2795952,115.176908 7.70226623,111.459068 7.70226623,111.459068 L5.83267795,97.9819753 Z" id="Fill-74" fill="#F0F5FF" mask="url(#mask-18)"></path>
                            </g>
                            <g id="Group-79">
                                <mask id="mask-20" fill="white">
                                    <use xlink:href="#path-19"></use>
                                </mask>
                                <g id="Clip-78"></g>
                                <path d="M-3.62873263,10.9087091 C-3.62873263,10.9087091 2.81980331,76.5820745 6.90913013,93.3541928 C11.6114138,112.640292 20.2039801,110.490905 30.5151838,113.511531 C41.637768,116.769971 52.8776379,113.147255 52.8776379,113.147255 L51.8928112,114.967362 L16.7103897,116.299912 L-0.283921128,102.706697 L-2.83550344,76.7401924 C-2.83550344,76.7401924 -5.49878633,43.9591851 -5.27197212,43.8809215 C-5.04500277,43.8026579 -5.04500277,21.4957738 -5.04500277,21.4957738 L-3.62873263,10.9087091 Z" id="Fill-77" fill="#274F7A" mask="url(#mask-20)"></path>
                            </g>
                        </g>
                        <path d="M115.150209,52.3062238 C115.036957,48.414199 113.563906,47.891328 109.881355,47.8332666 C106.198805,47.7752051 107.105286,44.0573646 107.105286,44.0573646 L33.6809331,149.31781 C37.8304541,160.039131 49.5441205,158.839885 49.5441205,158.839885 L123.442425,55.5882059 C123.442425,55.5882059 122.118773,54.9784814 120.702348,53.9328984 C119.285923,52.8871563 115.263461,56.1984077 115.150209,52.3062238" id="Fill-81" fill="#FF9E1F"></path>
                        <g id="Group-89" transform="translate(33.665311, 43.903987)">
                            <g id="Group-85">
                                <mask id="mask-22" fill="white">
                                    <use xlink:href="#path-21"></use>
                                </mask>
                                <g id="Clip-84"></g>
                                <path d="M0.46835118,113.9992 C0.355409493,113.9992 0.241381828,113.964045 0.142868131,113.890712 C-0.105045077,113.706188 -0.160119664,113.350343 0.0198423651,113.096305 L78.085819,2.8400312 C78.2657811,2.58567441 78.6126734,2.5292037 78.8605866,2.71388678 C79.1084998,2.89841078 79.1635744,3.2540967 78.9836124,3.50829443 L0.917635693,113.764568 C0.809193057,113.917914 0.639935666,113.9992 0.46835118,113.9992" id="Fill-83" fill="#FFFFFF" mask="url(#mask-22)"></path>
                            </g>
                            <g id="Group-88">
                                <mask id="mask-24" fill="white">
                                    <use xlink:href="#path-23"></use>
                                </mask>
                                <g id="Clip-87"></g>
                                <path d="M8.17336338,117.817399 C8.06057684,117.817399 7.94670431,117.782244 7.84834576,117.70923 C7.60027741,117.524865 7.54489254,117.169179 7.72469943,116.914822 L85.2281396,7.25379764 C85.4079465,6.99944085 85.7548388,6.94265199 86.0029072,7.12685785 C86.2509755,7.31122278 86.3063604,7.66690871 86.1265535,7.9212655 L8.62311332,117.58229 C8.51451554,117.735795 8.34510301,117.817399 8.17336338,117.817399" id="Fill-86" fill="#FFFFFF" mask="url(#mask-24)"></path>
                            </g>
                        </g>
                        <g id="Group-96" transform="translate(0.000000, 28.951180)">
                            <path d="M122.271027,5.02590891 C123.076978,6.23295041 124.806785,8.18365545 127.681834,8.4653727 L129.653814,0.11868393 L122.271027,5.02590891 Z" id="Fill-90" fill="#748AE9"></path>
                            <path d="M122.271027,5.02590891 L107.105193,15.1061689 C107.105193,15.1061689 106.198867,18.8240094 109.881417,18.8820708 C113.563813,18.9401323 115.036864,19.4630033 115.150271,23.3550281 C115.263523,27.247212 119.285985,23.9359606 120.70241,24.9817026 C122.11868,26.0272856 123.442487,26.4095367 123.442487,26.4095367 L127.681834,8.4653727 C124.806785,8.18365545 123.076978,6.23295041 122.271027,5.02590891" id="Fill-92" fill="#FFE1AB"></path>
                            <path d="M4.52267849,60.9592066 C4.52267849,60.9592066 1.19896599,69.23479 0.14137879,77.5285076 C-0.916208408,85.8220662 14.3428651,93.1801199 18.7995627,95.3489132 C23.2564154,97.5175475 40.1017921,105.340411 40.1017921,105.340411 C40.1017921,105.340411 50.1442939,115.968834 57.0225667,115.796877 C63.2168287,115.64194 62.4614536,108.593601 54.3031233,104.101237 C46.2761963,99.6812505 44.1053267,98.2920711 44.1053267,98.2920711 C44.1053267,98.2920711 16.6848537,81.1747655 14.6452323,78.3863852 C12.605611,75.5980048 16.2729579,68.066244 16.2729579,68.066244 L4.52267849,60.9592066 Z" id="Fill-94" fill="#FDB2D0"></path>
                        </g>
                        <g id="Group-99" transform="translate(0.000000, 89.875915)">
                            <mask id="mask-26" fill="white">
                                <use xlink:href="#path-25"></use>
                            </mask>
                            <g id="Clip-98"></g>
                            <path d="M9.34984963,7.90683763 C9.34984963,7.90683763 10.6413875,9.48388157 10.5279804,14.1310231 C10.4147284,18.7783238 13.599746,21.2472868 19.2150267,24.0472795 C24.8304626,26.8474312 40.3306232,34.9919389 40.3306232,34.9919389 L40.8571672,33.3011582 L18.5352047,14.789583 L16.6845434,7.81855244 L9.34984963,7.90683763" id="Fill-97" fill="#F476AF" mask="url(#mask-26)"></path>
                        </g>
                        <path d="M24.0873746,55.9078779 C26.0813849,57.7590036 26.3534999,65.3572566 26.4290529,70.7790809 C26.5046059,76.2009051 19.0262528,99.049908 19.0262528,99.049908 C19.0262528,99.049908 6.86438785,102.22563 2.86085327,88.9809421 C2.86085327,88.9809421 8.14847898,70.5466761 11.5478996,63.1886224 C14.9471652,55.8304096 18.4975368,50.7184584 24.0873746,55.9078779" id="Fill-100" fill="#FFFFFF"></path>
                        <g id="Group-108" transform="translate(2.792514, 53.766477)">
                            <g id="Group-104">
                                <mask id="mask-28" fill="white">
                                    <use xlink:href="#path-27"></use>
                                </mask>
                                <g id="Clip-103"></g>
                                <path d="M3.12763146,44.9047593 C3.12763146,44.9047593 9.13308847,44.5476417 10.9460508,39.5518134 C12.7588579,34.5559851 21.3498729,22.6250766 23.0598224,7.27124788 C24.7696168,-8.08258084 23.0598224,7.27124788 23.0598224,7.27124788 L26.9226453,25.7937991 L16.4980345,48.6140099 L12.645606,49.0786604 L6.07373398,47.7022068 L3.12763146,44.9047593 Z" id="Fill-102" fill="#DEE7FF" mask="url(#mask-28)"></path>
                            </g>
                            <g id="Group-107">
                                <mask id="mask-30" fill="white">
                                    <use xlink:href="#path-29"></use>
                                </mask>
                                <g id="Clip-106"></g>
                                <path d="M22.9000751,3.59371631 C22.9000751,3.59371631 23.0701082,13.2368453 23.013327,17.8839869 C22.9567011,22.5312875 14.7422101,46.8785934 14.7422101,46.8785934 C14.7422101,46.8785934 18.0843843,46.9293376 18.0843843,46.7551533 C18.0843843,46.5808099 27.4324808,15.7346004 27.4324808,15.3860727 C27.4324808,15.037545 25.1095744,6.03340997 25.1095744,6.03340997 L22.9000751,3.59371631 Z" id="Fill-105" fill="#274F7A" mask="url(#mask-30)"></path>
                            </g>
                        </g>
                        <g id="Group-119" transform="translate(91.066992, 75.718470)">
                            <path d="M4.29026374,19.1956185 L1.42142078,23.0604419 C1.42142078,23.0604419 7.88004079,18.3743276 12.0723804,15.7408837 C16.2648751,13.1075989 19.7396936,10.7064008 20.7972808,6.60137803 C21.854868,2.49635525 20.4195157,-0.214556876 16.4159811,0.172625386 C12.4124465,0.559966721 9.50016447,5.95363515 11.7285908,8.49020391 L4.29026374,19.1956185 Z" id="Fill-109" fill="#FDB2D0"></path>
                            <path d="M22.3636176,164.094269 L25.8223016,160.002131 C25.3885311,159.454763 24.9580184,158.906759 24.5385207,158.365435 C23.0974283,160.10871 20.8873084,162.752493 20.8873084,162.752493 L22.3636176,164.094269 Z" id="Fill-111" fill="#0627B5"></path>
                            <path d="M24.5017061,166.261567 L27.752503,162.415673 C27.3267997,161.886758 26.8920983,161.345434 26.4561558,160.799179 C25.0211138,162.532592 23.0253969,164.91995 23.0253969,164.91995 L24.5017061,166.261567 Z" id="Fill-113" fill="#0627B5"></path>
                            <path d="M19.91888,161.94011 L23.7776692,157.374732 C23.3367622,156.794913 22.9158683,156.22957 22.5250714,155.688405 C21.1494479,157.360257 18.4425708,160.598335 18.4425708,160.598335 L19.91888,161.94011 Z" id="Fill-115" fill="#0627B5"></path>
                            <path d="M32.5678059,168.717311 C32.2063305,167.918768 30.12327,165.362156 27.7524254,162.415657 L24.5017837,166.261551 L23.0254745,164.919935 C23.0254745,164.919935 25.0210362,162.532576 26.4562334,160.799164 C26.244778,160.534308 26.0333226,160.268339 25.8223326,160.002211 L22.3636486,164.094349 L20.8873394,162.752573 C20.8873394,162.752573 23.0974593,160.10863 24.5383966,158.365356 C24.2799339,158.03194 24.02566,157.701228 23.7775916,157.374812 L19.9189575,161.94019 L18.4426483,160.598414 C18.4426483,160.598414 21.1495255,157.360336 22.5249939,155.688326 C21.207858,153.865038 20.2343565,152.31949 20.019488,151.447455 C19.2351018,148.262985 19.0801173,146.287146 19.0801173,146.287146 L5.5922735,144.105786 C5.5922735,144.105786 4.18313979,148.90166 1.96883114,151.653772 C-0.245632655,154.406043 -1.52057055,157.846302 3.44498519,160.460817 C8.41069607,163.075331 9.40048723,162.765617 12.8898889,167.719609 C16.3791354,172.673601 23.5760652,177.386599 28.1390335,175.735268 C32.7020017,174.084096 33.4401563,170.643837 32.5678059,168.717311" id="Fill-117" fill="#FCAA23"></path>
                        </g>
                        <g id="Group-122" transform="translate(91.066992, 219.679007)">
                            <mask id="mask-32" fill="white">
                                <use xlink:href="#path-31"></use>
                            </mask>
                            <g id="Clip-121"></g>
                            <path d="M15.2778299,4.19030151 C15.2778299,4.19030151 2.78101839,7.49407653 8.33331239,11.7277889 C13.8854513,15.9616603 16.0383246,18.2852311 17.3979688,21.654544 C18.7576129,25.0238568 34.9608665,28.1607649 34.9608665,28.1607649 L29.6307325,34.7831087 C29.6307325,34.7831087 17.0580577,36.8744337 14.5086474,32.6917836 C11.9590819,28.5092926 0.0137919175,16.8386266 0.0137919175,16.8386266 C0.0137919175,16.8386266 -1.97789129,16.4264699 -2.31780233,13.7542124 C-2.65771337,11.082114 1.77245533,4.80829784 1.77245533,4.80829784 L5.59230453,0.145249024 L15.2778299,4.19030151 Z" id="Fill-120" fill="#E59013" mask="url(#mask-32)"></path>
                        </g>
                        <g id="Group-127" transform="translate(93.272768, 212.679503)" fill="#0627B5">
                            <path d="M0.0769492813,1.51249235 L0.540661785,9.50667665 C0.569052346,9.99661969 0.874832655,10.4227747 1.32194521,10.5982316 C4.09848007,11.6874004 14.1051446,15.1890615 20.4367052,11.8410644 C20.7721172,11.6636986 21.0066884,11.3344187 21.074019,10.9537584 L22.5296946,2.71444353 C22.6825072,1.84972587 21.9400087,1.098745 21.0989965,1.26831619 C17.7966932,1.93387518 10.2264974,2.90103548 1.64448061,0.246434988 C0.83387578,-0.00426314076 0.026684025,0.645865826 0.0769492813,1.51249235" id="Fill-123"></path>
                        </g>
                    </g>
                    <g id="女孩" transform="translate(400.400000, 56.695000)">
                        <path d="M35.4974791,70.4117349 C35.4974791,70.4117349 30.4985684,71.2486149 30.5496093,67.0645332 C30.6006503,62.8802923 32.2328749,62.3572622 29.5804517,59.5852663 C26.9280286,56.8132703 27.8971862,52.2630039 30.0395101,51.2169437 C32.1818339,50.1708834 36.0586194,51.949154 36.2115871,48.1834327 C36.3645548,44.4177114 38.8640102,40.5473204 47.6376245,42.9009559 C56.4110837,45.2545913 56.4621247,47.6080677 56.4621247,47.6080677 C56.4621247,47.6080677 59.3695974,45.7774624 63.6035144,51.7399738 C67.8371211,57.7023261 67.8371211,68.0582585 67.6841534,71.6146406 C67.5310305,75.1711817 71.2038073,88.8219811 78.5490506,97.6088232 C85.8942939,106.395506 92.2194938,118.42504 86.7104838,131.604985 C81.2014737,144.785089 62.5322749,147.60942 52.3304447,141.333217 C42.1286145,135.057015 46.4970376,101.479214 44.2108993,87.5667406 C41.9246058,73.6544262 49.0658404,71.771645 35.4974791,70.4117349" id="Fill-200" fill="#0B0B6D"></path>
                        <g id="Group-208" transform="translate(27.925142, 42.154190)">
                            <g id="Group-204">
                                <mask id="mask-34" fill="white">
                                    <use xlink:href="#path-33"></use>
                                </mask>
                                <g id="Clip-203"></g>
                                <path d="M8.60733561,17.8381422 L8.52449102,17.1695608 C8.52449102,17.1695608 16.3649402,18.6457528 26.0852168,14.2074734 C26.0852168,14.2074734 24.5803619,24.1700197 27.4997804,25.7965352 C30.4193541,27.4230507 29.8527839,32.6802349 28.1814642,34.5391552 C26.5101444,36.3980755 27.0767145,42.352156 30.8158911,40.8274469 C34.5550676,39.3027378 39.4840104,34.5391552 40.2206136,23.2114493 L52.0613394,44.7632166 C52.0613394,44.7632166 47.9822518,54.5224685 41.6368838,61.4933399 C35.2916708,68.4642114 28.7197989,74.6219046 32.2323164,85.3106166 C35.7448338,95.9991694 48.2089109,101.459807 48.2089109,101.459807 L29.3994658,105.280886 L18.6352542,98.0904945 C18.6352542,98.0904945 19.3150763,74.8541503 19.9948984,71.1364689 C20.6747205,67.4186284 24.1873931,61.9579904 22.9410009,57.4269717 C21.6944536,52.895953 8.60733561,17.8381422 8.60733561,17.8381422" id="Fill-202" fill="#040451" mask="url(#mask-34)"></path>
                            </g>
                            <g id="Group-207">
                                <mask id="mask-36" fill="white">
                                    <use xlink:href="#path-35"></use>
                                </mask>
                                <g id="Clip-206"></g>
                                <path d="M2.28092563,23.0372014 C2.28092563,23.0372014 3.86722886,21.7786205 3.5839438,19.6098271 C3.30065875,17.4411929 1.69542848,16.802199 1.4499975,14.6722193 C1.20456653,12.5420806 1.75205446,11.0318471 3.1495527,10.5476306 C4.54705094,10.0635733 8.34300862,10.8963174 9.30611576,8.01106188 C10.2692229,5.12596546 9.23056273,2.78282876 12.2520631,1.6211229 C15.2737187,0.459257974 19.8059693,0.575380838 19.8059693,0.575380838 C19.8059693,0.575380838 12.0632582,-0.973666355 11.7610461,-0.973666355 C11.4589891,-0.973666355 1.6388025,5.18402689 1.6388025,5.18402689 L-2.6290901,11.4190293 L-1.08064095,16.9569764 L2.28092563,23.0372014 Z" id="Fill-205" fill="#2C2CA8" mask="url(#mask-36)"></path>
                            </g>
                        </g>
                        <g id="腿鞋" transform="translate(35.682126, 206.953214)">
                            <path d="M36.2121921,77.6987628 C35.583411,76.5771432 35.0326651,75.0190289 34.4465474,72.2444878 C32.9734962,65.2736164 25.5458737,40.6431615 21.013468,28.7927437 C16.4812174,16.9421668 14.3809364,15.4090269 14.3809364,15.4090269 L0.000418877136,16.4775163 C0.000418877136,16.4775163 25.3626538,71.9638841 26.0567487,80.3298206 C28.4924417,80.6320582 32.2800218,80.4422848 36.2121921,77.6987628" id="Fill-209" fill="#FDB2D0"></path>
                            <g id="Group-213" transform="translate(-0.000000, 15.270952)">
                                <mask id="mask-38" fill="white">
                                    <use xlink:href="#path-37"></use>
                                </mask>
                                <g id="Clip-212"></g>
                                <path d="M9.80178704,4.05297429 C9.80178704,4.05297429 13.0878006,4.28522002 19.2065096,14.8578091 C25.3252186,25.4303982 35.3410363,49.1686159 35.3410363,49.1686159 L27.5913439,8.3515882 L20.1128356,-0.733355655 L9.80178704,4.05297429 Z" id="Fill-211" fill="#F476AF" mask="url(#mask-38)"></path>
                            </g>
                            <g id="Group-218" transform="translate(12.876593, 0.000000)">
                                <path d="M27.1220618,82.4686129 C25.4167665,80.0904802 24.286729,79.3951747 23.3355677,77.6988264 C19.4033973,80.4421893 15.6158172,80.6321218 13.1801242,80.3298842 C13.1883466,80.4291454 13.1942419,80.5237935 13.195483,80.6095335 C13.2983407,87.9290917 0.731406021,90.2528216 0.159716301,94.0867849 C-0.41197342,97.9207483 4.6868473,98.5016808 9.33250502,98.0368712 C13.9781627,97.5722207 16.8578655,92.6047072 23.2032335,91.9076519 C29.5486016,91.2104375 29.9547573,86.4186991 27.1220618,82.4686129" id="Fill-214" fill="#0B0B6D"></path>
                                <path d="M80.7197185,34.0427856 C71.9639452,30.1354899 64.5448554,25.7069138 56.6203206,20.1177454 C46.8659132,13.2381815 30.9746455,7.76386334 30.9746455,7.76386334 L25.5118671,0.00208384866 L13.195483,8.46091867 C13.195483,8.46091867 19.1337646,18.1040476 25.0825956,20.1952136 C31.0312715,22.2865387 71.9358649,37.2158031 74.3153973,43.3154349 C74.3503038,43.4048336 74.3830382,43.4963003 74.4142213,43.5888804 C79.3513865,42.0640122 80.4775454,36.8588446 80.7197185,34.0427856" id="Fill-216" fill="#FDB2D0"></path>
                            </g>
                            <g id="Group-221" transform="translate(26.063466, 0.000000)">
                                <mask id="mask-40" fill="white">
                                    <use xlink:href="#path-39"></use>
                                </mask>
                                <g id="Clip-220"></g>
                                <path d="M4.13396051,12.8758304 C4.13396051,12.8758304 4.60589542,9.73892238 10.0920999,9.85504524 C15.5781493,9.97132718 54.6699356,22.5189594 54.6699356,22.5189594 C54.6699356,22.5189594 33.8208691,3.23270146 32.0079068,1.83859081 C30.1950996,0.444480146 10.0920999,-5.4808083 10.0920999,-5.4808083 C10.0920999,-5.4808083 3.90730144,3.23270146 3.45413843,3.92991587 C3.00082029,4.6269712 2.09449428,8.46093458 2.09449428,8.46093458 L4.13396051,12.8758304 Z" id="Fill-219" fill="#F476AF" mask="url(#mask-40)"></path>
                            </g>
                            <path d="M100.845679,37.0416347 C98.3127133,36.0706567 95.9086688,35.0747043 93.5963119,34.0428015 C93.3541389,36.8588605 92.2279799,42.0640282 87.2908148,43.5888963 C89.3875275,49.8014696 83.3134988,62.6825176 89.174831,64.2280652 C95.1235069,65.7965192 97.8431055,55.862924 98.0696094,51.4480282 C98.2819957,47.311509 104.414977,41.2241258 100.845679,37.0416347" id="Fill-222" fill="#0B0B6D"></path>
                        </g>
                        <g id="Group-226" transform="translate(23.115812, 138.870220)">
                            <mask id="mask-42" fill="white">
                                <use xlink:href="#path-41"></use>
                            </mask>
                            <g id="Clip-225"></g>
                            <path d="M2.63892596,1.46935191 L1.83980146,2.74193124 C1.83980146,2.74193124 0.64956984,31.4382771 0.0375438025,48.0704117 L0.0375438025,48.0704117 C-0.574637375,64.7023873 9.88084622,88.2384239 9.88084622,88.2384239 L9.88084622,88.2384239 C9.88084622,88.2384239 32.3653952,94.5599618 52.9848549,72.8615297 L52.9848549,72.8615297 C68.4913762,56.5432449 77.2649905,53.9280944 77.2649905,53.9280944 L77.2649905,53.9280944 C77.2649905,53.9280944 74.1024681,53.5097339 64.2067285,43.6769906 L64.2067285,43.6769906 C54.311144,33.8442474 51.0463846,32.0659768 46.8638188,21.1871733 L46.8638188,21.1871733 C42.6809428,10.3083698 34.1794434,0.9636607 30.8808636,0.0921029292 L30.8808636,0.0921029292 L2.63892596,1.46935191 Z" id="Fill-224" mask="url(#mask-42)"></path>
                        </g>
                        <g id="Group-229" transform="translate(23.115812, 138.870220)">
                            <mask id="mask-44" fill="white">
                                <use xlink:href="#path-43"></use>
                            </mask>
                            <use id="Clip-228" fill="#FFB852" xlink:href="#path-43"></use>
                            <path d="M12.0380635,5.65963751 L7.50860537,7.48515256 C7.50860537,7.48515256 13.0200976,17.1752079 20.9517689,15.2388194 C28.8834402,13.3024308 15.8906471,33.3632124 17.7790073,39.0172823 C19.6675226,44.6715114 31.6782815,33.4405216 35.7575243,38.3976953 C39.8366119,43.3547099 41.8357418,60.5108291 33.4049862,70.9672954 C24.9742305,81.4236025 10.5273133,87.6974186 23.1046423,91.008511 C35.6819713,94.3196033 71.7409319,80.0293328 72.747323,78.2866945 C73.7538693,76.5438971 83.4417217,63.4735529 85.4813431,62.4279699 C87.5208093,61.3822278 89.9003417,46.0463743 89.9003417,46.0463743 C89.9003417,46.0463743 70.0182609,23.7394902 65.6824171,18.1627295 C61.3464182,12.5859687 53.6994283,7.0979703 47.4783271,1.50387063 C41.2572259,-4.09038812 31.4115964,-10.3599093 29.8076073,-6.99059642 C28.203463,-3.62128356 12.0380635,5.65963751 12.0380635,5.65963751" id="Fill-227" fill="#EF7700" opacity="0.5" mask="url(#mask-44)"></path>
                        </g>
                        <g id="Group-236" transform="translate(11.821333, 0.000000)" fill="#FDB2D0">
                            <path d="M7.94136751,25.1088015 C8.17469759,25.098939 10.490933,22.9013536 10.4341519,19.1254516 C10.3775259,15.3495497 9.3011668,1.34974536 4.37222403,0.304003295 C-0.556873881,-0.741579699 -0.16018172,3.09238369 1.08621047,7.97208914 C2.33260266,12.8516355 2.10594359,18.660642 1.70940656,19.7644455 C1.70940656,19.7644455 3.80565392,25.2831449 7.94136751,25.1088015" id="Fill-230"></path>
                            <path d="M66.0123062,29.2913562 C66.0123062,29.2913562 63.7461809,26.9677854 65.3324841,21.2747427 C66.9187873,15.581859 83.5752039,3.26663161 84.0285221,9.88897539 C84.4816851,16.5113192 73.2641554,22.0880799 73.3774073,27.4324359 L66.0123062,29.2913562 Z" id="Fill-232"></path>
                        </g>
                        <g id="Group-243" transform="translate(0.000000, 18.452400)">
                            <g id="Group-239">
                                <path d="M40.6323854,69.0447143 L39.9862286,70.230281 C39.9862286,70.230281 37.1637724,70.3696285 33.4230444,69.3235683 C29.6824716,68.2775081 26.2478342,64.5117867 22.5752126,57.9565715 C18.9025909,51.4015154 12.3733824,37.1055182 12.3733824,37.1055182 L20.670873,7.11909512 L13.2575234,0.0758457282 C13.2575234,0.0758457282 8.90476941,10.8151427 6.18439512,17.3005251 C3.46386569,23.7860666 -1.84098053,37.5676236 0.743336263,42.4622819 C3.32780819,47.356781 18.0184499,73.8564959 19.786732,81.1089255 C21.555014,88.3615142 19.4466658,88.0826602 22.5752126,97.775897 C25.7037594,107.469134 24.9556758,123.159719 24.9556758,123.159719 C24.9556758,123.159719 27.4720414,129.505754 38.5580127,128.947887 C49.6439839,128.39002 53.9967379,120.50989 53.9967379,120.50989 C53.9967379,120.50989 52.1603496,117.023023 53.1805481,111.444194 C54.2007466,105.865366 55.2750889,93.8339234 61.66824,86.8603478 C68.061391,79.8867721 81.269518,65.2091602 87.1185942,52.9356098 C87.1185942,52.9356098 88.6924862,49.7104165 88.7981364,44.8463002 C88.9037865,39.9821838 86.4044862,6.87507803 86.4044862,6.87507803 L76.4066647,10.3269495 C76.4066647,10.3269495 78.3449799,41.1241647 77.9369625,44.6589129 C77.52879,48.193661 64.9475825,65.0720398 62.4991681,67.0321301 C60.0507537,68.9920614 52.8851621,73.6382485 49.0999091,71.2761822 L40.6323854,69.0447143 Z" id="Fill-234" fill="#0066CA"></path>
                                <mask id="mask-46" fill="white">
                                    <use xlink:href="#path-45"></use>
                                </mask>
                                <g id="Clip-238"></g>
                                <path d="M29.1106888,128.298474 C29.1106888,128.298474 36.891254,124.270919 36.0603259,118.306817 C35.2293978,112.342874 35.9847729,110.329017 40.2149665,108.470097 C44.4451602,106.611336 33.1143785,103.745328 29.0351358,101.73163 C24.9560482,99.7177735 25.8532209,96.6247694 35.5316099,96.4647426 C45.2098437,96.3047157 51.2438464,92.0498467 53.5855247,85.8534989 C55.927203,79.6571511 55.4946736,77.8756991 61.7542494,76.7913024 C68.0135149,75.7069057 71.6771385,72.2989383 76.2472432,67.1869871 C80.817503,62.0750359 85.9918768,53.6324265 87.20057,47.7459517 C88.4092632,41.8594769 87.3372481,19.6860546 87.3372481,19.6860546 L92.5639039,48.443007 L74.509989,81.2836665 L60.9883248,103.977733 L56.1538621,125.742498 L42.858857,134.184948 L29.1106888,128.298474 Z" id="Fill-237" fill="#004E9B" mask="url(#mask-46)"></path>
                            </g>
                            <g id="Group-242">
                                <mask id="mask-48" fill="white">
                                    <use xlink:href="#path-47"></use>
                                </mask>
                                <g id="Clip-241"></g>
                                <path d="M19.1394892,4.75879451 C19.1394892,4.75879451 15.2115077,20.2495846 12.9452272,26.6783372 C10.6791019,33.1070899 9.69706775,34.4237323 11.2079731,38.7611598 C12.7187233,43.0985874 26.5424445,66.6720061 27.2978196,67.7040679 C28.0531947,68.7359707 24.8712798,73.6931444 27.9729875,74.3128905 C31.0746951,74.9324776 32.0080154,70.2231387 37.117851,71.0597005 C42.2276867,71.8962624 41.8013628,70.6723592 41.8013628,70.6723592 L36.135972,67.7040679 C36.135972,67.7040679 22.1611448,48.8667123 20.1215234,45.2468604 C18.081902,41.6270085 20.2726295,14.7504511 20.3481825,14.3631098 C20.4237355,13.9757685 22.5030726,7.86500159 22.2565557,6.66050525 C22.0100387,5.45584984 19.1394892,4.75879451 19.1394892,4.75879451" id="Fill-240" fill="#004E9B" mask="url(#mask-48)"></path>
                            </g>
                        </g>
                        <path d="M36.44968,59.3237353 C36.44968,59.3237353 29.3084453,76.1998871 35.5655389,78.7800417 C37.8778959,79.6865954 40.8703851,78.4313549 41.2104513,79.8959347 C41.5505175,81.3603553 39.9862441,88.6826177 39.9862441,88.6826177 C39.9862441,88.6826177 43.6588657,93.1107166 49.0999246,89.7286779 C49.0999246,89.7286779 44.9172037,83.3478061 47.8755622,82.4062565 C50.8342311,81.4648659 48.8617852,78.8847113 50.0180412,76.5135779 C51.1742973,74.1426035 55.4249694,74.9446466 55.4249694,71.806466 C55.4249694,68.6684444 52.0584383,68.9124615 52.1603651,66.4716544 C52.262447,64.0308472 52.5344068,58.6961946 52.5344068,58.6961946 C52.5344068,58.6961946 43.4548571,62.4967528 36.44968,59.3237353" id="Fill-244" fill="#FDB2D0"></path>
                        <g id="Group-248" transform="translate(32.889612, 58.538649)">
                            <mask id="mask-50" fill="white">
                                <use xlink:href="#path-49"></use>
                            </mask>
                            <g id="Clip-247"></g>
                            <path d="M2.37757765,0.533894752 C2.37757765,0.533894752 4.22823889,4.910136 11.1401771,3.86439394 C18.0519601,2.81881094 18.7319373,2.00547368 18.7319373,2.00547368 C18.7319373,2.00547368 14.8414995,8.20182152 17.5987971,10.3318012 C20.3559395,12.4617808 19.9026213,12.8104676 17.9764071,14.5144513 C16.0501928,16.218435 17.5987971,18.1826612 14.2372305,19.6652162 C10.8756639,21.1474529 7.6653585,21.0979814 7.6653585,21.0979814 C7.6653585,21.0979814 10.0839861,23.3490152 12.0843571,27.7591389 C14.0847282,32.1692625 16.9943729,32.6774989 16.9943729,32.6774989 C16.9943729,32.6774989 20.1292804,29.9277731 20.3182405,29.3856543 C20.5070455,28.8433764 24.7372392,15.5600343 24.7372392,15.5600343 L22.0556498,2.97374748 L20.5825985,-1.82848971 L3.73722181,-0.589156509 L2.37757765,0.533894752 Z" id="Fill-246" fill="#F476AF" mask="url(#mask-50)"></path>
                        </g>
                    </g>
                    <polygon id="Fill-163" fill="#0066CA" points="12.584 364.803 551.789333 364.803 551.789333 362.457 12.584 362.457"></polygon>
                    <g id="编组-4" transform="translate(25.201633, 261.970000)">
                        <polygon id="Fill-165" fill="#1D89F3" points="4.75150807 3.65560714 115.927051 3.65560714 115.927051 -1.22241772e-13 4.75150807 -1.22241772e-13"></polygon>
                        <path d="M119.484346,23.9343607 L1.38943892,23.9343607 C0.62218323,23.9343607 -2.16762904e-13,23.2964054 -2.16762904e-13,22.5093964 L-2.16762904e-13,5.08045 C-2.16762904e-13,4.29359286 0.62218323,3.65548571 1.38943892,3.65548571 L119.484346,3.65548571 C120.251898,3.65548571 120.873933,4.29359286 120.873933,5.08045 L120.873933,22.5093964 C120.873933,23.2964054 120.251898,23.9343607 119.484346,23.9343607" id="Fill-166" fill="#B3CEFF"></path>
                        <path d="M14.6670629,13.7949536 C14.6670629,15.2932304 13.5208424,16.5079714 12.10683,16.5079714 C10.6928176,16.5079714 9.5465971,15.2932304 9.5465971,13.7949536 C9.5465971,12.296525 10.6928176,11.0819357 12.10683,11.0819357 C13.5208424,11.0819357 14.6670629,12.296525 14.6670629,13.7949536" id="Fill-167" fill="#006DFE"></path>
                        <path d="M25.4095901,13.7949536 C25.4095901,15.2932304 24.2633696,16.5079714 22.8493571,16.5079714 C21.4351967,16.5079714 20.2889762,15.2932304 20.2889762,13.7949536 C20.2889762,12.296525 21.4351967,11.0819357 22.8493571,11.0819357 C24.2633696,11.0819357 25.4095901,12.296525 25.4095901,13.7949536" id="Fill-168" fill="#006DFE"></path>
                        <path d="M36.1519692,13.7949536 C36.1519692,15.2932304 35.0057487,16.5079714 33.5917362,16.5079714 C32.1777238,16.5079714 31.0315033,15.2932304 31.0315033,13.7949536 C31.0315033,12.296525 32.1777238,11.0819357 33.5917362,11.0819357 C35.0057487,11.0819357 36.1519692,12.296525 36.1519692,13.7949536" id="Fill-169" fill="#006DFE"></path>
                        <path d="M92.2446666,18.9451339 L89.7929419,18.9451339 C89.6552711,18.9451339 89.5435061,18.8305357 89.5435061,18.6892232 L89.5435061,8.85472321 C89.5435061,8.71341071 89.6552711,8.5988125 89.7929419,8.5988125 L92.2446666,8.5988125 C92.3826334,8.5988125 92.4942504,8.71341071 92.4942504,8.85472321 L92.4942504,18.6892232 C92.4942504,18.8305357 92.3826334,18.9451339 92.2446666,18.9451339" id="Fill-170" fill="#006DFE"></path>
                        <path d="M97.1048902,18.9451339 L94.6531655,18.9451339 C94.5153467,18.9451339 94.4035817,18.8305357 94.4035817,18.6892232 L94.4035817,8.85472321 C94.4035817,8.71341071 94.5153467,8.5988125 94.6531655,8.5988125 L97.1048902,8.5988125 C97.242709,8.5988125 97.354474,8.71341071 97.354474,8.85472321 L97.354474,18.6892232 C97.354474,18.8305357 97.242709,18.9451339 97.1048902,18.9451339" id="Fill-171" fill="#006DFE"></path>
                        <path d="M101.964981,18.9451339 L99.5132559,18.9451339 C99.3754371,18.9451339 99.263672,18.8305357 99.263672,18.6892232 L99.263672,8.85472321 C99.263672,8.71341071 99.3754371,8.5988125 99.5132559,8.5988125 L101.964981,8.5988125 C102.102799,8.5988125 102.214564,8.71341071 102.214564,8.85472321 L102.214564,18.6892232 C102.214564,18.8305357 102.102799,18.9451339 101.964981,18.9451339" id="Fill-172" fill="#006DFE"></path>
                        <path d="M106.825056,18.9451339 L104.373331,18.9451339 C104.235513,18.9451339 104.123896,18.8305357 104.123896,18.6892232 L104.123896,8.85472321 C104.123896,8.71341071 104.235513,8.5988125 104.373331,8.5988125 L106.825056,8.5988125 C106.963023,8.5988125 107.07464,8.71341071 107.07464,8.85472321 L107.07464,18.6892232 C107.07464,18.8305357 106.963023,18.9451339 106.825056,18.9451339" id="Fill-173" fill="#006DFE"></path>
                        <polygon id="Fill-174" fill="#1D89F3" points="4.75150807 27.5899375 115.927051 27.5899375 115.927051 23.9343304 4.75150807 23.9343304"></polygon>
                    </g>
                    <g id="编组-2" transform="translate(25.201633, 313.973000)">
                        <path d="M119.484346,20.2787232 L1.38943892,20.2787232 C0.62218323,20.2787232 -2.16762904e-13,19.6409196 -2.16762904e-13,18.8539107 L-2.16762904e-13,1.4248125 C-2.16762904e-13,0.638107143 0.62218323,-1.00015995e-13 1.38943892,-1.00015995e-13 L119.484346,-1.00015995e-13 C120.251898,-1.00015995e-13 120.873933,0.638107143 120.873933,1.4248125 L120.873933,18.8539107 C120.873933,19.6409196 120.251898,20.2787232 119.484346,20.2787232" id="Fill-175" fill="#B3CEFF"></path>
                        <path d="M14.6670629,10.1394679 C14.6670629,11.6377446 13.5208424,12.8524857 12.10683,12.8524857 C10.6928176,12.8524857 9.5465971,11.6377446 9.5465971,10.1394679 C9.5465971,8.64103929 10.6928176,7.42645 12.10683,7.42645 C13.5208424,7.42645 14.6670629,8.64103929 14.6670629,10.1394679" id="Fill-176" fill="#006DFE"></path>
                        <path d="M25.4095901,10.1394679 C25.4095901,11.6377446 24.2633696,12.8524857 22.8493571,12.8524857 C21.4351967,12.8524857 20.2889762,11.6377446 20.2889762,10.1394679 C20.2889762,8.64103929 21.4351967,7.42645 22.8493571,7.42645 C24.2633696,7.42645 25.4095901,8.64103929 25.4095901,10.1394679" id="Fill-177" fill="#006DFE"></path>
                        <path d="M36.1519692,10.1394679 C36.1519692,11.6377446 35.0057487,12.8524857 33.5917362,12.8524857 C32.1777238,12.8524857 31.0315033,11.6377446 31.0315033,10.1394679 C31.0315033,8.64103929 32.1777238,7.42645 33.5917362,7.42645 C35.0057487,7.42645 36.1519692,8.64103929 36.1519692,10.1394679" id="Fill-178" fill="#006DFE"></path>
                        <path d="M92.2446666,15.2895116 L89.7929419,15.2895116 C89.6552711,15.2895116 89.5435061,15.1750652 89.5435061,15.0336009 L89.5435061,5.19910089 C89.5435061,5.05794018 89.6552711,4.94334196 89.7929419,4.94334196 L92.2446666,4.94334196 C92.3826334,4.94334196 92.4942504,5.05794018 92.4942504,5.19910089 L92.4942504,15.0336009 C92.4942504,15.1750652 92.3826334,15.2895116 92.2446666,15.2895116" id="Fill-179" fill="#006DFE"></path>
                        <path d="M97.1048902,15.2895116 L94.6531655,15.2895116 C94.5153467,15.2895116 94.4035817,15.1750652 94.4035817,15.0336009 L94.4035817,5.19910089 C94.4035817,5.05794018 94.5153467,4.94334196 94.6531655,4.94334196 L97.1048902,4.94334196 C97.242709,4.94334196 97.354474,5.05794018 97.354474,5.19910089 L97.354474,15.0336009 C97.354474,15.1750652 97.242709,15.2895116 97.1048902,15.2895116" id="Fill-180" fill="#006DFE"></path>
                        <path d="M101.964981,15.2895116 L99.5132559,15.2895116 C99.3754371,15.2895116 99.263672,15.1750652 99.263672,15.0336009 L99.263672,5.19910089 C99.263672,5.05794018 99.3754371,4.94334196 99.5132559,4.94334196 L101.964981,4.94334196 C102.102799,4.94334196 102.214564,5.05794018 102.214564,5.19910089 L102.214564,15.0336009 C102.214564,15.1750652 102.102799,15.2895116 101.964981,15.2895116" id="Fill-181" fill="#006DFE"></path>
                        <path d="M106.825056,15.2895116 L104.373331,15.2895116 C104.235513,15.2895116 104.123896,15.1750652 104.123896,15.0336009 L104.123896,5.19910089 C104.123896,5.05794018 104.235513,4.94334196 104.373331,4.94334196 L106.825056,4.94334196 C106.963023,4.94334196 107.07464,5.05794018 107.07464,5.19910089 L107.07464,15.0336009 C107.07464,15.1750652 106.963023,15.2895116 106.825056,15.2895116" id="Fill-182" fill="#006DFE"></path>
                        <polygon id="Fill-183" fill="#1D89F3" points="4.75150807 23.9345277 115.927051 23.9345277 115.927051 20.2787687 4.75150807 20.2787687"></polygon>
                    </g>
                    <g id="编组-2备份" transform="translate(25.201633, 289.731000)">
                        <path d="M119.484346,20.2787232 L1.38943892,20.2787232 C0.62218323,20.2787232 -2.16762904e-13,19.6409196 -2.16762904e-13,18.8539107 L-2.16762904e-13,1.4248125 C-2.16762904e-13,0.638107143 0.62218323,-1.00015995e-13 1.38943892,-1.00015995e-13 L119.484346,-1.00015995e-13 C120.251898,-1.00015995e-13 120.873933,0.638107143 120.873933,1.4248125 L120.873933,18.8539107 C120.873933,19.6409196 120.251898,20.2787232 119.484346,20.2787232" id="Fill-175" fill="#B3CEFF"></path>
                        <path d="M14.6670629,10.1394679 C14.6670629,11.6377446 13.5208424,12.8524857 12.10683,12.8524857 C10.6928176,12.8524857 9.5465971,11.6377446 9.5465971,10.1394679 C9.5465971,8.64103929 10.6928176,7.42645 12.10683,7.42645 C13.5208424,7.42645 14.6670629,8.64103929 14.6670629,10.1394679" id="Fill-176" fill="#006DFE"></path>
                        <path d="M25.4095901,10.1394679 C25.4095901,11.6377446 24.2633696,12.8524857 22.8493571,12.8524857 C21.4351967,12.8524857 20.2889762,11.6377446 20.2889762,10.1394679 C20.2889762,8.64103929 21.4351967,7.42645 22.8493571,7.42645 C24.2633696,7.42645 25.4095901,8.64103929 25.4095901,10.1394679" id="Fill-177" fill="#006DFE"></path>
                        <path d="M36.1519692,10.1394679 C36.1519692,11.6377446 35.0057487,12.8524857 33.5917362,12.8524857 C32.1777238,12.8524857 31.0315033,11.6377446 31.0315033,10.1394679 C31.0315033,8.64103929 32.1777238,7.42645 33.5917362,7.42645 C35.0057487,7.42645 36.1519692,8.64103929 36.1519692,10.1394679" id="Fill-178" fill="#006DFE"></path>
                        <path d="M92.2446666,15.2895116 L89.7929419,15.2895116 C89.6552711,15.2895116 89.5435061,15.1750652 89.5435061,15.0336009 L89.5435061,5.19910089 C89.5435061,5.05794018 89.6552711,4.94334196 89.7929419,4.94334196 L92.2446666,4.94334196 C92.3826334,4.94334196 92.4942504,5.05794018 92.4942504,5.19910089 L92.4942504,15.0336009 C92.4942504,15.1750652 92.3826334,15.2895116 92.2446666,15.2895116" id="Fill-179" fill="#006DFE"></path>
                        <path d="M97.1048902,15.2895116 L94.6531655,15.2895116 C94.5153467,15.2895116 94.4035817,15.1750652 94.4035817,15.0336009 L94.4035817,5.19910089 C94.4035817,5.05794018 94.5153467,4.94334196 94.6531655,4.94334196 L97.1048902,4.94334196 C97.242709,4.94334196 97.354474,5.05794018 97.354474,5.19910089 L97.354474,15.0336009 C97.354474,15.1750652 97.242709,15.2895116 97.1048902,15.2895116" id="Fill-180" fill="#006DFE"></path>
                        <path d="M101.964981,15.2895116 L99.5132559,15.2895116 C99.3754371,15.2895116 99.263672,15.1750652 99.263672,15.0336009 L99.263672,5.19910089 C99.263672,5.05794018 99.3754371,4.94334196 99.5132559,4.94334196 L101.964981,4.94334196 C102.102799,4.94334196 102.214564,5.05794018 102.214564,5.19910089 L102.214564,15.0336009 C102.214564,15.1750652 102.102799,15.2895116 101.964981,15.2895116" id="Fill-181" fill="#006DFE"></path>
                        <path d="M106.825056,15.2895116 L104.373331,15.2895116 C104.235513,15.2895116 104.123896,15.1750652 104.123896,15.0336009 L104.123896,5.19910089 C104.123896,5.05794018 104.235513,4.94334196 104.373331,4.94334196 L106.825056,4.94334196 C106.963023,4.94334196 107.07464,5.05794018 107.07464,5.19910089 L107.07464,15.0336009 C107.07464,15.1750652 106.963023,15.2895116 106.825056,15.2895116" id="Fill-182" fill="#006DFE"></path>
                        <polygon id="Fill-183" fill="#1D89F3" points="4.75150807 23.9345277 115.927051 23.9345277 115.927051 20.2787687 4.75150807 20.2787687"></polygon>
                    </g>
                    <g id="编组" transform="translate(25.168000, 338.215000)">
                        <path d="M119.517979,20.2787232 L1.42307205,20.2787232 C0.655816356,20.2787232 0.0336331263,19.6407679 0.0336331263,18.8539107 L0.0336331263,1.4248125 C0.0336331263,0.637955357 0.655816356,0 1.42307205,0 L119.517979,0 C120.285531,0 120.907566,0.637955357 120.907566,1.4248125 L120.907566,18.8539107 C120.907566,19.6407679 120.285531,20.2787232 119.517979,20.2787232" id="Fill-184" fill="#B3CEFF"></path>
                        <path d="M14.7006961,10.1393161 C14.7006961,11.6377446 13.5544756,12.8523339 12.1404631,12.8523339 C10.7264507,12.8523339 9.58023023,11.6377446 9.58023023,10.1393161 C9.58023023,8.64103929 10.7264507,7.42629821 12.1404631,7.42629821 C13.5544756,7.42629821 14.7006961,8.64103929 14.7006961,10.1393161" id="Fill-185" fill="#006DFE"></path>
                        <path d="M25.4432232,10.1393161 C25.4432232,11.6377446 24.2970027,12.8523339 22.8829903,12.8523339 C21.4688298,12.8523339 20.3226093,11.6377446 20.3226093,10.1393161 C20.3226093,8.64103929 21.4688298,7.42629821 22.8829903,7.42629821 C24.2970027,7.42629821 25.4432232,8.64103929 25.4432232,10.1393161" id="Fill-186" fill="#006DFE"></path>
                        <path d="M36.1856023,10.1393161 C36.1856023,11.6377446 35.0393818,12.8523339 33.6253694,12.8523339 C32.2113569,12.8523339 31.0651364,11.6377446 31.0651364,10.1393161 C31.0651364,8.64103929 32.2113569,7.42629821 33.6253694,7.42629821 C35.0393818,7.42629821 36.1856023,8.64103929 36.1856023,10.1393161" id="Fill-187" fill="#006DFE"></path>
                        <path d="M92.2782997,15.2895116 L89.8265751,15.2895116 C89.6889042,15.2895116 89.5771392,15.1749134 89.5771392,15.0336009 L89.5771392,5.19894911 C89.5771392,5.05778839 89.6889042,4.94319018 89.8265751,4.94319018 L92.2782997,4.94319018 C92.4162666,4.94319018 92.5278835,5.05778839 92.5278835,5.19894911 L92.5278835,15.0336009 C92.5278835,15.1749134 92.4162666,15.2895116 92.2782997,15.2895116" id="Fill-188" fill="#006DFE"></path>
                        <path d="M97.1385233,15.2895116 L94.6867987,15.2895116 C94.5489798,15.2895116 94.4372148,15.1749134 94.4372148,15.0336009 L94.4372148,5.19894911 C94.4372148,5.05778839 94.5489798,4.94319018 94.6867987,4.94319018 L97.1385233,4.94319018 C97.2763421,4.94319018 97.3881071,5.05778839 97.3881071,5.19894911 L97.3881071,15.0336009 C97.3881071,15.1749134 97.2763421,15.2895116 97.1385233,15.2895116" id="Fill-189" fill="#006DFE"></path>
                        <path d="M101.998614,15.2895116 L99.546889,15.2895116 C99.4090702,15.2895116 99.2973052,15.1749134 99.2973052,15.0336009 L99.2973052,5.19894911 C99.2973052,5.05778839 99.4090702,4.94319018 99.546889,4.94319018 L101.998614,4.94319018 C102.136433,4.94319018 102.248198,5.05778839 102.248198,5.19894911 L102.248198,15.0336009 C102.248198,15.1749134 102.136433,15.2895116 101.998614,15.2895116" id="Fill-190" fill="#006DFE"></path>
                        <path d="M106.858689,15.2895116 L104.406965,15.2895116 C104.269146,15.2895116 104.157529,15.1749134 104.157529,15.0336009 L104.157529,5.19894911 C104.157529,5.05778839 104.269146,4.94319018 104.406965,4.94319018 L106.858689,4.94319018 C106.996656,4.94319018 107.108273,5.05778839 107.108273,5.19894911 L107.108273,15.0336009 C107.108273,15.1749134 106.996656,15.2895116 106.858689,15.2895116" id="Fill-191" fill="#006DFE"></path>
                        <polygon id="Fill-192" fill="#1D89F3" points="4.7851412 23.9342848 115.960684 23.9342848 115.960684 20.2786777 4.7851412 20.2786777"></polygon>
                    </g>
                </g>
            </g>
        </g>
    </g>
</svg>