<?xml version="1.0" encoding="UTF-8"?>
<svg width="56px" height="54px" viewBox="0 0 56 54" version="1.1" xmlns="http://www.w3.org/2000/svg" xmlns:xlink="http://www.w3.org/1999/xlink">
    <title>icon/home/desktop</title>
    <defs>
        <polygon id="path-1" points="0 0 56 0 56 54 0 54"></polygon>
    </defs>
    <g id="网页" stroke="none" stroke-width="1" fill="none" fill-rule="evenodd">
        <g id="产品介绍" transform="translate(-1389.000000, -2453.000000)">
            <g id="产品功能" transform="translate(0.000000, 2060.000000)">
                <g id="Icon" transform="translate(462.000000, 380.000000)">
                    <g id="编组-3" transform="translate(10.000000, 11.000000)">
                        <g id="编组" transform="translate(917.000000, 0.000000)">
                            <g id="dmsshujuguanli" transform="translate(0.000000, 2.000000)">
                                <mask id="mask-2" fill="white">
                                    <use xlink:href="#path-1"></use>
                                </mask>
                                <g id="Clip-2"></g>
                                <path d="M56,39.4678647 L28.0183065,54 L0,39.4678647 L5.88890413,36.3978384 L28.164491,48.0303424 L50.2938042,36.5003586 L56,39.4678647 Z M41.9910253,22.9575308 L56,30.2577857 L27.9816935,44.755359 L0,30.2235568 L13.5701533,23.1621548 L13.5701533,25.652538 L4.79149351,30.2235568 L27.9816935,42.3333503 L51.1718041,30.2235568 L41.9543229,25.4137684 L41.9910253,22.9575308 Z M27.9816935,7.23188037 C21.6538787,7.23188037 16.4964328,5.62870085 16.4964328,3.61594018 C16.4964328,1.60317952 21.6538787,0 27.9816935,0 C34.3094189,0 39.4668648,1.60317952 39.4668648,3.61594018 C39.4668648,5.62870085 34.346032,7.23188037 27.9816935,7.23188037 Z M39.4668648,4.8098717 L39.4668648,12.8943937 C39.4668648,14.9071544 34.3094189,16.5103339 27.9816935,16.5103339 C21.6172656,16.5103339 16.4964328,14.9071544 16.4964328,12.8943937 L16.4964328,4.8098717 L16.4964328,4.84401734 C16.4964328,6.85644487 21.6538787,8.45995753 27.9816935,8.45995753 C34.346032,8.45995753 39.4668648,6.85644487 39.4668648,4.84401734 L39.4668648,4.8098717 Z M39.4668648,14.3613238 L39.4668648,22.4458458 C39.4668648,24.4586065 34.3094189,26.061786 27.9816935,26.061786 C21.6172656,26.061786 16.4964328,24.4586065 16.4964328,22.4458458 L16.4964328,14.3613238 L16.4964328,14.3954695 C16.4964328,16.4082301 21.6538787,18.0114096 27.9816935,18.0114096 C34.346032,18.0114096 39.4668648,16.4082301 39.4668648,14.3954695 L39.4668648,14.3613238 Z M39.4668648,23.8105889 L39.4668648,31.8951109 C39.4668648,33.9075384 34.3094189,35.5110511 27.9816935,35.5110511 C21.6172656,35.5110511 16.4964328,33.9075384 16.4964328,31.8951109 L16.4964328,23.8105889 L16.4964328,23.8444014 C16.4964328,25.857162 21.6538787,27.4603415 27.9816935,27.4603415 C34.346032,27.4603415 39.4668648,25.857162 39.4668648,23.8444014 L39.4668648,23.8105889 Z" id="Fill-1" fill="#459EFF" mask="url(#mask-2)"></path>
                            </g>
                        </g>
                    </g>
                </g>
            </g>
        </g>
    </g>
</svg>