<?xml version="1.0" encoding="UTF-8"?>
<svg width="56px" height="49px" viewBox="0 0 56 49" version="1.1" xmlns="http://www.w3.org/2000/svg" xmlns:xlink="http://www.w3.org/1999/xlink">
    <title>icon/home/desktop</title>
    <defs>
        <polygon id="path-1" points="0 0 56 0 56 56 0 56"></polygon>
    </defs>
    <g id="网页" stroke="none" stroke-width="1" fill="none" fill-rule="evenodd">
        <g id="产品介绍" transform="translate(-472.000000, -2916.000000)">
            <g id="产品功能" transform="translate(0.000000, 2060.000000)">
                <g id="Icon" transform="translate(462.000000, 380.000000)">
                    <g id="编组-3" transform="translate(10.000000, 11.000000)">
                        <g id="naswenjiancunchuNAS" transform="translate(0.000000, 460.000000)">
                            <mask id="mask-2" fill="white">
                                <use xlink:href="#path-1"></use>
                            </mask>
                            <g id="Clip-2"></g>
                            <path d="M54.1010008,20.5826805 L39.4928889,20.5826805 C37.9119281,19.1315486 36.0215722,17.6800047 34.5434913,16.1947557 C34.0967272,15.7560127 33.5811527,15.5873224 33.0998995,15.6545678 L2.23424007,15.6545678 C2.09653535,15.6545678 2.02806062,15.6545678 1.89035591,15.6883553 C0.92801731,15.7222252 0,16.363446 0,17.6800047 L0,44.3121352 C0,44.5149426 0.0344051991,44.7512079 0.0688103983,44.9198982 C0.17177425,45.7974666 0.790648259,46.6077073 1.92484502,46.6077073 L11.9611773,46.6077073 C12.2361671,49.3416928 14.5737067,51.4681626 17.3920799,51.4681626 C18.1138339,51.4681626 18.8012665,51.3333423 19.4542101,51.0632071 C21.7917496,52.953494 24.747408,54 27.7722963,54 C30.796849,54 33.7184378,52.953494 36.0900469,51.0632071 C36.7433261,51.3333423 37.4307588,51.4681626 38.1525127,51.4681626 C40.9708859,51.4681626 43.3084255,49.3754803 43.5830797,46.6077073 L53.6198315,46.6077073 C54.7195392,46.8101851 55.9913567,46.1689643 55.9913567,44.6498454 L55.9913567,22.5743299 C55.9913567,21.2580184 55.0634233,20.5826805 54.1010008,20.5826805 Z M17.4264851,43.8061468 C18.7323722,43.8061468 19.763689,44.8185357 19.763689,46.1013069 C19.763689,47.3838309 18.7323722,48.3965494 17.4264851,48.3965494 C16.1202624,48.3965494 15.0889455,47.3838309 15.0889455,46.1013069 C15.0889455,44.8185357 16.1202624,43.8061468 17.4264851,43.8061468 Z M38.1869179,43.8061468 C39.4928889,43.8061468 40.5241219,44.8185357 40.5241219,46.1013069 C40.5241219,47.3838309 39.4928889,48.3965494 38.1869179,48.3965494 C36.8806952,48.3965494 35.8494623,47.3838309 35.8494623,46.1013069 C35.8494623,44.8185357 36.8806952,43.8061468 38.1869179,43.8061468 Z M23.1320419,32.2280776 C24.0944644,33.8820168 25.8819404,34.8947353 27.8411067,34.8947353 C29.7659517,34.8947353 31.553092,33.8820168 32.5499198,32.2280776 C35.8153927,33.8820168 37.9119281,37.1564375 37.9807385,40.767909 C35.0935549,40.9031414 32.7905044,43.2659589 32.7905044,46.1013069 C32.7905044,47.1475656 33.1343047,48.1602841 33.7529269,49.0715577 C32.0342613,50.2867539 29.9721312,50.9280571 27.8755958,50.9280571 C25.7786409,50.9280571 23.7165107,50.2529664 21.9979291,49.0715577 C22.6164674,48.1602841 22.9602677,47.1475656 22.9602677,46.1013069 C22.9602677,43.2321714 20.6916224,40.9031414 17.7700336,40.767909 C17.7700336,37.1564375 19.8669046,33.848559 23.1320419,32.2280776 Z M25.4692459,29.5278796 C25.4692459,28.2451083 26.5004788,27.2323075 27.8067015,27.2323075 C29.1126725,27.2323075 30.1439054,28.2451083 30.1439054,29.5278796 C30.1439054,30.8103212 29.1126725,31.823122 27.8067015,31.823122 C26.5004788,31.823122 25.4692459,30.8441911 25.4692459,29.5278796 Z M42.4833721,42.8272159 C42.0710132,42.3208154 41.58976,41.8820724 41.0396963,41.5443622 C41.0396963,41.375672 41.0741855,41.2067345 41.0741855,41.0042567 C41.0741855,35.8736663 38.0152276,31.2491466 33.2372685,29.1563819 C33.0654943,26.3548214 30.6938851,24.1944817 27.8411067,24.1944817 C24.9879926,24.1944817 22.6508726,26.3548214 22.4446932,29.1563819 C17.6326646,31.2156063 14.5737067,35.8736663 14.5737067,41.0042567 L14.5737067,41.5782322 C14.0236431,41.9155303 13.576879,42.3208154 13.1641844,42.8272159 C13.0612206,42.7934284 12.9235998,42.7934284 12.8206359,42.7934284 L3.91841652,42.7934284 L3.91841652,19.4012718 L32.4125507,19.4012718 C33.9246172,20.7854879 36.8118848,23.2493382 37.602533,23.9582164 C37.8431177,24.1944817 38.1181075,24.3635016 38.5304664,24.3635016 L52.1417506,24.3635016 L52.1417506,42.7934284 L42.895731,42.7934284 C42.7239567,42.7934284 42.5865877,42.7934284 42.4833721,42.8272159 Z M2.23424007,8.81921982 C-0.343884161,8.81921982 -0.343884161,5.00494086 2.23424007,5.00494086 L36.1933464,5.00494086 C36.6745157,4.97115336 37.1901741,5.10630335 37.6369382,5.54512879 L42.6206572,10.4393716 L54.5821701,10.4393716 C56.47261,10.4393716 56.47261,14.2536505 54.5821701,14.2536505 L41.58976,14.2536505 C41.1085907,14.2536505 40.7647065,14.0173853 40.5241219,13.6462172 C40.3523476,13.5448547 40.1805734,13.4437395 40.0429526,13.2747196 L35.4715086,8.78543232 L2.23424007,8.81921982 Z" id="Fill-1" fill="#459EFF" mask="url(#mask-2)"></path>
                        </g>
                    </g>
                </g>
            </g>
        </g>
    </g>
</svg>