<?xml version="1.0" encoding="UTF-8"?>
<svg width="572px" height="392px" viewBox="0 0 572 392" version="1.1" xmlns="http://www.w3.org/2000/svg" xmlns:xlink="http://www.w3.org/1999/xlink">
    <title>切片</title>
    <defs>
        <path d="M55.1228742,2.74899569 L1.43696146,2.74899569 C0.703832657,2.74899569 0.109497972,2.13944612 0.109497972,1.38773276 C0.109497972,0.636168103 0.703832657,0.0266185345 1.43696146,0.0266185345 L55.1228742,0.0266185345 C55.856003,0.0266185345 56.4501927,0.636168103 56.4501927,1.38773276" id="path-1"></path>
        <path d="M55.1228742,2.76698922 L1.43696146,2.76698922 C0.703832657,2.76698922 0.109497972,2.15758836 0.109497972,1.405875 C0.109497972,0.654161638 0.703832657,0.0447607759 1.43696146,0.0447607759 L55.1228742,0.0447607759 C55.856003,0.0447607759 56.4501927,0.654161638 56.4501927,1.405875" id="path-3"></path>
        <path d="M55.1228742,2.78513147 L1.43696146,2.78513147 C0.703832657,2.78513147 0.109497972,2.1755819 0.109497972,1.42401724 C0.109497972,0.672303879 0.703832657,0.0629030172 1.43696146,0.0629030172 L55.1228742,0.0629030172 C55.856003,0.0629030172 56.4501927,0.672303879 56.4501927,1.42401724" id="path-5"></path>
        <path d="M35.7275203,1.9276875 C21.7655862,7.76755603 24.2968022,22.9350647 21.21186,32.1006142 L21.21186,32.1006142 C18.1266278,41.2660151 18.1266278,42.4825862 6.18177688,54.6491897 L6.18177688,54.6491897 C-5.76292901,66.8156444 1.91034077,86.1197328 12.4311379,90.4187004 L12.4311379,90.4187004 C22.9520801,94.7175194 32.6028398,94.3119957 44.6267323,80.8476272 L44.6267323,80.8476272 C56.6506247,67.3834073 51.7461308,36.237194 59.2215791,27.5989591 L59.2215791,27.5989591 C59.2215791,27.5989591 64.8378824,22.5296897 63.8888032,14.9051897 L63.8888032,14.9051897 C62.9394341,7.28098707 55.9782637,5.53695259 55.9782637,5.53695259 L55.9782637,5.53695259 C55.9782637,5.53695259 52.3076886,0.0224547099 44.3507394,0.0224547099 L44.3507394,0.0224547099 C41.8916034,0.0224547099 39.0237718,0.548877155 35.7275203,1.9276875 L35.7275203,1.9276875 Z" id="path-7"></path>
        <path d="M0.958651116,0.884954741 L0.0488752535,30.1656401 C0.0488752535,30.1656401 1.67060548,34.9511767 4.04373834,41.0749267 L4.04373834,41.0749267 C6.4168712,47.1986767 10.8466805,50.2403276 10.8466805,50.2403276 L10.8466805,50.2403276 C16.7005436,49.3480862 20.9721247,40.4800991 20.9721247,40.4800991 L20.9721247,40.4800991 C21.2357901,37.0192435 19.1791136,35.6676466 14.5910761,28.0431466 L14.5910761,28.0431466 C10.0030385,20.418944 9.02727383,14.9981315 6.53550609,8.06318534 L6.53550609,8.06318534 C4.04373834,1.12823922 1.59141886,0.0333103448 1.59141886,0.0333103448 L1.59141886,0.0333103448" id="path-9"></path>
        <path d="M5.50187424,3.31646121 C5.50187424,3.31646121 0.617104462,7.93960991 0.142419878,20.4711401 L0.142419878,20.4711401 C-0.332119675,33.0026703 4.77005071,47.1156983 22.5686197,48.4928728 L22.5686197,48.4928728 C40.3671886,49.8700474 61.6067495,50.5222759 61.6067495,50.5222759 L61.6067495,50.5222759 C60.0642059,24.9727953 79.9854402,21.7284569 79.9854402,21.7284569 L79.9854402,21.7284569 C70.8620112,18.1596401 52.7207353,13.3470388 45.1792982,10.156681 L45.1792982,10.156681 C37.6381511,6.96632328 37.7171927,1.61317241 37.7171927,1.61317241 L37.7171927,1.61317241 L36.0560142,0.0449094828" id="path-11"></path>
        <path d="M9.70775659,0.655351293 C9.70775659,0.655351293 1.65871298,3.91991379 0.274397566,5.82603879 L0.274397566,5.82603879 C-1.10991785,7.73216379 5.61398276,32.6126121 7.03789148,40.7235323 L7.03789148,40.7235323 C8.4618002,48.8346013 9.70775659,58.4867198 9.70775659,58.4867198 L9.70775659,58.4867198 C9.70775659,58.4867198 28.1588174,66.5976401 41.9230751,56.783431 L41.9230751,56.783431 C41.9230751,56.783431 39.8662535,52.4844634 40.4199797,43.4813017 L40.4199797,43.4813017 C40.9737059,34.4781401 43.109569,34.4781401 43.3469838,26.9348341 L43.3469838,26.9348341 C43.5842535,19.3916767 41.2903073,19.7564547 40.6573945,14.1194224 L40.6573945,14.1194224 C40.0244817,8.48239009 40.0244817,3.89968966 40.0244817,3.89968966 L40.0244817,3.89968966 C40.0244817,3.89968966 34.9617596,0.81744181 27.9609959,0.0875883621 L27.9609959,0.0875883621" id="path-13"></path>
        <path d="M9.70775659,0.655351293 C9.70775659,0.655351293 1.65871298,3.91991379 0.274397566,5.82603879 L0.274397566,5.82603879 C-1.10991785,7.73216379 5.61398276,32.6126121 7.03789148,40.7235323 L7.03789148,40.7235323 C8.4618002,48.8346013 9.70775659,58.4867198 9.70775659,58.4867198 L9.70775659,58.4867198 C9.70775659,58.4867198 28.1588174,66.5976401 41.9230751,56.783431 L41.9230751,56.783431 C41.9230751,56.783431 39.8662535,52.4844634 40.4199797,43.4813017 L40.4199797,43.4813017 C40.9737059,34.4781401 43.109569,34.4781401 43.3469838,26.9348341 L43.3469838,26.9348341 C43.5842535,19.3916767 41.2903073,19.7564547 40.6573945,14.1194224 L40.6573945,14.1194224 C40.0244817,8.48239009 40.0244817,3.89968966 40.0244817,3.89968966 L40.0244817,3.89968966 C40.0244817,3.89968966 34.9617596,0.81744181 27.9609959,0.0875883621 L27.9609959,0.0875883621 L9.70775659,0.655351293 Z" id="path-15"></path>
        <path d="M4.22937728,9.91637069 C2.25159736,9.99741595 -0.0423488844,9.91637069 0.142274848,14.0257371 L0.142274848,14.0257371 C0.32675355,18.1354009 2.91090568,16.9729591 4.65112576,19.5143599 L4.65112576,19.5143599 C6.3916359,22.0559095 4.80949899,30.5723534 4.80949899,30.5723534 L4.80949899,30.5723534 C4.80949899,30.5723534 6.18061663,35.2227155 9.66120183,36.0877435 L9.66120183,36.0877435 C13.141932,36.953069 14.4338631,32.573056 14.4338631,32.573056 L14.4338631,32.573056 C14.4338631,32.573056 13.2209736,27.2468211 14.6447373,27.3961228 L14.6447373,27.3961228 C16.068646,27.5454246 21.1840142,27.0575172 23.0826075,21.2988427 L23.0826075,21.2988427 C24.9810558,15.5400194 22.6871095,4.42789655 22.6871095,4.42789655 L22.6871095,4.42789655 C19.3251592,3.98162716 16.3983002,0.0480323276 16.3983002,0.0480323276 L16.3983002,0.0480323276 C15.1326197,4.67132974 6.20701217,9.83517672 4.22937728,9.91637069 L4.22937728,9.91637069 Z" id="path-17"></path>
        <path d="M4.22937728,9.91637069 C2.25159736,9.99741595 -0.0423488844,9.91637069 0.142274848,14.0257371 L0.142274848,14.0257371 C0.32675355,18.1354009 2.91090568,16.9729591 4.65112576,19.5143599 L4.65112576,19.5143599 C6.3916359,22.0559095 4.80949899,30.5723534 4.80949899,30.5723534 L4.80949899,30.5723534 C4.80949899,30.5723534 6.18061663,35.2227155 9.66120183,36.0877435 L9.66120183,36.0877435 C13.141932,36.953069 14.4338631,32.573056 14.4338631,32.573056 L14.4338631,32.573056 C14.4338631,32.573056 13.2209736,27.2468211 14.6447373,27.3961228 L14.6447373,27.3961228 C16.068646,27.5454246 21.1840142,27.0575172 23.0826075,21.2988427 L23.0826075,21.2988427 C24.9810558,15.5400194 22.6871095,4.42789655 22.6871095,4.42789655 L22.6871095,4.42789655 C19.3251592,3.98162716 16.3983002,0.0480323276 16.3983002,0.0480323276 L16.3983002,0.0480323276 C15.1326197,4.67132974 6.20701217,9.83517672 4.22937728,9.91637069" id="path-19"></path>
        <path d="M2.97732961,19.6212802 C2.60822718,27.7863297 1.02609026,41.7371185 0.12951217,47.739375 L0.12951217,47.739375 C-0.766920892,53.7414828 4.50682049,57.093931 4.50682049,57.093931 L4.50682049,57.093931 C10.3603935,52.5518276 16.973926,53.2549138 16.973926,53.2549138 L16.973926,53.2549138 C16.973926,53.2549138 18.9302414,51.4702823 18.8114615,48.5505711 L18.8114615,48.5505711 C18.6928266,45.6305625 17.5018367,34.2538901 17.5061876,25.9208017 L17.5061876,25.9208017 C17.5106836,17.5875647 16.0235416,10.0155582 13.7883327,6.04880172 L13.7883327,6.04880172 C13.1027738,4.8322306 10.2023103,0.506346983 6.53710142,0.0737586207 L6.53710142,0.0737586207 C6.47154767,0.0660258621 6.40758925,0.0621594828 6.34464604,0.0621594828 L6.34464604,0.0621594828 C2.88886105,0.0621594828 3.33990568,11.6021121 2.97732961,19.6212802 L2.97732961,19.6212802 Z" id="path-21"></path>
        <path d="M121.373788,46.9707091 L8.05078398,46.9707091 C3.68159736,46.9707091 0.1396643,43.3389892 0.1396643,38.8588966 L0.1396643,8.1656444 C0.1396643,3.68584914 3.68159736,0.0539806034 8.05078398,0.0539806034 L121.373788,0.0539806034 C125.74283,0.0539806034 129.284908,3.68584914 129.284908,8.1656444 L129.284908,38.8588966 C129.284908,43.3389892 128.144562,46.9707091 121.373788,46.9707091 Z" id="path-23"></path>
        <path d="M121.451814,45.0280022 L7.7949503,45.0280022 C3.51785801,45.0280022 0.0507606491,41.4728664 0.0507606491,37.0875 L0.0507606491,8.01232759 C0.0507606491,3.62696121 3.51785801,0.0719741379 7.7949503,0.0719741379 L121.451814,0.0719741379 C125.728907,0.0719741379 129.196004,3.62696121 129.196004,8.01232759 L129.196004,37.0875" id="path-25"></path>
        <path d="M64.8573164,92.5526444 L8.44584686,92.5526444 C3.83054361,92.5526444 0.0889036511,88.7163039 0.0889036511,83.9840043 L0.0889036511,8.66366379 C0.0889036511,3.93136422 3.83054361,0.094875 8.44584686,0.094875 L64.8573164,0.094875 C69.4727647,0.094875 73.2142596,3.93136422 73.2142596,8.66366379 L73.2142596,83.9840043" id="path-27"></path>
        <path d="M6.8658854,1.47457759 C6.96276572,0.697881466 7.61163185,0.119411638 8.37521704,0.126484228 C53.825142,0.551256466 86.7206531,1.36111422 94.8114655,1.57302155 C95.791001,1.59859914 96.4858418,2.5595431 96.224932,3.52807112 C91.2422667,22.022153 84.7524452,48.8588405 83.2815467,54.9712888 C83.1053347,55.7036703 82.439645,56.1958901 81.7057911,56.1414634 C57.457574,54.3412177 11.4661055,57.8915948 1.74805172,58.6850948 C0.79998783,58.7627198 0.0203042596,57.9320431 0.132267748,56.9635151" id="path-29"></path>
    </defs>
    <g id="网页" stroke="none" stroke-width="1" fill="none" fill-rule="evenodd">
        <g id="客户案例" transform="translate(-999.000000, -149.000000)">
            <g id="banner" transform="translate(0.000000, 75.000000)">
                <g id="插画/客户案例" transform="translate(999.000000, 74.500000)">
                    <g id="客户案例" transform="translate(0.000000, 27.370000)">
                        <g id="Group-35" transform="translate(15.253333, 39.624836)">
                            <path d="M236.536948,294.68177 C236.536948,294.68177 225.857777,287.204638 233.926545,275.409951 C241.995168,263.615412 263.116094,272.7478 263.116094,272.7478 C263.116094,272.7478 254.810201,257.524675 276.880351,254.000173 C298.950502,250.475522 307.256539,272.7478 307.256539,272.7478 C307.256539,272.7478 314.241785,260.208834 330.683594,264.588699 C347.125403,268.968712 343.090947,282.985526 343.090947,282.985526 L383.197081,294.68177 L236.536948,294.68177 Z" id="Fill-1" fill="#E3EBFF"></path>
                            <polygon id="Fill-3" fill="#E3EBFF" points="0.0569486139 293.463741 74.032473 293.463741 74.032473 90.1507802 0.0569486139 90.1507802"></polygon>
                            <polygon id="Fill-5" fill="#FFFFFF" points="4.08545876 132.261004 69.1450926 132.261004 69.1450926 93.9112802 4.08545876 93.9112802"></polygon>
                            <polygon id="Fill-6" fill="#FFFFFF" points="4.08545876 179.123603 69.1450926 179.123603 69.1450926 140.773879 4.08545876 140.773879"></polygon>
                            <polygon id="Fill-7" fill="#FFFFFF" points="4.08545876 225.290552 69.1450926 225.290552 69.1450926 186.940679 4.08545876 186.940679"></polygon>
                            <polygon id="Fill-8" fill="#FFFFFF" points="4.08545876 271.4575 69.1450926 271.4575 69.1450926 233.107627 4.08545876 233.107627"></polygon>
                            <g id="Group-14" transform="translate(489.307519, 108.769776)">
                                <path d="M10.8063621,0.0877668103 C10.8063621,0.0877668103 31.6344716,1.6140944 30.0988895,34.2792 C30.0988895,34.2792 41.9090071,40.4960405 39.0184057,53.351603 C36.1279493,66.2071655 35.092432,63.3549672 35.092432,63.3549672 C35.092432,63.3549672 44.7069341,78.212422 38.8063712,95.1309543 C32.9056633,112.049338 19.7878063,145.230308 19.7878063,145.230308 C19.7878063,145.230308 3.53047566,102.587564 2.62476065,93.2936806 C1.45944118,81.3334823 -0.42551927,71.8049392 6.62266937,64.3648358 C-1.11151318,59.7054026 -1.89815822,49.6006203 3.75570791,41.9041461 C9.40971907,34.207672 9.442786,34.8389328 6.4864858,27.8309716 C0.0867281947,12.6595966 10.8063621,0.0877668103 10.8063621,0.0877668103" id="Fill-9" fill="#FFD597"></path>
                                <path d="M26.04249,147.418693 C26.04249,147.418693 23.2657374,95.6639347 29.0228652,72.5163679 C34.780138,49.3688011 55.9016441,31.5528226 66.5277334,33.4684649 C66.5277334,33.4684649 70.3302861,43.6862644 61.4812547,49.2038851 C52.6323683,54.7216545 59.1561269,57.4461136 59.7305924,59.7666847 C60.3050579,62.0874045 57.4099605,72.1499541 52.4490498,74.9728571 C47.4882841,77.7957601 42.8789271,78.2457472 45.1888267,90.3647644 C47.4985812,102.48393 42.0093246,102.025021 38.2256259,108.37079 C34.4419271,114.716708 25.2442425,134.930437 26.04249,147.418693" id="Fill-10" fill="#FCAA23"></path>
                                <path d="M19.8667318,143.81386 C20.3147308,143.874086 20.7264722,143.551987 20.78724,143.092334 C26.7640888,97.9980084 18.9172176,21.9417175 18.8371609,21.1787024 C18.7885757,20.71667 18.3837957,20.3822282 17.9331862,20.4317476 C17.4821416,20.481267 17.1559682,20.8964567 17.2045533,21.3586377 C17.2843201,22.1197196 25.1097268,97.9749588 19.1598535,142.865853 C19.0990858,143.326547 19.4135118,143.750659 19.8629611,143.813414 L19.8667318,143.81386 Z" id="Fill-11" fill="#FFFFFF"></path>
                                <path d="M40.7309975,138.125523 L9.52407556,138.125523 C9.52407556,138.125523 5.97779158,182.945039 24.240893,184.498728 C42.5041395,186.052418 40.7309975,152.269929 40.7309975,138.125523" id="Fill-12" fill="#FFFFFF"></path>
                                <path d="M10.2477629,138.919752 C9.90143022,144.672478 8.25867059,182.342166 24.3049819,183.707295 C27.6074698,183.98731 30.297059,183.091351 32.5296574,180.965586 C40.2503521,173.614558 40.0793613,153.595636 39.9772598,141.634991 C39.9691381,140.682524 39.9613065,139.770653 39.9579708,138.919752 L10.2477629,138.919752 Z M25.4294028,185.344261 C25.0189667,185.344261 24.6017142,185.326119 24.1767751,185.290131 C19.7281118,184.911672 16.1523866,182.110034 13.5490905,176.962991 C11.5288166,172.968724 10.0875043,167.540328 9.26532677,160.828442 C7.87506511,149.47928 8.74307221,138.174136 8.7520641,138.061416 C8.78469594,137.649052 9.12058641,137.331265 9.52406105,137.331265 L40.730983,137.331265 C41.1586777,137.331265 41.5055905,137.686823 41.5055905,138.125509 C41.5055905,139.186235 41.5155976,140.368752 41.5263298,141.620864 C41.6307517,153.843828 41.8053684,174.301584 33.5837385,182.129515 C31.3401178,184.265987 28.6013633,185.344261 25.4294028,185.344261 L25.4294028,185.344261 Z" id="Fill-13" fill="#5487F7"></path>
                            </g>
                            <path d="M149.005633,22.702953 C148.816803,23.9903086 148.718182,25.3080004 148.718182,26.6491879 L148.718182,176.168768 C148.718182,190.698472 160.205752,202.477248 174.37624,202.477248 L418.554831,202.477248 C432.725319,202.477248 444.212889,190.698472 444.212889,176.168768 L444.212889,26.6491879 C444.212889,25.3080004 444.114268,23.9903086 443.925439,22.702953 L149.005633,22.702953 Z" id="Fill-15" fill="#CADCFF"></path>
                            <path d="M418.554875,0.340870905 L174.376284,0.340870905 C161.513825,0.340870905 150.862646,10.045483 149.005676,22.7029679 L443.925482,22.7029679 C442.068368,10.045483 431.417333,0.340870905 418.554875,0.340870905" id="Fill-16" fill="#8DB7FF"></path>
                            <path d="M159.708849,30.2871534 C159.590069,31.1627397 159.535973,31.8280543 159.535973,32.7800759 L159.535973,170.03788 C159.535973,182.960806 169.944951,193.474235 182.739246,193.474235 L410.191768,193.474235 C422.986207,193.474235 433.395041,182.960806 433.395041,170.03788 L433.395041,32.7800759 C433.395041,31.828203 433.341089,31.1631858 433.222309,30.2871534 L159.708849,30.2871534 Z M410.191768,194.903755 L182.739246,194.903755 C169.176145,194.903755 158.141795,183.748953 158.141795,170.03788 L158.141795,32.7800759 C158.141795,31.5356966 158.230699,30.7194444 158.417498,29.4645069 L158.507852,28.8576341 L434.423451,28.8576341 L434.51366,29.4645069 C434.70046,30.7197418 434.789218,31.5358453 434.789218,32.7800759 L434.789218,170.03788 C434.789218,183.748953 423.754868,194.903755 410.191768,194.903755 L410.191768,194.903755 Z" id="Fill-17" fill-opacity="0.5" fill="#FFFFFF"></path>
                            <path d="M444.212512,123.785603 L444.212512,176.169244 C444.212512,190.697907 432.725522,202.477575 418.554454,202.477575 L362.794461,202.477575 L362.794461,136.511047 C362.794461,129.483011 368.350867,123.785603 375.20399,123.785603 L444.212512,123.785603 Z" id="Fill-18" fill="#0024A5"></path>
                            <path d="M413.684884,39.4379959 L298.98351,39.4379959 C294.994884,39.4379959 291.761575,36.1227244 291.761575,32.0329873 L291.761575,0.340870905 L420.906819,0.340870905 L420.906819,32.0329873 C420.906819,36.1227244 417.67351,39.4379959 413.684884,39.4379959" id="Fill-19" fill="#0024A5"></path>
                            <g id="Group-32" transform="translate(166.034699, 97.319345)">
                                <g id="Group-22">
                                    <mask id="mask-2" fill="white">
                                        <use xlink:href="#path-1"></use>
                                    </mask>
                                    <g id="Clip-21"></g>
                                    <path d="M55.1228742,2.74899569 L1.43696146,2.74899569 C0.703832657,2.74899569 0.109497972,2.13944612 0.109497972,1.38773276 C0.109497972,0.636168103 0.703832657,0.0266185345 1.43696146,0.0266185345 L55.1228742,0.0266185345 C55.856003,0.0266185345 56.4501927,0.636168103 56.4501927,1.38773276 C56.4501927,2.13944612 55.856003,2.74899569 55.1228742,2.74899569" id="Fill-20" mask="url(#mask-2)"></path>
                                </g>
                                <path d="M55.1228162,2.74895108 L1.43704848,2.74895108 C0.703919675,2.74895108 0.10958499,2.13940151 0.10958499,1.38783685 C0.10958499,0.636123491 0.703919675,0.0265739224 1.43704848,0.0265739224 L55.1228162,0.0265739224 C55.855945,0.0265739224 56.4502797,0.636123491 56.4502797,1.38783685 C56.4502797,2.13940151 55.855945,2.74895108 55.1228162,2.74895108 Z" id="Stroke-23" stroke="#ABC5FF" stroke-width="7"></path>
                                <g id="Group-26" transform="translate(0.000000, 15.465517)">
                                    <mask id="mask-4" fill="white">
                                        <use xlink:href="#path-3"></use>
                                    </mask>
                                    <g id="Clip-25"></g>
                                    <path d="M55.1228742,2.76698922 L1.43696146,2.76698922 C0.703832657,2.76698922 0.109497972,2.15758836 0.109497972,1.405875 C0.109497972,0.654161638 0.703832657,0.0447607759 1.43696146,0.0447607759 L55.1228742,0.0447607759 C55.856003,0.0447607759 56.4501927,0.654161638 56.4501927,1.405875 C56.4501927,2.15758836 55.856003,2.76698922 55.1228742,2.76698922" id="Fill-24" mask="url(#mask-4)"></path>
                                </g>
                                <path d="M55.1228162,18.2324767 L1.43704848,18.2324767 C0.703919675,18.2324767 0.10958499,17.6230759 0.10958499,16.8715112 C0.10958499,16.1196491 0.703919675,15.5102483 1.43704848,15.5102483 L55.1228162,15.5102483 C55.855945,15.5102483 56.4502797,16.1196491 56.4502797,16.8715112 C56.4502797,17.6230759 55.855945,18.2324767 55.1228162,18.2324767 Z" id="Stroke-27" stroke="#ABC5FF" stroke-width="7"></path>
                                <g id="Group-30" transform="translate(0.000000, 30.931034)">
                                    <mask id="mask-6" fill="white">
                                        <use xlink:href="#path-5"></use>
                                    </mask>
                                    <g id="Clip-29"></g>
                                    <path d="M55.1228742,2.78513147 L1.43696146,2.78513147 C0.703832657,2.78513147 0.109497972,2.1755819 0.109497972,1.42401724 C0.109497972,0.672303879 0.703832657,0.0629030172 1.43696146,0.0629030172 L55.1228742,0.0629030172 C55.856003,0.0629030172 56.4501927,0.672303879 56.4501927,1.42401724 C56.4501927,2.1755819 55.856003,2.78513147 55.1228742,2.78513147" id="Fill-28" mask="url(#mask-6)"></path>
                                </g>
                                <path d="M55.1228162,33.7161511 L1.43704848,33.7161511 C0.703919675,33.7161511 0.10958499,33.1066015 0.10958499,32.3550369 C0.10958499,31.6033235 0.703919675,30.9939226 1.43704848,30.9939226 L55.1228162,30.9939226 C55.855945,30.9939226 56.4502797,31.6033235 56.4502797,32.3550369 C56.4502797,33.1066015 55.855945,33.7161511 55.1228162,33.7161511 Z" id="Stroke-31" stroke="#ABC5FF" stroke-width="7"></path>
                            </g>
                            <path d="M278.869038,15.9797804 L184.987942,15.9797804 C183.245257,15.9797804 181.83237,14.5310778 181.83237,12.744067 L181.83237,9.71505625 C181.83237,7.92804547 183.245257,6.47934289 184.987942,6.47934289 L278.869038,6.47934289 C280.611868,6.47934289 282.02461,7.92804547 282.02461,9.71505625 L282.02461,12.744067 C282.02461,14.5310778 280.611868,15.9797804 278.869038,15.9797804" id="Fill-33" fill-opacity="0.5" fill="#FFFFFF"></path>
                            <path d="M85.8820534,97.7049567 C85.8820534,97.7049567 91.4985017,92.6355386 90.5492775,85.0111873 C89.5999084,77.386836 82.638738,75.6430989 82.638738,75.6430989 C82.638738,75.6430989 76.3499286,66.1936679 62.3879946,72.0335364 C48.4259154,77.8735537 50.9572765,93.0410623 47.8721893,102.206463 C44.7871021,111.371864 44.7871021,112.588584 32.8423962,124.755039 C20.8975453,136.921642 28.57067,156.22573 39.0916122,160.524549 C49.6125544,164.823517 59.263314,164.417845 71.2872065,150.953625 C83.311099,137.489256 78.4066051,106.343192 85.8820534,97.7049567" id="Fill-34" fill="#1A1AA8"></path>
                        </g>
                        <g id="Group-38" transform="translate(41.913793, 109.730819)">
                            <mask id="mask-8" fill="white">
                                <use xlink:href="#path-7"></use>
                            </mask>
                            <g id="Clip-37"></g>
                            <path d="M12.6684512,93.5818597 C12.6684512,92.9330515 13.301364,70.3275213 18.2058579,59.56828 C23.1102068,48.8091873 37.4281906,49.9888791 35.490149,41.7746075 C33.5521074,33.5604847 28.3102727,26.8283748 36.3893376,23.0973187 C44.4685476,19.3662627 51.5879461,14.4184869 53.3283113,7.84876487 C53.3283113,7.84876487 53.4865395,14.9863985 58.3118468,16.8519265 C63.1372991,18.7173058 66.6969259,18.0684976 66.6969259,18.0684976 L62.6626145,41.4281205 L55.8596723,58.2073144 C55.8596723,58.2073144 48.7684096,85.8241183 48.5565202,85.971933 C48.3446307,86.1197476 31.6535141,97.7996334 31.6535141,97.7996334 L12.6684512,93.5818597 Z" id="Fill-36" fill="#0D0D82" mask="url(#mask-8)"></path>
                        </g>
                        <g id="Group-43" transform="translate(107.177485, 160.291164)">
                            <path d="M17.6497242,40.3449394 L20.9720812,40.480114 C20.9720812,40.480114 46.9184595,33.2073058 54.9080407,29.8817735 C54.9080407,29.8817735 62.3438956,19.5806981 71.1244727,19.8241312 C79.9051948,20.0674157 73.8932486,27.5295278 59.4960782,35.8838812 C59.4960782,35.8838812 39.2189392,44.9682369 28.5133733,48.5370537 C18.277996,51.9491334 14.0900975,52.1870644 10.5303257,46.9148101 L17.6497242,40.3449394 Z" id="Fill-39" fill="#F476AF"></path>
                            <path d="M0.958651116,0.884895259 L1.59141886,0.0332508621 C1.59141886,0.0332508621 4.04373834,1.12832845 6.53550609,8.06312586 C9.02727383,14.998072 10.0028935,20.4188845 14.5910761,28.0432358 C19.1791136,35.6675871 21.2357901,37.0193328 20.9721247,40.4801884 C20.9721247,40.4801884 16.7005436,49.3480267 10.8466805,50.2402681 C10.8466805,50.2402681 6.4168712,47.1986172 4.04373834,41.0750159 C1.67060548,34.9511172 0.0488752535,30.1655806 0.0488752535,30.1655806 L0.958651116,0.884895259 Z" id="Fill-41" fill="#CFDCFF"></path>
                        </g>
                        <g id="Group-46" transform="translate(107.177485, 160.291164)">
                            <mask id="mask-10" fill="white">
                                <use xlink:href="#path-9"></use>
                            </mask>
                            <g id="Clip-45"></g>
                            <path d="M0.0489187627,3.43991767 C0.0489187627,3.43991767 3.36605467,12.0374069 4.93107799,15.4441332 C6.49595629,18.8508595 4.20186501,32.2338853 7.68259523,38.6416655 C11.1631804,45.049297 19.2318031,45.3736267 19.2318031,45.3736267 L14.6437656,53.2412625 C14.6437656,53.2412625 8.31536298,54.1559586 8.0780932,53.576894 C7.84082343,52.9981267 -2.16090984,35.7503573 -2.06460963,35.411603 C-1.9681644,35.0728487 -5.52663093,19.9863853 -5.17130639,19.2562345 C-4.81598185,18.5262323 0.0489187627,3.43991767 0.0489187627,3.43991767" id="Fill-44" fill="#A6C2FF" mask="url(#mask-10)"></path>
                        </g>
                        <g id="Group-59" transform="translate(57.432049, 211.595043)">
                            <path d="M128.253074,101.270185 C128.16011,101.107053 128.06729,100.942583 127.974761,100.777519 C126.217862,104.062454 121.378922,103.602801 118.683532,103.047232 C118.441186,106.571586 117.148965,109.355825 118.714568,114.139726 C120.34268,119.114417 119.709767,120.249943 119.709767,120.249943 L124.930717,120.249943 L125.247029,116.843366 C125.247029,116.843366 129.413318,121.282118 134.581477,121.25282 C139.749636,121.22323 143.493887,121.22323 143.546918,118.033021 C143.599324,114.842663 135.00337,113.11231 128.253074,101.270185" id="Fill-47" fill="#0B0B6D"></path>
                            <path d="M127.974732,100.777593 C121.344956,88.9632763 115.713134,72.4071427 112.748568,65.5278129 C109.742522,58.5522698 104.811777,43.9523754 102.517686,40.0592289 C100.223595,36.1659336 82.3459844,27.8926254 82.3459844,27.8926254 L74.6728596,37.2204142 L75.6616771,48.2511944 L77.1250341,50.5223948 C77.1250341,50.5223948 88.9116568,50.9279185 90.6124286,52.3068776 C92.3132004,53.6856879 95.8201811,69.6914573 106.051062,83.0474185 C116.281944,96.4036772 118.865951,98.8909487 118.707723,102.622005 C118.701776,102.765209 118.693075,102.906481 118.683503,103.047306 C121.378893,103.602727 126.217833,104.062528 127.974732,100.777593" id="Fill-49" fill="#F476AF"></path>
                            <path d="M103.015692,99.7894953 C98.9681826,101.440439 95.4474239,97.7233616 93.4944442,94.9075966 C93.1753773,95.6948509 92.7630558,96.3017237 92.2341298,96.6739371 C88.1996734,99.5129004 87.8041755,108.029344 87.8041755,108.029344 L91.4429888,111.030398 L93.7370801,107.623821 C93.7370801,107.623821 94.923574,114.112497 97.0594371,117.357133 C99.1953002,120.601323 109.874471,122.710284 110.34901,120.033709 C110.823695,117.357133 102.992342,104.298288 102.992342,100.567232 C102.992342,100.368857 103.000609,100.105349 103.015692,99.7894953" id="Fill-51" fill="#0B0B6D"></path>
                            <path d="M103.015692,99.7894953 C103.284578,94.1654004 105.857708,70.7981935 107.580379,60.6611418 C109.399786,49.9546914 112.484873,33.1378746 111.113756,30.3801052 C109.742638,27.6223358 95.5036957,21.7283379 95.5036957,21.7283379 L93.1305629,21.5662474 L80.4475071,27.8926849 L95.5036957,40.2213789 C95.5036957,40.2213789 93.5788519,62.5266698 93.5788519,69.9887819 C93.5788519,76.4725513 95.6084077,89.6903638 93.4944442,94.9075966 C95.4474239,97.7233616 98.9681826,101.440439 103.015692,99.7894953" id="Fill-53" fill="#FDB2D0"></path>
                            <path d="M11.9164104,3.39750647 C11.7581823,3.39750647 1.2636356,5.0737306 0.261620385,17.6727737 C-0.740394828,30.2719655 2.72713763,51.4957112 24.9159226,53.9290022 C47.1048526,56.3622931 63.5981478,47.2374892 63.5981478,47.2374892 L41.6466326,3.39750647 L11.9164104,3.39750647 Z" id="Fill-55" fill="#D87600"></path>
                            <path d="M51.5742408,0.0449243534 L53.2354193,1.61303858 C53.2354193,1.61303858 53.1563777,6.96633815 60.6976698,10.1566959 C68.2389619,13.346905 86.3802377,18.1595062 95.5036667,21.7283231 C95.5036667,21.7283231 75.5825775,24.9728101 77.1251211,50.5222907 C77.1251211,50.5222907 55.8854152,49.8700623 38.0868462,48.4928877 C20.2882773,47.1157131 15.1861069,33.0026851 15.6606465,20.471155 C16.135331,7.93962478 21.0201008,3.31632737 21.0201008,3.31632737 L51.5742408,0.0449243534 Z" id="Fill-57" fill="#00299B"></path>
                        </g>
                        <g id="Group-62" transform="translate(72.950304, 211.595043)">
                            <mask id="mask-12" fill="white">
                                <use xlink:href="#path-11"></use>
                            </mask>
                            <g id="Clip-61"></g>
                            <path d="M13.2256436,5.61445862 C13.2256436,5.61445862 8.3692998,16.6724522 26.5633667,25.2837711 C44.7574337,33.8949414 69.1045615,41.8436224 69.1045615,41.8436224 L65.7993181,54.3415448 L24.0122815,55.4700815 C24.0122815,55.4700815 -4.60381684,44.2914866 -6.8187215,34.1453638 C-9.0337712,23.9993897 -6.52401968,12.0491547 -4.11810994,7.72341983 C-1.7122002,3.39753621 -3.71724584,-2.21421595 2.80071156,-0.300506897 C9.31852394,1.61305345 13.2256436,5.61445862 13.2256436,5.61445862" id="Fill-60" fill="#002577" mask="url(#mask-12)"></path>
                        </g>
                        <path d="M78.4520915,157.080076 C78.4520915,157.080076 70.4031929,160.344639 69.0188775,162.250764 C67.6345621,164.156889 74.3584627,189.037337 75.7823714,197.148257 C77.2061351,205.259326 78.4520915,214.911445 78.4520915,214.911445 C78.4520915,214.911445 96.9032974,223.022365 110.667555,213.208007 C110.667555,213.208007 108.610733,208.909188 109.16446,199.906027 C109.718186,190.902865 111.854049,190.902865 112.091319,183.359708 C112.328733,175.816402 110.034642,176.181328 109.401729,170.544296 C108.768962,164.907115 108.768962,160.324415 108.768962,160.324415 C108.768962,160.324415 103.70624,157.242316 96.7054759,156.512313 L78.4520915,157.080076 Z" id="Fill-63" fill="#FFFFFF"></path>
                        <g id="Group-71" transform="translate(68.744422, 156.424784)">
                            <g id="Group-67">
                                <mask id="mask-14" fill="white">
                                    <use xlink:href="#path-13"></use>
                                </mask>
                                <g id="Clip-66"></g>
                                <path d="M44.1643462,25.5073519 C44.1643462,25.5073519 41.8440045,32.5044575 34.5663777,32.6125675 C27.2887509,32.7206774 22.9115876,36.3976041 26.3921728,40.9398562 C29.872758,45.4819597 15.6539751,61.6352463 15.6539751,61.6352463 L24.1244771,62.8936041 L43.3640684,62.2464317 L46.3283452,51.3261407 C46.3283452,51.3261407 46.7484984,42.5909489 46.8011444,39.2780567 C46.8539355,35.9650157 44.1643462,25.5073519 44.1643462,25.5073519" id="Fill-65" fill="#E6EEFF" mask="url(#mask-14)"></path>
                            </g>
                            <g id="Group-70">
                                <mask id="mask-16" fill="white">
                                    <use xlink:href="#path-15"></use>
                                </mask>
                                <g id="Clip-69"></g>
                                <path d="M39.5894775,3.29135948 C39.5894775,3.29135948 38.2842037,13.0245233 40.4200667,17.2421483 C42.5559298,21.459922 42.8327929,25.1878552 42.1998801,29.3867431 C41.5671124,33.5859284 38.3017523,38.0414845 39.4708426,46.8068638 C40.6399329,55.5720944 41.1320211,58.9731698 41.1320211,58.9731698 L42.7931996,57.4432733 C42.7931996,57.4432733 46.432013,28.7191978 46.432013,26.9348638 C46.432013,25.150381 43.0304694,9.09063103 43.0304694,9.09063103 L41.2902493,3.8997194 L39.5894775,3.29135948 Z" id="Fill-68" fill="#4545B5" mask="url(#mask-16)"></path>
                            </g>
                        </g>
                        <path d="M100.858495,130.962565 C100.858495,130.962565 103.152586,142.074688 101.253993,147.833511 C99.3555443,153.592334 94.2400311,154.080093 92.8161224,153.930791 C91.3923587,153.78149 92.6052482,159.107873 92.6052482,159.107873 C92.6052482,159.107873 91.3131721,163.487737 87.8325869,162.622412 C84.3520017,161.757384 82.9808841,157.107022 82.9808841,157.107022 C82.9808841,157.107022 84.562876,148.590578 82.8226559,146.049028 C81.0822908,143.507628 78.4982837,144.670218 78.3136599,140.560554 C78.1290362,136.451039 80.4231275,136.532084 82.4007624,136.451039 C84.3783973,136.369845 93.3040048,131.205998 94.5696853,126.582701 C94.5696853,126.582701 97.4965443,130.516444 100.858495,130.962565" id="Fill-72" fill="#FDB2D0"></path>
                        <g id="Group-80" transform="translate(78.171400, 126.534698)">
                            <g id="Group-76">
                                <mask id="mask-18" fill="white">
                                    <use xlink:href="#path-17"></use>
                                </mask>
                                <g id="Clip-75"></g>
                                <path d="M15.2776211,28.0038582 L14.3735014,27.4478431 C14.3735014,27.4478431 8.73834422,23.8941944 7.8945572,22.9209078 C7.05077018,21.9476211 8.79679148,27.4888862 11.1143777,29.2272698 C13.4319639,30.9656534 14.2756059,31.6809336 14.2756059,31.6809336 L15.2776211,28.0038582 Z" id="Fill-74" fill="#F476AF" mask="url(#mask-18)"></path>
                            </g>
                            <g id="Group-79">
                                <mask id="mask-20" fill="white">
                                    <use xlink:href="#path-19"></use>
                                </mask>
                                <g id="Clip-78"></g>
                                <path d="M-1.65079432,11.7278586 C-1.65079432,11.7278586 -0.121448479,14.4314987 7.26161542,10.9707918 C14.6448243,7.51008491 16.5432726,3.24100733 16.5432726,3.24100733 C16.5432726,3.24100733 22.1861164,8.385225 24.6646864,7.00150733 L24.1373558,2.85972284 L16.2268162,-2.43944741 C16.2268162,-2.43944741 7.89452819,3.61678966 7.63086288,3.99524871 C7.36719757,4.37385647 -1.65079432,11.7278586 -1.65079432,11.7278586" id="Fill-77" fill="#F476AF" mask="url(#mask-20)"></path>
                            </g>
                        </g>
                        <g id="Group-89" transform="translate(77.301217, 155.235129)">
                            <path d="M5.93671897,0.52677931 L13.2933873,6.81276853 L12.7396612,15.1063009 L0.102725051,1.88551422 C0.102725051,1.88551422 0.537816329,1.17573621 6.01576055,0.52677931" id="Fill-81" fill="#FCAA23"></path>
                            <path d="M14.7370927,0.303852802 L13.2934598,6.81290237 L19.4043168,14.4372537 L19.6613108,0.729600647 C19.6613108,0.729600647 17.8086921,-0.189854095 14.8225156,0.276490733" id="Fill-83" fill="#FCAA23"></path>
                            <path d="M63.8215526,179.296723 C63.3937129,179.296723 63.0469451,178.941165 63.0469451,178.50248 L63.0469451,68.1609213 C63.0469451,67.722236 63.3937129,67.3668265 63.8215526,67.3668265 C64.2493924,67.3668265 64.5961601,67.722236 64.5961601,68.1609213 L64.5961601,178.50248 C64.5961601,178.941165 64.2493924,179.296723 63.8215526,179.296723" id="Fill-85" fill="#FF8403"></path>
                            <path d="M125.681467,179.296723 C125.253627,179.296723 124.90686,178.941165 124.90686,178.50248 L124.90686,65.2566756 C124.90686,64.818139 125.253627,64.4624321 125.681467,64.4624321 C126.109307,64.4624321 126.456075,64.818139 126.456075,65.2566756 L126.456075,178.50248 C126.456075,178.941165 126.109307,179.296723 125.681467,179.296723" id="Fill-87" fill="#FF8403"></path>
                        </g>
                        <polygon id="Fill-90" fill="#D87600" points="89.2858063 327.897666 93.1853844 327.897666 93.1853844 263.982847 89.2858063 263.982847"></polygon>
                        <g id="Group-100" transform="translate(57.432049, 162.224353)">
                            <path d="M40.8950994,170.864284 L26.893572,170.864284 C25.4954787,170.864284 24.362211,169.702288 24.362211,168.268753 C24.362211,166.835368 25.4954787,165.673372 26.893572,165.673372 L40.8950994,165.673372 C42.2930477,165.673372 43.4264604,166.835368 43.4264604,168.268753 C43.4264604,169.702288 42.2930477,170.864284 40.8950994,170.864284" id="Fill-92" fill="#D87600"></path>
                            <path d="M53.0252122,100.736491 C46.1021848,102.769611 36.2527335,104.543982 24.9161402,103.300049 C2.72633996,100.866609 -0.740612373,79.6424172 0.261692901,67.0432254 C0.368580325,65.700997 0.582355172,64.4842772 0.881407911,63.3787901 C1.80307627,65.9218267 3.90224665,68.7491909 8.38383185,70.9905013 C19.1936746,76.3989711 41.6468501,76.654747 50.3080671,93.323303 C51.6185621,95.8441823 52.4891797,98.3299668 53.0252122,100.736491" id="Fill-94" fill="#FFB852"></path>
                            <path d="M21.7253983,51.8489496 C21.7253983,51.8489496 37.1772299,75.1545918 39.6557999,77.5337534 C42.1343699,79.9130638 47.4081113,81.6432685 47.6717766,90.5112556 C47.9354419,99.3793914 42.3980352,98.6763052 41.3433739,96.3512728 C40.2885676,94.0260918 39.761237,87.3210466 34.8040971,82.1841155 C29.8468121,77.0470358 9.8069429,55.8357815 9.8069429,55.8357815 C9.8069429,55.8357815 13.4985474,50.5510358 21.7253983,51.8489496" id="Fill-96" fill="#FDB2D0"></path>
                            <path d="M19.2995178,6.04881659 C21.5347268,10.0155731 23.0218688,17.5875795 23.0173728,25.9208166 C23.0130219,34.253905 24.2040118,45.6305774 24.3226467,48.550586 C24.4412815,51.4702972 22.4849661,53.25478 22.4849661,53.25478 C22.4849661,53.25478 15.8715787,52.5518425 10.0178606,57.0940946 C10.0178606,57.0940946 4.7442643,53.7414976 5.64084239,47.7393899 C6.53727546,41.7371334 8.11941237,27.7863446 8.48851481,19.621295 C8.85776227,11.4560968 8.38307769,-0.358814871 12.0482866,0.0736247845 C15.7134955,0.506361853 18.613959,4.83209677 19.2995178,6.04881659" id="Fill-98" fill="#CFDCFF"></path>
                        </g>
                        <g id="Group-103" transform="translate(62.943205, 162.224353)">
                            <mask id="mask-22" fill="white">
                                <use xlink:href="#path-21"></use>
                            </mask>
                            <g id="Clip-102"></g>
                            <path d="M13.9480692,0.827375431 C13.9480692,0.827375431 17.7182801,7.89407586 15.6758166,23.2035996 C13.6332081,38.513272 12.3376513,54.3889228 12.3376513,54.3889228 L20.4940174,53.8980414 C20.4940174,53.8980414 24.3709708,47.3338216 24.3709708,45.5088905 C24.3709708,43.6838108 26.4736219,25.920772 24.3377588,19.1076168 C22.2018957,12.2943129 18.2757771,3.29100259 18.2757771,3.29100259 L13.9480692,0.827375431 Z" id="Fill-101" fill="#A6C2FF" mask="url(#mask-22)"></path>
                        </g>
                        <g id="Group-192" transform="translate(0.000000, 0.133836)">
                            <path d="M404.581952,130.179579 L423.269268,125.12518 C418.5114,105.192954 400.974756,90.402417 380.06891,90.402417 L380.06891,110.208986 C392.00941,110.208986 402.006792,118.738665 404.581952,130.179579" id="Fill-104" fill="#FCAA23"></path>
                            <path d="M354.912005,136.003699 C354.912005,121.757727 366.175067,110.209001 380.068837,110.209001 L380.068837,90.4024319 C355.506629,90.4024319 335.595112,110.818848 335.595112,136.003699 C335.595112,147.129057 339.481202,157.323509 345.936942,165.23888 L360.414894,152.103897 C356.972017,147.690872 354.912005,142.094436 354.912005,136.003699" id="Fill-106" fill="#FFE08A"></path>
                            <path d="M423.26921,125.12515 L404.581894,130.179549 C405.003208,132.051323 405.225829,134.00087 405.225829,136.003655 C405.225829,150.249627 393.962767,161.798353 380.068852,161.798353 C372.115238,161.798353 365.024846,158.012573 360.414909,152.103853 L345.936956,165.238836 C354.095063,175.241902 366.357095,181.60507 380.068852,181.60507 C404.631205,181.60507 424.542722,161.188655 424.542722,136.003655 C424.542722,132.254605 424.101394,128.611286 423.26921,125.12515" id="Fill-108" fill="#FFFFFF"></path>
                            <g id="Group-112" transform="translate(310.510142, 26.915948)">
                                <mask id="mask-24" fill="white">
                                    <use xlink:href="#path-23"></use>
                                </mask>
                                <use id="Clip-111" fill-opacity="0.6" fill="#8DB7FF" xlink:href="#path-23"></use>
                            </g>
                            <path d="M304.740194,126.649678 L191.083184,126.649678 C186.806237,126.649678 183.33914,123.094543 183.33914,118.709176 L183.33914,89.6340039 C183.33914,85.2486375 186.806237,81.6936504 191.083184,81.6936504 L304.740194,81.6936504 C309.017141,81.6936504 312.484383,85.2486375 312.484383,89.6340039 L312.484383,118.709176 C312.484383,123.094543 309.017141,126.649678 304.740194,126.649678" id="Fill-113" fill="#0024A5"></path>
                            <g id="Group-117" transform="translate(186.799189, 77.030172)">
                                <mask id="mask-26" fill="white">
                                    <use xlink:href="#path-25"></use>
                                </mask>
                                <g id="Clip-116"></g>
                                <path d="M121.451814,45.0280022 L7.7949503,45.0280022 C3.51785801,45.0280022 0.0507606491,41.4728664 0.0507606491,37.0875 L0.0507606491,8.01232759 C0.0507606491,3.62696121 3.51785801,0.0719741379 7.7949503,0.0719741379 L121.451814,0.0719741379 C125.728907,0.0719741379 129.196004,3.62696121 129.196004,8.01232759 L129.196004,37.0875 C129.196004,41.4728664 125.728907,45.0280022 121.451814,45.0280022" id="Fill-115" mask="url(#mask-26)"></path>
                            </g>
                            <path d="M304.227279,229.294762 L247.815809,229.294762 C243.200361,229.294762 239.458866,225.458422 239.458866,220.726122 L239.458866,145.405782 C239.458866,140.673482 243.200361,136.836993 247.815809,136.836993 L304.227279,136.836993 C308.842582,136.836993 312.584222,140.673482 312.584222,145.405782 L312.584222,220.726122 C312.584222,225.458422 308.842582,229.294762 304.227279,229.294762" id="Fill-118" fill="#0024A5"></path>
                            <g id="Group-122" transform="translate(242.780933, 133.241379)">
                                <mask id="mask-28" fill="white">
                                    <use xlink:href="#path-27"></use>
                                </mask>
                                <g id="Clip-121"></g>
                                <path d="M64.8573164,92.5526444 L8.44584686,92.5526444 C3.83054361,92.5526444 0.0889036511,88.7163039 0.0889036511,83.9840043 L0.0889036511,8.66366379 C0.0889036511,3.93136422 3.83054361,0.094875 8.44584686,0.094875 L64.8573164,0.094875 C69.4727647,0.094875 73.2142596,3.93136422 73.2142596,8.66366379 L73.2142596,83.9840043 C73.2142596,88.7163039 69.4727647,92.5526444 64.8573164,92.5526444" id="Fill-120" mask="url(#mask-28)"></path>
                            </g>
                            <path d="M452.909165,47.8704601 C452.909165,51.9066627 449.718205,55.1785119 445.781935,55.1785119 C441.845664,55.1785119 438.654704,51.9066627 438.654704,47.8704601 C438.654704,43.8344063 441.845664,40.5625571 445.781935,40.5625571 C449.718205,40.5625571 452.909165,43.8344063 452.909165,47.8704601" id="Fill-123" fill="#9FC4FF"></path>
                            <path d="M477.996949,126.078228 L422.677123,126.078228 C422.16386,126.078228 421.747623,125.651439 421.747623,125.125165 C421.747623,124.598891 422.16386,124.172103 422.677123,124.172103 L477.067449,124.172103 L477.067449,48.8235078 L450.200852,48.8235078 C449.687445,48.8235078 449.271352,48.3968677 449.271352,47.870594 C449.271352,47.3441716 449.687445,46.9175315 450.200852,46.9175315 L477.996949,46.9175315 C478.510211,46.9175315 478.926449,47.3441716 478.926449,47.870594 L478.926449,125.125165 C478.926449,125.651439 478.510211,126.078228 477.996949,126.078228" id="Fill-125" fill="#9FC4FF"></path>
                            <g id="Group-129" transform="translate(385.635903, 167.443966)" fill="#FFD597">
                                <path d="M119.301883,12.8546703 C119.301883,5.82693103 113.745768,0.129821121 106.891775,0.129821121 L12.5386055,0.129821121 C5.68475761,0.129821121 0.128496957,5.82693103 0.128496957,12.8546703 L0.128496957,21.0304267 L119.301883,21.0304267 L119.301883,12.8546703 Z" id="Fill-127"></path>
                            </g>
                            <g id="Group-132" transform="translate(385.635903, 188.411638)" fill="#8DB7FF">
                                <path d="M0.128496957,0.0627543103 L0.128496957,91.5485754 C0.128496957,98.5763147 5.68475761,104.273425 12.5386055,104.273425 L106.891775,104.273425 C113.745768,104.273425 119.301883,98.5763147 119.301883,91.5485754 L119.301883,0.0627543103 L0.128496957,0.0627543103 Z" id="Fill-130"></path>
                            </g>
                            <path d="M467.662472,178.024134 C467.662472,179.961339 466.130806,181.531981 464.241494,181.531981 C462.352038,181.531981 460.820372,179.961339 460.820372,178.024134 C460.820372,176.086929 462.352038,174.516287 464.241494,174.516287 C466.130806,174.516287 467.662472,176.086929 467.662472,178.024134" id="Fill-133" fill="#0025DB"></path>
                            <path d="M481.28109,178.024134 C481.28109,179.961339 479.749424,181.531981 477.860112,181.531981 C475.970656,181.531981 474.43899,179.961339 474.43899,178.024134 C474.43899,176.086929 475.970656,174.516287 477.860112,174.516287 C479.749424,174.516287 481.28109,176.086929 481.28109,178.024134" id="Fill-135" fill="#0025DB"></path>
                            <path d="M494.899795,178.024134 C494.899795,179.961339 493.368129,181.531981 491.478672,181.531981 C489.589361,181.531981 488.057695,179.961339 488.057695,178.024134 C488.057695,176.086929 489.589361,174.516287 491.478672,174.516287 C493.368129,174.516287 494.899795,176.086929 494.899795,178.024134" id="Fill-137" fill="#0025DB"></path>
                            <path d="M422.705868,236.925716 L398.084633,236.925716 C394.787076,236.925716 392.113875,234.184751 392.113875,230.803751 L392.113875,201.831335 C392.113875,198.450186 394.787076,195.709221 398.084633,195.709221 L422.705868,195.709221 C426.003425,195.709221 428.676481,198.450186 428.676481,201.831335 L428.676481,230.803751 C428.676481,234.184751 426.003425,236.925716 422.705868,236.925716" id="Fill-139" fill="#FFFFFF"></path>
                            <path d="M412.532854,229.658693 L407.699425,229.658693 C406.712928,229.658693 405.91323,228.838723 405.91323,227.827367 L405.91323,213.925057 C405.91323,212.913702 406.712928,212.093732 407.699425,212.093732 L412.532854,212.093732 C413.519206,212.093732 414.318904,212.913702 414.318904,213.925057 L414.318904,227.827367 C414.318904,228.838723 413.519206,229.658693 412.532854,229.658693" id="Fill-141" fill="#FFA506"></path>
                            <path d="M414.004681,205.620297 C414.004681,207.822498 412.263735,209.607427 410.116125,209.607427 C407.968514,209.607427 406.227569,207.822498 406.227569,205.620297 C406.227569,203.418246 407.968514,201.633168 410.116125,201.633168 C412.263735,201.633168 414.004681,203.418246 414.004681,205.620297" id="Fill-143" fill="#FFA506"></path>
                            <path d="M496.296134,208.689846 L438.03103,208.689846 C436.938806,208.689846 436.05325,207.78199 436.05325,206.66193 C436.05325,205.541869 436.938806,204.634014 438.03103,204.634014 L496.296134,204.634014 C497.388358,204.634014 498.273913,205.541869 498.273913,206.66193 C498.273913,207.78199 497.388358,208.689846 496.296134,208.689846" id="Fill-145" fill="#FFFFFF"></path>
                            <path d="M496.296134,222.392234 L438.03103,222.392234 C436.938806,222.392234 436.05325,221.48423 436.05325,220.36417 C436.05325,219.244258 436.938806,218.336403 438.03103,218.336403 L496.296134,218.336403 C497.388358,218.336403 498.273913,219.244258 498.273913,220.36417 C498.273913,221.48423 497.388358,222.392234 496.296134,222.392234" id="Fill-147" fill="#FFFFFF"></path>
                            <path d="M496.296134,236.094475 L438.03103,236.094475 C436.938806,236.094475 436.05325,235.186619 436.05325,234.066559 C436.05325,232.946498 436.938806,232.038643 438.03103,232.038643 L496.296134,232.038643 C497.388358,232.038643 498.273913,232.946498 498.273913,234.066559 C498.273913,235.186619 497.388358,236.094475 496.296134,236.094475" id="Fill-149" fill="#FFFFFF"></path>
                            <path d="M491.231047,281.823585 L398.123254,281.823585 C394.804378,281.823585 392.113919,279.064923 392.113919,275.661766 L392.113919,250.541602 C392.113919,247.138445 394.804378,244.379783 398.123254,244.379783 L491.231047,244.379783 C494.549924,244.379783 497.240528,247.138445 497.240528,250.541602 L497.240528,275.661766 C497.240528,279.064923 494.549924,281.823585 491.231047,281.823585" id="Fill-151" fill="#FFFFFF"></path>
                            <path d="M336.676024,202.578632 L326.246451,202.578632 C325.426449,202.578632 324.761629,201.896959 324.761629,201.05617 L324.761629,190.36236 C324.761629,189.521423 325.426449,188.83975 326.246451,188.83975 L336.676024,188.83975 C337.496026,188.83975 338.160845,189.521423 338.160845,190.36236 L338.160845,201.05617 C338.160845,201.896959 337.496026,202.578632 336.676024,202.578632" id="Fill-153" fill="#FCAA23"></path>
                            <path d="M376.461669,192.932149 L343.23897,192.932149 C342.363131,192.932149 341.653207,192.204229 341.653207,191.306188 C341.653207,190.408147 342.363131,189.680227 343.23897,189.680227 L376.461669,189.680227 C377.337508,189.680227 378.047432,190.408147 378.047432,191.306188 C378.047432,192.204229 377.337508,192.932149 376.461669,192.932149" id="Fill-155" fill="#FCAA23"></path>
                            <path d="M376.461669,202.578632 L343.23897,202.578632 C342.363131,202.578632 341.653207,201.850563 341.653207,200.952522 C341.653207,200.054481 342.363131,199.326709 343.23897,199.326709 L376.461669,199.326709 C377.337508,199.326709 378.047432,200.054481 378.047432,200.952522 C378.047432,201.850563 377.337508,202.578632 376.461669,202.578632" id="Fill-157" fill="#FCAA23"></path>
                            <path d="M336.676024,225.832539 L326.246451,225.832539 C325.426449,225.832539 324.761629,225.150866 324.761629,224.310078 L324.761629,213.616267 C324.761629,212.77533 325.426449,212.093657 326.246451,212.093657 L336.676024,212.093657 C337.496026,212.093657 338.160845,212.77533 338.160845,213.616267 L338.160845,224.310078 C338.160845,225.150866 337.496026,225.832539 336.676024,225.832539" id="Fill-159" fill="#FFE08A"></path>
                            <path d="M376.461669,215.765915 L343.23897,215.765915 C342.363131,215.765915 341.653207,215.037846 341.653207,214.139805 C341.653207,213.241764 342.363131,212.513844 343.23897,212.513844 L376.461669,212.513844 C377.337508,212.513844 378.047432,213.241764 378.047432,214.139805 C378.047432,215.037846 377.337508,215.765915 376.461669,215.765915" id="Fill-161" fill="#FFE08A"></path>
                            <path d="M376.461669,225.412263 L343.23897,225.412263 C342.363131,225.412263 341.653207,224.684194 341.653207,223.786302 C341.653207,222.888261 342.363131,222.160341 343.23897,222.160341 L376.461669,222.160341 C377.337508,222.160341 378.047432,222.888261 378.047432,223.786302 C378.047432,224.684194 377.337508,225.412263 376.461669,225.412263" id="Fill-163" fill="#FFE08A"></path>
                            <g id="Group-167" transform="translate(129.657201, 164.618534)">
                                <mask id="mask-30" fill="white">
                                    <use xlink:href="#path-29"></use>
                                </mask>
                                <use id="Clip-166" fill="#FFD597" xlink:href="#path-29"></use>
                                <path d="M6.8658854,1.47457759 C6.04051724,8.08995259 2.39749797,37.3742069 0.132267748,56.9635151 C0.0203042596,57.9320431 0.79998783,58.7627198 1.74805172,58.6850948 C11.4661055,57.8915948 57.457574,54.3412177 81.7057911,56.1414634 C82.439645,56.1958901 83.1053347,55.7036703 83.2815467,54.9712888 C84.7524452,48.8588405 91.2422667,22.022153 96.224932,3.52807112 C96.4858418,2.5595431 95.791001,1.59859914 94.8114655,1.57302155 C86.7206531,1.36111422 53.825142,0.551256466 8.37521704,0.126484228 C7.61163185,0.119411638 6.96276572,0.697881466 6.8658854,1.47457759" id="Fill-165" mask="url(#mask-30)"></path>
                            </g>
                            <path d="M143.193775,170.716737 C142.577396,175.572909 139.403985,200.635672 137.459852,217.158644 C137.434182,217.376797 137.502781,217.585433 137.653033,217.746185 C137.808505,217.912291 138.027791,217.996012 138.255344,217.978762 C145.997503,217.357465 185.670141,214.334254 206.430232,215.84928 C206.794403,215.874857 207.121737,215.640347 207.20774,215.289101 C208.298078,210.835775 213.95412,187.829183 218.234548,172.213174 C218.293575,171.998441 218.252677,171.771515 218.122584,171.590687 C217.986111,171.401234 217.773496,171.289109 217.539127,171.283013 C209.961577,171.088058 182.259461,170.424379 143.936766,170.072538 L143.92966,170.072538 C143.556206,170.072538 143.24062,170.348092 143.193775,170.716737 M138.193561,219.093172 C137.693496,219.093172 137.217796,218.887213 136.870449,218.515743 C136.496415,218.11587 136.318898,217.572793 136.383291,217.025403 C138.327859,200.497821 141.50185,175.430299 142.11852,170.573086 C142.235559,169.650954 143.012487,168.960508 143.929515,168.960508 L143.946483,168.960508 C182.277299,169.312795 209.986813,169.976325 217.566393,170.171428 C218.137813,170.186299 218.658472,170.462894 218.995088,170.930428 C219.325322,171.389189 219.428728,171.966469 219.278477,172.514157 C215.001965,188.11589 209.349259,211.10895 208.2595,215.560045 C208.04529,216.435036 207.243272,217.023023 206.35322,216.958336 C185.669996,215.449407 146.068568,218.467116 138.340042,219.087224 C138.291022,219.091239 138.242146,219.093172 138.193561,219.093172" id="Fill-168" fill="#FFFFFF"></path>
                            <path d="M147.013354,210.606053 C146.793778,210.606053 146.584354,210.510434 146.437294,210.342842 C146.288202,210.172721 146.217863,209.944902 146.244403,209.717678 L150.188506,175.857712 C150.239266,175.42215 150.624467,175.11046 151.049406,175.163251 C151.4742,175.215447 151.777459,175.610562 151.726698,176.046124 L147.887308,209.006562 L199.572671,208.348682 L199.582533,208.348682 C200.005877,208.348682 200.351629,208.697846 200.356913,209.132962 C200.362217,209.571648 200.019655,209.931667 199.59196,209.937021 L147.023072,210.606053 L147.013354,210.606053 Z" id="Fill-170" fill="#FFFFFF"></path>
                            <path d="M174.437187,201.917451 C173.983096,201.917451 173.556562,201.843692 173.159614,201.695134 C172.099006,201.297938 170.775459,200.192154 170.492939,197.179649 C170.197947,194.033606 169.655534,190.655729 167.869484,189.454772 C167.013949,188.879871 165.898085,188.833772 164.458223,189.313055 C161.501053,190.298684 159.790854,192.664908 157.980294,195.169876 C156.629626,197.038675 155.232838,198.97127 153.271446,200.295654 C151.898008,201.22299 150.539363,201.489324 149.233364,201.087815 C146.700553,200.308294 145.396004,197.251177 145.341763,197.121505 C145.173092,196.718361 145.355106,196.251421 145.748283,196.078475 C146.141025,195.90538 146.595841,196.09171 146.764946,196.493813 C146.775534,196.518945 147.845858,199.006365 149.683829,199.567882 C150.540233,199.829755 151.435071,199.633759 152.419538,198.969039 C154.151636,197.799311 155.406874,196.062712 156.735643,194.224248 C158.611612,191.628718 160.551394,188.945005 163.979478,187.802639 C165.868354,187.173014 167.462819,187.282164 168.718927,188.126671 C171.046375,189.691365 171.688135,193.329182 172.034903,197.027522 C172.148317,198.235766 172.527571,199.767447 173.69086,200.203009 C175.30911,200.808544 178.120669,199.26571 181.404883,195.969324 C182.494207,194.876031 183.556845,193.713143 184.681846,192.481998 C190.140646,186.508145 196.327644,179.738412 206.41422,181.208975 C206.837709,181.270688 207.132266,181.67294 207.071933,182.107164 C207.011601,182.54124 206.619293,182.843561 206.195949,182.78155 C196.907041,181.424748 191.266952,187.598761 185.812213,193.568005 C184.675465,194.812087 183.601659,195.987169 182.488406,197.104552 C179.323697,200.280932 176.574645,201.917451 174.437187,201.917451" id="Fill-172" fill="#FFFFFF"></path>
                            <polygon id="Fill-174" fill="#0066CA" points="0 335.631466 547.246352 335.631466 547.246352 332.713985 0 332.713985"></polygon>
                            <path d="M378.047476,270.106537 L332.585513,270.106537 C332.072251,270.106537 331.656013,269.679897 331.656013,269.153475 L331.656013,229.658559 C331.656013,229.132285 332.072251,228.705497 332.585513,228.705497 C333.098921,228.705497 333.515013,229.132285 333.515013,229.658559 L333.515013,268.200561 L378.047476,268.200561 C378.560738,268.200561 378.976976,268.627201 378.976976,269.153475 C378.976976,269.679897 378.560738,270.106537 378.047476,270.106537" id="Fill-176" fill="#9FC4FF"></path>
                            <path d="M385.764429,269.153594 C385.764429,271.898128 383.594628,274.122932 380.917947,274.122932 C378.241265,274.122932 376.071465,271.898128 376.071465,269.153594 C376.071465,266.409059 378.241265,264.184256 380.917947,264.184256 C383.594628,264.184256 385.764429,266.409059 385.764429,269.153594" id="Fill-177" fill="#9FC4FF"></path>
                            <path d="M426.728475,67.8043073 L319.226703,67.8043073 C318.802779,67.8043073 318.459057,67.451872 318.459057,67.0172017 L318.459057,33.2547879 C318.459057,32.8201177 318.802779,32.4675336 319.226703,32.4675336 C319.650772,32.4675336 319.994494,32.8201177 319.994494,33.2547879 L319.994494,66.2300961 L426.728475,66.2300961 C427.152399,66.2300961 427.496122,66.5825315 427.496122,67.0172017 C427.496122,67.451872 427.152399,67.8043073 426.728475,67.8043073" id="Fill-178" fill="#FFFFFF"></path>
                            <path d="M374.354972,58.9080213 C366.975534,58.9080213 362.582417,53.4543446 358.650642,48.5734869 C353.911918,42.6912369 350.169118,38.0448899 342.62275,44.4211442 C327.096518,57.540364 319.187863,53.8748877 318.858644,53.7124998 C318.546104,53.558142 318.414851,53.1732886 318.565248,52.8528252 C318.715064,52.5337002 319.087938,52.3986744 319.399753,52.5499093 C319.418897,52.5592778 321.287324,53.4198446 324.947022,52.7447153 C328.361183,52.1144955 334.060734,49.9867972 341.823922,43.4271873 C350.338514,36.233045 354.846494,41.8287369 359.619156,47.7532196 C363.865646,53.0247304 368.678916,59.0003683 377.314898,57.3225084 C385.190485,55.7932067 389.647125,51.6746205 393.956704,47.691655 C396.869205,45.0003575 399.880472,42.2171593 403.872434,40.3251614 C408.338501,38.2087649 413.594549,37.4555644 419.94079,38.0209481 C420.286253,38.0517304 420.542087,38.3640149 420.512065,38.7182347 C420.482044,39.0727519 420.17835,39.3326916 419.831873,39.3041399 C406.222798,38.0895019 400.673063,43.2188489 394.797881,48.6484351 C390.359515,52.7502175 385.770172,56.9916356 377.548687,58.5881528 C376.424411,58.8064545 375.361773,58.9080213 374.354972,58.9080213" id="Fill-179" fill="#FFFFFF"></path>
                            <polygon id="Fill-180" fill="#FFFFFF" points="199.806677 117.192187 204.197039 117.192187 204.197039 106.252565 199.806677 106.252565"></polygon>
                            <polygon id="Fill-181" fill="#FFFFFF" points="213.92684 117.192187 218.317201 117.192187 218.317201 110.226905 213.92684 110.226905"></polygon>
                            <polygon id="Fill-182" fill="#FFFFFF" points="228.047002 117.192187 232.437363 117.192187 232.437363 105.765847 228.047002 105.765847"></polygon>
                            <polygon id="Fill-183" fill="#FFFFFF" points="242.167309 117.192187 246.55767 117.192187 246.55767 99.5800862 242.167309 99.5800862"></polygon>
                            <polygon id="Fill-184" fill="#FFFFFF" points="256.287472 117.192187 260.677833 117.192187 260.677833 93.2749138 256.287472 93.2749138"></polygon>
                            <polygon id="Fill-185" fill="#FFFFFF" points="270.407634 117.192187 274.797995 117.192187 274.797995 97.0871638 270.407634 97.0871638"></polygon>
                            <polygon id="Fill-186" fill="#FFFFFF" points="284.527796 117.192188 288.918157 117.192188 288.918157 92.2204332 284.527796 92.2204332"></polygon>
                            <polygon id="Fill-187" fill="#FFFFFF" points="298.647958 117.192188 303.038319 117.192188 303.038319 85.5695172 298.647958 85.5695172"></polygon>
                            <path d="M146.05363,161.143581 C145.540222,161.143581 145.12413,160.716941 145.12413,160.190519 L145.12413,86.4977754 C145.12413,85.9715017 145.540222,85.5447129 146.05363,85.5447129 L185.816912,85.5447129 C186.33032,85.5447129 186.746412,85.9715017 186.746412,86.4977754 C186.746412,87.0240491 186.33032,87.4506892 185.816912,87.4506892 L146.98313,87.4506892 L146.98313,160.190519 C146.98313,160.716941 146.567038,161.143581 146.05363,161.143581" id="Fill-188" fill="#9FC4FF"></path>
                            <path d="M150.052453,157.104241 C150.052453,159.36875 148.262052,161.204388 146.053674,161.204388 C143.84515,161.204388 142.054895,159.36875 142.054895,157.104241 C142.054895,154.839733 143.84515,153.004095 146.053674,153.004095 C148.262052,153.004095 150.052453,154.839733 150.052453,157.104241" id="Fill-189" fill="#9FC4FF"></path>
                            <polygon id="Fill-190" fill="#E3EBFF" points="93.8776146 50.1393556 96.2704716 50.1393556 96.2704716 0.0151681034 93.8776146 0.0151681034"></polygon>
                            <path d="M81.7599019,72.0630647 C81.7599019,72.0630647 81.3394587,49.384222 95.0739851,49.384222 C108.808511,49.384222 107.147333,72.0630647 107.147333,72.0630647 C107.147333,72.0630647 104.062246,75.6638534 93.8577599,75.6638534 C83.6532741,75.6638534 81.7599019,72.0630647 81.7599019,72.0630647" id="Fill-191" fill="#B8D0FF"></path>
                        </g>
                    </g>
                </g>
            </g>
        </g>
    </g>
</svg>