<?xml version="1.0" encoding="UTF-8"?>
<svg width="60px" height="60px" viewBox="0 0 60 60" version="1.1" xmlns="http://www.w3.org/2000/svg" xmlns:xlink="http://www.w3.org/1999/xlink">
    <title>icon/home/desktop 3</title>
    <defs>
        <path d="M60.6521586,10.2317905 C42.6521586,-7.54863177 27.3200407,0.537677283 24.6521586,14.0838212 C21.9842765,27.6299652 -2.79876327,30.3346666 0.261187502,46.3346666 C3.32113827,62.3346666 36.6521586,52.8346666 36.6521586,67.3346666 C36.6521586,81.8346666 75.1895892,81.3346666 75.1895892,62.3346666 C75.1895892,43.3346666 78.6521586,28.0122127 60.6521586,10.2317905 Z" id="path-1"></path>
        <filter id="filter-3">
            <feColorMatrix in="SourceGraphic" type="matrix" values="0 0 0 0 0.270588 0 0 0 0 0.619608 0 0 0 0 1.000000 0 0 0 1.000000 0"></feColorMatrix>
        </filter>
        <polygon id="path-4" points="0.00527086384 0.0292532943 59.8208785 0.0292532943 59.8208785 60.0000878 0.00527086384 60.0000878"></polygon>
    </defs>
    <g id="网页" stroke="none" stroke-width="1" fill="none" fill-rule="evenodd">
        <g id="首页" transform="translate(-659.000000, -1003.000000)">
            <g id="编组-3" transform="translate(325.000000, 904.000000)">
                <g id="编组" transform="translate(338.000000, 90.000000)">
                    <mask id="mask-2" fill="white">
                        <use xlink:href="#path-1"></use>
                    </mask>
                    <use id="bgicon" fill-opacity="0.2" fill="#FFFFFF" xlink:href="#path-1"></use>
                    <g mask="url(#mask-2)" id="Color/Blue" opacity="0.099887085">
                        <g transform="translate(-0.982548, -0.000000)">
                            <g transform="translate(39.000000, 39.000000) rotate(-270.000000) translate(-39.000000, -39.000000) ">
                                <rect id="Rectangle" fill="#459EFF" x="0" y="0" width="78" height="78"></rect>
                            </g>
                        </g>
                    </g>
                </g>
                <g id="oosyunweibianpai" transform="translate(334.000000, 99.000000)" filter="url(#filter-3)">
                    <g transform="translate(0.000000, 0.000000)">
                        <mask id="mask-5" fill="white">
                            <use xlink:href="#path-4"></use>
                        </mask>
                        <g id="Clip-2"></g>
                        <path d="M50.3754905,17.7206442 L50.3754905,20.4192387 C50.3754905,21.169019 49.7756662,21.7684919 49.0258858,21.7684919 L14.9927965,21.7684919 C11.9942899,21.7684919 9.59534407,19.3698097 9.59534407,16.3713909 C9.59534407,13.3728843 11.9942899,10.9738507 14.9927965,10.9738507 L28.6359883,10.9738507 L28.6359883,7.97534407 C26.986735,7.52547584 25.9373939,5.8763104 25.9373939,4.2270571 C25.9373939,1.97841874 27.7365154,0.0292532943 29.9852416,0.0292532943 C32.2343192,0.0292532943 34.0334407,1.82846266 34.0334407,4.07710102 C34.0334407,5.8763104 32.8341435,7.37551977 31.3344949,7.97534407 L31.3344949,10.9738507 L49.0258858,10.9738507 C49.7756662,10.9738507 50.3754905,11.573675 50.3754905,12.3231918 L50.3754905,15.0220498 L58.4716252,15.0220498 C59.2210542,15.0220498 59.8208785,15.6216105 59.8208785,16.3713909 L59.8208785,30.0144949 C59.8208785,30.7643631 59.2210542,31.363836 58.4716252,31.363836 L50.0755783,31.363836 C49.475754,33.7627818 47.3770717,35.4120351 44.828082,35.4120351 L10.9445974,35.4120351 C10.1951684,35.4120351 9.59534407,34.8122108 9.59534407,34.062694 L9.59534407,31.363836 L2.84855051,31.363836 L2.84855051,42.3087848 L9.89525622,42.3087848 C10.4947291,39.9097511 12.5937628,38.2605857 15.1427526,38.2605857 L49.1758419,38.2605857 C49.9256223,38.2605857 50.5254466,38.86041 50.5254466,39.6098389 L50.5254466,47.7058858 C50.5254466,48.4556662 49.9256223,49.0551391 49.1758419,49.0551391 L31.3344949,49.0551391 L31.3344949,52.0539971 C32.9837482,52.65347 34.0334407,54.1527672 34.0334407,55.9518887 C34.0334407,58.2009663 32.2343192,60.0000878 29.9852416,60.0000878 C27.7365154,60.0000878 25.9373939,58.2009663 25.9373939,55.9518887 C25.9373939,54.1527672 27.1366911,52.65347 28.6359883,52.0539971 L28.6359883,49.0551391 L14.9927965,49.0551391 C12.4438067,49.0551391 10.3451245,47.256369 9.74530015,45.0072914 L1.34925329,45.0072914 C0.599824305,45.0072914 0,44.4074671 0,43.6580381 L0,30.0144949 C0,29.2650659 0.599824305,28.6652416 1.34925329,28.6652416 L9.44538799,28.6652416 L9.44538799,25.9666471 C9.44538799,25.2168668 10.0452123,24.6173939 10.7946413,24.6173939 L44.9780381,24.6173939 C47.5266764,24.6173939 49.6257101,26.4165154 50.2255344,28.6652416 L57.2718887,28.6652416 L57.2718887,17.7206442 L50.3754905,17.7206442 Z M14.9927965,19.0698975 C16.4920059,19.0698975 17.6913909,17.8706003 17.6913909,16.3713909 C17.6913909,14.8720937 16.4920059,13.6727965 14.9927965,13.6727965 C13.4935871,13.6727965 12.2938507,14.8720937 12.2938507,16.3713909 C12.2938507,17.8706003 13.4935871,19.0698975 14.9927965,19.0698975 Z M14.9927965,46.3566325 C16.4920059,46.3566325 17.6913909,45.1572474 17.6913909,43.6580381 C17.6913909,42.1588287 16.4920059,40.9594436 14.9927965,40.9594436 C13.4935871,40.9594436 12.2938507,42.1588287 12.2938507,43.6580381 C12.2938507,45.1572474 13.4935871,46.3566325 14.9927965,46.3566325 Z M44.9780381,32.7134407 C46.4772474,32.7134407 47.6766325,31.5137921 47.6766325,30.0144949 C47.6766325,28.5152855 46.4772474,27.3159883 44.9780381,27.3159883 C43.4788287,27.3159883 42.2794436,28.5152855 42.2794436,30.0144949 C42.2794436,31.5137921 43.4788287,32.7134407 44.9780381,32.7134407 Z" id="Fill-1" fill="#FF6A00" mask="url(#mask-5)"></path>
                    </g>
                </g>
            </g>
        </g>
    </g>
</svg>