<?xml version="1.0" encoding="UTF-8"?>
<svg width="61px" height="60px" viewBox="0 0 61 60" version="1.1" xmlns="http://www.w3.org/2000/svg" xmlns:xlink="http://www.w3.org/1999/xlink">
    <title>icon/home/desktop 5</title>
    <defs>
        <filter id="filter-1">
            <feColorMatrix in="SourceGraphic" type="matrix" values="0 0 0 0 0.270588 0 0 0 0 0.619608 0 0 0 0 1.000000 0 0 0 1.000000 0"></feColorMatrix>
        </filter>
    </defs>
    <g id="网页" stroke="none" stroke-width="1" fill="none" fill-rule="evenodd">
        <g id="首页" transform="translate(-1336.000000, -1003.000000)">
            <g id="编组-3" transform="translate(325.000000, 904.000000)">
                <g id="webxWebyingyongtuoguanfuwuqi" transform="translate(1011.000000, 99.000000)" filter="url(#filter-1)">
                    <g transform="translate(0.079787, 0.000000)">
                        <path d="M11.4055053,23.1868883 C10.4577128,25.5072606 9.90231383,28.0891755 9.90231383,30.6706915 C9.90231383,32.8605319 10.2943883,35.0172606 10.9807181,36.9455585 C12.2226862,34.9193617 13.8568085,32.5989894 15.8829255,30.1480851 C15.6214628,29.592367 15.3272872,28.9060372 15.3272872,28.2525 C15.3272872,27.6967819 15.4581383,27.3047074 15.58875,26.8799202 C13.7258777,25.4745479 12.3532979,24.2652926 11.4055053,23.1868883 Z M18.497234,47.0111968 C19.1835638,46.4557979 19.7392021,45.9327926 20.3928191,45.5080053 C25.9813564,41.2920479 31.0141755,38.8411436 34.9685904,37.4685638 C34.9685904,37.2070213 34.8377394,36.9128457 34.8377394,36.6513032 L34.8377394,36.226516 C33.4651596,35.8017287 31.9619681,35.4096543 30.6221011,34.8539362 C27.0924734,33.6122074 24.0857713,32.1414894 21.5039362,30.7689096 C20.8176064,31.4551596 19.8698138,31.847234 18.9223404,31.847234 C18.3666223,31.847234 17.9745479,31.7167021 17.5497606,31.5857713 C14.9679255,34.5924734 13.2029521,37.4357713 11.9612234,39.6252926 C13.5953457,42.6647074 15.7847872,45.0832181 18.497234,47.0111968 Z M31.4389628,32.8605319 C32.9421543,33.4159309 34.4456649,33.8083245 35.9488564,34.2331117 C36.34125,33.8410372 36.7660372,33.5467819 37.1908245,33.4159309 C36.7660372,31.9127394 36.2430319,30.4095479 35.5567819,28.9060372 C34.6089894,26.7165957 33.5305851,24.6900798 32.4194681,22.9254255 C32.0270745,23.0563564 31.7332181,23.0563564 31.3408245,23.0563564 C30.523883,23.0563564 29.7070213,22.7948138 29.0207713,22.2391755 C27.5172606,23.1868883 26.0140691,24.1346809 24.3799468,25.3764096 L22.3538298,27.0104521 C22.4844415,27.4028457 22.6149734,27.9582447 22.6149734,28.3830319 L22.6149734,28.93875 C25.0335638,30.1152926 28.040266,31.618484 31.4389628,32.8605319 Z M50.4919149,30.6706915 C50.4919149,24.9516223 48.0409309,19.6572606 43.9555851,16.0952394 C41.9294681,16.4873138 38.7921543,17.3372074 34.9685904,18.9385372 L34.9685904,19.3306117 C34.9685904,20.1475532 34.7071277,20.8338032 34.2823404,21.520133 C35.5239894,23.4157181 36.6027128,25.6054787 37.681117,28.0564628 C38.367367,29.821117 39.0536968,31.5857713 39.5766223,33.2198936 C40.6550266,33.4813564 41.6028191,34.2985372 42.1582181,35.4096543 C42.9753989,35.540266 43.7922606,35.540266 44.6094415,35.540266 C46.6356383,35.671117 48.563617,35.540266 50.0671277,35.540266 C50.2304521,33.8083245 50.4919149,32.3048138 50.4919149,30.6706915 Z M30.1969947,15.8336968 C30.5893883,15.7031649 30.8832447,15.7031649 31.2756383,15.7031649 C32.3540426,15.7031649 33.3018351,16.0952394 33.9880851,16.9448138 C36.9947872,15.572234 39.5766223,14.7553723 41.6028191,14.232367 C38.3346543,12.0429255 34.3801596,10.7027394 30.1645213,10.7027394 C28.6610904,10.7027394 27.0269681,10.8335904 25.6543883,11.2584574 C26.9291489,12.4022074 28.5631915,13.9053989 30.1969947,15.8336968 Z M39.478484,48.3510638 C39.6090957,46.3249468 39.478484,43.5797074 38.7921543,40.1810106 L38.5306915,40.1810106 C37.5828989,40.1810106 36.7660372,39.9194681 36.2103191,39.3640691 C32.3867553,40.7366489 27.3539362,43.0243085 21.8963298,47.2726596 C21.5039362,47.5342021 21.0790691,47.9589894 20.5236702,48.2204521 C23.3994415,49.7236436 26.6676064,50.5408245 30.066383,50.5408245 C33.4651596,50.6714362 36.7333245,49.8545745 39.478484,48.3510638 Z M12.5166223,20.9974468 C13.4644149,22.0758511 14.9679255,23.5789628 17.157367,25.2130851 C17.7130851,24.9516223 18.3993351,24.6576862 19.0529521,24.6576862 C19.7392021,24.6576862 20.4255319,24.7882979 20.9485372,25.2130851 L22.9746543,23.5789628 C24.6087766,22.3373138 26.2428191,21.2585904 27.7460106,20.311117 C27.6153989,20.0496543 27.6153989,19.7554787 27.6153989,19.3634043 C27.6153989,18.5461436 27.8769415,17.8598936 28.3017287,17.1735638 C26.2755319,14.8859043 24.4778457,13.0885372 23.007367,12.010133 C18.497234,13.6442553 14.8369947,16.9121011 12.5166223,20.9974468 Z M44.086516,37.7300266 C43.6944415,37.7300266 43.0081117,37.7300266 42.0603191,37.9914894 C41.7988564,38.5468883 41.5046011,38.9389628 41.1125266,39.3640691 C41.6679255,42.3704521 41.9294681,44.9522872 41.9294681,46.978484 C45.197633,44.6581117 47.7794681,41.5208777 49.2826596,37.7300266 L44.086516,37.7300266 Z" id="Fill-1" fill="#FF6A00"></path>
                        <path d="M39.478484,2.89196809 C38.922766,1.25824468 37.4522872,0.0161968085 35.5239894,0.0161968085 C33.3345479,0.0161968085 31.4389628,1.78085106 31.4389628,3.97069149 C31.4389628,6.16013298 33.203617,7.92510638 35.5239894,7.92510638 C36.6027128,7.92510638 37.7138298,7.53271277 38.4000798,6.6831383 C48.5963298,10.212766 55.8189894,19.624867 55.8189894,30.6382979 C55.8189894,33.3507447 55.4265957,35.9650532 54.5769415,38.4162766 L58.1066489,40.4424734 C59.1849734,37.4357713 59.8713963,34.0370745 59.8713963,30.6382979 C59.904016,17.7292819 51.3087766,6.71585106 39.478484,2.89196809 Z M51.047633,44.5602128 C48.8578723,44.5602128 46.9622872,46.3249468 46.9622872,48.5147074 C46.9622872,48.9394947 47.0931383,49.2009574 47.0931383,49.5930319 C42.5830053,53.5475266 36.6027128,55.9985106 30.066383,55.9985106 C22.5825798,55.9985106 15.7520745,52.7303457 11.0134309,47.6975266 L7.35319149,49.7236436 C12.8107979,55.9985106 20.98125,59.9202128 29.9682447,59.9202128 C37.5828989,59.9202128 44.6746277,57.0444415 49.8383777,52.3055585 C50.0998404,52.4364096 50.3937766,52.4364096 50.7861702,52.4364096 C52.9756117,52.4364096 54.8711968,50.6714362 54.8711968,48.4819947 C54.8711968,46.2921543 53.2370745,44.5602128 51.047633,44.5602128 Z M5.03281915,35.5729787 C4.77135638,33.9388564 4.47710106,32.4356649 4.47710106,30.6706915 C4.47710106,18.5461436 13.2029521,8.48050532 24.7721011,6.02952128 L24.7721011,1.94449468 C10.8828191,4.39547872 0.392074468,16.3567021 0.392074468,30.6706915 C0.392074468,32.6972074 0.653537234,34.7560372 1.07840426,36.6513032 C0.392074468,37.337633 0,38.2854255 0,39.3640691 C0,41.5535904 1.76465426,43.3182447 4.0850266,43.3182447 C6.27486702,43.3182447 8.17005319,41.5535904 8.17005319,39.3640691 C8.13765957,37.4685638 6.7974734,35.9650532 5.03281915,35.5729787 Z" id="Fill-2" fill="#FF6A00"></path>
                    </g>
                </g>
            </g>
        </g>
    </g>
</svg>