<?xml version="1.0" encoding="UTF-8"?>
<svg width="60px" height="60px" viewBox="0 0 60 60" version="1.1" xmlns="http://www.w3.org/2000/svg" xmlns:xlink="http://www.w3.org/1999/xlink">
    <title>icon/home/desktop 4</title>
    <defs>
        <filter id="filter-1">
            <feColorMatrix in="SourceGraphic" type="matrix" values="0 0 0 0 0.270588 0 0 0 0 0.619608 0 0 0 0 1.000000 0 0 0 1.000000 0"></feColorMatrix>
        </filter>
        <polygon id="path-2" points="0.00501392758 0.0167130919 59.899805 0.0167130919 59.899805 59.9165181 0.00501392758 59.9165181"></polygon>
    </defs>
    <g id="网页" stroke="none" stroke-width="1" fill="none" fill-rule="evenodd">
        <g id="首页" transform="translate(-998.000000, -1003.000000)">
            <g id="编组-3" transform="translate(325.000000, 904.000000)">
                <g id="alinuxAliyunLinux2" transform="translate(673.000000, 99.000000)" filter="url(#filter-1)">
                    <g>
                        <mask id="mask-3" fill="white">
                            <use xlink:href="#path-2"></use>
                        </mask>
                        <g id="Clip-2"></g>
                        <path d="M0,24.1720613 L4.04607242,26.5138162 L4.04607242,40.2378552 L29.9496936,55.2312535 L55.8537326,40.2378552 L55.8520613,26.6607242 L59.899805,24.3176323 L59.899805,42.5811978 L29.9496936,59.9165181 L0,42.5811978 L0,24.1720613 Z M7.56727019,27.9984401 L28.8117827,40.5116992 L28.8117827,49.8945125 L7.56727019,37.3799164 L7.56727019,27.9984401 Z M52.586156,27.9272423 L52.586156,37.3100557 L31.3403064,49.7547911 L31.3403064,40.3706407 L52.586156,27.9285794 L52.586156,27.9272423 Z M7.56727019,16.245376 L28.8117827,28.7586351 L28.8117827,38.1427855 L7.56727019,25.6240111 L7.56727019,16.2424513 L7.56727019,16.245376 Z M52.586156,16.245376 L52.586156,25.6266017 L31.3403064,38.0716713 L31.3403064,28.6887744 L52.586156,16.245376 Z M12.1195822,33.5764345 C11.1412813,33.5764345 10.3484123,34.3706407 10.3484123,35.3518663 C10.3484123,36.3317549 11.1412813,37.125961 12.1195822,37.125961 C13.0966295,37.125961 13.8894986,36.3317549 13.8894986,35.3518663 C13.8894986,34.3706407 13.0966295,33.5764345 12.1195822,33.5764345 Z M30.075376,0.0167130919 L52.586156,13.2017549 L30.0767131,26.3868802 L7.56727019,13.2017549 L30.0767131,0.0167130919 L30.075376,0.0167130919 Z M11.994234,21.8230362 C11.0871309,21.8230362 10.3497493,22.5604178 10.3497493,23.470195 C10.3497493,24.3815599 11.0871309,25.1190251 11.994234,25.1190251 C12.9026741,25.1190251 13.638468,24.3815599 13.638468,23.470195 C13.638468,22.5604178 12.9026741,21.8230362 11.994234,21.8230362 Z" id="Fill-1" fill="#FF6A00" mask="url(#mask-3)"></path>
                    </g>
                </g>
            </g>
        </g>
    </g>
</svg>