<?xml version="1.0" encoding="UTF-8"?>
<svg width="60px" height="60px" viewBox="0 0 60 60" version="1.1" xmlns="http://www.w3.org/2000/svg" xmlns:xlink="http://www.w3.org/1999/xlink">
    <title>icon/home/desktop 2</title>
    <defs>
        <filter id="filter-1">
            <feColorMatrix in="SourceGraphic" type="matrix" values="0 0 0 0 0.270588 0 0 0 0 0.619608 0 0 0 0 1.000000 0 0 0 1.000000 0"></feColorMatrix>
        </filter>
        <polygon id="path-2" points="0 0 53.5714286 0 53.5714286 60 0 60"></polygon>
    </defs>
    <g id="网页" stroke="none" stroke-width="1" fill="none" fill-rule="evenodd">
        <g id="首页" transform="translate(-326.000000, -1000.000000)">
            <g id="编组-3" transform="translate(325.000000, 904.000000)">
                <g id="icon/home/desktop" transform="translate(1.000000, 96.000000)">
                    <polygon id="路径" points="50.9932067 48.3371879 49.4461312 46.0888968 54.0874454 43.4543266 54.0874454 16.3701154 40.1998675 8.4661477 41.5308636 6.21785654 56.7857143 14.8595622 56.7857143 44.9648798"></polygon>
                    <polygon id="路径" points="5.91255462 32.7047247 3.21428571 32.7047247 3.21428571 15.0351202 30.5577219 -3.80647894e-15 36.7097469 3.3723081 35.3427376 5.83123451 30.5217087 3.02119217 5.91255462 16.5456734"></polygon>
                    <polygon id="路径" points="29.9819495 60 3.21428571 45.1404378 3.21428571 37.7986501 5.91255462 37.7986501 5.91255462 43.6298846 29.9819495 56.9788078 45.5964054 48.3371879 46.9636782 50.5853933"></polygon>
                    <polygon id="路径" points="50.9932067 48.3371879 49.4461312 46.0888968 54.0874454 43.4543266 54.0874454 16.3701154 40.1998675 8.4661477 41.5308636 6.21785654 56.7857143 14.8595622 56.7857143 44.9648798"></polygon>
                    <g filter="url(#filter-1)" id="数据仓库即服务">
                        <g transform="translate(3.214286, 0.000000)">
                            <mask id="mask-3" fill="white">
                                <use xlink:href="#path-2"></use>
                            </mask>
                            <g id="Clip-2"></g>
                            <path d="M47.778921,48.3371879 L46.2318455,46.0888968 L50.8731597,43.4543266 L50.8731597,16.3701154 L36.9855818,8.4661477 L38.3165779,6.21785654 L53.5714286,14.8595622 L53.5714286,44.9648798 L47.778921,48.3371879 Z M2.69826891,32.7047247 L0,32.7047247 L0,15.0351202 L27.3434362,0 L33.4954612,3.3723081 L32.1284519,5.83123451 L27.3074229,3.02119217 L2.69826891,16.5456734 L2.69826891,32.7047247 Z M26.7676638,60 L0,45.1404378 L0,37.7986501 L2.69826891,37.7986501 L2.69826891,43.6298846 L26.7676638,56.9788078 L42.3821196,48.3371879 L43.7493925,50.5853933 L26.7676638,60 Z M25.0407857,17.4941323 L19.0685633,14.0866612 L19.0685633,12.013928 L26.9834796,7.48252568 L34.6829314,12.013928 L34.6829314,14.0866612 L28.8905116,17.4589693 L28.7103576,19.5316167 L26.9834796,18.4073425 L25.0407857,19.5316167 L25.0407857,17.4941323 Z M37.2013977,31.0186135 L37.2013977,24.2740831 L31.2288239,20.9015177 L31.2288239,18.8291276 L38.9283635,14.5081032 L46.8436312,18.8291276 L46.8436312,27.6815543 L38.9283635,32.0022356 L37.2013977,31.0186135 Z M19.0685633,47.950909 L19.0685633,39.3092033 L20.7954414,38.1849291 L26.7676638,41.5574944 L32.9200401,38.1849291 L34.6469181,39.1333023 L34.6469181,47.9857289 L26.7316505,52.5174743 L19.0685633,47.950909 Z M37.2013977,44.5782578 L37.2013977,37.7986501 L35.2583524,36.6742901 L37.2013977,35.7259169 L37.2013977,33.6535267 L38.9283635,34.7774579 L44.9005859,31.4052356 L46.8436312,32.3536088 L46.8436312,41.2060355 L38.9283635,45.5267168 L37.2013977,44.5782578 Z M19.0685633,34.4259989 L19.0685633,25.573658 L26.9834796,21.2529767 L34.6829314,25.573658 L34.6829314,34.4259989 L26.7676638,38.7470233 L19.0685633,34.4259989 Z M6.72779741,41.1708724 L6.90795137,32.3184457 L8.63482941,31.3700725 L14.6070518,34.7422949 L16.5497457,33.6182779 L16.5497457,35.6907538 L18.4927909,36.8150281 L16.5497457,37.763487 L16.5497457,44.5430947 L14.6070518,45.4918968 L6.72779741,41.1708724 Z M6.72779741,27.6463912 L6.90795137,18.7939645 L14.8228676,14.4729402 L22.5223194,18.7939645 L22.5223194,20.8663547 L16.5497457,24.2389201 L16.5497457,30.8078925 L14.6070518,31.9321668 L6.72779741,27.6463912 Z" id="Fill-1" fill="#FF6A00" mask="url(#mask-3)"></path>
                            <polygon id="路径" mask="url(#mask-3)" points="25.0407857 17.4941323 19.0685633 14.0866612 19.0685633 12.013928 26.9834796 7.48252568 34.6829314 12.013928 34.6829314 14.0866612 28.8905116 17.4589693 28.7103576 19.5316167 26.9834796 18.4073425 25.0407857 19.5316167"></polygon>
                            <polygon id="路径" mask="url(#mask-3)" points="37.2013977 31.0186135 37.2013977 24.2740831 31.2288239 20.9015177 31.2288239 18.8291276 38.9283635 14.5081032 46.8436312 18.8291276 46.8436312 27.6815543 38.9283635 32.0022356"></polygon>
                        </g>
                    </g>
                </g>
            </g>
        </g>
    </g>
</svg>