<?xml version="1.0" encoding="UTF-8"?>
<svg width="54px" height="48px" viewBox="0 0 54 48" version="1.1" xmlns="http://www.w3.org/2000/svg" xmlns:xlink="http://www.w3.org/1999/xlink">
    <title>icon/home/desktop</title>
    <defs>
        <filter id="filter-1">
            <feColorMatrix in="SourceGraphic" type="matrix" values="0 0 0 0 0.270588 0 0 0 0 0.619608 0 0 0 0 1.000000 0 0 0 1.000000 0"></feColorMatrix>
        </filter>
        <polygon id="path-2" points="0 0 56 0 56 56 0 56"></polygon>
    </defs>
    <g id="网页" stroke="none" stroke-width="1" fill="none" fill-rule="evenodd">
        <g id="产品介绍" transform="translate(-1390.000000, -2915.000000)">
            <g id="产品功能" transform="translate(0.000000, 2060.000000)">
                <g id="Icon" transform="translate(462.000000, 380.000000)">
                    <g id="编组-3" transform="translate(10.000000, 11.000000)">
                        <g id="haomiaojishijianchuozhuandatetime" transform="translate(917.000000, 460.000000)" filter="url(#filter-1)">
                            <g>
                                <mask id="mask-3" fill="white">
                                    <use xlink:href="#path-2"></use>
                                </mask>
                                <g id="Clip-2"></g>
                                <path d="M30.7688432,48.0211663 L5.14934805,48.0211663 L5.14934805,15.9723027 L40.6438801,15.9723027 L40.6438801,21.4290879 C41.8606602,21.1448052 43.1235738,20.9803241 44.427598,20.9803241 C44.957708,20.9803241 45.4832587,21.0102367 46,21.0572637 L46,13.1501306 C46,11.4104328 44.5607437,10 42.7854935,10 L37.0794796,10 L28.8584381,10.0021204 L17.9302025,10.0021204 L9.57518563,10.0021204 L4.2145065,10.0021204 C2.4392563,10.0021204 1,11.4128561 1,13.1524782 L1,48.8499451 C1,50.5895672 2.4392563,52 4.2145065,52 L36.5307368,52 C34.1994893,50.7327687 32.2478887,49.6501777 30.7688432,48.0211663 Z M11,9.99999738 L17,9.99999738 L17,11.9999974 C17,13.6568516 15.6568542,14.9999974 14,14.9999974 C12.3431458,14.9999974 11,13.6568516 11,11.9999974 L11,9.99999738 L11,9.99999738 Z M30,9.99999738 L36,9.99999738 L36,11.9999974 C36,13.6568516 34.6568542,14.9999974 33,14.9999974 C31.3431458,14.9999974 30,13.6568516 30,11.9999974 L30,9.99999738 L30,9.99999738 Z M26.7703077,29.524506 C25.9031424,28.5142183 24.6456621,28 23.0304875,28 C21.2574199,28 19.8274731,28.5733462 18.7661697,29.7053466 C18.4762085,29.3292615 18.1246305,29.0059665 17.7113602,28.739855 C16.9483242,28.2500512 16.0595629,28 15.0709008,28 C13.6898094,28 12.5326829,28.3294166 11.6079785,28.9798235 L11.6079785,28.2764824 L8,28.2764824 L8,40.9980555 L11.6059397,40.9980555 L11.6059397,33.8597118 C11.6059397,32.9836682 11.8380597,32.3110073 12.3152875,31.8029107 C12.7715989,31.317068 13.3341539,31.0813486 14.0393486,31.0813486 C15.1221726,31.0813486 16.2280273,31.380085 16.2280273,33.5955448 L16.2280273,40.9980555 L19.7911524,40.9980555 L19.7911524,33.8394744 C19.7911524,33.0629615 20.0342215,32.4125546 20.5327433,31.8577894 C21.0037793,31.335361 21.5580281,31.0813486 22.2249389,31.0813486 C23.3180323,31.0813486 24.4347606,31.4045716 24.4347606,33.800944 L24.4347606,41 L27.4970985,41 C27.3009216,40.0449512 27.1924127,39.0611666 27.1924127,38.0508789 C27.1924127,36.3862953 27.4823739,34.7886176 28,33.2885982 C27.9531078,31.7033799 27.5484458,30.4289252 26.7703077,29.524506 Z M32.904483,14 L33.0952889,14 C34.1478104,14 35,13.0446197 35,11.8686925 L35,6.13130745 C35,4.95363605 34.1461939,4 33.0952889,4 L32.904483,4 C31.8520192,4 31,4.95538027 31,6.13130745 L31,11.8686925 C30.9982131,13.0466224 31.8520192,14 32.904483,14 Z M13.9047124,14 L14.0952876,14 C15.147752,14 16,13.04462 16,11.8686931 L16,6.13130933 C16,4.95363821 15.1461933,4 14.0952876,4 L13.9047124,4 C12.852017,3.99825816 12,4.95363821 12,6.13130933 L12,11.8686931 C12,13.0466226 12.852017,14 13.9047124,14 Z M52.8771693,30.9109759 C50.4514132,27.097308 47.0059962,25.0794055 42.6653974,24.7265181 L42.6653974,23.8426762 C43.0582531,23.7874869 43.562668,23.8676738 43.757007,23.6476467 C43.9688303,23.4096019 43.9056237,22.8918767 43.9361826,22.4933769 C43.9624865,22.1544491 43.7681475,22.0009739 43.4602377,22.0009739 C42.5257549,21.9987826 41.5935157,22.0009739 40.6588008,22.0009739 C40.3641203,22.0009739 40.202429,22.1430054 40.2048273,22.4657822 C40.2090824,22.7498452 40.2090824,23.0339082 40.2048273,23.3179713 C40.202429,23.6409915 40.3683754,23.780507 40.6588008,23.783023 C40.8815325,23.7852955 41.1041868,23.783023 41.3269185,23.783023 L41.3269185,24.7404777 C37.5826433,25.0039259 34.4798726,26.5865627 32.0782541,29.5572127 C29.6742373,32.5328946 28.698442,36.0050375 29.0803893,39.8829847 C29.7071945,46.2437239 34.7222548,51.5875986 41.226577,51.9769273 C48.1981793,52.3938507 53.9841744,47.109548 54.8659722,40.2516985 C55.3026934,36.8939924 54.6804527,33.7443016 52.8771693,30.9109759 Z M41.9836012,48 C36.4303597,47.9818826 32.0072498,43.7781865 32,38.5054671 C31.990509,33.2283526 36.4658604,28.9841426 42.0168304,29 C47.5699878,29.0177844 51.9977245,33.2283526 52,38.4941999 C52.0049592,43.776029 47.5342348,48.0180814 41.9836012,48 Z M47.9940268,37.3178646 C47.9940268,36.7664736 47.9297461,36.6965321 47.4101939,36.6965321 L43.835057,36.6965321 L43.835057,36.2548671 C43.835057,34.325034 43.8292804,32.393148 43.8408335,30.4630318 C43.842647,30.1295354 43.7421622,29.9834936 43.4160568,30.0014745 C43.0655018,30.02165 42.7109838,30.0136506 42.3602273,30.0037398 C42.1080749,29.9937583 42,30.0916622 42,30.3693045 C42.0057094,33.1162779 42.0038958,35.8633222 42.0018136,38.6122778 C42,38.8802217 42.1043806,39 42.3544508,39 C44.1155547,38.9980179 45.8765914,38.9980179 47.6395088,39 C47.8840712,39 48.0055799,38.8880087 47.9998033,38.6183658 C47.9882503,38.184771 47.9958404,37.7514594 47.9940268,37.3178646 Z" id="Fill-1" fill="#424242" mask="url(#mask-3)"></path>
                            </g>
                        </g>
                    </g>
                </g>
            </g>
        </g>
    </g>
</svg>