<?xml version="1.0" encoding="UTF-8"?>
<svg width="572px" height="391px" viewBox="0 0 572 391" version="1.1" xmlns="http://www.w3.org/2000/svg" xmlns:xlink="http://www.w3.org/1999/xlink">
    <title>切片</title>
    <defs>
        <rect id="path-1" x="0.369739193" y="0.147523761" width="61.282748" height="41.2650043" rx="18.06"></rect>
        <rect id="path-3" x="0.210363322" y="0.0151250215" width="74.8938322" height="50.4304386" rx="22.08"></rect>
        <linearGradient x1="49.717623%" y1="112.312774%" x2="50.782908%" y2="-122.462972%" id="linearGradient-5">
            <stop stop-color="#FFFFFF" offset="0%"></stop>
            <stop stop-color="#FDA118" offset="100%"></stop>
        </linearGradient>
        <linearGradient x1="53.339286%" y1="17.4004516%" x2="48.011217%" y2="79.9940414%" id="linearGradient-6">
            <stop stop-color="#B0D8FF" offset="0%"></stop>
            <stop stop-color="#2965F9" offset="100%"></stop>
        </linearGradient>
        <path d="M275.89924,332.548258 C274.522589,334.149996 272.545895,335.074911 270.463786,335.091564 L49.479681,335.091564 C48.2793656,335.091564 47.0988276,334.778061 46.04845,334.182418 L160.678824,249.645056 L275.89924,332.548258 Z" id="path-7"></path>
        <linearGradient x1="51.6002117%" y1="-45.6679297%" x2="46.4958185%" y2="183.957058%" id="linearGradient-9">
            <stop stop-color="#B0D8FF" offset="0%"></stop>
            <stop stop-color="#2965F9" offset="100%"></stop>
        </linearGradient>
        <path d="M160.678824,249.645056 L46.04845,334.182418 C43.543972,332.768558 41.8250803,329.858635 41.8250803,326.494962 L41.8250803,169.490662 C41.8190508,167.904987 42.2146328,166.344862 42.9731691,164.96302 L160.678824,249.645056 Z" id="path-10"></path>
        <linearGradient x1="52.5665258%" y1="-42.6401938%" x2="47.4712462%" y2="188.171182%" id="linearGradient-12">
            <stop stop-color="#B0D8FF" offset="0%"></stop>
            <stop stop-color="#2965F9" offset="100%"></stop>
        </linearGradient>
        <path d="M122.921696,13.6289596 L122.921696,170.649699 C122.937849,172.879517 122.147178,175.036345 120.70237,176.702996 L5.48195274,93.7915736 L121.321274,8.36479451 C122.371842,9.90807947 122.930809,11.7469408 122.921696,13.6289596 Z" id="path-13"></path>
        <linearGradient x1="14.6480845%" y1="14.6469724%" x2="85.3560507%" y2="85.3549386%" id="linearGradient-15">
            <stop stop-color="#3E50EE" offset="0%"></stop>
            <stop stop-color="#0D0D7F" offset="100%"></stop>
        </linearGradient>
        <linearGradient x1="101.67535%" y1="40.7345398%" x2="20.7122695%" y2="66.4064726%" id="linearGradient-16">
            <stop stop-color="#FFFFFF" offset="3%"></stop>
            <stop stop-color="#EAEFFF" offset="12%"></stop>
            <stop stop-color="#BDCDFF" offset="32%"></stop>
            <stop stop-color="#9AB3FE" offset="52%"></stop>
            <stop stop-color="#81A0FE" offset="70%"></stop>
            <stop stop-color="#7194FE" offset="87%"></stop>
            <stop stop-color="#6C90FE" offset="100%"></stop>
        </linearGradient>
        <linearGradient x1="50.1595181%" y1="121.038634%" x2="49.2672407%" y2="-5.0530715%" id="linearGradient-17">
            <stop stop-color="#3E50EE" offset="0%"></stop>
            <stop stop-color="#0D0D7F" offset="100%"></stop>
        </linearGradient>
        <linearGradient x1="678.199066%" y1="8.23433862%" x2="667.60829%" y2="26.6474595%" id="linearGradient-18">
            <stop stop-color="#001AFF" offset="0%"></stop>
            <stop stop-color="#2C2CCE" offset="100%"></stop>
        </linearGradient>
        <path d="M38.3582767,78.222556 C37.6848575,74.5284339 29.7866127,76.0853247 24.1587525,69.7804924 C18.5308922,63.47566 11.8351816,58.2279352 17.4245607,43.878893 C23.0139399,29.5298509 27.6493085,15.1232679 27.6493085,15.1232679 C27.6493085,15.1232679 5.82732057,12.9860366 5.65415564,3.94390416 C5.48099071,-5.09822827 2.55963421,5.00429969 2.55963421,5.00429969 L0.168996145,71.1746248 C0.168996145,71.1746248 23.01875,83.4176721 23.4179914,83.136544 C23.8172327,82.8554159 36.2257827,87.5162241 36.4550659,86.5002172 C36.6843491,85.4842104 38.3582767,78.222556 38.3582767,78.222556 Z" id="path-19"></path>
        <path d="M9.25418356,20.5236741 C9.25418356,20.5236741 4.03839173,19.1870826 1.70868207,14.7449295 C-0.621027588,10.3027764 -0.898412152,5.04518745 4.03839173,2.85370335 C8.97519561,0.662219255 11.5373952,4.57335254 11.5373952,4.57335254 C11.5373952,4.57335254 13.8190035,1.18173086 22.4820601,0.134487526 C31.1451168,-0.912755811 34.4512842,6.00858556 34.4512842,6.00858556 C34.4512842,6.00858556 39.0161042,5.48414187 41.7642958,11.3582399 C44.5124873,17.2323379 40.1801573,26.6098513 35.6169408,31.8066114 L31.0521208,36.9951514 L9.25418356,20.5236741 Z" id="path-21"></path>
        <path d="M96.8883952,19.7707852 C96.8883952,19.7707852 97.6339665,39.8755556 105.504954,40.4969967 C109.184709,40.6877035 110.635767,38.2052272 111.886402,39.1127285 C113.137038,40.0202298 114.355606,47.2309194 114.355606,47.2309194 C114.355606,47.2309194 120.595957,48.3291275 121.713512,41.4998514 C121.713512,41.4998514 119.710892,40.9277311 120.409965,35.2525599 C120.409965,35.2525599 114.774088,31.0011137 115.938141,26.9896949 C117.987259,25.0793389 118.081859,23.0736296 117.060506,21.5940079 C116.039154,20.1143862 115.756959,18.8238273 113.008768,19.5406218 C110.260576,20.2574163 107.557279,19.2529176 105.509764,17.0088117 C105.504954,17.0006046 103.316342,20.8689933 96.8883952,19.7707852 Z" id="path-23"></path>
        <path d="M0.124635993,33.3328074 C0.124635993,33.3328074 3.72582518,29.1931547 7.94912542,23.1398581 C12.1724257,17.0865614 20.9910101,5.50112377 25.7097544,1.6179389 C30.4284987,-2.26524598 37.5747589,3.01864741 36.2664016,8.35843761 C34.9580444,13.6982278 28.9084955,22.4312837 23.986122,27.6527042 C19.0637485,32.8741247 8.69469665,44.844264 8.69469665,44.844264 C8.69469665,44.844264 1.05940594,41.3556449 0.124635993,33.3328074 Z" id="path-25"></path>
        <path d="M36.9302005,3.20771018 C36.6496092,3.49377037 32.5016678,10.5301934 26.9427528,16.7396724 C21.3838379,22.9491513 -0.256968205,42.7793697 -0.256968205,42.7793697 L9.84431938,46.761196 L39.1637074,14.2867884 L38.5111322,7.69753993 L36.9302005,3.20771018 Z" id="path-27"></path>
        <path d="M59.1849939,0.0748578963 C59.1849939,0.0748578963 55.5998385,2.65268765 48.9859002,4.32466014 C42.3719619,5.99663262 19.1309835,12.2998209 19.1309835,12.2998209 C19.1309835,12.2998209 14.9381475,9.48196367 8.93028646,10.4371417 C2.92242542,11.3923196 -1.22391262,16.3112397 0.91339156,17.4571245 C3.05069574,18.6030093 12.7431217,17.2664177 17.3079416,17.4571245 C21.8727616,17.6478313 34.0744756,16.5019465 41.3874872,15.6897986 C48.7004987,14.8776507 65.2345428,13.7317659 66.8170778,12.0614374 L59.1849939,0.0748578963 Z" id="path-29"></path>
        <path d="M53.7832101,0.235205045 C52.7933379,1.25804287 51.7006997,2.17062367 50.5235406,2.95770892 C48.5369541,4.29594452 19.3265958,18.8537777 19.3265958,18.8537777 C19.3265958,18.8537777 13.6137565,16.1164776 8.95594053,17.8985997 C4.29812459,19.6807218 -3.2778411,24.7755525 2.37246643,25.1898465 C8.02277396,25.6041406 10.8815987,24.9662592 17.7745249,24.6489626 C24.6674512,24.331666 38.9503511,18.0893065 45.9058091,15.4785963 C52.8612672,12.8678861 59.8552063,10.7898396 60.9102297,9.26254125 L53.7832101,0.235205045 Z" id="path-31"></path>
        <linearGradient x1="62.8278245%" y1="51.8481307%" x2="-28.6437294%" y2="87.5595909%" id="linearGradient-33">
            <stop stop-color="#3E50EE" offset="0%"></stop>
            <stop stop-color="#0D0D7F" offset="100%"></stop>
        </linearGradient>
        <path d="M45.2762926,39.238278 C45.2538453,38.8091877 45.1367987,30.1353167 49.6054159,15.4887062 C54.0740331,0.842095656 62.1342192,-1.77354665 66.6012331,1.73315671 C71.0682469,5.23986006 64.8006385,14.3921421 62.0684807,22.8342057 C59.3363229,31.2762694 55.3615464,55.7936004 62.3170044,69.8664466 C69.2724625,83.9392927 58.1706664,85.2758842 46.0619483,86.5417828 C33.9532303,87.8076813 9.90254555,88.3962419 4.46869418,87.8865945 C-0.965157184,87.376947 -1.21368093,78.908579 2.94708753,77.3171637 C7.10785599,75.7257484 24.5574294,76.1663468 34.1215851,69.9946804 C43.6857407,63.823014 45.8038043,49.2355884 45.2762926,39.238278 Z" id="path-34"></path>
        <linearGradient x1="49.8991404%" y1="108.147802%" x2="50.0148323%" y2="41.8428438%" id="linearGradient-36">
            <stop stop-color="#3E50EE" offset="0%"></stop>
            <stop stop-color="#0D0D7F" offset="100%"></stop>
        </linearGradient>
    </defs>
    <g id="网页" stroke="none" stroke-width="1" fill="none" fill-rule="evenodd">
        <g id="加入我们" transform="translate(-999.000000, -149.000000)">
            <g id="banner" transform="translate(0.000000, 75.000000)">
                <g id="插画/关于我们（加入我们）" transform="translate(999.000000, 74.000000)">
                    <g id="关于我们（加入我们）" transform="translate(0.000000, 25.806000)">
                        <path d="M459.664062,336.012217 C459.664062,336.012217 465.077069,333.907866 468.179608,331.385933 C471.282146,328.864 466.938592,321.464248 476.036165,316.767271 C485.133737,312.070294 488.438301,323.178965 496.549795,318.455684 C504.66129,313.732403 499.217818,302.413297 521.980989,300.481569 C544.744161,298.54984 542.701456,330.896014 553.376753,336.214432 L459.664062,336.012217 Z" id="Path" fill="#E7ECFF"></path>
                        <rect id="Rectangle" fill="#0066CA" x="53.6548329" y="335.195137" width="510.857387" height="1.32015133"></rect>
                        <g id="Email" transform="translate(0.000000, 92.885366)">
                            <path d="M61.9074245,42.0314696 L6.41768471,42.0314696 C4.63763316,42.0296571 3.19505726,40.5505124 3.19328958,38.7253372 L3.19328958,3.40019186 C3.19505726,1.57501663 4.63763316,0.0958719291 6.41768471,0.0940594399 L61.9074245,0.0940594399 C63.7529137,0.0940594399 65.1318196,1.62628988 65.1318196,2.99576194 L65.1318196,38.3225513 C65.1318196,40.4712908 63.775361,42.0314696 61.9074245,42.0314696 Z M6.41768471,0.766465288 C5.00084989,0.766465288 3.85227834,1.94415273 3.85227834,3.39690381 L3.85227834,38.7253372 C3.85227834,40.1780883 5.00084989,41.3557757 6.41768471,41.3557757 L61.9074245,41.3557757 C63.3953602,41.3557757 64.4728309,40.078369 64.4728309,38.3192633 L64.4728309,2.99576194 C64.4728309,1.96495884 63.3504656,0.766465288 61.9074245,0.766465288 L6.41768471,0.766465288 Z" id="Shape" fill="#E88400" fill-rule="nonzero"></path>
                            <g id="Path-+-Path-Mask" transform="translate(0.000000, 3.519000)">
                                <mask id="mask-2" fill="white">
                                    <use xlink:href="#path-1"></use>
                                </mask>
                                <use id="Mask" fill="#FCAA23" xlink:href="#path-1"></use>
                                <polygon id="Path" fill="#E88400" mask="url(#mask-2)" points="-0.557013858 3.35008266 30.1605207 22.1856665 62.0212644 4.4450027 62.3259064 7.41411018 30.6944459 24.5300449 -1.62326088 5.06973185"></polygon>
                                <polygon id="Path" fill="#FFDC8F" mask="url(#mask-2)" points="-3.4527163 2.25845068 30.580606 22.8498522 62.8598316 4.83463641 61.727846 -0.393360161 -3.14807429 -0.393360161"></polygon>
                            </g>
                            <path d="M7.25304516,115.450297 C6.76600819,115.450297 6.37118672,115.045467 6.37118672,114.546084 L6.37118672,51.48132 C6.37118672,50.9819368 6.76600819,50.5771068 7.25304516,50.5771068 C7.74008213,50.5771068 8.1349036,50.9819368 8.1349036,51.48132 L8.1349036,114.546084 C8.1349036,115.045467 7.74008213,115.450297 7.25304516,115.450297 Z" id="Path" fill="#FFDA8F"></path>
                            <path d="M21.053328,80.9997723 C20.5662911,80.9997723 20.1714696,80.5949423 20.1714696,80.0955591 L20.1714696,51.48132 C20.1714696,50.9819368 20.5662911,50.5771068 21.053328,50.5771068 C21.540365,50.5771068 21.9351865,50.9819368 21.9351865,51.48132 L21.9351865,80.0955591 C21.9351865,80.5949423 21.540365,80.9997723 21.053328,80.9997723 Z" id="Path" fill="#FFDA8F"></path>
                            <path d="M21.053328,173.56326 C20.5662911,173.56326 20.1714696,173.15843 20.1714696,172.659047 L20.1714696,91.3242436 C20.1714696,90.8248604 20.5662911,90.4200303 21.053328,90.4200303 C21.540365,90.4200303 21.9351865,90.8248604 21.9351865,91.3242436 L21.9351865,172.659047 C21.9351865,173.15843 21.540365,173.56326 21.053328,173.56326 Z" id="Path" fill="#FFDA8F"></path>
                            <path d="M39.8288959,173.56326 C39.3418589,173.56326 38.9470375,173.15843 38.9470375,172.659047 L38.9470375,144.053028 C38.9470375,143.553645 39.3418589,143.148815 39.8288959,143.148815 C40.3159329,143.148815 40.7107544,143.553645 40.7107544,144.053028 L40.7107544,172.659047 C40.7107544,173.15843 40.3159329,173.56326 39.8288959,173.56326 Z" id="Path" fill="#FFDA8F"></path>
                            <path d="M39.8288959,133.720336 C39.3418589,133.720336 38.9470375,133.315506 38.9470375,132.816123 L38.9470375,51.48132 C38.9470375,50.9819368 39.3418589,50.5771068 39.8288959,50.5771068 C40.3159329,50.5771068 40.7107544,50.9819368 40.7107544,51.48132 L40.7107544,132.816123 C40.7107544,133.315506 40.3159329,133.720336 39.8288959,133.720336 Z" id="Path" fill="#FFDA8F"></path>
                            <path d="M54.7499407,115.450297 C54.2629037,115.450297 53.8680823,115.045467 53.8680823,114.546084 L53.8680823,51.48132 C53.8680823,50.9819368 54.2629037,50.5771068 54.7499407,50.5771068 C55.2369777,50.5771068 55.6317992,50.9819368 55.6317992,51.48132 L55.6317992,114.546084 C55.6317992,115.045467 55.2369777,115.450297 54.7499407,115.450297 Z" id="Path" fill="#FFDA8F"></path>
                        </g>
                        <g id="Email" transform="translate(492.301333, 156.009000)">
                            <path d="M75.7014429,51.3829934 L7.87851197,51.3829934 C5.70325854,51.3802741 3.9407767,49.5723784 3.93900981,47.3419822 L3.93900981,4.17155393 C3.9407767,1.94115766 5.70325854,0.133262006 7.87851197,0.130542745 L75.7014429,0.130542745 C77.9573971,0.130542745 79.6425484,2.00308617 79.6425484,3.6783467 L79.6425484,46.848775 C79.6425484,49.4759254 77.9846545,51.3829934 75.7014429,51.3829934 Z M7.87851197,0.952554784 C6.14601924,0.955272861 4.74246513,2.39514196 4.7406993,4.17155393 L4.7406993,47.3419822 C4.74246513,49.1183942 6.14601924,50.5582632 7.87851197,50.5609813 L75.7014429,50.5609813 C77.521278,50.5609813 78.8408589,49.0008025 78.8408589,46.848775 L78.8408589,3.6783467 C78.8408589,2.41738024 77.4699699,0.952554784 75.7014429,0.952554784 L7.87851197,0.952554784 Z" id="Shape" fill="#E88400" fill-rule="nonzero"></path>
                            <g id="Path-+-Path-Mask" transform="translate(0.286192, 4.481946)">
                                <mask id="mask-4" fill="white">
                                    <use xlink:href="#path-3"></use>
                                </mask>
                                <use id="Mask" fill="#FCAA23" xlink:href="#path-3"></use>
                                <polygon id="Path" fill="#E88400" mask="url(#mask-4)" points="-0.921622238 3.92954635 36.6182898 26.9475275 75.5563484 5.26613793 75.9283323 8.89614309 37.2708651 29.8130614 -2.22516935 6.03060912"></polygon>
                                <polygon id="Path" fill="#FFDC8F" mask="url(#mask-4)" points="-4.46188303 2.5945988 37.1313711 27.7596754 76.5809076 5.74290491 75.1971915 -0.645772658 -4.08829573 -0.645772658"></polygon>
                            </g>
                            <g id="Group" transform="translate(8.265608, 67.523140)" fill="#FFDA8F">
                                <path d="M1.48404718,52.1197327 C0.864181948,52.1197327 0.361681893,51.6044945 0.361681893,50.9689159 L0.361681893,1.38186164 C0.361681893,0.746283043 0.864181948,0.231044787 1.48404718,0.231044787 C2.10391241,0.231044787 2.60641247,0.746283043 2.60641247,1.38186164 L2.60641247,50.9689159 C2.60641247,51.6044945 2.10391241,52.1197327 1.48404718,52.1197327 L1.48404718,52.1197327 Z" id="Path"></path>
                                <path d="M17.5066133,25.031148 C16.8867481,25.031148 16.3842481,24.5159097 16.3842481,23.8803311 L16.3842481,1.38186164 C16.3842481,0.746283043 16.8867481,0.231044787 17.5066133,0.231044787 C18.1264786,0.231044787 18.6289786,0.746283043 18.6289786,1.38186164 L18.6289786,23.8803311 C18.6289786,24.5159097 18.1264786,25.031148 17.5066133,25.031148 L17.5066133,25.031148 Z" id="Path"></path>
                                <path d="M17.5066133,97.8120939 C16.8867481,97.8120939 16.3842481,97.2968557 16.3842481,96.6612771 L16.3842481,32.7087404 C16.3842481,32.0731618 16.8867481,31.5579236 17.5066133,31.5579236 C18.1264786,31.5579236 18.6289786,32.0731618 18.6289786,32.7087404 L18.6289786,96.6612771 C18.6289786,97.2968557 18.1264786,97.8120939 17.5066133,97.8120939 L17.5066133,97.8120939 Z" id="Path"></path>
                                <path d="M39.3045506,97.8120939 C38.6846854,97.8120939 38.1821853,97.2968557 38.1821853,96.6612771 L38.1821853,74.1628076 C38.1821853,73.527229 38.6846854,73.0119907 39.3045506,73.0119907 C39.9244158,73.0119907 40.4269159,73.527229 40.4269159,74.1628076 L40.4269159,96.6612771 C40.4269159,97.2968557 39.9244158,97.8120939 39.3045506,97.8120939 L39.3045506,97.8120939 Z" id="Path"></path>
                                <path d="M39.3045506,66.4835711 C38.6846854,66.4835711 38.1821853,65.9683328 38.1821853,65.3327542 L38.1821853,1.38021762 C38.1821853,0.744639019 38.6846854,0.229400763 39.3045506,0.229400763 C39.9244158,0.229400763 40.4269159,0.744639019 40.4269159,1.38021762 L40.4269159,65.3327542 C40.4269159,65.9683328 39.9244158,66.4835711 39.3045506,66.4835711 L39.3045506,66.4835711 Z" id="Path"></path>
                                <path d="M56.6306639,52.1197327 C56.0107986,52.1197327 55.5082986,51.6044945 55.5082986,50.9689159 L55.5082986,1.38186164 C55.5082986,0.746283043 56.0107986,0.231044787 56.6306639,0.231044787 C57.2505291,0.231044787 57.7530291,0.746283043 57.7530291,1.38186164 L57.7530291,50.9689159 C57.7530291,51.6044945 57.2505291,52.1197327 56.6306639,52.1197327 L56.6306639,52.1197327 Z" id="Path"></path>
                            </g>
                        </g>
                        <g id="Email-Center" transform="translate(61.013333, 0.000000)">
                            <path d="M276.518145,164.218277 L160.678824,249.645056 L42.9731691,164.9548 C44.3216109,162.51178 46.7314895,160.88584 49.479681,160.88584 L270.463786,160.88584 C272.924972,160.88584 275.115188,162.191195 276.518145,164.218277 Z" id="Path" fill="#1457EF"></path>
                            <rect id="Rectangle" fill="url(#linearGradient-5)" opacity="0.87" x="69.8057164" y="52.9014068" width="177.696079" height="236.427103" rx="52.73"></rect>
                            <rect id="Rectangle" fill="#FFFFFF" opacity="0.86" x="80.9475969" y="64.9668995" width="68.762511" height="94.2716287" rx="31.64"></rect>
                            <g id="Group" opacity="0.63" transform="translate(157.762277, 64.938951)" fill="#FFFFFF">
                                <rect id="Rectangle" x="0.0705486752" y="0.0279484093" width="79.7761212" height="5.15730353" rx="2.57865177"></rect>
                                <rect id="Rectangle" x="0.0705486752" y="12.6359691" width="79.7761212" height="5.15730353" rx="2.57865177"></rect>
                                <rect id="Rectangle" x="0.0705486752" y="25.2439897" width="79.7761212" height="5.15730353" rx="2.57865177"></rect>
                                <rect id="Rectangle" x="0.0705486752" y="37.8520104" width="79.7761212" height="5.15730353" rx="2.57865177"></rect>
                                <rect id="Rectangle" x="0.0705486752" y="50.460031" width="79.7761212" height="5.15730353" rx="2.57865177"></rect>
                                <rect id="Rectangle" x="0.0705486752" y="63.0664076" width="79.7761212" height="5.15730353" rx="2.57865177"></rect>
                                <rect id="Rectangle" x="0.0705486752" y="75.6744283" width="79.7761212" height="5.15730353" rx="2.57865177"></rect>
                                <rect id="Rectangle" x="0.0705486752" y="88.2824489" width="79.7761212" height="5.15730353" rx="2.57865177"></rect>
                            </g>
                            <path d="M231.185811,173.7306 C234.732485,173.7306 237.608947,176.961108 237.608947,180.944578 L237.608947,206.87577 C237.608947,210.85924 234.732485,214.089747 231.185811,214.089747 L88.2221274,214.089747 C84.6738497,214.089747 81.7989912,210.85924 81.7989912,206.87577 L81.7989912,180.944578 C81.7989912,176.961108 84.6738497,173.7306 88.2221274,173.7306 L231.185811,173.7306 Z" id="Path" fill="#FFFFFF" opacity="0.86"></path>
                            <mask id="mask-8" fill="white">
                                <use xlink:href="#path-7"></use>
                            </mask>
                            <use id="Path" fill="url(#linearGradient-6)" xlink:href="#path-7"></use>
                            <polygon id="Path" fill="#FFFFFF" mask="url(#mask-8)" points="41.9758674 333.025025 162.987689 243.703553 169.167112 250.453916 45.3365497 336.515288"></polygon>
                            <mask id="mask-11" fill="white">
                                <use xlink:href="#path-10"></use>
                            </mask>
                            <use id="Path" fill="url(#linearGradient-9)" xlink:href="#path-10"></use>
                            <polygon id="Path" fill="#FFFFFF" mask="url(#mask-11)" points="39.8930781 165.829421 162.641359 254.989778 164.235118 245.868733 41.8251498 159.238528"></polygon>
                            <g id="Group" transform="translate(41.671760, 243.320605)"></g>
                            <g id="Group" transform="translate(155.196871, 155.853483)">
                                <mask id="mask-14" fill="white">
                                    <use xlink:href="#path-13"></use>
                                </mask>
                                <use id="Path" fill="url(#linearGradient-12)" xlink:href="#path-13"></use>
                                <polygon id="Path" fill="#FFFFFF" mask="url(#mask-14)" points="128.246268 178.126721 6.33815711 89.7374103 0.158734519 96.4877731 123.989297 182.549146"></polygon>
                                <polygon id="Path" fill="#FFFFFF" mask="url(#mask-14)" points="129.977917 5.67681514 7.07571144 95.8893483 5.48195274 86.7683028 127.891921 0.138098023"></polygon>
                            </g>
                            <polygon id="Path" fill="#FFFFFF" points="144.088661 269.365125 140.246965 322.578896 164.852419 307.348657 191.479734 323.999333 182.053469 265.544413"></polygon>
                            <circle id="Oval" fill="#FFFFFF" transform="translate(162.937817, 249.112087) rotate(-45.000000) translate(-162.937817, -249.112087) " cx="162.937817" cy="249.112087" r="28.9058222"></circle>
                            <circle id="Oval" fill="url(#linearGradient-15)" transform="translate(162.937817, 249.112087) rotate(-45.000000) translate(-162.937817, -249.112087) " cx="162.937817" cy="249.112087" r="21.1698896"></circle>
                            <path d="M11.4715823,320.091488 C11.6126463,320.024533 11.7802304,320.070955 11.8692203,320.201638 C12.6340321,321.043378 13.4020506,321.88183 14.1844995,322.70713 C14.3112488,322.814549 14.3437864,323.000127 14.2614617,323.146085 C13.6457642,324.779149 13.0332734,326.413308 12.4239894,328.048564 C12.3742847,328.185018 12.3229765,328.321472 12.2636515,328.484231 L19.5141313,333.044754 L21.6931233,330.568853 C22.2158248,329.973717 22.7449399,329.383512 23.2596246,328.781799 C23.3551545,328.643531 23.5341278,328.596263 23.6829166,328.670006 C24.7347332,328.99881 25.7881532,329.327615 26.8479867,329.63176 C27.0296451,329.661155 27.164703,329.819716 27.1686625,330.008241 C27.4316167,331.770635 27.712208,333.529741 27.970352,335.292135 C28.0072297,335.545314 28.076175,335.647244 28.3503528,335.65382 C30.9927214,335.711361 33.6334866,335.78863 36.2742517,335.860967 L36.5323958,335.860967 C36.6029444,335.532162 36.6750965,335.203357 36.7424384,334.874552 C37.0631142,333.350542 37.38379,331.826532 37.6868286,330.299233 C37.73493,330.055918 37.8471665,329.988513 38.0636227,329.935904 C39.1154393,329.692589 40.1608424,329.418036 41.2110556,329.171433 C41.3463894,329.138088 41.4891762,329.168213 41.6006767,329.253634 C42.7454893,330.675715 43.8742681,332.109304 45.0062537,333.542893 L52.580616,329.335835 C52.4331051,328.870576 52.2904044,328.420114 52.149307,327.971295 C51.7468589,326.693889 51.3476175,325.413194 50.9371525,324.139075 C50.86619,323.97251 50.9231719,323.777755 51.0718364,323.678748 C51.8735259,322.920853 52.6655951,322.158026 53.4416305,321.377115 C53.5626898,321.218707 53.7778113,321.173478 53.9499016,321.270253 C55.5629009,321.913067 57.1775035,322.546016 58.7921062,323.180609 C58.8947224,323.22171 58.9973387,323.256234 59.112782,323.302267 L63.550935,315.88443 C63.4627491,315.797297 63.3809768,315.710164 63.2943943,315.629607 C62.0116912,314.442621 60.728988,313.252348 59.4462848,312.071938 C59.2816986,311.96056 59.221076,311.742653 59.3035841,311.559003 C59.6242598,310.503539 59.9353154,309.443144 60.2271303,308.377816 C60.2482527,308.178051 60.4081693,308.023849 60.6039244,308.014487 C62.3339703,307.744867 64.0608095,307.457163 65.789252,307.177679 C65.9495899,307.151374 66.0954974,307.146442 66.1003076,306.893263 C66.1628393,304.098422 66.2381981,301.303581 66.3087468,298.497232 C66.3050986,298.465692 66.2975557,298.434756 66.2862995,298.405166 C65.882248,298.314745 65.4637661,298.221036 65.0468876,298.130614 C63.656758,297.82647 62.2682318,297.517393 60.8781022,297.224757 C60.6923865,297.208195 60.5461029,297.055412 60.5333757,296.864716 C60.2944723,295.776372 60.0363282,294.691316 59.768564,293.609548 C59.7033057,293.44144 59.7639059,293.249507 59.9128681,293.152509 C61.2949807,292.014845 62.6690765,290.865672 64.0431723,289.719787 C64.1121176,289.66389 64.1746494,289.599773 64.2387846,289.538944 L60.2062864,281.912317 L56.1818052,283.227536 C55.740876,283.370566 55.29674,283.505376 54.8622243,283.66649 C54.7219121,283.734115 54.5545107,283.689127 54.4645863,283.559629 C53.7013779,282.717889 52.9333594,281.877792 52.1525138,281.054136 C52.0250174,280.948357 51.9898777,280.764048 52.0691381,280.616826 C52.686439,278.98431 53.2941196,277.35015 53.9066104,275.71599 C53.9579185,275.579536 54.0076233,275.443082 54.0669483,275.273748 L46.8164685,270.714869 L45.3076889,272.426298 C44.5621177,273.271326 43.8165465,274.114711 43.0773888,274.966315 C42.987032,275.108009 42.8098036,275.16162 42.6589069,275.092905 C41.5899875,274.750948 40.5135858,274.422143 39.4297016,274.10649 C39.2228657,274.047306 39.1843846,273.942088 39.1571272,273.757957 C38.8893629,271.995564 38.6103749,270.236458 38.3554377,268.474064 C38.3169566,268.209376 38.2496147,268.10087 37.9561963,268.095938 C35.3474987,268.040042 32.7404045,267.962772 30.1333103,267.892079 C30.0258839,267.892079 29.9168541,267.892079 29.7869804,267.892079 C29.5801445,268.878494 29.374912,269.864908 29.1712829,270.851323 C28.9868943,271.734164 28.7992989,272.615361 28.626134,273.50149 C28.5876529,273.700416 28.5010704,273.767821 28.3054582,273.81221 C27.2365389,274.062102 26.1676196,274.325694 25.0987003,274.602986 C24.9349249,274.668855 24.7486434,274.605187 24.6561677,274.451735 C23.5444916,273.035683 22.4285398,271.624562 21.3083123,270.218373 C21.2537975,270.14768 21.1896623,270.085208 21.1303373,270.017803 L13.6938656,274.152523 C14.1535009,275.635433 14.6142051,277.118891 15.0759782,278.602896 C15.1801979,278.931701 15.2715905,279.273658 15.396654,279.599175 C15.4769816,279.762259 15.4260782,279.96116 15.278004,280.06279 C14.4763145,280.819041 13.6826419,281.581868 12.9066065,282.364423 C12.77982,282.532498 12.5524402,282.580662 12.3710779,282.477861 C10.7308212,281.820251 9.08415099,281.175794 7.43908415,280.529693 C7.37815575,280.505032 7.31562397,280.48366 7.22102461,280.450779 L2.7748547,287.868616 L4.14895048,289.144379 C5.07249678,289.999271 5.98962955,290.859096 6.92119274,291.70248 C7.06396709,291.808286 7.11082566,292.00465 7.03182589,292.166095 C6.7111501,293.233067 6.3904743,294.303326 6.10346946,295.378518 C6.07460631,295.576583 5.9107215,295.724485 5.71545175,295.728695 C4.00785313,295.996671 2.30346128,296.282731 0.595862662,296.550707 C0.336115267,296.591808 0.231895633,296.664145 0.225482117,296.963357 C0.170967232,299.648049 0.0956084197,302.33274 0.0266631235,305.019075 C0.0266631235,305.119361 0.0266631235,305.218002 0.0266631235,305.34788 L2.91274529,305.979185 C3.76413953,306.16496 4.61232701,306.360599 5.46692801,306.529933 C5.68979768,306.575966 5.7571396,306.676251 5.80524097,306.894907 C6.04574782,307.983251 6.30121954,309.068306 6.57165612,310.150074 C6.63521386,310.318019 6.57326696,310.508571 6.42414526,310.603825 C5.04203258,311.74149 3.66954017,312.889018 2.293841,314.034903 C2.22649909,314.092444 2.16396731,314.156561 2.09983215,314.21739 L6.13233028,321.844018 L10.1584149,320.528798 C10.5929306,320.379192 11.0370666,320.244382 11.4715823,320.091488 Z M23.9779383,284.490147 C33.3400682,279.288454 45.0607686,282.872427 50.135463,292.488324 C55.1861068,302.059832 51.6971542,314.076004 42.359075,319.266188 C32.985759,324.471813 21.27153,320.901359 16.1935334,311.291027 C11.1348727,301.698147 14.6238254,289.677042 23.9811451,284.481926 L23.9779383,284.490147 Z" id="Shape" fill="#B0D8FF"></path>
                            <path d="M36.085053,206.818229 L36.0465719,206.818229 C34.7510417,206.7574 33.4474946,206.653827 32.1744117,206.489424 C31.7347502,206.4354 31.4210466,206.026154 31.4737352,205.575347 C31.5264237,205.12454 31.9255523,204.802884 32.3652138,204.856908 C33.5998156,205.009802 34.8632782,205.116664 36.1219307,205.175849 C36.5646916,205.186291 36.9153648,205.562783 36.9051813,206.016767 C36.8949978,206.470752 36.5278139,206.830315 36.085053,206.819873 L36.085053,206.818229 Z M28.4930536,205.877865 C28.4391898,205.878221 28.3854406,205.87271 28.3327157,205.861407 C27.0371854,205.595075 25.7673093,205.27449 24.5503446,204.909517 C24.1252942,204.781493 23.8819406,204.324403 24.0067992,203.888578 C24.1316577,203.452753 24.5774471,203.20323 25.0024975,203.331254 C26.1713608,203.684719 27.3979457,203.988864 28.6469779,204.250263 C29.0506114,204.334301 29.3264689,204.718273 29.2850764,205.138447 C29.243684,205.55862 28.8985105,205.878272 28.48664,205.877865 L28.4930536,205.877865 Z M21.1688184,203.653483 C21.065455,203.653321 20.9630975,203.632665 20.8673831,203.592654 C19.6576415,203.088356 18.4772065,202.513093 17.3319325,201.869716 C17.081032,201.727871 16.9229933,201.459553 16.9173481,201.165836 C16.9117029,200.872118 17.0593088,200.597624 17.3045641,200.445753 C17.5498194,200.293882 17.855464,200.287706 18.1063645,200.429551 C19.1968494,201.043722 20.3210953,201.592648 21.4734604,202.073575 C21.8284688,202.221979 22.0313196,202.60733 21.9574857,202.993068 C21.8836517,203.378806 21.5538001,203.656958 21.1704217,203.656771 L21.1688184,203.653483 Z M14.4987618,199.872227 C14.3253001,199.872227 14.1565175,199.81454 14.0177481,199.707825 C12.960168,198.90707 11.9612585,198.027901 11.0290497,197.077386 C10.7961371,196.878931 10.6921647,196.562842 10.7602782,196.260286 C10.8283916,195.957729 11.0569651,195.720348 11.351147,195.646649 C11.6453288,195.57295 11.9549069,195.675511 12.151415,195.911773 C13.0297169,196.802154 13.9696055,197.626311 14.9637417,198.377809 C15.2397989,198.590101 15.3523986,198.9597 15.2432774,199.295362 C15.1341562,199.631024 14.8277996,199.857431 14.482728,199.857431 L14.4987618,199.872227 Z M9.10499491,194.369679 C8.85265729,194.369679 8.6150459,194.247861 8.46364332,194.040874 C7.68664495,192.955913 6.98990275,191.812866 6.37925065,190.621304 C6.17292411,190.219527 6.3233152,189.722322 6.71515856,189.510766 C7.10700193,189.299209 7.59191446,189.453412 7.79824104,189.855189 C8.37293141,190.973894 9.0289648,192.046639 9.76077692,193.064324 C9.94297146,193.313408 9.972278,193.646661 9.8364782,193.925146 C9.70067841,194.20363 9.4230829,194.379543 9.11942533,194.379543 L9.10499491,194.369679 Z M5.5438902,187.474642 C5.20535387,187.474938 4.90312389,187.257159 4.7886987,186.93047 C4.34936803,185.669117 3.9868414,184.381012 3.70321113,183.073589 C3.64077239,182.786961 3.73221057,182.48795 3.94308177,182.289192 C4.15395297,182.090433 4.45222084,182.022123 4.72553075,182.109993 C4.99884066,182.197863 5.20567033,182.428564 5.26810901,182.715192 C5.53696811,183.955917 5.88129878,185.178173 6.2990817,186.37479 C6.38732635,186.626731 6.35039558,186.906952 6.20009917,187.125842 C6.04980276,187.344732 5.80496866,187.47487 5.5438902,187.474642 L5.5438902,187.474642 Z M3.87156592,179.849668 C3.45831257,179.851781 3.11119709,179.531458 3.06987643,179.109847 C2.97688045,178.138229 2.92877908,177.161679 2.92877908,176.206501 C2.92877908,175.831663 2.93679597,175.455182 2.95122638,175.083632 C2.96239661,174.789956 3.12551948,174.524698 3.37914819,174.387778 C3.63277689,174.250859 3.9383792,174.263079 4.18083768,174.419837 C4.42329615,174.576594 4.56577559,174.854073 4.55460537,175.147749 C4.54177833,175.497926 4.53376144,175.854679 4.53376144,176.206501 C4.53376144,177.107426 4.57865605,178.029723 4.66844527,178.947089 C4.68945891,179.164264 4.62538166,179.381094 4.49033745,179.549784 C4.35529325,179.718474 4.16036833,179.825175 3.94852811,179.84637 C3.9227721,179.845697 3.89707538,179.843501 3.87156592,179.839794 L3.87156592,179.849668 Z M4.19224172,172.056984 C4.14218983,172.056984 4.09225627,172.051999 4.04312747,172.042188 C3.83379914,172.002287 3.64854846,171.878645 3.52823273,171.698531 C3.407917,171.518418 3.3624199,171.296628 3.40177588,171.082078 C3.6451322,169.761338 3.98274966,168.460706 4.41190464,167.190673 C4.55881782,166.764715 5.01346827,166.540175 5.42988165,166.68792 C5.84629503,166.835665 6.06836246,167.300307 5.92709777,167.728268 C5.52383403,168.92269 5.20658229,170.145839 4.97789742,171.387866 C4.90189099,171.773737 4.56974623,172.050187 4.1858282,172.04712 L4.19224172,172.056984 Z M6.66465211,164.686827 C6.53869816,164.687194 6.41447409,164.65676 6.30228846,164.598047 C6.11249263,164.499216 5.96882307,164.327046 5.90295356,164.119493 C5.83708406,163.911941 5.85442324,163.686049 5.95114846,163.491618 C6.5464758,162.299692 7.21315153,161.146673 7.94735529,160.039168 C8.10633404,159.791344 8.38319924,159.650566 8.67182055,159.670797 C8.96044187,159.691029 9.21604604,159.869132 9.3406527,160.136834 C9.46525936,160.404536 9.43953852,160.72031 9.27334971,160.963109 C8.5769883,162.01372 7.94458713,163.107435 7.37975913,164.238005 C7.23907388,164.511979 6.96017801,164.681652 6.65823859,164.67696 L6.66465211,164.686827 Z M10.9248301,158.212657 C10.6122268,158.212772 10.3280684,158.026566 10.196873,157.735633 C10.0656775,157.4447 10.1113757,157.102108 10.3139427,156.857981 C11.1284592,155.871567 12.0231447,154.893372 12.972345,153.943127 C13.2893618,153.625337 13.7976047,153.631226 14.1075373,153.956279 C14.41747,154.281332 14.4117271,154.802459 14.0947103,155.120248 C13.1807843,156.034325 12.3197698,156.977995 11.5373208,157.915089 C11.3828227,158.100332 11.1561152,158.205719 10.9184165,158.202793 L10.9248301,158.212657 Z M16.3763186,152.733125 C16.0389079,152.732969 15.7377056,152.516212 15.6228591,152.190906 C15.5080125,151.8656 15.6041059,151.50138 15.8632373,151.279808 C16.8252647,150.457796 17.854634,149.635783 18.9224844,148.843364 C19.2811207,148.576875 19.782544,148.658945 20.0424446,149.026673 C20.3023453,149.3944 20.2223042,149.908534 19.8636679,150.175023 C18.8246783,150.947715 17.8241698,151.743422 16.8893999,152.542418 C16.7419845,152.666935 16.5560568,152.733396 16.3650949,152.729837 L16.3763186,152.733125 Z M22.5525344,148.129858 C22.1964812,148.130048 21.8829679,147.889429 21.7828029,147.539094 C21.682638,147.188759 21.8198252,146.812663 22.1196221,146.615711 C23.1730421,145.923577 24.2841837,145.233087 25.4225828,144.563969 C25.8068992,144.336977 26.2979135,144.472411 26.519294,144.86647 C26.7406744,145.260528 26.6085887,145.76399 26.2242723,145.990982 C25.101907,146.648592 24.0196262,147.320998 22.9886535,147.99998 C22.8539249,148.083016 22.698361,148.123607 22.5413108,148.116705 L22.5525344,148.129858 Z M29.1712829,144.215436 C28.8015752,144.215495 28.4797703,143.956316 28.3922534,143.58801 C28.3047365,143.219705 28.4742052,142.837795 28.8025057,142.663477 C29.9152507,142.074917 31.0777005,141.488 32.2593908,140.919168 C32.6605321,140.726224 33.1382661,140.903245 33.3264395,141.314556 C33.5146129,141.725866 33.3419682,142.21571 32.9408268,142.408654 C31.7767737,142.967622 30.6319611,143.544674 29.5368533,144.123371 C29.4240276,144.183858 29.2985999,144.215436 29.1712829,144.215436 Z M36.0882598,140.892891 C35.7060741,140.896061 35.3748308,140.622181 35.2968798,140.238532 C35.2189289,139.854882 35.4159487,139.468157 35.767584,139.3146 C36.9204135,138.808241 38.1181376,138.30517 39.3270853,137.818538 C39.5940118,137.710053 39.89714,137.756224 40.1217859,137.939581 C40.3464317,138.122939 40.4582884,138.415483 40.4150365,138.706533 C40.3717846,138.997583 40.1800294,139.242691 39.9123187,139.349125 C38.7194047,139.82918 37.536111,140.335539 36.3977119,140.828747 C36.2998681,140.871412 36.1945834,140.893226 36.0882598,140.892891 Z M43.2024523,138.025694 C42.8116976,138.027454 42.476623,137.740102 42.4092351,137.345441 C42.3418471,136.95078 42.5617796,136.563795 42.9298779,136.429338 C44.1115682,135.992028 45.3349464,135.558005 46.5615313,135.138779 C46.975218,135.015062 47.4102837,135.248794 47.5465538,135.667968 C47.6828238,136.087141 47.4715436,136.541784 47.068199,136.697314 C45.8528378,137.113252 44.64389,137.543986 43.4750268,137.976365 C43.3871624,138.00609 43.2949428,138.019995 43.2024523,138.017465 L43.2024523,138.025694 Z M50.4545355,135.544853 C50.0576005,135.545111 49.7202423,135.247499 49.661243,134.845023 C49.6022438,134.442547 49.8393688,134.056397 50.2188387,133.936998 C51.421373,133.557228 52.6591816,133.180747 53.9066104,132.817417 C54.1857275,132.724093 54.4922699,132.794668 54.7056826,133.001385 C54.9190954,133.208103 55.0052397,133.517896 54.9302373,133.808931 C54.8552349,134.099966 54.6310837,134.325687 54.3459362,134.397324 C53.1145412,134.757366 51.8879563,135.130559 50.6966457,135.507041 C50.6178522,135.529329 50.5362309,135.539305 50.4545355,135.536633 L50.4545355,135.544853 Z M57.8076315,133.391182 C57.4056603,133.390139 57.0665858,133.084025 57.0146817,132.675313 C56.9627776,132.266601 57.2140923,131.881662 57.602399,131.775106 C58.820967,131.446301 60.073206,131.117496 61.3222382,130.803488 C61.6029896,130.725963 61.9026716,130.810376 62.1053955,131.024085 C62.3081195,131.237793 62.3821052,131.547294 62.2987421,131.832903 C62.2153789,132.118511 61.9877354,132.335452 61.7038424,132.399835 C60.4628271,132.7122 59.2218117,133.036072 58.0160707,133.363233 C57.9478077,133.379615 57.8776656,133.386254 57.8076315,133.382961 L57.8076315,133.391182 Z M65.2328795,131.521931 C64.823762,131.522866 64.4795866,131.207787 64.4343167,130.790874 C64.3890468,130.37396 64.6572071,129.988978 65.0565078,129.89763 C66.2862995,129.61157 67.5465554,129.328798 68.8036045,129.057534 C69.2370674,128.964013 69.6623977,129.248498 69.7536065,129.692949 C69.8448152,130.1374 69.5673634,130.573513 69.1339006,130.667034 C67.8848684,130.93501 66.6326294,131.216138 65.4108546,131.500554 C65.3525778,131.514957 65.292825,131.522133 65.2328795,131.521931 Z M72.7158492,129.905851 C72.3007625,129.910729 71.9506991,129.589907 71.9090224,129.166421 C71.8673456,128.742935 72.1478421,128.356872 72.5555113,128.276623 C73.7949233,128.028375 75.0631961,127.783415 76.3250553,127.551608 C76.6096731,127.492952 76.9029792,127.59665 77.0918526,127.822708 C77.280726,128.048766 77.3356521,128.361859 77.2354472,128.641233 C77.1352424,128.920608 76.8955652,129.122609 76.6088534,129.169328 C75.355011,129.401135 74.0947552,129.644451 72.8633601,129.88941 C72.8146436,129.897822 72.7652186,129.901127 72.7158492,129.899274 L72.7158492,129.905851 Z M80.2389034,128.508435 C79.8216368,128.509836 79.4730878,128.182817 79.4375001,127.75653 C79.4019124,127.330242 79.6911869,126.947242 80.1026162,126.875914 L83.8737636,126.205152 C84.3103258,126.127521 84.7256062,126.427463 84.8013183,126.875092 C84.8770304,127.322721 84.5845036,127.748529 84.1479414,127.82616 L80.376794,128.495278 C80.3310934,128.501451 80.2849655,128.503651 80.2389034,128.501854 L80.2389034,128.508435 Z M87.7747846,127.165262 C87.3610248,127.161872 87.017754,126.836167 86.9824291,126.413454 C86.9471042,125.990741 87.2313315,125.609906 87.6384974,125.534391 L91.4080414,124.860341 C91.6933628,124.802558 91.9868273,124.907748 92.1748967,125.135214 C92.3629661,125.36268 92.4161407,125.676742 92.3138478,125.955894 C92.2115549,126.235046 91.9698397,126.435501 91.6822192,126.479704 L87.9126752,127.153754 C87.8685213,127.159127 87.8240118,127.160777 87.7795948,127.158686 L87.7747846,127.165262 Z M95.3106658,125.817163 C94.8966163,125.814587 94.5525978,125.489129 94.5168358,125.066163 C94.4810739,124.643196 94.7653354,124.26189 95.1727752,124.186291 L98.9407158,123.508953 C99.3768353,123.430414 99.7924745,123.729252 99.8690722,124.176427 C99.9456698,124.623602 99.6542198,125.049777 99.2181004,125.128317 L95.4485564,125.805654 C95.4054629,125.81085 95.362033,125.812499 95.3186827,125.810587 L95.3106658,125.817163 Z M102.846547,124.464143 C102.42896,124.466417 102.079598,124.139638 102.043567,123.713056 C102.007536,123.286474 102.296904,122.902976 102.708656,122.831615 L106.476597,122.154277 C106.912717,122.075738 107.328356,122.374576 107.404953,122.821751 C107.481551,123.268926 107.190101,123.695101 106.753982,123.773641 L102.986041,124.450979 C102.942368,124.45585 102.89834,124.456401 102.854564,124.452623 L102.846547,124.464143 Z M110.382428,123.106179 C109.964841,123.108453 109.61548,122.781675 109.579448,122.355093 C109.543417,121.92851 109.832785,121.545012 110.244538,121.473651 L114.010875,120.793025 C114.292995,120.741925 114.580272,120.849032 114.764491,121.073998 C114.948711,121.298965 115.001885,121.607614 114.903985,121.88368 C114.806085,122.159746 114.571983,122.361289 114.289863,122.412389 L110.521922,123.093015 C110.478339,123.098812 110.434372,123.101011 110.390445,123.099591 L110.382428,123.106179 Z M117.918309,121.741627 C117.50426,121.739051 117.160241,121.413594 117.124479,120.990627 C117.088717,120.56766 117.372979,120.186354 117.780419,120.110755 L121.546756,119.426841 C121.982876,119.347848 122.398874,119.646318 122.475914,120.093493 C122.552955,120.540668 122.261863,120.967211 121.825744,121.046205 L118.059407,121.728475 C118.014817,121.735041 117.969719,121.737243 117.924723,121.735051 L117.918309,121.741627 Z M125.454191,120.373822 C125.036277,120.376977 124.68609,120.050438 124.649614,119.623554 C124.613138,119.196669 124.902611,118.812667 125.314697,118.741283 L129.081034,118.055725 C129.367448,117.993295 129.664274,118.095943 129.855308,118.323483 C130.046342,118.551023 130.101192,118.867256 129.998385,119.148379 C129.895578,119.429502 129.65147,119.630791 129.361625,119.673445 L125.595288,120.360647 C125.549578,120.366713 125.503459,120.368913 125.457397,120.367223 L125.454191,120.373822 Z M132.990072,118.999395 C132.575728,118.997644 132.230952,118.672432 132.194752,118.249206 C132.158552,117.825979 132.442856,117.444198 132.850578,117.368523 L136.615312,116.679677 C136.900936,116.618874 137.196228,116.721951 137.38634,116.948818 C137.576451,117.175685 137.631373,117.490531 137.529744,117.770902 C137.428115,118.051273 137.185977,118.252913 136.897506,118.297397 L133.131169,118.986243 C133.084473,118.993302 133.0372,118.995505 132.990072,118.992819 L132.990072,118.999395 Z M140.508316,117.623347 C140.093972,117.621596 139.749196,117.296384 139.712996,116.873158 C139.676796,116.449931 139.9611,116.06815 140.368822,115.992475 L144.125539,115.301985 C144.411163,115.241182 144.706455,115.344259 144.896567,115.571126 C145.086679,115.797993 145.1416,116.112839 145.039971,116.39321 C144.938342,116.673581 144.696204,116.875221 144.407734,116.919704 L140.651017,117.610194 C140.603704,117.616376 140.555978,117.618575 140.508316,117.616771 L140.508316,117.623347 Z M148.028163,116.240722 C147.61352,116.239806 147.267977,115.91484 147.231338,115.491347 C147.194699,115.067855 147.479055,114.685594 147.887066,114.609851 L151.653403,113.914428 C151.938021,113.855773 152.231327,113.959471 152.420201,114.185529 C152.609074,114.411586 152.664,114.724679 152.563795,115.004054 C152.46359,115.283428 152.223913,115.485429 151.937201,115.532148 L148.170864,116.22757 C148.123508,116.233203 148.075782,116.234852 148.028163,116.232502 L148.028163,116.240722 Z M155.564045,114.848234 C155.149097,114.848162 154.802776,114.523441 154.765697,114.099676 C154.728618,113.675911 155.013035,113.293167 155.421344,113.217362 L159.197301,112.518652 C159.480194,112.463857 159.770019,112.568803 159.956616,112.793599 C160.143213,113.018395 160.197926,113.328521 160.099959,113.606098 C160.001992,113.883675 159.766389,114.086077 159.482703,114.136372 L155.706745,114.835082 C155.660033,114.841969 155.612777,114.844171 155.565648,114.841658 L155.564045,114.848234 Z M163.099926,113.450814 C162.684978,113.450742 162.338658,113.12602 162.301578,112.702256 C162.264499,112.278491 162.548916,111.895746 162.957225,111.819942 L166.720356,111.117943 C167.002189,111.065375 167.289965,111.170968 167.475282,111.394946 C167.660598,111.618924 167.715301,111.92726 167.618784,112.203806 C167.522267,112.480352 167.289194,112.683095 167.00736,112.735663 L163.247437,113.437661 C163.199949,113.44165 163.152223,113.44165 163.104736,113.437661 L163.099926,113.450814 Z M170.626187,112.046817 C170.211239,112.046745 169.864919,111.722024 169.827839,111.298259 C169.79076,110.874494 170.075177,110.49175 170.483486,110.415945 L174.246616,109.710659 C174.682293,109.629396 175.099727,109.925658 175.178981,110.372378 C175.258235,110.819099 174.969298,111.247115 174.533621,111.328378 L170.770491,112.033665 C170.724237,112.039655 170.677591,112.041854 170.630997,112.040241 L170.626187,112.046817 Z M178.152448,110.636246 C177.73719,110.637028 177.390082,110.31255 177.352562,109.888506 C177.315041,109.464463 177.599529,109.08123 178.008144,109.005372 L181.769671,108.296798 C182.05538,108.233463 182.352064,108.334597 182.54392,108.560724 C182.735777,108.786851 182.792394,109.102126 182.691671,109.383491 C182.590949,109.664856 182.348855,109.86771 182.059882,109.912874 L178.296752,110.621448 C178.250606,110.62865 178.203904,110.631402 178.157258,110.629668 L178.152448,110.636246 Z M185.675502,109.215809 C185.260244,109.216591 184.913136,108.892113 184.875616,108.46807 C184.838095,108.044026 185.122583,107.660793 185.531198,107.584936 L189.292725,106.871429 C189.728401,106.788804 190.146912,107.083962 190.227495,107.530683 C190.308077,107.977404 190.020216,108.406524 189.58454,108.489149 L185.821409,109.196079 C185.77477,109.204123 185.727602,109.20852 185.680312,109.209231 L185.675502,109.215809 Z M193.198556,107.785507 C192.786286,107.782648 192.443346,107.459639 192.405646,107.03868 C192.367947,106.61772 192.647781,106.236074 193.052649,106.156279 L196.812572,105.436196 C197.247806,105.352663 197.666676,105.646717 197.748144,106.092984 C197.829612,106.539251 197.542828,106.968739 197.107594,107.052272 L193.357291,107.765778 C193.304433,107.775845 193.250699,107.780253 193.196953,107.77893 L193.198556,107.785507 Z M200.720007,106.345356 C200.304113,106.34787 199.955397,106.023875 199.91699,105.599253 C199.878583,105.174632 200.163242,104.790407 200.572496,104.71447 L204.330816,103.989455 C204.758181,103.921289 205.16124,104.213 205.241729,104.648721 C205.322218,105.084443 205.051119,105.507082 204.629045,105.603887 L200.867518,106.330545 C200.822939,106.337273 200.777876,106.340023 200.732834,106.338765 L200.720007,106.345356 Z M208.238251,104.888742 C207.825389,104.887526 207.480936,104.565009 207.442361,104.143531 C207.403785,103.722054 207.683703,103.339458 208.089137,103.259508 L211.847457,102.526274 C212.13226,102.462574 212.42834,102.562404 212.620691,102.786985 C212.813041,103.011566 212.871345,103.325503 212.772956,103.606852 C212.674567,103.888201 212.434992,104.09262 212.147289,104.140705 L208.388968,104.875584 C208.340826,104.884524 208.291986,104.888926 208.243061,104.888742 L208.238251,104.888742 Z M215.754892,103.409114 C215.341727,103.408742 214.996504,103.08647 214.957489,102.664725 C214.918474,102.24298 215.198446,101.859903 215.604174,101.779887 L219.359287,101.035144 C219.794079,100.948887 220.214743,101.240364 220.298868,101.686177 C220.382992,102.13199 220.098721,102.563318 219.663929,102.649575 L215.907213,103.394318 C215.858572,103.403757 215.809204,103.408709 215.759702,103.409114 L215.754892,103.409114 Z M223.266722,101.914697 C222.851635,101.919575 222.501572,101.598754 222.459895,101.175267 C222.418218,100.751781 222.698715,100.365718 223.106384,100.285469 C224.389087,100.029001 225.639723,99.7763693 226.858291,99.5275736 C227.292639,99.4367767 227.716534,99.724206 227.805086,100.169565 C227.893638,100.614924 227.613315,101.049564 227.178967,101.140361 C225.957192,101.388061 224.704953,101.640693 223.42225,101.898256 C223.372745,101.909547 223.322242,101.915607 223.271532,101.916341 L223.266722,101.914697 Z M230.775346,100.389042 C230.363475,100.389467 230.018302,100.069815 229.976909,99.6496418 C229.935517,99.2294684 230.211374,98.8454963 230.615008,98.7614584 L234.365311,97.983835 C234.645999,97.9250997 234.935926,98.0243671 235.125878,98.2442442 C235.315831,98.4641214 235.376951,98.7712036 235.286216,99.0498161 C235.195481,99.3284285 234.966675,99.5362433 234.685987,99.5949786 C233.479177,99.8470623 232.228007,100.10627 230.932477,100.372602 C230.882426,100.383869 230.831394,100.389928 230.780156,100.390686 L230.775346,100.389042 Z M238.275953,98.8189993 C237.864082,98.8194237 237.518909,98.4997721 237.477516,98.0795988 C237.436124,97.6594254 237.711981,97.2754533 238.115615,97.1914154 C239.003887,97.0018046 239.862229,96.8165779 240.690641,96.6357353 L241.853091,96.3825556 C242.282704,96.2961551 242.700472,96.5791214 242.791546,97.0181978 C242.882619,97.4572743 242.613316,97.8900704 242.186594,97.9904111 L241.024144,98.2435908 L238.442704,98.800915 C238.389477,98.8128702 238.33524,98.8194776 238.280763,98.8206433 L238.275953,98.8189993 Z M245.757319,97.1897714 C245.348389,97.1862333 245.007601,96.8676661 244.966461,96.4504825 C244.925322,96.0332988 245.197019,95.6512319 245.596981,95.5638316 C246.837996,95.2909236 248.083287,95.0169196 249.332854,94.7418195 C249.763291,94.6502585 250.185354,94.931195 250.278994,95.3715962 C250.372634,95.8119975 250.102919,96.2475743 249.674374,96.3480311 C248.423738,96.6297072 247.176844,96.9069993 245.933691,97.1799073 C245.877024,97.1896247 245.819548,97.1934801 245.762129,97.1914154 L245.757319,97.1897714 Z M253.227462,95.5178001 C252.818653,95.5178951 252.475252,95.2025716 252.430423,94.7859275 C252.385593,94.3692835 252.653696,93.9847864 253.052693,93.8935031 C254.335397,93.5975788 255.587636,93.3049425 256.772533,93.0221704 C257.053403,92.9505496 257.350116,93.0397166 257.548845,93.2554641 C257.747574,93.4712116 257.81746,93.7800397 257.731694,94.0634728 C257.645928,94.3469058 257.417827,94.560934 257.134896,94.6234498 C255.946792,94.906222 254.691347,95.2005023 253.403833,95.4964266 C253.346083,95.5107305 253.286873,95.5179055 253.227462,95.5178001 L253.227462,95.5178001 Z M260.673554,93.7406089 C260.267633,93.7402015 259.926066,93.4287694 259.878234,93.0154587 C259.830403,92.602148 260.091404,92.2174018 260.485958,92.1196011 C261.751024,91.8055925 262.998453,91.4899399 264.191367,91.1792194 C264.471504,91.0992632 264.771903,91.1811138 264.976375,91.3931126 C265.180847,91.6051114 265.25733,91.9140163 265.176241,92.2003481 C265.095153,92.4866798 264.869208,92.7055406 264.585798,92.7722787 C263.386471,93.0846433 262.134232,93.4019399 260.862752,93.7175925 C260.800609,93.7314339 260.737142,93.7380517 260.673554,93.7373208 L260.673554,93.7406089 Z M268.093992,91.8088806 C267.691718,91.8086572 267.351893,91.50279 267.299551,91.093825 C267.247209,90.68486 267.498559,90.2994459 267.887156,90.1928049 C269.139395,89.8492039 270.378807,89.5006708 271.574927,89.1537817 C271.999925,89.03256 272.440585,89.2861757 272.561017,89.721311 C272.681448,90.1564464 272.436396,90.6095891 272.01265,90.7353329 C270.813322,91.083866 269.565893,91.4356871 268.305638,91.7809322 C268.236556,91.7992347 268.165317,91.8075353 268.093992,91.8055925 L268.093992,91.8088806 Z M275.458311,89.6716499 C275.060236,89.6721531 274.722095,89.373081 274.664166,88.9692596 C274.606237,88.5654383 274.846068,88.1791978 275.227425,88.0621497 C276.46363,87.6790921 277.685405,87.2878144 278.862285,86.8965366 C279.283793,86.7571633 279.735684,86.994541 279.871612,87.4267344 C280.007539,87.8589279 279.776031,88.3222743 279.354522,88.4616476 C278.169625,88.8545693 276.936627,89.2491351 275.690801,89.6354808 C275.615119,89.6567468 275.536738,89.6661692 275.458311,89.6634292 L275.458311,89.6716499 Z M282.732842,87.2532899 C282.34214,87.2525127 282.008883,86.9630635 281.943881,86.5680398 C281.878878,86.1730161 282.101063,85.7874748 282.469888,85.6552985 C283.685249,85.2212761 284.887783,84.7741016 286.045423,84.326927 C286.315795,84.2112994 286.626149,84.25609 286.854889,84.4437498 C287.083629,84.6314096 287.194328,84.9320548 287.143616,85.2278934 C287.092903,85.5237321 286.888855,85.7676533 286.611415,85.8640895 C285.440949,86.3161961 284.225588,86.7683028 282.997399,87.2072572 C282.911896,87.2349425 282.822469,87.247724 282.732842,87.2450697 L282.732842,87.2532899 Z M289.880705,84.4748892 C289.497024,84.4758664 289.166456,84.1979633 289.092187,83.8119953 C289.017918,83.4260274 289.220772,83.040212 289.576063,82.891694 C290.767374,82.3984868 291.941047,81.8740431 293.065016,81.3561755 C293.469699,81.1682259 293.946356,81.3522395 294.129659,81.7671816 C294.312962,82.1821236 294.133498,82.6708638 293.728815,82.8588135 C292.588812,83.3832572 291.397502,83.9077009 290.191761,84.4140603 C290.093151,84.4556855 289.987334,84.4763786 289.880705,84.4748892 Z M296.852197,81.2591796 C296.48017,81.2583962 296.157549,80.9952906 296.073086,80.6237931 C295.988622,80.2522956 296.164512,79.8700299 296.49785,79.7006433 C297.647473,79.1170147 298.779459,78.5136579 299.864946,77.908657 C300.116743,77.7599787 300.42729,77.7626362 300.676632,77.915603 C300.925974,78.0685697 301.075077,78.3478985 301.066347,78.6456941 C301.057617,78.9434897 300.892421,79.2131316 300.634568,79.3504661 C299.536253,79.9669752 298.389837,80.5801961 297.214561,81.1736888 C297.10343,81.2301613 296.981037,81.2594251 296.857007,81.2591796 L296.852197,81.2591796 Z M303.552718,77.4910761 C303.19312,77.4917126 302.877102,77.2467571 302.779645,76.8918427 C302.682188,76.5369283 302.827139,76.1588954 303.134236,75.9670646 C304.22774,75.2831506 305.293987,74.5745762 306.305719,73.8627138 C306.541726,73.6961991 306.846444,73.671433 307.105088,73.7977448 C307.363732,73.9240566 307.537009,74.1822563 307.559646,74.4750828 C307.582283,74.7679092 307.450842,75.050875 307.214835,75.2173896 C306.179053,75.9473363 305.087151,76.6707069 303.969596,77.3710611 C303.845399,77.4486489 303.702958,77.4901346 303.557528,77.4910761 L303.552718,77.4910761 Z M309.844377,73.0522134 C309.501309,73.0532295 309.195632,72.8303085 309.083996,72.4976878 C308.972359,72.165067 309.07951,71.7964763 309.350536,71.5808083 C310.354251,70.7785246 311.327502,69.9466484 312.236618,69.1147722 C312.449535,68.9156368 312.75031,68.8490014 313.024417,68.9402389 C313.298523,69.0314764 313.503778,69.2665461 313.562027,69.5559403 C313.620276,69.8453345 313.522554,70.1445179 313.306072,70.3395702 C312.364889,71.2043268 311.36438,72.0592193 310.331804,72.8845194 C310.192798,72.9921598 310.023381,73.0504484 309.849187,73.0505659 L309.844377,73.0522134 Z M315.534769,67.825859 C315.212899,67.8265263 314.921846,67.6297486 314.795646,67.3261442 C314.669446,67.0225399 314.73257,66.6709816 314.955949,66.433369 C315.832997,65.4995633 316.671565,64.5295891 317.449203,63.5513947 C317.729028,63.1995566 318.234041,63.1469287 318.57718,63.4338471 C318.92032,63.7207654 318.971647,64.2385798 318.691822,64.590418 C317.890133,65.6031368 317.019498,66.6059915 316.111985,67.5726776 C315.961148,67.734021 315.752741,67.8254329 315.534769,67.825859 Z M320.344906,61.7561208 C320.047856,61.7563833 319.775014,61.588211 319.635889,61.3191025 C319.496764,61.0499941 319.514165,60.7240668 319.681107,60.4721376 C320.383387,59.4117421 321.040772,58.310246 321.637229,57.2021738 C321.775568,56.944913 322.037253,56.7828681 322.323708,56.7770797 C322.610164,56.7712914 322.877872,56.9226391 323.025988,57.1741116 C323.174105,57.4255841 323.180128,57.7389767 323.041789,57.9962374 C322.422885,59.1470542 321.738242,60.2978711 321.008705,61.3944352 C320.859691,61.6204817 320.611001,61.755986 320.344906,61.7561208 Z M324.023057,54.910413 C323.752706,54.9102614 323.500634,54.7704143 323.352615,54.5384496 C323.204597,54.3064849 323.180569,54.0136491 323.28871,53.7595873 L323.368879,53.5688805 C323.830104,52.4740217 324.205416,51.3431827 324.491244,50.187123 C324.555094,49.8961837 324.767612,49.6635211 325.046572,49.5791542 C325.325532,49.4947873 325.627176,49.5719504 325.834794,49.7807884 C326.042413,49.9896264 326.123438,50.2973801 326.046521,50.5849768 C325.741082,51.8250862 325.340044,53.0383563 324.847194,54.213338 L324.762215,54.4155529 C324.63456,54.7172651 324.343804,54.9119203 324.023057,54.910413 Z M325.818842,47.3380293 L325.785171,47.3380293 C325.343536,47.3193364 324.99998,46.9376544 325.017152,46.4847808 C325.025169,46.2562614 325.029979,46.0260981 325.029979,45.7992228 C325.030318,44.7855147 324.93907,43.7739539 324.757405,42.7775065 C324.675937,42.3312395 324.962721,41.9017516 325.397955,41.8182184 C325.833189,41.7346853 326.252058,42.0287391 326.333526,42.4750061 C326.533073,43.5712498 326.633443,44.6840486 326.633358,45.7992228 C326.633358,46.0491144 326.633358,46.3022941 326.618928,46.5505418 C326.599234,46.98906 326.246971,47.334328 325.818842,47.3347412 L325.818842,47.3380293 Z M324.433522,39.7163387 C324.113739,39.7174755 323.82388,39.5236448 323.695968,39.2231264 C323.211588,38.0745943 322.620983,36.9762985 321.932251,35.9432984 C321.761419,35.7009001 321.732458,35.3824944 321.856631,35.1118867 C321.980804,34.841279 322.238515,34.6611707 322.529559,34.6415932 C322.820603,34.6220157 323.099054,34.7660582 323.256642,35.0177129 C324.007959,36.1368985 324.652291,37.3277488 325.180697,38.5737369 C325.264747,38.7740819 325.267703,39.0004631 325.188915,39.2030438 C325.110127,39.4056245 324.956053,39.5677973 324.760612,39.6538608 C324.656887,39.6970703 324.545406,39.717242 324.433522,39.7130456 L324.433522,39.7163387 Z M320.184568,33.2536751 C319.96365,33.2537653 319.752487,33.160378 319.600938,32.9955632 C318.745852,32.0725064 317.835507,31.2049731 316.875194,30.3980052 C316.643488,30.2147074 316.527602,29.9165155 316.572861,29.6200552 C316.618119,29.3235948 316.81733,29.0759765 317.09258,28.9740461 C317.367831,28.8721156 317.67538,28.9320708 317.894943,29.1304626 C318.905281,29.9807179 319.862764,30.894936 320.761784,31.8677627 C320.981121,32.1062974 321.041254,32.455659 320.9148,32.756767 C320.788347,33.0578751 320.49949,33.2531504 320.179758,33.2536751 L320.184568,33.2536751 Z M314.319408,28.2574893 C314.161235,28.257956 314.006548,28.2098581 313.875272,28.1193878 C312.871556,27.4321858 311.790879,26.7597799 310.668514,26.1202545 C310.4179,25.9778214 310.260431,25.7091174 310.255425,25.4153609 C310.250419,25.1216043 310.398636,24.8474237 310.644245,24.6961003 C310.889853,24.5447769 311.195538,24.5393003 311.446152,24.6817335 C312.610206,25.3393431 313.727761,26.0396974 314.768354,26.7515598 C315.062422,26.9526136 315.19338,27.3274105 315.090735,27.6741976 C314.988089,28.0209848 314.676061,28.25793 314.322614,28.2574893 L314.319408,28.2574893 Z M307.647748,24.4466383 C307.53029,24.446725 307.414248,24.4203466 307.307831,24.3693689 C306.2015,23.8399931 305.03424,23.3237696 303.841326,22.8371385 C303.44272,22.6612737 303.252942,22.1921333 303.41313,21.7786177 C303.573318,21.365102 304.025316,21.157338 304.432973,21.3098401 C305.656351,21.8030473 306.852472,22.3357111 307.987664,22.8798831 C308.328231,23.0430268 308.512513,23.4268907 308.430887,23.803124 C308.349261,24.1793572 308.023649,24.4469167 307.647748,24.4466383 L307.647748,24.4466383 Z M300.549589,21.5449368 C300.46175,21.5447398 300.37454,21.5297437 300.291445,21.5005469 C299.122582,21.0944729 297.90722,20.7031952 296.677429,20.3382219 C296.393614,20.2643922 296.171631,20.0377816 296.098378,19.7471007 C296.025124,19.4564198 296.112255,19.1479113 296.32566,18.9423462 C296.539065,18.7367811 296.844795,18.6668615 297.123168,18.7599587 C298.37701,19.1315082 299.614819,19.529362 300.81094,19.9436561 C301.183628,20.0719478 301.410602,20.4584068 301.346876,20.8561716 C301.28315,21.2539365 300.947529,21.5456346 300.554399,21.5449368 L300.549589,21.5449368 Z M293.207717,19.3600407 C293.143436,19.3604043 293.079355,19.3526741 293.016914,19.3370112 C291.811173,19.0328667 290.565348,18.7451625 289.316316,18.4821187 C288.88241,18.3913217 288.602446,17.9570495 288.690998,17.5121445 C288.77955,17.0672395 289.203086,16.7801782 289.636992,16.8709751 C290.906868,17.140595 292.171934,17.4315873 293.396915,17.7406638 C293.788827,17.8413535 294.046423,18.2253397 293.997964,18.6366182 C293.949505,19.0478966 293.610135,19.3579338 293.206113,19.3600407 L293.207717,19.3600407 Z M285.72154,17.7751997 C285.675871,17.7754379 285.630267,17.7715871 285.585253,17.7636802 C284.357065,17.548313 283.093602,17.3510301 281.831743,17.1734755 C281.547904,17.1335355 281.306408,16.9413649 281.198223,16.6693524 C281.090037,16.39734 281.131599,16.0868109 281.307252,15.8547385 C281.482906,15.6226661 281.765964,15.5043076 282.049802,15.5442477 C283.332505,15.7234463 284.615209,15.9256612 285.854621,16.1426724 C286.265431,16.2139062 286.554552,16.5959248 286.519847,17.0216457 C286.485143,17.4473666 286.138184,17.7748706 285.72154,17.7751997 L285.72154,17.7751997 Z M243.828454,17.3313018 C243.385693,17.3612648 243.003075,17.0175273 242.973853,16.5635426 C242.944631,16.1095579 243.27987,15.7172408 243.722631,15.6872777 C244.98449,15.5113672 246.268797,15.3584729 247.535466,15.2072227 C247.82045,15.175212 248.100442,15.301524 248.26997,15.5385784 C248.439499,15.7756328 248.47281,16.0874153 248.357355,16.3564804 C248.241899,16.6255455 247.995219,16.8110159 247.710235,16.8430267 C246.456392,16.9827687 245.186516,17.1422391 243.937484,17.3165056 C243.903611,17.3236188 243.86934,17.3285604 243.834868,17.3313018 L243.828454,17.3313018 Z M278.140764,16.7082167 C278.11246,16.7098281 278.08409,16.7098281 278.055785,16.7082167 C276.811563,16.5717627 275.53848,16.453393 274.271811,16.3547515 C273.82905,16.3202487 273.4974,15.9242513 273.53105,15.4702666 C273.5647,15.0162819 273.950907,14.6762246 274.393668,14.7107274 C275.676371,14.8110129 276.959074,14.9310267 278.22414,15.0674807 C278.666901,15.0910879 279.007165,15.4782526 278.984142,15.9322373 C278.961118,16.386222 278.583525,16.735112 278.140764,16.7115047 L278.140764,16.7082167 Z M251.422057,16.4764093 C250.979296,16.4954767 250.605292,16.1429065 250.586696,15.6889218 C250.568101,15.2349371 250.911954,14.8514526 251.354715,14.8323852 C252.626195,14.7222356 253.920121,14.6285262 255.188394,14.5529011 C255.631155,14.52657 256.010901,14.8732518 256.036582,15.3272365 C256.062262,15.7812212 255.724151,16.1705941 255.28139,16.1969252 C254.022738,16.2709063 252.746448,16.3613276 251.489399,16.4714772 C251.470803,16.4742438 251.452065,16.4758906 251.433281,16.4764093 L251.422057,16.4764093 Z M270.527921,16.111436 L270.48944,16.111436 C269.235597,16.0506071 267.957704,16.0045744 266.691035,15.97827 C266.248274,15.9691903 265.896524,15.5938024 265.905379,15.1398177 C265.914235,14.685833 266.280342,14.3251662 266.723103,14.3342459 C268.005806,14.3621943 269.298129,14.406583 270.571212,14.4690559 C271.013973,14.4799515 271.364287,14.8568115 271.353661,15.3107962 C271.343035,15.7647809 270.975492,16.1239756 270.532731,16.11308 L270.527921,16.111436 Z M42.6268392,205.841679 C42.6711153,206.295663 42.3480796,206.700493 41.9053187,206.745892 C41.8748545,206.745892 41.1581441,206.823161 39.9267491,206.860974 L39.9043018,206.852753 C39.4615409,206.859109 39.0975873,206.496234 39.0913887,206.04225 C39.08519,205.588265 39.4390936,205.215085 39.8818545,205.208729 C41.0491144,205.174205 41.7385673,205.103512 41.7449808,205.101868 C42.1877417,205.056469 42.5825631,205.387694 42.6268392,205.841679 Z M240.748882,16.5491682 C240.932905,16.7780798 240.982362,17.0909001 240.878291,17.3676979 C240.77422,17.6444956 240.532768,17.8423239 240.246505,17.8853379 C239.617981,17.9905555 238.983043,18.0990611 238.359328,18.2141428 C238.313281,18.2223035 238.266539,18.2256088 238.219834,18.2240069 C237.802247,18.2262929 237.452886,17.8995145 237.416854,17.4729325 C237.380823,17.0463504 237.670191,16.6628517 238.081944,16.591491 C238.713675,16.4796974 239.355027,16.3679037 239.989965,16.2626862 C240.27482,16.2107708 240.564858,16.3202566 240.748882,16.5491682 Z M262.886217,14.3046535 C263.328978,14.3046535 263.687906,14.6726808 263.687906,15.1266655 C263.687906,15.5806503 263.328978,15.9486776 262.886217,15.9486776 C261.629168,15.9486776 260.351274,15.9815581 259.086208,16.0226587 L259.063761,16.0226587 C258.621,16.0299224 258.256329,15.6677835 258.249245,15.2137988 C258.24216,14.7598141 258.595346,14.3858984 259.038107,14.3786346 C259.893243,14.3512342 260.748378,14.3304099 261.603513,14.317623 L262.886217,14.3046535 Z" id="Shape" fill="#001BA0" fill-rule="nonzero"></path>
                            <g id="Planes" transform="translate(191.429333, 0.000000)">
                                <polygon id="Path" fill="#2D5AC9" points="43.8146297 19.7907618 47.6018108 22.942356 34.5214451 22.5181978 20.7740737 19.7907618 26.5494448 13.6782803"></polygon>
                                <polygon id="Path" fill="#5587E0" points="39.3428057 8.90239038 40.3978291 10.6861565 47.6018108 22.942356 39.7147896 19.9189957 37.9767268 21.574528 12.3819881 18.3111402 0.148206519 15.3239484 22.6372001 9.22133105"></polygon>
                                <path d="M0.148206519,15.3239484 L42.1294784,0.0345245056 C42.3269001,-0.0369836977 42.5466832,0.00875724587 42.7012912,0.15352938 C42.8558991,0.298301514 42.9202201,0.518590585 42.8686361,0.726658642 L40.3978291,10.6861565 L0.148206519,15.3239484 Z" id="Path" fill="#98BFF9"></path>
                                <path d="M39.7147896,19.9189957 L0.148206519,15.3239484 L38.4481202,33.1237971 C38.6203326,33.2039055 38.8201444,33.1908118 38.98101,33.0888768 C39.1418755,32.9869417 39.2426644,32.8095549 39.2498097,32.6157937 L39.7147896,19.9189957 Z" id="Path" fill="#98BFF9"></path>
                            </g>
                        </g>
                        <g id="People" transform="translate(279.517333, 100.878000)">
                            <polygon id="Path" fill="url(#linearGradient-16)" opacity="0.56" points="18.495663 45.8478609 41.7590886 107.580965 132.670677 89.4671077 123.438421 0.319902096"></polygon>
                            <path d="M162.228968,166.100002 L162.228968,227.400728 C162.228968,227.400728 143.504709,233.197557 146.299398,234.677178 C149.094088,236.1568 179.694576,234.677178 183.14184,234.677178 C186.589105,234.677178 182.396269,231.316793 168.608813,227.400728 L168.422821,166.100002 L162.228968,166.100002 Z" id="Path" fill="url(#linearGradient-17)"></path>
                            <path d="M196.736891,85.8305264 C196.736891,85.8305264 199.717572,77.5199847 197.480859,67.4914379 C195.244145,57.462891 177.919635,45.3842461 162.921628,63.3402771 C147.923621,81.296308 153.793592,117.254403 151.184894,127.378303 C148.576196,137.502203 150.320673,161.85842 150.320673,161.85842 L188.63181,157.847001 L184.286653,116.297581 L196.736891,85.8305264 Z" id="Path" fill="url(#linearGradient-18)"></path>
                            <g id="Group-5" transform="translate(34.320000, 16.813000)">
                                <path d="M111.843111,51.576075 C111.843111,51.576075 92.2193556,66.4117483 86.1890473,72.6524637 C86.1890473,72.6524637 86.9907368,82.0760097 93.2070371,82.845413 L110.121082,68.6032324 L111.843111,51.576075 Z" id="Path" fill="#C5D5FC"></path>
                                <path d="M111.575347,108.502053 C111.575347,108.502053 92.6971626,110.603115 83.6300544,112.832412 C74.5629463,115.061709 63.5717834,117.225244 60.9630858,121.555604 C58.3543882,125.885963 45.3766387,149.832818 41.5878542,156.195191 C37.7990696,162.557564 28.2798086,182.663979 28.2798086,182.663979 L41.5541832,191.258937 C41.5541832,191.258937 50.6357218,179.08165 57.7627413,167.619515 C64.8897609,156.157379 71.4555978,142.117413 71.4555978,142.117413 L123.712926,122.634084 L111.575347,108.502053 Z" id="Path" fill="#EF7700"></path>
                                <path d="M114.49991,113.61168 C114.49991,113.61168 83.4793368,121.062397 75.7943414,123.927931 C68.1093459,126.793465 62.9400521,131.950768 66.8522968,142.122345 C70.7645415,152.293922 83.4793368,193.269578 83.4793368,193.269578 L97.0343027,190.834779 C97.0343027,190.834779 94.1001192,164.903587 91.7239115,155.30413 C89.3477039,145.704674 87.2520876,142.122345 87.2520876,142.122345 C87.2520876,142.122345 101.644017,143.273162 117.716288,140.971528 C133.788559,138.669895 142.820393,133.427102 144.079045,130.32154 L114.49991,113.61168 Z" id="Path" fill="#FDA118"></path>
                                <g id="Group" transform="translate(80.947281, 120.862045)">
                                    <path d="M0.268084966,69.5814559 C0.454076927,69.5337792 17.9196842,65.6653905 17.9196842,65.6653905 L18.2932715,71.6693664 C18.2932715,71.6693664 1.03770688,76.1723484 0.816440577,75.8386115 C0.595174278,75.5048746 0.268084966,69.5814559 0.268084966,69.5814559 Z" id="Path" fill="#BA5400"></path>
                                    <path d="M38.8790542,0.047457495 C38.8790542,0.047457495 42.9772909,9.40853059 35.992972,12.1787112 C29.0086532,14.9488917 6.29518656,21.2603002 6.29518656,21.2603002 L28.1620691,30.5490362 C28.1620691,30.5490362 61.2397775,23.162436 61.2301572,22.3026114 C61.2205369,21.4427868 63.7955636,3.96352285 63.1189376,3.86816945 C62.4423117,3.77281605 38.8790542,0.047457495 38.8790542,0.047457495 Z" id="Path" fill="#F48725" opacity="0.84"></path>
                                </g>
                                <path d="M112.518134,46.5782418 C112.518134,46.5782418 107.60538,51.64348 107.124367,61.8117689 C106.643353,71.9800578 111.530452,108.428072 111.530452,108.428072 C111.530452,108.428072 117.932744,133.198582 146.588334,129.843129 C146.588334,129.843129 148.283105,118.852828 146.628418,108.03515 C144.973731,97.2174714 144.35162,87.4963571 143.052883,75.3700355 C141.754146,63.2437139 136.97287,53.3565531 131.361043,48.3406356 C125.749217,43.3247182 121.033679,41.3222968 119.52009,41.8319443 L113.986829,45.5885393 L112.518134,46.5782418 Z" id="Path" fill="#FFFFFF"></path>
                                <g id="Group" transform="translate(103.333337, 47.627239)">
                                    <mask id="mask-20" fill="white">
                                        <use xlink:href="#path-19"></use>
                                    </mask>
                                    <use id="Path" fill="#DEE7FF" xlink:href="#path-19"></use>
                                    <path d="M9.60488145,-1.57344064 C9.92555724,-0.68073557 6.06943079,3.67099616 5.17955546,9.52207786 C3.56014269,20.1589136 9.3034462,70.6797735 9.3034462,70.6797735 L1.70663659,59.7815379 L-2.15750676,3.11860407 L9.60488145,-1.57344064 Z" id="Path" mask="url(#mask-20)"></path>
                                </g>
                                <g id="Group" transform="translate(88.286787, 0.345319)">
                                    <mask id="mask-22" fill="white">
                                        <use xlink:href="#path-21"></use>
                                    </mask>
                                    <use id="Path" fill="#0B0B6D" xlink:href="#path-21"></use>
                                    <path d="M3.30404416,2.96385296 C3.30404416,2.96385296 8.76835972,2.07279191 11.4395891,5.44797335 C11.4395891,5.44797335 14.3577389,2.3243276 19.1358082,1.62726139 C23.9138776,0.93019518 28.9388673,1.12090197 34.4753349,4.87420894 L32.6122086,0.6720834 L18.8231493,-0.728625114 L6.21578039,1.62726139 L3.30404416,2.96385296 Z" id="Path" fill="#4D4DAA" mask="url(#mask-22)"></path>
                                </g>
                                <mask id="mask-24" fill="white">
                                    <use xlink:href="#path-23"></use>
                                </mask>
                                <use id="Path" fill="#FDB2D0" xlink:href="#path-23"></use>
                                <path d="M109.859731,40.2487491 L111.302772,38.9138016 C111.302772,38.9138016 115.014595,35.7901558 115.997466,34.8218256 C116.980337,33.8534954 115.165312,41.5869847 112.558218,43.6880475 L109.859731,40.2487491 Z" id="Path" fill="#F476AF" mask="url(#mask-24)"></path>
                                <g id="Group" mask="url(#mask-24)" fill="#F476AF">
                                    <g transform="translate(94.938686, 14.324133)" id="Path">
                                        <path d="M1.04059296,8.39931901 C1.04059296,8.39931901 5.46591895,9.11446949 9.75014758,6.15358212 C9.75014758,6.15358212 15.0829861,8.58016166 18.6007996,7.92090801 C22.118613,7.26165435 24.8411506,13.5105899 24.8411506,13.5105899 L22.9780242,3.61685297 L11.47378,0 L0.0160337898,3.48697507 L1.04059296,8.39931901 Z"></path>
                                    </g>
                                </g>
                                <g id="Group" transform="translate(97.727390, 51.291440)">
                                    <mask id="mask-26" fill="white">
                                        <use xlink:href="#path-25"></use>
                                    </mask>
                                    <use id="Path" fill="#FFFFFF" xlink:href="#path-25"></use>
                                    <mask id="mask-28" fill="white">
                                        <use xlink:href="#path-27"></use>
                                    </mask>
                                    <use id="Path" fill="#DEE7FF" xlink:href="#path-27"></use>
                                    <path d="M38.2045661,7.26362718 C38.2045661,7.26362718 36.2805113,13.1821139 31.4351001,19.9998817 C26.5896888,26.8176496 11.8113447,43.8628912 11.8113447,43.8628912 C11.8113447,43.8628912 13.5510109,44.191696 13.7353995,44.191696 C13.9197881,44.191696 38.0169708,16.1101207 38.0795026,15.4738834 C38.1420343,14.8376461 38.2045661,7.26362718 38.2045661,7.26362718 Z" id="Path" fill="#1263C4" mask="url(#mask-28)"></path>
                                </g>
                                <rect id="Rectangle" fill="#576EF7" x="9.48179346" y="101.243686" width="35.7088533" height="5.22142047"></rect>
                                <g id="Group-2" transform="translate(35.654283, 88.036364)">
                                    <mask id="mask-30" fill="white">
                                        <use xlink:href="#path-29"></use>
                                    </mask>
                                    <use id="Path" fill="#FDB2D0" xlink:href="#path-29"></use>
                                    <path d="M37.3533857,17.1612001 C37.3533857,17.1612001 55.2567154,14.3663592 58.3576503,10.4207014 C61.4585853,6.47504363 63.3666063,4.60250021 63.3666063,4.60250021 L69.9677175,12.5941012 L48.0302863,19.1701976 L37.3533857,17.1612001 Z" id="Path" fill="#F476AF" mask="url(#mask-30)"></path>
                                </g>
                                <g id="Group-3" transform="translate(29.899756, 75.448839)">
                                    <mask id="mask-32" fill="white">
                                        <use xlink:href="#path-31"></use>
                                    </mask>
                                    <use id="Path" fill="#FDB2D0" xlink:href="#path-31"></use>
                                    <path d="M29.8447619,22.0629127 C29.9377579,21.9182386 52.479663,12.5588095 53.5507201,8.92880437 C54.6217773,5.2987992 53.7367121,3.38351115 53.7367121,3.38351115 L63.6119232,9.55024547 L29.8447619,22.0629127 Z" id="Path" fill="#F476AF" mask="url(#mask-32)"></path>
                                </g>
                                <g id="Group-6" transform="translate(98.002667, 63.342000)">
                                    <mask id="mask-35" fill="white">
                                        <use xlink:href="#path-34"></use>
                                    </mask>
                                    <use id="Path" fill="url(#linearGradient-33)" xlink:href="#path-34"></use>
                                    <path d="M-0.53224486,85.945002 C-0.53224486,85.945002 -0.485746869,81.2069246 1.93535539,79.5842729 C4.35645765,77.9616211 13.5806969,77.0047991 18.7499908,76.3373253 C23.9192846,75.6698515 27.8315293,75.5251774 34.8655529,71.7521422 C41.8995765,67.9791069 43.2961196,63.1078636 44.5996667,58.6673545 C45.9032138,54.2268455 47.2083643,46.2500407 46.788279,40.2805893 C46.3681937,34.3111378 49.0714907,19.7450845 50.7967265,10.0502745 L25.7166724,65.0658962 L-0.622034082,75.2078808 L-2.7641484,83.5924036 L-0.53224486,85.945002 Z" id="Path" fill="#07459E" mask="url(#mask-35)"></path>
                                </g>
                                <path d="M86.8785003,73.0338773 C86.8785003,73.0338773 86.5834785,71.6019323 85.4194254,72.1592565 C84.2553722,72.7165806 81.5841429,74.3721129 81.9721606,75.8040578 C82.3601783,77.2360028 83.4007712,81.2293373 86.7390063,83.874572 C90.0772413,86.5198068 92.4518456,85.6829985 93.2904128,84.5436898 C94.12898,83.4043811 94.7655215,82.2420561 92.0173299,80.7624345 C89.2691383,79.2828128 86.8785003,73.0338773 86.8785003,73.0338773 Z" id="Path" fill="#98BFF9"></path>
                                <path d="M98.3170059,84.9431877 C98.296162,84.8018016 98.3490735,82.713891 97.3245143,83.0328317 C96.2999552,83.3517724 93.3160669,86.0249555 93.7842535,87.3303106 C94.2524402,88.6356658 99.1251089,100.646906 102.726298,100.646906 C106.327487,100.646906 107.92766,96.9264792 107.509178,96.1570759 C107.090696,95.3876726 103.782925,93.8965428 102.229251,91.8267165 C100.675576,89.7568902 98.5494959,86.4622659 98.3170059,84.9431877 Z" id="Path" fill="#98BFF9"></path>
                                <polygon id="Path" fill="#0000A0" points="81.7637213 208.172656 79.4452353 204.226999 78.051899 204.919133 80.3190768 208.986448"></polygon>
                                <path d="M85.1981591,206.546717 L82.8235548,202.502417 C82.3938492,202.730937 81.9320761,202.970964 81.4462523,203.217568 L83.755118,207.358865 L85.1981591,206.546717 Z" id="Path" fill="#0000A0"></path>
                                <path d="M91.6726034,203.107418 C95.0813871,202.507349 97.1818136,201.18391 98.3170059,200.220512 L96.9829946,193.269578 L85.6791728,195.355845 C85.6791728,195.355845 86.3622122,198.793499 85.9902283,200.322441 C85.9170122,200.501297 85.7965015,200.655612 85.6422951,200.767972 C86.3157142,202.033871 87.9383338,203.766672 91.6726034,203.107418 Z" id="Path" fill="#FDB2D0"></path>
                                <polygon id="Path" fill="#0000A0" points="68.0115398 214.807938 67.2355044 215.731879 67.2355044 217.865822 99.5900888 217.530441 99.4040969 214.395288 96.1909254 213.185286"></polygon>
                                <path d="M98.3795377,200.546029 L98.3170059,200.217224 C97.1818136,201.180622 95.0813871,202.504061 91.6726034,203.10413 C87.9383338,203.76174 86.3157142,202.030582 85.6422951,200.764684 C85.1372307,201.210214 84.1206884,201.808639 82.8235548,202.499129 L85.1981591,206.543429 L83.755118,207.355576 L81.4462523,203.21428 C80.8129176,203.543085 80.1394984,203.871889 79.4452353,204.220423 L81.7637213,208.16608 L80.3206802,208.976584 L78.0535023,204.909269 C77.4362014,205.215057 76.812487,205.525778 76.1951861,205.836498 L78.5024485,209.769004 L77.0594074,210.581152 L74.8146768,206.541785 C72.0777089,207.952357 69.6646235,209.313609 68.7346637,210.313176 C66.1259661,213.108017 67.2435213,215.725303 67.2435213,215.725303 L99.4121138,214.388711 L98.3795377,200.546029 Z" id="Path" fill="#4165F9"></path>
                                <path d="M78.5008451,209.77558 L76.1935827,205.843074 C75.7253961,206.07817 75.2620195,206.314909 74.8066599,206.548361 L77.0513905,210.587728 L78.5008451,209.77558 Z" id="Path" fill="#0000A0"></path>
                                <path d="M81.470303,192.746779 L82.6054953,196.613523 C82.699444,196.936512 83.0202483,197.13072 83.3414462,197.059054 C86.3076973,196.401444 99.8674734,193.355067 99.8674734,193.277798 C99.8674734,193.200529 99.4361644,189.94865 99.2501725,188.552873 C99.2052204,188.204223 98.8947565,187.95777 98.554306,188.000481 C95.9632456,188.307914 85.8587512,189.644505 81.7557044,192.010256 C81.5067273,192.159276 81.3889613,192.463189 81.470303,192.746779 L81.470303,192.746779 Z" id="Path" fill="#FDA118"></path>
                                <polygon id="Path" fill="#0000A0" points="17.4698275 196.376784 17.4233296 191.773516 15.880879 191.645282 15.8231573 196.330751"></polygon>
                                <path d="M21.2345614,196.761485 L21.1832533,192.043136 C20.7022396,192.016832 20.1827448,191.983951 19.6424061,191.944495 L19.5846844,196.712165 L21.2345614,196.761485 Z" id="Path" fill="#0000A0"></path>
                                <path d="M28.513902,197.162627 C31.7495208,198.415374 34.2139142,198.366053 35.6697824,198.127669 L38.5558645,191.743924 L28.7079108,186.731294 C28.7079108,186.731294 26.0783693,190.676952 25.002502,191.808041 C24.8505598,191.923892 24.6700806,191.993928 24.4814038,192.010256 C24.4284923,193.452065 24.9704344,195.789867 28.513902,197.162627 Z" id="Path" fill="#F476AF"></path>
                                <polygon id="Path" fill="#0000A0" points="2.33392997 194.949771 1.20835792 195.342693 0.154937931 197.180711 28.20926 213.70973 29.5993895 210.909957 27.426811 208.197317"></polygon>
                                <path d="M35.562356,198.43839 L35.6697824,198.127669 C34.2139142,198.366053 31.7495208,198.415374 28.513902,197.162627 C24.9704344,195.789867 24.4284923,193.452065 24.4733869,192.010256 C23.8176049,192.131914 22.6455349,192.120405 21.18646,192.039848 L21.2345614,196.761485 L19.5878912,196.710521 L19.6456128,191.942851 C18.9385227,191.891886 18.1913481,191.832701 17.4233296,191.770228 L17.4698275,196.373496 L15.8231573,196.322531 L15.880879,191.637062 C15.1962362,191.581165 14.5051798,191.523625 13.8189336,191.47266 L13.8654316,196.062775 L12.2187614,196.01181 L12.2748796,191.359222 C9.21883931,191.152075 6.46423422,191.071518 5.17030738,191.449644 C1.53705061,192.508395 1.2099613,195.341049 1.2099613,195.341049 L29.5993895,210.908313 L35.562356,198.43839 Z" id="Path" fill="#4165F9"></path>
                                <path d="M13.8654316,196.064419 L13.8189336,191.474304 C13.2994388,191.434847 12.7831508,191.395391 12.2748796,191.360866 L12.2187614,196.013454 L13.8654316,196.064419 Z" id="Path" fill="#0000A0"></path>
                                <path d="M27.4364313,181.403012 L25.6230097,184.986985 C25.4719367,185.286523 25.5702732,185.6548 25.8490861,185.833657 C28.4273195,187.477681 40.2185685,194.982651 40.2794969,194.921822 C40.3404253,194.860993 42.2340159,192.225623 43.0485324,191.09289 C43.2521036,190.810129 43.1971807,190.412266 42.9250723,190.198541 C40.8567134,188.567669 32.706738,182.307226 28.1515383,181.072564 C27.8671582,180.997981 27.5702996,181.135158 27.4364313,181.403012 Z" id="Path" fill="#FDA118"></path>
                            </g>
                            <g id="Group-4" transform="translate(0.000000, 44.574000)">
                                <rect id="Rectangle" fill="#07076B" x="0.144990568" y="78.2026795" width="112.900328" height="5.97767155" rx="2.98883577"></rect>
                                <path d="M5.21552172,131.167953 L107.97639,131.167953 C108.902203,131.167953 109.652723,131.918473 109.652723,132.844286 C109.652723,133.770099 108.902203,134.520619 107.97639,134.520619 L5.21552172,134.520619 C4.28970872,134.520619 3.539189,133.770099 3.539189,132.844286 C3.539189,131.918473 4.28970872,131.167953 5.21552172,131.167953 Z" id="Rectangle" fill="#07076B" transform="translate(56.595956, 132.844286) rotate(90.000000) translate(-56.595956, -132.844286) "></path>
                                <rect id="Rectangle" fill="#07076B" x="41.5714933" y="184.067966" width="30.0441153" height="5.97767155" rx="2.98883577"></rect>
                                <polygon id="Path" fill="url(#linearGradient-36)" points="31.691472 57.4370114 31.691472 75.0116288 34.5486934 75.0116288 34.5486934 62.7866658"></polygon>
                                <path d="M34.5711407,66.2407604 L10.6551398,6.21579725 C10.3339679,5.40171735 10.343739,4.48973177 10.6822757,3.68308298 C11.0208123,2.87643418 11.6599807,2.24215763 12.4573378,1.92160636 L16.3583588,0.326903008 C18.0208587,-0.358598503 19.9117954,0.455067711 20.5992962,2.15176973 L44.5152971,62.1767328 C44.8365554,62.9906042 44.827011,63.9024141 44.4887903,64.7090279 C44.1505695,65.5156417 43.5117692,66.150052 42.7147025,66.4709237 L38.8120781,68.0656271 C37.1495782,68.7511286 35.2586415,67.9374624 34.5711407,66.2407604 Z" id="Path" fill="#0046D3"></path>
                                <rect id="Rectangle" fill="#0046D3" x="25.5264798" y="75.0099848" width="14.6484704" height="3.19105073" rx="1.59552537"></rect>
                            </g>
                        </g>
                        <path d="M540.72449,72.7677937 L444.871287,72.7677937 C442.783346,72.7677937 440.780922,73.6182508 439.304525,75.1320741 C437.828128,76.6458974 436.998697,78.6990825 436.998697,80.8399519 L436.998697,93.4463286 C436.998697,97.9044585 440.523376,101.518487 444.871287,101.518487 L445.405213,101.518487 C445.233651,103.594889 444.531371,106.35685 442.123096,107.535615 C442.123096,107.535615 449.117035,108.638755 450.444633,101.518487 L540.72449,101.518487 C545.070263,101.515764 548.590667,97.902267 548.590667,93.4463286 L548.590667,80.8399519 C548.590667,76.3840135 545.070263,72.7705168 540.72449,72.7677937 L540.72449,72.7677937 Z" id="Path" fill="#B0D8FF"></path>
                    </g>
                </g>
            </g>
        </g>
    </g>
</svg>