<?xml version="1.0" encoding="UTF-8"?>
<svg width="168px" height="30px" viewBox="0 0 168 30" version="1.1" xmlns="http://www.w3.org/2000/svg" xmlns:xlink="http://www.w3.org/1999/xlink">
    <title>logo</title>
    <defs>
        <filter id="filter-1">
            <feColorMatrix in="SourceGraphic" type="matrix" values="0 0 0 0 0.137255 0 0 0 0 0.239216 0 0 0 0 0.388235 0 0 0 1.000000 0"></feColorMatrix>
        </filter>
        <polygon id="path-2" points="0.0406542857 0.160434783 8.76576857 0.160434783 8.76576857 5.93733913 0.0406542857 5.93733913"></polygon>
        <polygon id="path-4" points="0.0763457143 0.160434783 8.80197429 0.160434783 8.80197429 5.93731304 0.0763457143 5.93731304"></polygon>
        <polygon id="path-6" points="0 0.234488571 5.77557391 0.234488571 5.77557391 8.95960286 0 8.95960286"></polygon>
        <polygon id="path-8" points="0.0762685714 0.223173913 8.80189714 0.223173913 8.80189714 6 0.0762685714 6"></polygon>
    </defs>
    <g id="网页" stroke="none" stroke-width="1" fill="none" fill-rule="evenodd">
        <g id="首页" transform="translate(-368.000000, -6116.000000)">
            <g id="logo" transform="translate(-2.000000, 6053.000000)" filter="url(#filter-1)">
                <g transform="translate(370.000000, 63.000000)">
                    <path d="M13,8 C10.7416149,8.03696413 8.65306122,8.70056868 7,9.79593176 L8.34560781,11 C9.61960958,10.1826334 11.2005324,9.6824147 12.9161491,9.63210849 L13,8" id="Fill-1" fill="#CAD1E6"></path>
                    <path d="M5.66947757,10 C4.21220107,11.5639875 3.23664273,13.6170271 3,15.9148647 L4.96666447,16 C5.17273865,14.2622059 5.90901904,12.7058344 7,11.49762 L5.66947757,10" id="Fill-3" fill="#EFCCDC"></path>
                    <path d="M14.0862194,7 L14,8.96653491 C15.7385313,9.17338603 17.2945603,9.90961792 18.5043518,11 L20,9.67035573 C18.4371714,8.21185771 16.3850408,7.23689065 14.0862194,7" id="Fill-5" fill="#CCE1C2"></path>
                    <path d="M4,17 C4.0356674,19.2578555 4.7,21.3463519 5.79693654,23 L7,21.656311 C6.18380744,20.3805255 5.68293217,18.7990414 5.63304158,17.084147 L4,17" id="Fill-7" fill="#F5D0B7"></path>
                    <path d="M20.2039373,11 L19,12.3456352 C19.8172074,13.6194109 20.3174626,15.1995209 20.3677725,16.9153655 L22,17 C21.9634707,14.7422818 21.3000365,12.6538325 20.2039373,11" id="Fill-9" fill="#F5D0B7"></path>
                    <path d="M21.0333355,17 C20.8275249,18.7370569 20.0912445,20.293771 19,21.5023121 L20.3310495,23 C21.7891165,21.4373017 22.7628302,19.385257 23,17.0856832 L21.0333355,17" id="Fill-11" fill="#EFCCDC"></path>
                    <path d="M17.6544793,23 C16.3803079,23.8160945 14.7997071,24.3177345 13.0835959,24.3686858 L13,26 C15.2573546,25.9632626 17.3472512,25.3004592 19,24.204461 L17.6544793,23" id="Fill-13" fill="#CAD1E6"></path>
                    <path d="M8.49653266,22 L7,23.3284143 C8.56479173,24.7872719 10.6160994,25.7617761 12.9146082,26 L13,24.0309638 C11.2630649,23.8243626 9.70670353,23.0912445 8.49653266,22" id="Fill-15" fill="#CCE1C2"></path>
                    <path d="M13,4 C10.3254922,4.17502392 7.89337765,5.33744161 6,7.16196747 L7.65891076,9 C9.121708,7.63779616 10.9657377,6.76126963 12.9920736,6.59328043 L13,4" id="Fill-17" fill="#A2AFD2"></path>
                    <path d="M5.18806187,8 C3.36328103,9.88742182 2.19208219,12.3145459 2,14.990015 L4.57328717,15 C4.75364342,12.9735562 5.63699816,11.1299148 7,9.67492045 L5.18806187,8" id="Fill-19" fill="#E3A1BF"></path>
                    <path d="M15.005891,4 L15,6.57328717 C17.0270033,6.75448099 18.8703622,7.63727735 20.3249177,9 L22,7.18778268 C20.1133553,5.36300184 17.682693,4.19291976 15.005891,4" id="Fill-21" fill="#A1CA92"></path>
                    <path d="M2,17 C2.17442188,19.6720485 3.3360153,22.1057861 5.15984921,24 L7,22.3405172 C5.63754009,20.8784337 4.7598042,19.0322911 4.59297811,17.007671 L2,17" id="Fill-23" fill="#ECAA81"></path>
                    <path d="M22.8401215,8 L21,9.66077429 C22.3627925,11.1203433 23.2406616,12.9674945 23.4063344,14.9900292 L26,15 C25.8247637,12.3268079 24.6639289,9.89240321 22.8401215,8" id="Fill-25" fill="#ECAA81"></path>
                    <path d="M23.4268565,17 C23.2462312,19.0259788 22.3626466,20.8693377 21,22.3272228 L22.8143495,24 C24.6373534,22.1125869 25.8076494,19.6844859 26,17.0066593 L23.4268565,17" id="Fill-27" fill="#E3A1BF"></path>
                    <path d="M20.3400665,23 C18.8775249,24.3624346 17.0340066,25.2374416 15.0066479,25.4084491 L15,28 C17.673485,27.8264612 20.1055996,26.6623165 22,24.8391742 L20.3400665,23" id="Fill-29" fill="#A2AFD2"></path>
                    <path d="M7.67432502,23 L6,24.8152884 C7.88534426,26.6358814 10.316163,27.8065219 12.9923173,28 L13,25.4258753 C10.9715007,25.245519 9.13020414,24.3613267 7.67432502,23" id="Fill-31" fill="#A1CA92"></path>
                    <g id="编组" transform="translate(5.000000, 0.000000)">
                        <mask id="mask-3" fill="white">
                            <use xlink:href="#path-2"></use>
                        </mask>
                        <g id="Clip-34"></g>
                        <path d="M2.12042571,5.93733913 C3.93894,4.36246957 6.23934,3.34664348 8.76576857,3.14394783 L8.76576857,0.160382609 C5.43062571,0.372469565 2.39788286,1.72064348 0.0406542857,3.82638261 L2.12042571,5.93733913 Z" id="Fill-33" fill="#788FBF" mask="url(#mask-3)"></path>
                    </g>
                    <path d="M3.09891599,14 C3.30921409,11.3937108 4.36422764,9.02110165 6,7.14502962 L3.80840108,5 C1.61924119,7.43149332 0.220325203,10.5595178 0,14 L3.09891599,14 Z" id="Fill-35" fill="#D774A1"></path>
                    <g id="编组" transform="translate(15.000000, 0.000000)">
                        <mask id="mask-5" fill="white">
                            <use xlink:href="#path-4"></use>
                        </mask>
                        <g id="Clip-38"></g>
                        <path d="M0.0763457143,0.160356522 L0.0763457143,3.14392174 C2.60328857,3.34661739 4.90317429,4.36244348 6.72271714,5.93731304 L8.80197429,3.82635652 C6.44448857,1.72061739 3.41148857,0.372443478 0.0763457143,0.160356522" id="Fill-37" fill="#6EB367" mask="url(#mask-5)"></path>
                    </g>
                    <g id="编组" transform="translate(0.000000, 16.000000)">
                        <mask id="mask-7" fill="white">
                            <use xlink:href="#path-6"></use>
                        </mask>
                        <g id="Clip-40"></g>
                        <path d="M5.77557391,6.87957429 C4.20096522,5.06106 3.1854,2.76066 2.98296522,0.234488571 L-7.82608696e-05,0.234488571 C0.212008696,3.57040286 1.55861739,6.60366 3.66592174,8.95960286 L5.77557391,6.87957429 Z" id="Fill-39" fill="#E48352" mask="url(#mask-7)"></path>
                    </g>
                    <path d="M24,7.14502962 C25.6347127,9.0208364 26.69073,11.3937108 26.9010661,14 L30,14 C29.779906,10.5595178 28.3801952,7.43149332 26.1911818,5 L24,7.14502962 Z" id="Fill-41" fill="#E48352"></path>
                    <path d="M26.9009351,16 C26.6908795,18.6057587 25.6349099,20.9786331 24,22.8544399 L26.1910828,25 C28.3802683,22.5698329 29.7796449,19.4399517 30,16 L26.9009351,16 Z" id="Fill-43" fill="#D774A1"></path>
                    <g id="编组" transform="translate(15.000000, 24.000000)">
                        <mask id="mask-9" fill="white">
                            <use xlink:href="#path-8"></use>
                        </mask>
                        <g id="Clip-46"></g>
                        <path d="M6.72264,0.223173913 C4.90335429,1.7996087 2.60321143,2.81334783 0.0762685714,3.01578261 L0.0762685714,6.00013043 C3.41166857,5.78673913 6.44441143,4.44143478 8.80189714,2.33204348 L6.72264,0.223173913 Z" id="Fill-45" fill="#788FBF" mask="url(#mask-9)"></path>
                    </g>
                    <path d="M14,26.90056 C11.393976,26.6902999 9.02110165,25.6373736 7.14529486,24 L5,26.1903902 C7.43149332,28.3813223 10.5597831,29.7786308 14,30 L14,26.90056 Z" id="Fill-47" fill="#6EB367"></path>
                    <path d="M40.8601772,16.4222644 L40.8601772,23.2352715 C40.8601772,24.3615739 40.9182561,25.0642915 41.0333858,25.3444807 C41.1510855,25.6265185 41.3774903,25.871849 41.7195388,26.0828492 C42.0567045,26.2956979 42.5164527,26.3994814 43.0939005,26.3994814 L43.7782545,26.3994814 L43.7782545,27 L33,27 L33,26.3994814 L33.684354,26.3994814 C34.2823607,26.3994814 34.7647236,26.2867192 35.1293869,26.059082 C35.3935686,25.9069717 35.5950458,25.6473808 35.7361311,25.2792529 C35.8479201,25.0209824 35.9036861,24.3391271 35.9036861,23.2352715 L35.9036861,8.76393624 C35.9036861,7.64001056 35.8479201,6.93676478 35.7361311,6.65419888 C35.6261411,6.37506602 35.3999933,6.12735872 35.0612856,5.91715081 C34.720265,5.70720699 34.2620588,5.60025448 33.684354,5.60025448 L33,5.60025448 L33,5 L43.7782545,5 L43.7782545,5.60025448 L43.0939005,5.60025448 C42.4956368,5.60025448 42.0148158,5.713809 41.6509235,5.94171028 C41.3857138,6.09355644 41.178326,6.35050655 41.0261902,6.72153935 C40.9159432,6.97875354 40.8601772,7.66060883 40.8601772,8.76393624 L40.8601772,14.9954386 L48.1400798,14.9954386 L48.1400798,8.76393624 C48.1400798,7.64001056 48.0843138,6.93676478 47.9722678,6.65419888 C47.8609929,6.37506602 47.6327892,6.12735872 47.2889418,5.91715081 C46.9450944,5.70720699 46.4832903,5.60025448 45.9063565,5.60025448 L45.2371647,5.60025448 L45.2371647,5 L56,5 L56,5.60025448 L55.3300372,5.60025448 C54.7214941,5.60025448 54.2401591,5.713809 53.8868032,5.94171028 C53.6221075,6.09355644 53.4144627,6.35050655 53.2625839,6.72153935 C53.1515659,6.97875354 53.094772,7.66060883 53.094772,8.76393624 L53.094772,23.2352715 C53.094772,24.3615739 53.1515659,25.0642915 53.2625839,25.3444807 C53.373345,25.6265185 53.6020626,25.871849 53.94591,26.0828492 C54.2910424,26.2956979 54.7528464,26.3994814 55.3300372,26.3994814 L56,26.3994814 L56,27 L45.2371647,27 L45.2371647,26.3994814 L45.9063565,26.3994814 C46.5133577,26.3994814 46.9931508,26.2867192 47.3495905,26.059082 C47.6130013,25.9069717 47.82116,25.6473808 47.9722678,25.2792529 C48.0843138,25.0209824 48.1400798,24.3391271 48.1400798,23.2352715 L48.1400798,16.4222644 L40.8601772,16.4222644 Z" id="Fill-49" fill="#CB4048"></path>
                    <path d="M66.6862693,22.785531 L66.6862693,18.2963058 C65.4275818,18.9758851 64.4933173,19.702668 63.8803132,20.4774243 C63.4747186,20.9930734 63.2725801,21.5146229 63.2725801,22.039764 C63.2725801,22.4802463 63.4430933,22.8673679 63.786755,23.2031811 C64.0460826,23.460236 64.4103008,23.5900462 64.878619,23.5900462 C65.3978013,23.5900462 66,23.32196 66.6862693,22.785531 M66.6862693,23.8335044 C64.9091902,25.2765521 63.3139566,26 61.900305,26 C61.0685592,26 60.377546,25.7478194 59.827002,25.2455105 C59.2759309,24.7447409 59,24.1157004 59,23.3604413 C59,22.3358132 59.4791235,21.417137 60.4355258,20.5995382 C61.3916645,19.7801437 63.4747186,18.693176 66.6862693,17.3368394 L66.6862693,15.9879425 C66.6862693,14.9746024 66.6264448,14.3353002 66.5065321,14.0731144 C66.3874101,13.8088763 66.1599714,13.5797845 65.827642,13.3842996 C65.4958398,13.1893279 65.1231881,13.0887635 64.7054704,13.0887635 C64.030797,13.0887635 63.4747186,13.2293484 63.0380257,13.5053874 C62.7673657,13.67804 62.6342758,13.8799384 62.6342758,14.1080041 C62.6342758,14.3075936 62.7784345,14.5569523 63.0701781,14.8553104 C63.4644403,15.2662904 63.6613079,15.6621344 63.6613079,16.045921 C63.6613079,16.5138533 63.4723467,16.9122627 63.0931064,17.2421755 C62.7130756,17.5723448 62.2176123,17.7378143 61.6032905,17.7378143 C60.9491736,17.7378143 60.401265,17.5561827 59.9603554,17.193176 C59.5181281,16.8301693 59.2970144,16.4037968 59.2970144,15.9153412 C59.2970144,15.2275526 59.5929747,14.570549 60.1862129,13.9438173 C60.7783969,13.3178553 61.6032905,12.8360698 62.6640563,12.5020523 C63.7245586,12.1677783 64.8251195,12 65.9694289,12 C67.3522458,12 68.4446369,12.2693689 69.2502918,12.8093894 C70.0554196,13.3512057 70.5775008,13.9366342 70.8167991,14.5669574 C70.9622755,14.969215 71.0355408,15.8914828 71.0355408,17.3368394 L71.0355408,22.5428425 C71.0355408,23.1541816 71.0611046,23.5392509 71.1135499,23.6983068 C71.1646775,23.8547973 71.2424231,23.9717804 71.3465231,24.0479733 C71.4516773,24.1262186 71.5710628,24.1631606 71.7054704,24.1631606 C71.9750762,24.1631606 72.2510071,23.9853771 72.5311547,23.6328887 L73,23.9774243 C72.4797636,24.6847101 71.9426603,25.1977937 71.3852641,25.518471 C70.8289221,25.8373525 70.1985242,26 69.4916984,26 C68.6604797,26 68.0113701,25.819138 67.5427883,25.4612622 C67.0757878,25.1044125 66.7906329,24.5608004 66.6862693,23.8335044" id="Fill-51" fill="#CB4048"></path>
                    <path d="M84.0052852,12.0311327 L84.2377271,16.8583237 L83.7092109,16.8583237 C83.0757803,15.4259493 82.4210512,14.4470293 81.7416055,13.921293 C81.0621598,13.3969102 80.3856065,13.1337713 79.7116826,13.1337713 C79.2857143,13.1337713 78.9236412,13.2742745 78.6223081,13.5504079 C78.3228156,13.828707 78.172149,14.1484262 78.172149,14.5120019 C78.172149,14.7848867 78.2762746,15.0480256 78.4829481,15.2987114 C78.8145197,15.7123701 79.7432358,16.4219246 81.2680445,17.4249386 C82.7923273,18.431472 83.7944046,19.2845077 84.2771686,19.9845871 C84.7594068,20.684125 85,21.4708345 85,22.3368647 C85,23.1251985 84.7985854,23.8983721 84.3931267,24.6534075 C83.9892456,25.4114207 83.4189214,25.990218 82.682417,26.3946722 C81.9464384,26.7972314 81.1328916,27 80.2415135,27 C79.5465541,27 78.6170492,26.7874856 77.456943,26.3632688 C77.145618,26.2517326 76.9328968,26.1981302 76.8179906,26.1981302 C76.476953,26.1981302 76.1906077,26.4501697 75.9636875,26.9528949 L75.450685,26.9528949 L75.2014146,21.8679794 L75.7299308,21.8679794 C76.1956036,23.2004584 76.8366596,24.2007652 77.6525729,24.8653805 C78.464805,25.53162 79.2344403,25.8648751 79.9609529,25.8648751 C80.4581789,25.8648751 80.8657411,25.7138139 81.1823249,25.4168351 C81.497857,25.1198563 81.655623,24.7595293 81.655623,24.3366662 C81.655623,23.8515377 81.5010123,23.4335475 81.1894244,23.0783641 C80.8786253,22.7261587 80.1839289,22.19203 79.1053351,21.4743539 C77.5192606,20.4055552 76.4924667,19.5890666 76.026531,19.0221809 C75.3415635,18.1956757 75,17.2811868 75,16.2827751 C75,15.1939431 75.3867897,14.2069015 76.1580027,13.3232746 C76.9294786,12.4407306 78.0485656,12 79.510005,12 C80.2977834,12 81.0590045,12.1876083 81.7960348,12.5603884 C82.0763325,12.7111789 82.3032526,12.7861681 82.4815282,12.7861681 C82.6676921,12.7861681 82.8173069,12.7498917 82.9308985,12.6732782 C83.0450159,12.5985598 83.2272357,12.3833381 83.4757172,12.0311327 L84.0052852,12.0311327 Z" id="Fill-53" fill="#CB4048"></path>
                    <path d="M92.6590555,5 L92.6590555,13.77618 C93.4206438,12.9015461 94.1179503,12.2817497 94.7519795,11.9207519 C95.3847532,11.5568493 96.0433902,11.3764825 96.7278906,11.3764825 C97.5982055,11.3764825 98.3442255,11.6458443 98.9626864,12.1856244 C99.5816496,12.7275172 99.9921991,13.3631584 100.19534,14.0936045 C100.397727,14.8232583 100.499674,16.0528161 100.499674,17.7849186 L100.499674,23.7055985 C100.499674,24.8635905 100.598105,25.5853219 100.79773,25.871849 C100.994844,26.1599606 101.396354,26.3400634 102,26.4161185 L102,27 L94.9606442,27 L94.9606442,26.4161185 C95.4555636,26.3400634 95.8266903,26.1240457 96.0740245,25.7672733 C96.2518037,25.4849714 96.3416978,24.7991549 96.3416978,23.7055985 L96.3416978,16.9411821 C96.3416978,15.6857445 96.2959975,14.9001056 96.2071078,14.5813607 C96.1182182,14.2615595 95.9683111,14.0133241 95.7556288,13.8332213 C95.5419422,13.6544389 95.3008855,13.5662361 95.0344678,13.5662361 C94.6377287,13.5662361 94.2525403,13.7159697 93.8758893,14.0133241 C93.4989872,14.3101503 93.0934597,14.8319729 92.6590555,15.5774716 L92.6590555,23.7055985 C92.6590555,24.7883277 92.7316236,25.4635809 92.8810285,25.7347914 C93.0688518,26.1034474 93.4545424,26.3300283 94.0393558,26.4161185 L94.0393558,27 L87,27 L87,26.4161185 C87.583809,26.3516829 87.9986273,26.1451721 88.2474681,25.799491 C88.4157055,25.562347 88.499322,24.8635905 88.499322,23.7055985 L88.499322,8.2930811 C88.499322,7.1453882 88.4031505,6.43210736 88.2090497,6.15218226 C88.0169577,5.86935228 87.6131878,5.68581649 87,5.5999904 L87,5 L92.6590555,5 Z" id="Fill-55" fill="#CB4048"></path>
                    <path d="M111.947386,6.24962789 L111.947386,23.4135257 C111.947386,24.3235464 111.987933,24.8804917 112.069805,25.085418 C112.151938,25.2906083 112.289952,25.447472 112.484628,25.5568013 C112.763256,25.7192106 113.161704,25.799491 113.68543,25.799491 C115.396443,25.799491 116.70329,25.1823354 117.604151,23.9485524 C118.835363,22.282998 119.44902,19.6984443 119.44902,16.1943631 C119.44902,13.3724012 119.029519,11.1166275 118.188957,9.42836222 C117.523578,8.10980938 116.667422,7.21061603 115.621528,6.73632784 C114.884673,6.40120997 113.659179,6.2388006 111.947386,6.24962789 L111.947386,6.24962789 Z M104,27 L104,26.3994814 L104.691111,26.3994814 C105.295671,26.3994814 105.760137,26.299395 106.083469,26.1002785 C106.405763,25.8998416 106.642544,25.6265185 106.797453,25.2792529 C106.889982,25.0542565 106.936247,24.371609 106.936247,23.2352715 L106.936247,8.76393624 C106.936247,7.64001056 106.879586,6.93676478 106.767043,6.65419888 C106.65372,6.37506602 106.425776,6.12735872 106.083469,5.91715081 C105.738564,5.70720699 105.274618,5.60025448 104.691111,5.60025448 L104,5.60025448 L104,5 L113.331427,5 C115.822442,5 117.825078,5.3575647 119.342455,6.07084554 C121.19694,6.94600759 122.603854,8.27169059 123.562416,10.0449897 C124.521239,11.819081 125,13.8258271 125,16.065756 C125,17.6111538 124.762699,19.0371873 124.291735,20.3380468 C123.821551,21.6426034 123.210493,22.7197868 122.462201,23.5685408 C121.714689,24.4180871 120.851515,25.0991501 119.873199,25.6133144 C118.893324,26.1272147 117.696421,26.5243914 116.282229,26.805901 C115.657396,26.9358285 114.673882,27 113.331427,27 L104,27 Z" id="Fill-57" fill="#CB4048"></path>
                    <path d="M134.685768,22.785531 L134.685768,18.2963058 C133.429405,18.9758851 132.493261,19.702668 131.879706,20.4774243 C131.474887,20.9930734 131.272214,21.5146229 131.272214,22.039764 C131.272214,22.4802463 131.443261,22.8673679 131.786408,23.2031811 C132.045745,23.460236 132.409187,23.5900462 132.877259,23.5900462 C133.396461,23.5900462 134.000264,23.32196 134.685768,22.785531 M134.685768,23.8335044 C132.908095,25.2765521 131.313855,26 129.900678,26 C129.067846,26 128.378125,25.7478194 127.826242,25.2455105 C127.276205,24.7447409 127,24.1157004 127,23.3604413 C127,22.3358132 127.479142,21.417137 128.43637,20.5995382 C129.390437,19.7801437 131.474887,18.693176 134.685768,17.3368394 L134.685768,15.9879425 C134.685768,14.9746024 134.625414,14.3353002 134.506815,14.0731144 C134.386898,13.8088763 134.161032,13.5797845 133.827636,13.3842996 C133.495557,13.1893279 133.122101,13.0887635 132.705685,13.0887635 C132.030459,13.0887635 131.474887,13.2293484 131.037387,13.5053874 C130.765926,13.67804 130.632831,13.8799384 130.632831,14.1080041 C130.632831,14.3075936 130.776995,14.5569523 131.069014,14.8553104 C131.464608,15.2662904 131.661483,15.6621344 131.661483,16.045921 C131.661483,16.5138533 131.471197,16.9122627 131.092997,17.2421755 C130.713215,17.5723448 130.217206,17.7378143 129.604443,17.7378143 C128.948193,17.7378143 128.401318,17.5561827 127.959337,17.193176 C127.518675,16.8301693 127.295971,16.4037968 127.295971,15.9153412 C127.295971,15.2275526 127.591679,14.570549 128.184676,13.9438173 C128.776883,13.3178553 129.604443,12.8360698 130.663667,12.5020523 C131.723682,12.1677783 132.824812,12 133.968901,12 C135.350188,12 136.44552,12.2693689 137.249887,12.8093894 C138.056627,13.3512057 138.578464,13.9366342 138.81619,14.5669574 C138.962199,14.969215 139.034413,15.8914828 139.034413,17.3368394 L139.034413,22.5428425 C139.034413,23.1541816 139.061032,23.5392509 139.113215,23.6983068 C139.165136,23.8547973 139.241566,23.9717804 139.346988,24.0479733 C139.449774,24.1262186 139.570218,24.1631606 139.704895,24.1631606 C139.975301,24.1631606 140.250715,23.9853771 140.531137,23.6328887 L141,23.9774243 C140.480008,24.6847101 139.940512,25.1977937 139.38573,25.518471 C138.830158,25.8373525 138.198682,26 137.491303,26 C136.660053,26 136.009864,25.819138 135.543373,25.4612622 C135.075565,25.1044125 134.789081,24.5608004 134.685768,23.8335044" id="Fill-59" fill="#CB4048"></path>
                    <path d="M148.797627,6 L148.797627,11.5686816 L152,11.5686816 L152,13.1791135 L148.797627,13.1791135 L148.797627,22.5706499 C148.797627,23.4497899 148.8342,24.0181309 148.905884,24.2724933 C148.977812,24.5281805 149.105088,24.7329952 149.287955,24.8911768 C149.471798,25.0480336 149.637841,25.1261971 149.792669,25.1261971 C150.418075,25.1261971 151.00764,24.5896514 151.566239,23.5149703 L152,23.8731973 C151.220985,25.9576441 149.955787,27 148.206843,27 C147.351024,27 146.627113,26.7302699 146.035354,26.1921344 C145.445059,25.6566486 145.067376,25.0578372 144.904746,24.3943753 C144.806973,24.0247549 144.759428,23.0266475 144.759428,21.3995231 L144.759428,13.1791135 L143,13.1791135 L143,12.6091828 C144.211313,11.6434006 145.242441,10.6280707 146.094116,9.56478292 C146.944327,8.50149514 147.685793,7.31235096 148.322172,6 L148.797627,6 Z" id="Fill-61" fill="#CB4048"></path>
                    <path d="M161.686822,22.785531 L161.686822,18.2963058 C160.429405,18.9758851 159.494051,19.702668 158.87997,20.4774243 C158.475414,20.9930734 158.272214,21.5146229 158.272214,22.039764 C158.272214,22.4802463 158.443788,22.8673679 158.787199,23.2031811 C159.046536,23.460236 159.40866,23.5900462 159.878313,23.5900462 C160.395934,23.5900462 161,23.32196 161.686822,22.785531 M161.686822,23.8335044 C159.909149,25.2765521 158.314119,26 156.900941,26 C156.069164,26 155.378125,25.7478194 154.827824,25.2455105 C154.276732,24.7447409 154,24.1157004 154,23.3604413 C154,22.3358132 154.478614,21.417137 155.435053,20.5995382 C156.390964,19.7801437 158.475414,18.693176 161.686822,17.3368394 L161.686822,15.9879425 C161.686822,14.9746024 161.626732,14.3353002 161.506815,14.0731144 C161.387161,13.8088763 161.162877,13.5797845 160.829217,13.3842996 C160.497139,13.1893279 160.121837,13.0887635 159.706212,13.0887635 C159.030723,13.0887635 158.475414,13.2293484 158.037651,13.5053874 C157.767771,13.67804 157.634149,13.8799384 157.634149,14.1080041 C157.634149,14.3075936 157.779367,14.5569523 158.070068,14.8553104 C158.464345,15.2662904 158.661483,15.6621344 158.661483,16.045921 C158.661483,16.5138533 158.472779,16.9122627 158.093261,17.2421755 C157.712688,17.5723448 157.217206,17.7378143 156.604706,17.7378143 C155.950828,17.7378143 155.401581,17.5561827 154.959337,17.193176 C154.518411,16.8301693 154.297816,16.4037968 154.297816,15.9153412 C154.297816,15.2275526 154.594051,14.570549 155.185994,13.9438173 C155.778991,13.3178553 156.604706,12.8360698 157.664458,12.5020523 C158.725,12.1677783 159.825339,12 160.969428,12 C162.351242,12 163.444729,12.2693689 164.251205,12.8093894 C165.055836,13.3512057 165.5782,13.9366342 165.818562,14.5669574 C165.962989,14.969215 166.03494,15.8914828 166.03494,17.3368394 L166.03494,22.5428425 C166.03494,23.1541816 166.061032,23.5392509 166.114797,23.6983068 C166.165926,23.8547973 166.242884,23.9717804 166.347515,24.0479733 C166.451355,24.1262186 166.569691,24.1631606 166.704895,24.1631606 C166.975565,24.1631606 167.250715,23.9853771 167.532455,23.6328887 L168,23.9774243 C167.480008,24.6847101 166.942093,25.1977937 166.386521,25.518471 C165.830422,25.8373525 165.198946,26 164.492093,26 C163.66058,26 163.010128,25.819138 162.544955,25.4612622 C162.076092,25.1044125 161.789345,24.5608004 161.686822,23.8335044" id="Fill-63" fill="#CB4048"></path>
                </g>
            </g>
        </g>
    </g>
</svg>