<?xml version="1.0" encoding="UTF-8"?>
<svg width="56px" height="56px" viewBox="0 0 56 56" version="1.1" xmlns="http://www.w3.org/2000/svg" xmlns:xlink="http://www.w3.org/1999/xlink">
    <title>icon/home/desktop</title>
    <g id="网页" stroke="none" stroke-width="1" fill="none" fill-rule="evenodd">
        <g id="产品介绍" transform="translate(-931.000000, -2451.000000)" fill="#459EFF">
            <g id="产品功能" transform="translate(0.000000, 2060.000000)">
                <g id="Icon" transform="translate(462.000000, 380.000000)">
                    <g id="编组-3" transform="translate(10.000000, 11.000000)">
                        <g id="alidfswenjiancunchuHDFS" transform="translate(459.000000, 0.000000)">
                            <path d="M41.9874884,8.18083205 L33.7525547,0.0874083205 L41.9874884,0.0874083205 L41.9874884,8.18083205 Z M38.4531895,48.9667797 L38.4531895,52.5011649 L3.53438521,52.5011649 L3.53438521,3.58641602 L26.5071556,3.58641602 L38.4531895,15.5323636 L38.4531895,20.9752357 L41.9874884,20.9752357 L41.9874884,14.0479753 L27.9915439,0.0520308166 L0,0.0520308166 L0,56.0001726 L41.9874884,56.0001726 L41.9874884,48.9314022 L38.4531895,48.9314022 L38.4531895,48.9667797 Z" id="Fill-1"></path>
                            <path d="M49.4802712,36.1373436 C46.4053621,36.1373436 43.7547242,38.3285917 43.1537381,41.4386194 L30.3243883,41.4386194 L27.0727643,38.6463852 C27.4967766,37.7629831 27.8149153,36.7379846 27.9561664,35.5363575 C27.9561664,34.1932203 27.5321541,32.7442096 26.6133744,31.7192111 L30.2889245,28.043661 L43.2599569,28.043661 C44.284869,31.4367951 47.8189954,33.4864468 51.2121294,32.4614484 C54.6049183,31.4367951 56.6549153,27.9024099 55.6299168,24.5092758 C54.6049183,21.1164006 51.0705331,19.0664037 47.6777442,20.0914022 C45.4864961,20.6923883 43.8605116,22.459624 43.2599569,24.5092758 L28.9811649,24.5092758 L23.8211402,29.6695593 C23.0789892,29.3867982 22.3367519,29.2101695 21.4533498,29.2101695 C17.9189646,29.0685732 14.9855655,31.8608074 14.8085917,35.3951926 C14.6673405,38.9292327 17.3179784,41.8629769 20.8523636,42.0396055 L21.4533498,42.0396055 C22.6195994,42.0396055 23.6445116,41.7567581 24.7046287,41.155772 L29.1227612,44.9730046 L43.542718,44.9730046 C44.88551,48.2245424 48.5611464,49.8501818 51.7773066,48.6485547 C55.0289307,47.3057627 56.6549153,43.6297812 55.4532881,40.413621 C54.4987858,37.7629831 52.1309091,36.1373436 49.4802712,36.1373436 Z M49.4802712,23.3430262 C51.1059106,23.3430262 52.4137565,24.6861633 52.4137565,26.2764253 C52.4137565,27.8670324 51.0705331,29.2101695 49.4802712,29.2101695 C47.8543729,29.2101695 46.546527,27.8670324 46.546527,26.2764253 C46.546527,24.6861633 47.8543729,23.3430262 49.4802712,23.3430262 Z M21.5237596,38.5052203 C19.8981202,38.5052203 18.5903606,37.1973744 18.5903606,35.5718213 C18.5903606,33.9458367 19.933584,32.6384222 21.5237596,32.6384222 C23.1143667,32.6384222 24.4571587,33.9812142 24.4571587,35.5718213 C24.4571587,37.1619969 23.1143667,38.5052203 21.5237596,38.5052203 Z M49.4802712,45.5739908 C47.8543729,45.5739908 46.546527,44.2307673 46.546527,42.6402465 C46.546527,41.0146071 47.8897504,39.7068475 49.4802712,39.7068475 C51.1059106,39.7068475 52.4137565,41.0499846 52.4137565,42.6402465 C52.4491341,44.2307673 51.1059106,45.5739908 49.4802712,45.5739908 Z" id="Fill-3"></path>
                        </g>
                    </g>
                </g>
            </g>
        </g>
    </g>
</svg>