<?xml version="1.0" encoding="UTF-8"?>
<svg width="56px" height="48px" viewBox="0 0 56 48" version="1.1" xmlns="http://www.w3.org/2000/svg" xmlns:xlink="http://www.w3.org/1999/xlink">
    <title>icon/home/desktop</title>
    <g id="网页" stroke="none" stroke-width="1" fill="none" fill-rule="evenodd">
        <g id="产品介绍" transform="translate(-931.000000, -2915.000000)" fill="#459EFF">
            <g id="产品功能" transform="translate(0.000000, 2060.000000)">
                <g id="Icon" transform="translate(462.000000, 380.000000)">
                    <g id="编组-3" transform="translate(10.000000, 11.000000)">
                        <g id="rosziyuanbianpaiROS" transform="translate(459.000000, 460.000000)">
                            <path d="M12.7832454,33.8129122 L21.6330944,35 L20.4553819,26.6564354 L17.897784,29.030611 C16.5182272,27.5382224 14.5664907,24.5876434 14.5664907,19.4999586 C14.5664907,12.5809656 20.5561808,7.59521336 26.9494773,7.59521336 C33.3427738,7.59521336 39.3323818,13.7000708 39.3323818,17.7022691 C39.3323818,17.7022691 39.7360703,17.3293169 39.3323818,18.7198558 C39.3323818,18.7198558 40.3416032,18.482372 43,18.9912067 C43,18.9912067 42.8655193,18.448422 42.8655193,17.7022691 C42.8655193,15.0230411 39.5005442,4 26.9157955,4 C16.4845454,4.06789983 11,12.4454144 11,19.5339913 C11,25.4693476 13.2880614,29.3359947 15.2397979,31.5403379 L12.7832454,33.8129122 Z M35,42.2281786 L33.2434181,33.1977274 L25.1690138,37.3762021 L28.2095658,38.8922597 C27.2974167,40.8804348 23.3109812,48.4619565 15.979889,48.4619565 C7.53374621,48.4619565 3.54731067,41.0488308 3.54731067,35.4554841 C3.54731067,29.8621375 6.92578427,26.2228261 10.0338876,24.9422926 L9.45949513,23.089114 L9.15530796,21 C9.15530796,21 0,24.908564 0,35.4554841 C0,46.0020752 7.33109223,52 16.0137059,52 C24.155414,52 29.9325783,45.6652832 31.6891602,40.5771246 L35,42.2281786 Z M39.7130803,19.8020988 C36.5863588,19.8020988 34.3184728,20.3461067 32.6692537,21.0601068 L31.1232156,18 L27,26.1596206 L36.2085316,28.0635653 L34.3184728,24.3238222 C35.6242584,23.8138459 37.3767425,23.4059645 39.7130803,23.4059645 C47.0663662,23.4059645 52.3577927,29.1176325 52.3577927,35.9171504 C52.3577927,43.2610912 45.726103,48.4286683 39.7130803,48.4286683 C33.7001415,48.4286683 31.2605387,44.8589173 31.2605387,44.8589173 L28.8553296,47.8506288 C32.9097578,52.2024431 39.7130803,51.9985023 39.7130803,51.9985023 C49.9869773,51.9985023 56,43.8387987 56,35.8831188 C55.9656063,27.9617195 50.1243003,19.8020988 39.7130803,19.8020988 Z"></path>
                        </g>
                    </g>
                </g>
            </g>
        </g>
    </g>
</svg>