<?xml version="1.0" encoding="UTF-8"?>
<svg width="56px" height="56px" viewBox="0 0 56 56" version="1.1" xmlns="http://www.w3.org/2000/svg" xmlns:xlink="http://www.w3.org/1999/xlink">
    <title>icon/home/desktop</title>
    <g id="网页" stroke="none" stroke-width="1" fill="none" fill-rule="evenodd">
        <g id="产品介绍" transform="translate(-472.000000, -2451.000000)" fill="#459EFF">
            <g id="产品功能" transform="translate(0.000000, 2060.000000)">
                <g id="Icon" transform="translate(462.000000, 380.000000)">
                    <g id="dbesshujukuzhuanjiafuwu" transform="translate(10.000000, 11.000000)">
                        <path d="M27.9561664,20.9398582 C30.3243883,20.9398582 32.2327889,19.0311125 32.2327889,16.6632357 C32.2327889,14.2951002 30.3243883,12.3866995 27.9561664,12.3866995 C25.588376,12.3866995 23.6799753,14.2951002 23.6799753,16.6632357 C23.538379,18.8898613 25.4467797,20.9398582 27.9561664,20.9398582 Z" id="Fill-1"></path>
                        <path d="M17.2121911,23.3076487 L14.2433282,26.2410478 L18.2017257,30.1994453 L21.1351248,27.2660462 C22.3013744,28.0082835 23.6445116,28.5738921 25.0935223,28.8920308 L25.0935223,33.027057 L30.6775593,33.027057 L30.6775593,28.8920308 C32.1619476,28.6092696 33.4697935,28.0082835 34.6359569,27.2660462 L37.5697011,30.1994453 L41.6693498,26.2410478 L38.7359507,23.3076487 C39.4781017,22.1414854 40.0790878,20.7982619 40.3615901,19.3492512 L44.4969615,19.3492512 L44.4969615,13.7298367 L40.3264715,13.7298367 C40.0437103,12.2454484 39.4427242,10.9376888 38.7005732,9.77143914 L41.6339723,6.83804006 L37.6755747,2.87929738 L34.7421757,5.8130416 C33.575926,5.0708906 32.2327889,4.46990447 30.7837781,4.1871433 L30.7837781,0.0167395994 L25.1643636,0.0167395994 L25.1643636,4.15167951 C23.6799753,4.43452696 22.3721294,5.0355131 21.2059661,5.7776641 L18.2722219,2.84426502 L14.2433282,6.80266256 L17.1767273,9.73606163 C16.4345763,10.9023112 15.8335901,12.2454484 15.550829,13.6944592 L11.4511803,13.6944592 L11.4511803,19.2784961 L15.5862065,19.2784961 C15.8689676,20.7982619 16.3283575,22.1061079 17.2121911,23.3076487 Z M27.9561664,8.28705085 C32.5155501,8.28705085 36.3326965,11.9626872 36.3326965,16.6632357 C36.3326965,21.2226194 32.6568012,25.0748844 27.9211341,25.0748844 C23.1851217,25.0748844 19.544604,21.3638706 19.544604,16.6632357 C19.544604,11.9626872 23.2556179,8.28705085 27.9561664,8.28705085 Z" id="Fill-2"></path>
                        <path d="M55.9480555,40.5198398 C55.8065455,39.7776025 55.6652943,39.4948413 55.6652943,39.4948413 L48.8793713,21.2226194 C48.5965239,20.3388721 47.8543729,19.8794823 46.6881233,19.8794823 L44.6381263,19.8794823 L45.9813498,23.4138675 L51.2825393,37.9750755 L4.38240986,37.9750755 L9.68394453,23.4138675 L11.027168,19.8794823 L9.11842219,19.8794823 C7.95217257,19.8794823 7.35118644,20.3034946 6.92717411,21.2226194 L0.141251156,39.4948413 C0.141251156,39.6360924 0,39.9542311 0,40.0958274 L0,53.8086656 C0,54.9751741 0.883402157,55.9998274 2.19124807,55.9998274 L53.5799199,55.9998274 C54.7461695,55.9998274 55.771168,54.9751741 55.771168,53.8086656 C55.9480555,53.7732881 55.8065455,41.262077 55.9480555,40.5198398 Z M26.931168,50.6986379 C25.0227673,50.6986379 23.3971279,49.0726533 23.3971279,47.1642527 C23.3971279,45.2558521 25.0227673,43.6298675 26.931168,43.6298675 C28.8399137,43.6298675 30.4655532,45.2558521 30.4655532,47.1642527 C30.4655532,49.0726533 28.8399137,50.6986379 26.931168,50.6986379 Z M36.9333374,50.6986379 C35.0249368,50.6986379 33.3989522,49.0726533 33.3989522,47.1642527 C33.3989522,45.2558521 35.0249368,43.6298675 36.9333374,43.6298675 C38.8420832,43.6298675 40.4677227,45.2558521 40.4677227,47.1642527 C40.4677227,49.0726533 38.9833344,50.6986379 36.9333374,50.6986379 Z M47.1121356,50.6986379 C45.203735,50.6986379 43.5777504,49.0726533 43.5777504,47.1642527 C43.5777504,45.2558521 45.203735,43.6298675 47.1121356,43.6298675 C49.0205362,43.6298675 50.6465208,45.2558521 50.6465208,47.1642527 C50.6465208,49.0726533 49.0205362,50.6986379 47.1121356,50.6986379 Z" id="Fill-3"></path>
                    </g>
                </g>
            </g>
        </g>
    </g>
</svg>